<svg xmlns="http://www.w3.org/2000/svg" width="655.359" height="655.359" fill-rule="evenodd" clip-rule="evenodd" image-rendering="optimizeQuality" shape-rendering="geometricPrecision" text-rendering="geometricPrecision" viewBox="0 0 6.827 6.827"><path fill="#373435" fill-rule="nonzero" d="M2.127 2.455h2.635v2.689H2.074V2.455h.053zm2.529.107H2.18v2.475h2.475V2.562zM2.182 2.29h2.472a1.134 1.134 0 0 0-.332-.75 1.134 1.134 0 0 0-.804-.334h-.2c-.313 0-.597.128-.803.334a1.13 1.13 0 0 0-.333.75zm2.527.107H2.074v-.054c0-.342.14-.653.365-.878a1.24 1.24 0 0 1 .879-.366h.2c.343 0 .654.14.879.366.225.225.365.536.365.878v.054H4.71z"/><path fill="#373435" fill-rule="nonzero" d="M2.565 5.037h.387v.723a.213.213 0 0 1-.213.214h-.014a.213.213 0 0 1-.214-.214v-.723h.054zm.28.107h-.227v.615a.107.107 0 0 0 .107.108h.014a.107.107 0 0 0 .107-.108v-.615zm1.092-.107h.388v.723a.213.213 0 0 1-.214.214h-.013a.213.213 0 0 1-.214-.214v-.723h.053zm.281.107h-.227v.615a.107.107 0 0 0 .107.108h.013a.107.107 0 0 0 .107-.108v-.615zm-2.413-2.67a.2.2 0 0 1 .2.2v1.51a.2.2 0 0 1-.341.14.2.2 0 0 1-.06-.14v-1.51a.2.2 0 0 1 .201-.2zm.066.134a.094.094 0 0 0-.16.067v1.508a.094.094 0 0 0 .16.066.094.094 0 0 0 .028-.066V2.675c0-.026-.01-.05-.028-.067zm3.165-.134a.2.2 0 0 1 .201.2v1.51a.2.2 0 0 1-.2.2.2.2 0 0 1-.201-.2v-1.51a.2.2 0 0 1 .2-.2zm0 .107a.094.094 0 0 0-.093.094v1.508a.094.094 0 0 0 .093.094.094.094 0 0 0 .094-.094V2.675a.094.094 0 0 0-.094-.094zM2.811 1.513a.18.18 0 0 1 .128.308.18.18 0 0 1-.308-.127.18.18 0 0 1 .18-.18zm.053.129a.074.074 0 0 0-.126.052.074.074 0 0 0 .126.052.074.074 0 0 0 0-.104zm1.161-.129a.18.18 0 0 1 .128.308.18.18 0 0 1-.308-.127.18.18 0 0 1 .18-.18zm.052.129a.074.074 0 0 0-.126.052.074.074 0 0 0 .126.052.074.074 0 0 0 0-.104zm-1.46-.264a.053.053 0 0 0 .076-.075L2.259.869a.053.053 0 0 0-.076.075l.434.434zm1.517-.075a.053.053 0 0 0 .075.075l.434-.434A.053.053 0 0 0 4.568.87l-.434.434z"/></svg>