<svg width="20" height="20" viewBox="0 0 20 20" fill="none" xmlns="http://www.w3.org/2000/svg">
<path d="M9.75154 4.68009C9.77583 3.9264 9.98344 2.81612 10.7059 2.08672C11.3766 1.40965 12.193 1.07966 12.7016 0.928806C12.8979 0.870566 13.0862 1.0186 13.0766 1.22314C13.0425 1.94464 12.8528 3.0208 12.3633 3.59732C11.9019 4.14079 11.1596 4.86146 10.0723 4.98272C9.89437 5.00257 9.74578 4.85905 9.75154 4.68009Z" fill="#F9F9F9"/>
<path d="M11.6132 18.475C12.1353 18.675 12.6632 18.8772 13.1409 18.8772C14.1629 18.8772 17.1389 16.5192 17.2461 14.0702C17.2516 13.9445 17.1764 13.8321 17.0666 13.7707C16.3096 13.3471 15.0735 12.2923 15.0304 10.7579C14.9803 8.96969 15.8781 7.54938 16.5576 6.96185C16.7106 6.82963 16.7631 6.59648 16.6266 6.44737C16.0083 5.7722 14.7646 4.84349 13.6297 4.86629C12.8041 4.88287 12.0602 5.19042 11.4219 5.45432C10.9322 5.65679 10.5046 5.83357 10.1499 5.83357C9.81389 5.83357 9.41054 5.65792 8.94761 5.45632C8.32419 5.18484 7.5927 4.86629 6.77213 4.86629C5.25218 4.86629 2.24903 6.12668 2.24902 10.9924C2.24902 13.5718 4.91182 18.9456 7.15878 18.8772C7.64398 18.8772 8.16251 18.6763 8.67705 18.4769C9.18373 18.2806 9.68655 18.0858 10.1499 18.0858C10.5972 18.0858 11.1025 18.2793 11.6132 18.475Z" fill="#F9F9F9"/>
</svg>
