<svg width="293" height="343" viewBox="0 0 293 343" fill="none" xmlns="http://www.w3.org/2000/svg">
<path d="M77.3818 230.42C81.7204 220.543 84.4595 209.145 84.7179 195.928C85.9715 131.283 159.066 81.3975 240.149 136.23C321.233 191.062 249.571 341.908 249.571 341.908" stroke="#CCDDE2" stroke-width="1.69819" stroke-miterlimit="10"/>
<path d="M20.6921 341.909C17.1096 339.093 -10.202 312.39 6.20241 297.106C13.2117 290.583 28.2978 282.966 43.4106 271.352" stroke="#CCDDE2" stroke-width="1.69819" stroke-miterlimit="10"/>
<path d="M216.128 179.877C216.423 181.407 217.195 182.804 218.335 183.866" stroke="#CCDDE2" stroke-width="1.69819" stroke-miterlimit="10"/>
<path d="M152.47 209.23C151.908 209.378 151.433 209.484 151.057 209.572C150.776 209.621 150.544 209.671 150.384 209.693H150.35L150.13 209.731C150.13 209.731 150.107 209.705 150.092 209.705C146.293 206.916 147.459 201.727 147.459 201.727C158.818 203.516 161.174 194.315 161.174 194.315C161.025 189.904 160.186 187.83 158.248 186.637C156.223 185.368 152.994 185.041 148.059 183.977L147.242 183.795C139.903 182.127 136.48 174.594 135.127 170.415C134.812 169.489 134.558 168.543 134.367 167.584C126.055 170.707 120.85 175.129 117.853 178.446C116.667 154.933 140.267 158.311 140.267 158.311C144.239 158.368 148.185 158.945 152.006 160.028C152.873 160.408 153.701 160.788 154.491 161.168C154.871 161.361 155.274 161.57 155.631 161.787C155.988 162.003 156.391 162.216 156.74 162.433C156.995 162.581 157.253 162.741 157.5 162.908C162.691 166.202 166.841 170.903 169.467 176.463C169.504 176.538 169.537 176.616 169.566 176.695C169.685 176.952 169.791 177.216 169.881 177.485C175.223 200.857 158.742 207.547 152.47 209.23Z" fill="#E68145"/>
<path d="M152.47 209.229C150.814 206.474 151.581 203.15 151.581 203.15C162.929 204.943 165.292 195.742 165.292 195.742C165.049 188.976 163.221 187.707 158.248 186.624C156.406 186.21 154.142 185.83 151.361 185.211C150.206 184.951 149.094 184.528 148.059 183.953C140.503 179.812 138.467 168.989 138.467 168.989C137.296 169.426 136.187 169.901 135.127 170.391C134.812 169.465 134.558 168.52 134.367 167.56C126.055 170.683 120.85 175.105 117.853 178.422C116.667 154.909 140.267 158.287 140.267 158.287C144.239 158.344 148.185 158.921 152.006 160.004C152.873 160.384 153.701 160.764 154.491 161.144C154.871 161.338 155.274 161.546 155.631 161.763C155.988 161.98 156.391 162.192 156.74 162.409C156.995 162.557 157.253 162.717 157.5 162.884C162.691 166.179 166.841 170.879 169.467 176.439C169.504 176.514 169.537 176.592 169.566 176.671C169.685 176.928 169.791 177.192 169.881 177.461C175.223 200.856 158.742 207.546 152.47 209.229Z" fill="#E68145"/>
<path d="M192.296 313.29C194.051 324.748 196.197 336.02 198.439 341.908H97.6834C85.553 307.466 91.3048 269.84 91.3048 269.84L73.4111 270.402C84.1739 251.521 80.3444 235.557 78.5285 230.231C92.5851 227.841 106.642 225.964 120.846 225.805C120.467 233.935 129.341 243.28 142.14 240.822C147.33 239.835 153.655 237.783 153.792 228.692L157.131 229.277C161.751 230.037 165.93 230.85 169.893 231.765C180.15 234.128 188.964 237.084 199.947 240.822C184.751 252.072 192.303 278.053 192.303 278.053L192.683 278.92L187.832 278.053C187.832 278.053 189.629 295.875 192.296 313.29Z" fill="#353642"/>
<path d="M87.7613 62.8922C97.8072 62.8922 105.951 54.7481 105.951 44.7022C105.951 34.6559 97.8072 26.5122 87.7613 26.5122C77.7154 26.5122 69.5713 34.6559 69.5713 44.7022C69.5713 54.7481 77.7154 62.8922 87.7613 62.8922Z" fill="#E68145"/>
<path d="M93.7407 38.6319C93.485 38.0397 93.1404 37.4899 92.7187 37.0021C91.9999 36.147 90.9935 35.5839 89.8888 35.4191C88.7844 35.2538 87.6572 35.4981 86.72 36.1056C86.1072 36.5014 85.5954 37.0348 85.2246 37.6636C84.8542 38.2919 84.635 38.9982 84.5849 39.7261C83.6283 39.38 82.585 39.3538 81.6125 39.6512C80.6395 39.9487 79.7897 40.5535 79.1902 41.3756C78.5907 42.1974 78.2739 43.1916 78.2875 44.2086C78.3012 45.2256 78.6446 46.2111 79.2662 47.0165C80.5693 48.7147 82.7841 49.8316 84.79 50.4813C85.8424 50.816 86.9255 51.0466 88.023 51.1689C88.5777 51.2297 91.7499 51.6552 92.0463 51.1689C93.9838 48.0802 95.3895 42.4082 93.7407 38.6319Z" fill="white"/>
<path d="M57.1549 38.7914C55.962 38.6585 54.7538 38.5749 53.5495 38.5103C52.2579 38.5749 50.9662 38.6699 49.6745 38.8294C45.595 39.2845 41.5988 40.3076 37.8024 41.8687C36.1019 42.5681 34.4626 43.4081 32.9016 44.3799C31.7751 45.0569 30.6966 45.8095 29.6723 46.6327C28.9163 45.5488 28.3096 44.3681 27.8678 43.1224C27.1159 41.0203 26.8401 38.7781 27.0593 36.5564C27.2789 34.3347 27.9882 32.1898 29.1367 30.2754C30.2851 28.3611 31.8435 26.7252 33.7005 25.4859C35.5571 24.2467 37.6656 23.4344 39.874 23.1085C42.0824 22.7821 44.3356 22.9497 46.4715 23.5989C48.6069 24.2486 50.5722 25.3636 52.2252 26.8642C53.8778 28.3645 55.1774 30.2127 56.03 32.276C56.8825 34.3393 57.2666 36.5659 57.1549 38.7952V38.7914Z" fill="#E68145"/>
<path d="M49.6749 38.8284C45.5954 39.2836 41.5992 40.3067 37.8027 41.8677C37.5824 41.2826 37.4 40.728 37.3392 40.538C37.0346 39.6749 36.8146 38.7844 36.682 37.8787C36.4503 36.1463 36.4845 34.0796 37.2899 32.503C37.666 31.7458 38.2784 31.1319 39.0344 30.7535C39.7904 30.3751 40.649 30.2532 41.4806 30.4059C42.3122 30.5586 43.0713 30.978 43.6434 31.6003C44.2156 32.2226 44.57 33.0139 44.6525 33.8554C45.217 33.6355 45.8245 33.5473 46.4282 33.5982C47.0322 33.6488 47.6161 33.8368 48.1362 34.148C48.9071 34.6183 49.4853 35.3473 49.7672 36.2052C50.0491 37.0626 50.0164 37.9926 49.6749 38.8284Z" fill="white"/>
<path d="M32.9017 44.3759C31.7753 45.0525 30.6968 45.8055 29.6725 46.6288C28.986 47.1603 28.3269 47.7256 27.697 48.3232C26.8901 49.0929 26.1793 49.9579 25.5809 50.8989C25.0209 51.7746 24.5354 52.6963 24.1297 53.6533C23.5165 55.1167 23.0272 56.6291 22.667 58.1742C21.9448 61.5071 21.5091 64.8955 21.3639 68.3025C18.6924 66.9683 16.5482 64.7736 15.2759 62.072C14.0036 59.3705 13.678 56.3195 14.3508 53.4101C15.024 50.5012 16.6565 47.903 18.9861 46.0346C21.3153 44.1662 24.2057 43.1363 27.1917 43.1108C27.4235 43.1108 27.64 43.1108 27.8718 43.1108C29.6159 43.1944 31.3259 43.6245 32.9017 44.3759Z" fill="#E68145"/>
<path d="M25.5814 50.8992C25.0215 51.7753 24.5359 52.6966 24.1302 53.6536C23.517 55.117 23.0277 56.6294 22.6675 58.1745C21.8773 57.0765 21.2049 55.7621 21.0985 54.4476C21.0613 53.975 21.1221 53.5001 21.2771 53.0518C21.4317 52.6039 21.6771 52.1924 21.9981 51.8433C22.3188 51.4942 22.7082 51.2153 23.1417 51.0235C23.5751 50.8316 24.0436 50.7313 24.5177 50.7283C24.8794 50.7237 25.2391 50.7818 25.5814 50.8992Z" fill="white"/>
<g opacity="0.72">
<path opacity="0.72" d="M108.789 42.412C114.319 42.412 118.803 37.9287 118.803 32.3977C118.803 26.867 114.319 22.3833 108.789 22.3833C103.258 22.3833 98.7744 26.867 98.7744 32.3977C98.7744 37.9287 103.258 42.412 108.789 42.412Z" fill="#E68145"/>
<path opacity="0.72" d="M113.135 34.183C113.381 33.9285 113.589 33.6394 113.75 33.3244C114.036 32.7793 114.112 32.1486 113.965 31.551C113.819 30.9534 113.458 30.4303 112.953 30.08C112.624 29.8532 112.247 29.7051 111.852 29.6477C111.456 29.5907 111.053 29.6253 110.673 29.7495C110.652 29.188 110.449 28.6485 110.095 28.2128C109.741 27.777 109.254 27.4685 108.708 27.3337C108.163 27.1992 107.588 27.2455 107.072 27.4659C106.555 27.6866 106.125 28.0696 105.845 28.5566C105.252 29.5785 105.146 30.9386 105.237 32.0973C105.285 32.7033 105.394 33.3028 105.563 33.8867C105.647 34.183 106.091 35.885 106.395 35.9382C108.371 36.2725 111.555 35.8052 113.135 34.183Z" fill="white"/>
</g>
<g opacity="0.72">
<path opacity="0.72" d="M104.326 144.519C108.274 144.519 111.476 141.318 111.476 137.369C111.476 133.42 108.274 130.219 104.326 130.219C100.377 130.219 97.1758 133.42 97.1758 137.369C97.1758 141.318 100.377 144.519 104.326 144.519Z" fill="#E68145"/>
<path opacity="0.72" d="M107.426 138.657C107.602 138.476 107.749 138.268 107.863 138.042C108.067 137.654 108.121 137.204 108.017 136.778C107.913 136.352 107.657 135.979 107.297 135.728C107.061 135.565 106.79 135.458 106.506 135.418C106.222 135.377 105.932 135.402 105.66 135.493C105.642 135.094 105.497 134.711 105.244 134.401C104.991 134.092 104.644 133.872 104.257 133.776C103.869 133.68 103.46 133.712 103.092 133.867C102.724 134.023 102.416 134.293 102.214 134.638C101.827 135.422 101.675 136.301 101.777 137.168C101.812 137.601 101.891 138.028 102.012 138.445C102.073 138.654 102.392 139.873 102.605 139.907C104.026 140.135 106.298 139.797 107.426 138.657Z" fill="white"/>
</g>
<path d="M88.4206 51.5406L83.6619 61.6032C81.9349 65.2545 83.4951 69.6143 87.1464 71.341L97.209 76.0998C100.86 77.8264 105.22 76.2662 106.947 72.6152L111.706 62.5522C113.433 58.901 111.872 54.5411 108.221 52.8145L98.1584 48.0557C94.5071 46.329 90.1473 47.8893 88.4206 51.5406Z" fill="#E68145"/>
<path d="M108.994 64.3162L105.548 71.6029C104.827 73.1248 103.533 74.2994 101.948 74.8689C100.363 75.4384 98.6167 75.3571 97.0917 74.6421L88.3539 70.5087C86.8323 69.7869 85.6588 68.4922 85.0893 66.9076C84.5198 65.323 84.6008 63.5773 85.3146 62.052L85.5463 61.5581C87.9208 59.6586 92.0276 57.1056 93.5244 60.5893C95.6823 65.6041 98.486 63.9819 102.072 61.8848C105.081 60.1106 108.675 59.5218 108.994 64.3162Z" fill="white"/>
<path d="M95.4505 56.5675C96.9359 56.5675 98.1402 55.3632 98.1402 53.8777C98.1402 52.3923 96.9359 51.188 95.4505 51.188C93.9651 51.188 92.7607 52.3923 92.7607 53.8777C92.7607 55.3632 93.9651 56.5675 95.4505 56.5675Z" fill="white"/>
<path d="M121.627 84.4328L115.359 97.6862C113.086 102.492 115.14 108.232 119.946 110.505L133.199 116.772C138.006 119.045 143.745 116.992 146.018 112.185L152.286 98.932C154.559 94.1254 152.505 88.3865 147.699 86.1135L134.445 79.8458C129.639 77.5728 123.9 79.6266 121.627 84.4328Z" fill="#E68145"/>
<path d="M148.709 101.26L144.15 110.852C143.198 112.853 141.492 114.396 139.405 115.143C137.318 115.889 135.021 115.78 133.015 114.837L121.527 109.405C119.526 108.452 117.983 106.746 117.237 104.659C116.49 102.573 116.599 100.276 117.542 98.2698L117.849 97.6202C120.976 95.128 126.378 91.7582 128.35 96.3437C131.195 102.946 134.884 100.811 139.607 98.0491C143.554 95.7279 148.291 94.9456 148.709 101.26Z" fill="white"/>
<path d="M130.877 91.0546C132.832 91.0546 134.417 89.4693 134.417 87.5139C134.417 85.5581 132.832 83.9731 130.877 83.9731C128.921 83.9731 127.336 85.5581 127.336 87.5139C127.336 89.4693 128.921 91.0546 130.877 91.0546Z" fill="white"/>
<path d="M147.376 46.6741C147.904 47.6459 148.288 48.6887 148.516 49.7703C148.921 51.7614 148.802 53.8228 148.171 55.7538C147.541 57.6849 146.42 59.4196 144.918 60.7876C143.729 61.84 142.213 62.6644 141.005 63.7661C140.127 64.5259 139.481 65.5175 139.14 66.6268C139.076 67.0056 138.924 67.3634 138.695 67.6715C137.989 68.4314 137.301 67.2385 136.69 67.0219C135.708 66.7035 134.645 66.7564 133.7 67.1701C131.217 68.1935 128.458 68.3303 125.886 67.5576C123.314 66.7848 121.087 65.1497 119.58 62.9276C118.072 60.7052 117.377 58.0314 117.609 55.3561C117.842 52.6812 118.99 50.1677 120.859 48.2393C122.72 46.3397 125.159 45.1354 127.511 43.8893C129.585 42.7876 131.648 41.6099 133.897 40.9602C139.193 39.3874 144.82 42.0126 147.376 46.6741Z" fill="#E68145"/>
<path d="M126.132 60.4112C127.531 60.4112 128.666 59.2768 128.666 57.8772C128.666 56.4777 127.531 55.3433 126.132 55.3433C124.732 55.3433 123.598 56.4777 123.598 57.8772C123.598 59.2768 124.732 60.4112 126.132 60.4112Z" fill="white"/>
<path d="M132.959 56.7608C134.358 56.7608 135.493 55.6264 135.493 54.2269C135.493 52.8273 134.358 51.6929 132.959 51.6929C131.559 51.6929 130.425 52.8273 130.425 54.2269C130.425 55.6264 131.559 56.7608 132.959 56.7608Z" fill="white"/>
<path d="M139.364 53.3341C140.764 53.3341 141.898 52.1997 141.898 50.8001C141.898 49.4009 140.764 48.2661 139.364 48.2661C137.964 48.2661 136.83 49.4009 136.83 50.8001C136.83 52.1997 137.964 53.3341 139.364 53.3341Z" fill="white"/>
<path d="M226.059 217.32V217.381L225.121 238.952L224.597 250.771C224.597 250.334 224.619 249.882 224.646 249.445C218.161 247.276 209.83 244.191 203.402 242.011C190.751 237.695 181.219 234.378 169.886 231.772C169.202 228.471 168.556 221.389 171.736 211.052C176.295 196.304 177.796 181.339 175.478 178.448C175.456 178.415 175.428 178.387 175.395 178.365C173.746 172.419 169.385 176.268 169.385 176.268C169.385 176.268 169.411 176.328 169.423 176.363C168.515 174.858 167.518 173.409 166.437 172.024C166.473 171.809 166.53 171.598 166.607 171.393C168.009 167.176 175.478 166.162 175.478 166.162C186.412 166.968 192.164 171.842 195.066 178.243C197.623 186.324 196.115 195.084 195.784 203.374C195.651 206.968 195.139 212.492 197.881 215.402C200.415 220.193 206.79 218.122 208.519 217.598C209.081 217.438 210.54 217.339 212.455 217.279C216.356 217.184 222.097 217.256 225.596 217.317C225.767 217.32 225.915 217.32 226.059 217.32Z" fill="#E68145"/>
<path d="M74.7416 23.4356C73.9454 23.613 73.1278 23.6742 72.314 23.6179C70.8218 23.5002 69.3853 22.9964 68.1461 22.1568C66.9064 21.3168 65.9065 20.1695 65.244 18.8272C64.7387 17.7672 64.4841 16.5249 63.9333 15.446C63.5739 14.6712 63.0036 14.013 62.2883 13.5465C62.0326 13.4248 61.81 13.2437 61.6386 13.0184C61.2587 12.365 62.2313 12.1218 62.5086 11.7343C62.9322 11.1039 63.1119 10.3409 63.0139 9.58782C62.7882 7.61675 63.2502 5.6282 64.3219 3.95858C65.3936 2.289 67.009 1.04078 68.8952 0.42506C70.7811 -0.190657 72.822 -0.136027 74.6721 0.579643C76.5227 1.29531 78.0689 2.62815 79.0498 4.3527C80.0148 6.05848 80.3681 8.0302 80.7708 9.94874C81.1279 11.6393 81.5306 13.3375 81.5306 15.0661C81.5648 19.1274 78.5597 22.577 74.7416 23.4356Z" fill="#E68145"/>
<path d="M71.1407 7.9763C72.171 7.9763 73.0061 7.14115 73.0061 6.11095C73.0061 5.08076 72.171 4.24561 71.1407 4.24561C70.1104 4.24561 69.2754 5.08076 69.2754 6.11095C69.2754 7.14115 70.1104 7.9763 71.1407 7.9763Z" fill="white"/>
<path d="M72.3321 13.5534C73.3625 13.5534 74.1975 12.7183 74.1975 11.6881C74.1975 10.6579 73.3625 9.82275 72.3321 9.82275C71.3018 9.82275 70.4668 10.6579 70.4668 11.6881C70.4668 12.7183 71.3018 13.5534 72.3321 13.5534Z" fill="white"/>
<path d="M73.4532 18.7893C74.4835 18.7893 75.3186 17.9541 75.3186 16.9239C75.3186 15.8937 74.4835 15.0586 73.4532 15.0586C72.4229 15.0586 71.5879 15.8937 71.5879 16.9239C71.5879 17.9541 72.4229 18.7893 73.4532 18.7893Z" fill="white"/>
<g opacity="0.72">
<path opacity="0.72" d="M185.963 91.2567C193.794 91.2567 200.141 84.9088 200.141 77.0785C200.141 69.2483 193.794 62.9004 185.963 62.9004C178.133 62.9004 171.785 69.2483 171.785 77.0785C171.785 84.9088 178.133 91.2567 185.963 91.2567Z" fill="#E68145"/>
<path opacity="0.72" d="M186.495 83.7004C186.973 83.8528 187.471 83.931 187.973 83.9322C188.844 83.9436 189.689 83.6366 190.35 83.0694C191.011 82.5022 191.442 81.7135 191.563 80.8511C191.641 80.2881 191.587 79.7148 191.406 79.1761C191.225 78.6374 190.921 78.1484 190.518 77.7473C191.213 77.3613 191.763 76.7599 192.086 76.0339C192.41 75.3079 192.488 74.4968 192.311 73.7221C192.132 72.9475 191.708 72.2519 191.1 71.7398C190.493 71.2277 189.735 70.9268 188.942 70.8823C187.274 70.7874 185.488 71.5206 184.079 72.3716C183.345 72.8202 182.658 73.3407 182.027 73.9254C181.704 74.2217 179.835 75.8743 179.964 76.2884C180.8 79.0124 183.425 82.7468 186.495 83.7004Z" fill="white"/>
</g>
<path d="M192.548 134.946C191.661 136.234 190.591 137.386 189.372 138.365C187.114 140.148 184.432 141.316 181.588 141.753C178.744 142.19 175.835 141.881 173.146 140.857C171.052 140.025 169.047 138.631 166.881 137.818C165.361 137.194 163.696 137.01 162.075 137.286C161.557 137.447 161.007 137.484 160.472 137.392C159.066 136.982 160.13 135.356 160.012 134.444C159.787 133.002 159.043 131.691 157.919 130.759C155.021 128.279 153.069 124.873 152.394 121.118C151.719 117.364 152.363 113.491 154.215 110.157C156.069 106.822 159.017 104.231 162.562 102.821C166.106 101.411 170.029 101.27 173.666 102.422C177.26 103.561 180.334 105.875 183.411 108.052C186.123 109.97 188.916 111.851 191.188 114.252C196.54 119.954 196.81 128.745 192.548 134.946Z" fill="#E68145"/>
<path d="M164.832 118.837C166.813 118.837 168.419 117.232 168.419 115.251C168.419 113.27 166.813 111.665 164.832 111.665C162.852 111.665 161.246 113.27 161.246 115.251C161.246 117.232 162.852 118.837 164.832 118.837Z" fill="white"/>
<path d="M173.803 125.137C175.784 125.137 177.389 123.532 177.389 121.551C177.389 119.57 175.784 117.964 173.803 117.964C171.822 117.964 170.217 119.57 170.217 121.551C170.217 123.532 171.822 125.137 173.803 125.137Z" fill="white"/>
<path d="M182.222 131.043C184.203 131.043 185.808 129.438 185.808 127.457C185.808 125.476 184.203 123.871 182.222 123.871C180.241 123.871 178.636 125.476 178.636 127.457C178.636 129.438 180.241 131.043 182.222 131.043Z" fill="white"/>
<g opacity="0.54">
<path opacity="0.54" d="M83.6386 28.5229C83.5911 29.1421 83.4958 29.7568 83.3537 30.3616L81.7657 37.2494C81.2794 39.3578 80.7323 41.5803 79.2241 43.1303C76.4128 46.0062 71.7057 45.349 67.7813 44.4752L58.1468 42.3363C55.9357 41.8424 53.6867 41.341 51.6884 40.2392C49.6901 39.1375 47.9881 37.3481 47.5094 35.1257C47.1713 33.4883 47.536 31.7977 47.8893 30.1641L49.3899 23.5461C49.8724 21.3806 50.4195 19.0898 51.9809 17.517C54.7656 14.7095 59.3777 15.3477 63.2414 16.1835L73.0924 18.3224C79.0417 19.6254 84.1135 22.3836 83.6386 28.5229Z" fill="#E68145"/>
<path opacity="0.54" d="M70.3537 28.708C70.7659 29.0921 71.0694 29.5777 71.2347 30.1164C71.3995 30.6551 71.4201 31.2276 71.2939 31.7766C71.1674 32.3255 70.8988 32.8316 70.5151 33.2438C70.1314 33.656 69.6459 33.9603 69.1076 34.1255L66.1709 35.0259L63.238 35.9225C62.6981 36.0885 62.1245 36.109 61.5744 35.9821C61.0239 35.8552 60.5171 35.5855 60.1045 35.2003C59.6915 34.8151 59.388 34.3276 59.2239 33.7874C59.0594 33.2472 59.0408 32.6731 59.1692 32.1234L59.8568 29.1297L60.5444 26.1399C60.6717 25.5909 60.9407 25.0849 61.3251 24.673C61.7092 24.2608 62.1951 23.9569 62.7338 23.792C63.2729 23.6268 63.8455 23.6063 64.3948 23.7324C64.9438 23.8585 65.4502 24.1267 65.8631 24.5101L68.1084 26.6034L70.3537 28.708Z" fill="white"/>
</g>
<g opacity="0.54">
<path opacity="0.54" d="M191.904 41.7803C191.856 42.3995 191.761 43.0146 191.619 43.619L190.031 50.5182C189.545 52.6266 188.998 54.8491 187.49 56.3953C184.678 59.275 179.971 58.614 176.047 57.744L166.412 55.6013C164.201 55.1112 161.952 54.606 159.954 53.508C157.956 52.4101 156.254 50.6131 155.775 48.3945C155.437 46.7571 155.802 45.0665 156.155 43.4329L157.659 36.8415C158.138 34.6722 158.685 32.3852 160.247 30.8085C163.031 28.0048 167.643 28.6393 171.507 29.4789L181.343 31.6025C187.307 32.8904 192.379 35.6524 191.904 41.7803Z" fill="#E68145"/>
<path opacity="0.54" d="M178.619 41.9737C179.031 42.3581 179.335 42.844 179.5 43.3827C179.665 43.9214 179.685 44.4943 179.559 45.0433C179.433 45.5927 179.164 46.0987 178.781 46.5117C178.397 46.9242 177.912 47.2289 177.373 47.3949L174.436 48.2915L171.504 49.1919C170.964 49.3575 170.39 49.3781 169.84 49.2512C169.29 49.1247 168.783 48.8549 168.37 48.4697C167.957 48.0841 167.654 47.597 167.489 47.0568C167.325 46.5166 167.306 45.9426 167.435 45.3928L168.122 42.4029L168.81 39.4131C168.937 38.8641 169.206 38.3581 169.591 37.9459C169.975 37.5337 170.461 37.2301 170.999 37.0649C171.538 36.9 172.111 36.8791 172.66 37.0052C173.209 37.1314 173.716 37.3996 174.129 37.7833L176.374 39.8766L178.619 41.9737Z" fill="white"/>
</g>
<g opacity="0.54">
<path opacity="0.54" d="M146.442 134.204C146.418 134.492 146.373 134.778 146.305 135.059L145.568 138.277C145.34 139.257 145.086 140.29 144.383 141.012C143.076 142.353 140.884 142.045 139.064 141.639L134.578 140.644C133.536 140.463 132.525 140.134 131.576 139.667C131.103 139.43 130.686 139.095 130.352 138.684C130.018 138.274 129.775 137.797 129.639 137.285C129.535 136.511 129.596 135.724 129.817 134.975L130.501 131.898C130.725 130.891 130.98 129.824 131.709 129.091C133.005 127.784 135.151 128.08 136.948 128.471L141.537 129.467C144.299 130.059 146.662 131.343 146.442 134.204Z" fill="#E68145"/>
<path opacity="0.54" d="M140.253 134.291C140.445 134.47 140.587 134.696 140.664 134.947C140.742 135.198 140.751 135.465 140.692 135.72C140.633 135.976 140.508 136.212 140.329 136.404C140.15 136.596 139.923 136.737 139.672 136.814L138.308 137.231L136.94 137.649C136.689 137.728 136.422 137.738 136.165 137.681C135.909 137.622 135.672 137.497 135.479 137.318C135.286 137.14 135.144 136.913 135.068 136.662C134.991 136.41 134.981 136.143 135.041 135.887L135.375 134.477L135.694 133.083C135.752 132.826 135.877 132.59 136.056 132.397C136.235 132.204 136.461 132.062 136.712 131.985C136.964 131.908 137.231 131.899 137.487 131.958C137.743 132.017 137.979 132.143 138.171 132.323L139.216 133.296L140.253 134.291Z" fill="white"/>
</g>
<g opacity="0.54">
<path opacity="0.54" d="M99.1472 0.800158C99.4587 0.962264 99.7585 1.14637 100.044 1.35102L103.235 3.68366C104.215 4.39408 105.237 5.1653 105.701 6.28223C106.563 8.36032 105.188 10.636 103.877 12.4595L100.659 16.9424C99.9705 18.0097 99.1309 18.9719 98.1671 19.7994C97.1641 20.5592 95.8648 21.0683 94.6225 20.8137C93.7069 20.6314 92.9167 20.0539 92.1569 19.5258L89.0797 17.3185C88.0729 16.5967 87.0168 15.7989 86.5495 14.6592C85.7175 12.6077 87.0586 10.3776 88.3388 8.58067L91.6023 3.98378C93.5588 1.21046 96.0928 -0.791656 99.1472 0.800158Z" fill="#E68145"/>
<path opacity="0.54" d="M96.3208 7.67339C96.6076 7.54631 96.9226 7.49662 97.2345 7.52929C97.5464 7.56196 97.8442 7.6759 98.0984 7.85966C98.3525 8.04342 98.5539 8.29063 98.6827 8.57658C98.8115 8.86254 98.8627 9.17729 98.832 9.48935L98.6496 11.1989L98.4673 12.9085C98.4338 13.2218 98.3187 13.5208 98.1329 13.7753C97.9472 14.0299 97.6979 14.231 97.41 14.3585C97.1216 14.486 96.8052 14.5353 96.4917 14.5015C96.1787 14.4677 95.8797 14.352 95.6256 14.166L94.2389 13.1555L92.8522 12.1487C92.5969 11.9634 92.3948 11.7141 92.2668 11.4258C92.1388 11.1375 92.089 10.8205 92.1224 10.5068C92.1559 10.1931 92.2717 9.89384 92.4579 9.63915C92.644 9.38446 92.894 9.18341 93.1827 9.05625L94.7518 8.36102L96.3208 7.67339Z" fill="white"/>
</g>
<path d="M249.556 287.582C249.554 287.648 249.546 287.714 249.533 287.78C249.527 287.796 249.527 287.813 249.533 287.829C248.999 291.377 247.526 294.717 245.267 297.505C245.24 297.528 245.229 297.566 245.206 297.589C241.734 301.916 236.7 305.039 231.605 306.999C226.401 309.024 221.124 309.841 217.366 309.56H217.283C212.686 309.218 207.641 309.814 203.226 310.642C202.763 310.73 202.299 310.813 201.836 310.912C198.922 311.497 196.046 312.227 193.197 313.032L192.661 313.18L192.304 313.275C189.645 295.86 187.844 278.027 187.844 278.027L242.171 287.681C244.616 288.125 247.123 288.091 249.556 287.582Z" fill="#E68145"/>
<path d="M137.989 204.799C135.132 207.633 131.306 208.18 127.549 209.016C119.012 210.915 111.855 208.758 111.479 198.945C111.236 192.63 111.904 186.313 115.726 181.07C120.304 174.79 127.336 170.607 134.342 167.553C134.342 167.553 137.556 183.995 152.197 184.709C166.839 185.424 163.275 204.727 146.119 201.509" stroke="black" stroke-width="1.69819" stroke-miterlimit="10"/>
<path d="M148.994 209.731C149.374 209.731 149.724 209.731 150.077 209.705C150.163 209.699 150.249 209.699 150.335 209.705H150.369L151.042 209.644" stroke="black" stroke-width="1.69819" stroke-miterlimit="10"/>
<path d="M165.216 169.57C162.816 166.717 159.947 164.293 156.733 162.402C156.376 162.166 156.005 161.951 155.624 161.756C155.244 161.539 154.864 161.33 154.484 161.137C153.682 160.722 152.85 160.331 151.999 159.997C146.976 157.893 141.581 156.817 136.134 156.832C106.836 156.832 114.977 182.183 114.977 182.183" stroke="black" stroke-width="1.69819" stroke-miterlimit="10"/>
<path d="M170.079 231.522C169.068 226.135 170.334 217.75 171.735 211.045C172.993 205.073 174.368 200.442 174.368 200.442C176.442 188.254 176.355 181.72 175.394 178.358C173.745 172.42 169.384 176.268 169.384 176.268" stroke="black" stroke-width="1.69819" stroke-miterlimit="10"/>
<path d="M175.394 178.358C173.745 172.42 169.384 176.269 169.384 176.269C168.63 174.552 167.699 172.918 166.606 171.394C166.166 170.782 165.702 170.184 165.216 169.601C166.519 166.14 169.995 164.077 173.574 163.8C182.969 163.078 192.231 169.297 195.061 178.237C197.618 186.317 196.11 195.078 195.78 203.367C195.647 206.961 195.134 212.485 197.877 215.395C198.021 215.544 198.158 215.676 198.313 215.809C200.593 217.774 204.225 217.884 208.529 217.591C209.783 217.504 211.101 217.397 212.465 217.272C216.644 216.892 221.203 216.565 225.606 217.31L226.043 217.382C225.91 224.563 225.469 231.766 225.105 238.946C224.911 242.441 224.725 245.94 224.63 249.439C218.145 247.27 209.813 244.185 203.385 242.004L199.959 240.823C188.975 237.08 180.177 234.129 169.904 231.766C165.942 230.85 161.763 230.033 157.143 229.277L152.231 228.415C151.901 228.357 151.603 228.185 151.389 227.928C151.175 227.672 151.058 227.347 151.061 227.013V209.632C154.341 209.354 157.513 208.32 160.327 206.611C163.141 204.903 165.522 202.567 167.283 199.785C172.035 192.141 172.487 184.319 169.889 177.454C169.796 177.18 169.689 176.911 169.566 176.649C169.537 176.57 169.504 176.492 169.467 176.417C169.467 176.394 169.444 176.356 169.433 176.329" stroke="black" stroke-width="1.69819" stroke-miterlimit="10"/>
<path d="M48.5889 240.823C50.1085 229.046 50.8075 217.067 52.2816 205.222" stroke="black" stroke-width="1.69819" stroke-miterlimit="10"/>
<path d="M52.5244 203.368C52.9385 200.161 53.4286 196.955 54.044 193.787C54.0668 193.631 54.0934 193.483 54.1276 193.338C54.4695 191.461 54.8495 189.596 55.2674 187.731C56.5362 182.15 60.966 178.066 64.1154 173.518L64.3092 173.032C71.1038 163.147 74.8656 151.494 75.1327 139.502C75.2087 135.163 75.0377 126.585 70.0648 124.814C67.2724 123.815 64.3092 125.768 62.7629 127.998C62.1277 128.918 61.6171 129.919 61.2433 130.973" stroke="black" stroke-width="1.69819" stroke-miterlimit="10"/>
<path d="M97.6842 341.907C85.5538 307.465 91.3056 269.839 91.3056 269.839L73.4157 270.401L26.2236 271.898C23.4518 271.989 20.6929 271.485 18.1331 270.418C15.5729 269.352 13.2718 267.748 11.3851 265.716C9.49814 263.683 8.06968 261.27 7.19589 258.638C6.32211 256.006 6.0235 253.217 6.32021 250.46L20.3388 199.282" stroke="black" stroke-width="1.69819" stroke-miterlimit="10"/>
<path d="M21.0186 196.783L22.2495 192.3L23.6779 187.217" stroke="black" stroke-width="1.69819" stroke-miterlimit="10"/>
<path d="M24.8932 182.841L25.71 179.904C26.7919 176.005 26.5241 171.855 24.9502 168.127L23.328 164.252C22.268 161.023 21.9375 159.461 23.2672 156.304C23.8963 154.815 24.7796 153.446 25.8771 152.258C29.0798 148.725 33.5893 146.97 38.2355 146.37C42.8818 145.77 48.0106 146.237 51.7488 149.25C54.2866 151.293 56.6877 156.16 55.0275 159.34C53.8231 161.654 51.274 162.326 49.1047 161.498C48.3456 161.214 47.6618 160.759 47.1064 160.168C44.5458 157.486 39.1283 156.901 37.2288 159.511" stroke="black" stroke-width="1.69819" stroke-miterlimit="10"/>
<path d="M224.524 253.705C224.524 252.752 224.559 251.806 224.597 250.841V250.765C224.597 250.328 224.619 249.876 224.646 249.439" stroke="black" stroke-width="1.69819" stroke-miterlimit="10"/>
<path d="M219.65 162.451C215.201 164.829 209.738 170.809 218.955 184.865C221.994 189.496 225.204 194.504 225.656 200.221C226.078 205.935 226.212 211.666 226.059 217.393" stroke="black" stroke-width="1.69819" stroke-miterlimit="10"/>
<path d="M176.504 276.033L187.081 277.909L187.84 278.042L192.692 278.909L242.16 287.696C244.608 288.141 247.12 288.108 249.556 287.597C253.787 286.706 257.598 284.429 260.386 281.125C263.174 277.821 264.779 273.681 264.946 269.361L257.637 209.522L256.019 196.75C255.505 192.733 256.367 188.66 258.465 185.197L260.634 181.588C260.634 181.588 264.411 176.079 257.804 175.676C254.244 175.467 250.54 176.436 247.322 177.895C245.484 178.712 242.9 180.174 241.863 182.184C241.442 182.945 241.299 183.829 241.461 184.684C242.22 188.608 247.159 190.265 250.419 188.608" stroke="black" stroke-width="1.69819" stroke-miterlimit="10"/>
<path d="M259.985 175.961C259.985 175.961 263.719 173.738 261.193 168.271C260.296 166.326 257.58 164.978 251.733 165.35C236.157 166.342 230.056 182.358 241.882 182.184" stroke="black" stroke-width="1.69819" stroke-miterlimit="10"/>
<path d="M256.436 165.323C259.893 160.559 253.777 156 249.321 156.156C245.119 156.304 240.868 157.858 237.186 159.803C232.065 162.508 225.455 167.747 227.347 174.377C227.905 176.329 232.323 178.742 235.211 177.347" stroke="black" stroke-width="1.69819" stroke-miterlimit="10"/>
<path d="M227.02 172.021C227.02 172.021 227.02 172.021 227.02 172.044C224.607 176.652 213.187 172.044 219.634 162.451C221.14 160.329 222.946 158.436 224.995 156.832C241.072 143.695 244.666 157.052 244.644 156.258" stroke="black" stroke-width="1.69819" stroke-miterlimit="10"/>
<path d="M234.018 177.454C234.018 177.454 239.899 181.633 238.094 188.597" stroke="black" stroke-width="1.69819" stroke-miterlimit="10"/>
<path d="M26.9688 144.026C26.5889 142.529 26.6383 140.641 27.5273 138.225C28.8075 134.752 32.5382 132.473 36.1702 130.972C37.496 130.425 38.8295 129.973 39.9692 129.62C43.9317 128.404 48.2816 127.758 52.5062 128.184C53.9301 128.322 55.3376 128.591 56.7118 128.989C58.2967 129.446 59.8133 130.113 61.2213 130.972C64.6936 133.107 67.0453 136.348 68.4585 140.603C69.6894 144.273 70.1643 148.634 67.1174 150.925" stroke="black" stroke-width="1.69819" stroke-miterlimit="10"/>
<path d="M67.395 199.758L66.2743 205.183C66.237 205.366 66.1637 205.539 66.0581 205.692C65.9525 205.846 65.8172 205.976 65.6603 206.077C65.5031 206.176 65.3276 206.244 65.1441 206.274C64.9602 206.305 64.7721 206.298 64.5913 206.255C60.2793 205.233 56.4993 204.283 52.5254 203.367C50.5537 202.904 48.5174 202.467 46.3595 202.015C37.9256 200.271 29.503 198.303 21.0235 196.784C17.4789 196.149 13.9306 195.598 10.3595 195.184C8.36114 194.952 6.33624 194.857 4.32652 194.709C3.88735 194.699 3.46147 194.555 3.10702 194.295C1.20748 192.905 3.10702 188.384 3.52112 186.507C3.52112 186.484 3.52112 186.458 3.52112 186.435C3.81365 184.995 12.088 185.409 23.6562 187.214C27.6908 187.848 32.1244 188.638 36.7706 189.592C43.3013 190.933 49.1898 192.38 54.0033 193.771C54.8315 194.014 55.6255 194.246 56.3815 194.478C56.3815 194.478 56.3815 194.478 56.4043 194.478C57.3654 194.782 58.2696 195.074 59.1206 195.367C64.4963 197.202 67.5926 198.797 67.395 199.758Z" fill="#E68145"/>
<path d="M67.395 199.758L66.2743 205.183C66.237 205.366 66.1637 205.539 66.0581 205.692C65.9525 205.846 65.8172 205.976 65.6603 206.077C65.5031 206.176 65.3276 206.244 65.1441 206.274C64.9602 206.305 64.7721 206.298 64.5913 206.255C60.2793 205.233 56.4993 204.283 52.5254 203.367C50.5537 202.904 48.5174 202.467 46.3595 202.015C37.9256 200.271 29.503 198.303 21.0235 196.784C17.4789 196.149 13.9306 195.598 10.3595 195.184C8.36114 194.952 6.33624 194.857 4.32652 194.709C3.88735 194.699 3.46147 194.555 3.10702 194.295C1.20748 192.905 3.10702 188.384 3.52112 186.507C3.52112 186.484 3.52112 186.458 3.52112 186.435C3.81365 184.995 12.088 185.409 23.6562 187.214C27.6908 187.848 32.1244 188.638 36.7706 189.592C43.3013 190.933 49.1898 192.38 54.0033 193.771C54.8315 194.014 55.6255 194.246 56.3815 194.478C56.3815 194.478 56.3815 194.478 56.4043 194.478C57.3654 194.782 58.2696 195.074 59.1206 195.367C64.4963 197.202 67.5926 198.797 67.395 199.758Z" stroke="black" stroke-width="1.69819" stroke-miterlimit="10"/>
<path d="M55.5634 156.418L56.6424 158.579C57.9986 160.065 59.8754 161.003 62.4474 160.357C67.4925 159.104 67.9902 154.921 67.1126 150.924C66.9618 150.199 66.7665 149.483 66.5276 148.782C65.3461 145.256 63.5187 142.418 60.9581 140.348C59.1387 138.875 57.0363 137.791 54.7808 137.164C52.9432 136.633 51.0471 136.331 49.1354 136.264C45.3792 136.134 41.6288 136.648 38.0459 137.783C34.4634 138.881 29.5625 140.769 26.9564 144.01C26.3725 144.722 25.9105 145.525 25.5887 146.388C24.7871 148.569 24.6503 150.336 24.9315 151.764L25.2012 153.094" stroke="black" stroke-width="1.69819" stroke-miterlimit="10"/>
<path d="M56.962 129.073L58.2157 123.88L59.7049 117.763C59.915 116.881 59.9416 115.966 59.7824 115.073C59.6232 114.181 59.2817 113.33 58.7794 112.575C58.2772 111.821 57.6249 111.177 56.8632 110.685C56.1015 110.193 55.2467 109.864 54.352 109.717C54.0017 109.659 53.6473 109.631 53.2921 109.633C51.7888 109.63 50.3295 110.142 49.1583 111.084C47.9874 112.027 47.1748 113.342 46.8564 114.812C46.4765 116.582 46.0016 118.736 45.4773 121.164C44.9797 123.466 44.4288 125.988 43.8438 128.648" stroke="black" stroke-width="1.69819" stroke-miterlimit="10"/>
<path d="M42.0811 136.811V136.799" stroke="black" stroke-width="1.13213" stroke-miterlimit="10"/>
<path d="M37.2411 159.506C36.8612 161.372 36.6446 162.546 36.656 162.747C36.656 162.747 36.656 162.747 36.656 162.774C35.011 173.829 30.171 179.74 24.9055 182.821C21.685 184.654 18.0881 185.726 14.3896 185.956" stroke="black" stroke-width="1.69819" stroke-miterlimit="10"/>
<path d="M49.1358 161.493C49.1358 161.493 40.3143 185.006 54.1088 193.341C54.8382 193.779 55.6003 194.16 56.3882 194.481C57.3323 194.873 58.3068 195.186 59.3021 195.419" stroke="black" stroke-width="1.69819" stroke-miterlimit="10"/>
<path d="M65.5439 206.144C65.5439 206.144 65.6046 207.231 52.2813 205.221C47.7224 204.537 41.5945 203.489 33.3543 201.905C28.1875 200.917 23.8946 200.039 20.3386 199.283C1.65477 195.287 3.10222 194.299 3.10222 194.299" stroke="black" stroke-width="1.69819" stroke-miterlimit="10"/>
<path d="M103.082 73.9782C100.24 89.0415 90.879 104.899 79.5273 115.077C74.8849 119.256 69.4864 122.169 63.6586 123.317C61.8704 123.68 60.0506 123.868 58.2259 123.875L59.7038 117.763C60.0666 116.257 59.8895 114.672 59.2038 113.283C58.5177 111.895 57.3666 110.791 55.9503 110.164C55.4385 109.945 54.9032 109.785 54.3547 109.689C54.0032 109.631 53.6473 109.603 53.2909 109.606C51.7846 109.604 50.3231 110.119 49.1511 111.066C47.9794 112.013 47.1691 113.334 46.8553 114.807C46.6235 115.916 46.3424 117.174 46.0385 118.549C31.602 109.006 25.3411 88.5932 26.0363 72.0178C26.2567 66.5092 26.5606 59.2567 28.973 53.6493C29.7872 51.651 31.0025 49.8407 32.5442 48.3306C39.3825 41.895 48.7434 38.9583 58.3969 38.5176C65.8062 38.8671 73.0982 40.5049 79.9452 43.3576C92.7101 48.7485 106.03 58.307 103.082 73.9782Z" fill="#E68145"/>
<path d="M103.082 73.9782C100.24 89.0415 90.879 104.899 79.5273 115.077C74.8849 119.256 69.4864 122.169 63.6586 123.317L65.0073 117.763C65.2174 116.881 65.244 115.965 65.0848 115.072C64.9252 114.18 64.5841 113.329 64.0818 112.575C63.5796 111.82 62.9273 111.176 62.1656 110.684C61.4038 110.193 60.5491 109.863 59.6544 109.716C59.3041 109.658 58.9496 109.63 58.5944 109.633C57.6785 109.629 56.772 109.819 55.9351 110.191C55.4233 109.971 54.8881 109.812 54.3395 109.716C53.9881 109.658 53.6321 109.63 53.2757 109.633C51.7755 109.632 50.3204 110.145 49.1526 111.087C47.9844 112.028 47.1736 113.341 46.8553 114.807C46.6235 115.916 46.3424 117.174 46.0385 118.549C31.602 109.006 25.3411 88.5932 26.0363 72.0178C26.2567 66.5092 26.5606 59.2567 28.973 53.6493C29.7872 51.651 31.0025 49.8407 32.5442 48.3306C39.3825 41.895 48.7434 38.9583 58.3969 38.5176C65.8062 38.8671 73.0982 40.5049 79.9452 43.3576C92.7101 48.7485 106.03 58.307 103.082 73.9782Z" fill="#E68145"/>
<path d="M103.082 73.982C100.244 89.0454 90.8833 104.903 79.5278 115.08C73.4493 120.528 66.1133 123.841 58.215 123.879L59.7043 117.763C59.9143 116.881 59.9409 115.965 59.7817 115.072C59.6222 114.18 59.281 113.329 58.7788 112.575C58.2766 111.82 57.6243 111.176 56.8625 110.685C56.1008 110.193 55.246 109.863 54.3514 109.716C54.0011 109.658 53.6466 109.63 53.2914 109.633C51.7881 109.629 50.3289 110.141 49.1576 111.083C47.9864 112.026 47.1741 113.342 46.8558 114.811C46.4759 116.581 46.001 118.735 45.4767 121.163C27.659 113.265 19.9659 90.3143 20.7371 72.0217C20.9537 66.5131 21.2576 59.2606 23.6738 53.6532C24.4864 51.6541 25.7021 49.8435 27.2449 48.3345C40.6975 35.6836 63.8452 36.5573 79.9457 43.3615C92.7068 48.7524 106.03 58.3071 103.082 73.982Z" stroke="black" stroke-width="1.69819" stroke-miterlimit="10"/>
<path d="M103.006 74.5254C106.08 78.2029 108.963 84.365 106.426 93.5208C106.035 94.9656 105.477 96.3591 104.762 97.6732C100.727 104.891 92.9388 106.157 87.6885 106.081" stroke="black" stroke-width="1.69819" stroke-miterlimit="10"/>
<path d="M100.667 82.2261C103.326 85.4097 105.784 90.4511 104.758 97.6807C104.595 98.8413 104.355 99.9898 104.04 101.119C100.241 114.765 86.2947 114.093 81.5078 113.428" stroke="black" stroke-width="1.69819" stroke-miterlimit="10"/>
<path d="M26.1849 101.046C23.214 101.658 6.4031 98.208 6.19795 84.1932C6.13755 82.2936 6.4958 80.404 7.2465 78.6579C9.87926 72.7237 16.824 70.847 20.8244 70.2354" stroke="black" stroke-width="1.69819" stroke-miterlimit="10"/>
<path d="M23.161 94.0219C20.1217 94.208 3.97184 88.4448 5.72321 74.5364C5.93216 72.6525 6.55065 70.8373 7.53537 69.2177C10.9545 63.7052 18.112 62.8201 22.1542 62.7593" stroke="black" stroke-width="1.69819" stroke-miterlimit="10"/>
<path d="M91.3057 269.844C91.3057 269.844 91.6514 267.203 93.5509 261.239" stroke="black" stroke-width="1.69819" stroke-miterlimit="10"/>
<path d="M153.785 228.668V228.695C153.648 237.779 147.327 239.838 142.133 240.825C129.334 243.272 120.448 233.938 120.84 225.808" stroke="black" stroke-width="1.69819" stroke-miterlimit="10"/>
<path d="M123.268 178.688C123.268 178.688 123.647 182.867 120.012 188.258C119.039 189.71 122.405 190.306 123.207 190.576" stroke="black" stroke-width="1.69819" stroke-miterlimit="10"/>
<path d="M137.926 187.733C140.085 183.993 139.371 179.539 136.331 177.784C133.291 176.029 129.077 177.637 126.918 181.377C124.758 185.116 125.472 189.571 128.512 191.326C131.552 193.081 135.767 191.472 137.926 187.733Z" stroke="black" stroke-width="1.69819" stroke-miterlimit="10"/>
<path d="M122.845 182.895C125.004 179.138 124.279 174.67 121.225 172.915C118.171 171.16 113.945 172.783 111.786 176.539C109.627 180.296 110.352 184.764 113.406 186.519C116.46 188.274 120.686 186.652 122.845 182.895Z" stroke="black" stroke-width="1.70403" stroke-miterlimit="10"/>
<path d="M117.583 173.776V174.916C118.217 174.91 118.842 175.074 119.391 175.391C119.902 175.705 120.336 176.131 120.659 176.636C120.982 177.141 121.186 177.713 121.257 178.309C121.463 179.794 121.153 181.306 120.379 182.59C119.239 184.547 117.34 185.808 115.459 185.808C114.825 185.816 114.201 185.653 113.651 185.337C113.14 185.023 112.707 184.597 112.384 184.092C112.061 183.586 111.857 183.015 111.786 182.419C111.579 180.933 111.889 179.42 112.663 178.134C113.803 176.181 115.702 174.916 117.583 174.916V173.776ZM117.583 173.776C115.387 173.776 113.058 175.174 111.683 177.575C109.783 180.865 110.41 184.794 113.085 186.313C113.807 186.729 114.626 186.946 115.459 186.94C117.655 186.94 119.984 185.538 121.363 183.141C123.263 179.855 122.632 175.923 119.957 174.403C119.235 173.99 118.415 173.775 117.583 173.78V173.776Z" fill="white"/>
<path d="M121.362 183.147C123.261 179.858 122.633 175.941 119.96 174.397C117.287 172.854 113.581 174.269 111.682 177.558C109.784 180.847 110.411 184.764 113.084 186.308C115.757 187.851 119.463 186.436 121.362 183.147Z" fill="#E68145"/>
<path d="M138.091 186.651C139.991 183.347 139.353 179.418 136.668 177.874C133.983 176.331 130.266 177.759 128.368 181.063C126.469 184.367 127.106 188.296 129.792 189.839C132.477 191.382 136.193 189.955 138.091 186.651Z" fill="#E68145"/>
<path d="M123.218 180.067C123.218 180.067 124.357 178.369 126.929 181.374" stroke="black" stroke-width="1.69819" stroke-miterlimit="10"/>
<path d="M134.402 184.218C135.02 183.408 134.965 182.326 134.278 181.801C133.591 181.277 132.532 181.509 131.914 182.319C131.295 183.13 131.35 184.212 132.037 184.736C132.724 185.261 133.783 185.029 134.402 184.218Z" fill="#353642"/>
<path d="M121.585 180.529C122.203 179.719 122.148 178.636 121.461 178.112C120.773 177.587 119.715 177.819 119.096 178.629C118.477 179.44 118.533 180.522 119.22 181.047C119.907 181.571 120.966 181.34 121.585 180.529Z" fill="#353642"/>
<path d="M131.017 197.349C123.236 203.959 119.152 198.07 119.152 198.07" stroke="black" stroke-width="1.69819" stroke-miterlimit="10"/>
<path d="M48.5889 235.348C55.317 234.143 62.106 233.201 68.7734 231.97C72.0254 231.373 75.2747 230.793 78.5218 230.23C92.9887 227.768 107.433 225.854 122.059 225.793C122.765 225.793 123.448 225.538 123.981 225.075C124.514 224.611 124.861 223.97 124.958 223.27L125.228 221.245L126.933 208.621" stroke="black" stroke-width="1.69819" stroke-miterlimit="10"/>
<path d="M151.042 209.631V209.571V209.267" stroke="black" stroke-width="1.69819" stroke-miterlimit="10"/>
<path d="M3.07617 341.908H86.4089H95.8344H176.576H191.704H292.547" stroke="black" stroke-width="1.69819" stroke-miterlimit="10"/>
<path d="M187.837 278.042C187.837 278.042 189.63 295.875 192.297 313.29C194.052 324.748 196.199 336.02 198.44 341.909" stroke="black" stroke-width="1.69819" stroke-miterlimit="10"/>
<path d="M192.296 313.289L192.649 313.194L193.189 313.046C196.038 312.241 198.914 311.527 201.828 310.926C202.291 310.827 202.755 310.744 203.218 310.657C206.468 310.057 209.762 309.736 213.065 309.695C214.528 309.695 215.93 309.646 217.271 309.574H217.355C222.973 309.255 227.669 308.354 231.594 307.013C238.003 304.833 242.33 301.482 245.194 297.603C245.217 297.58 245.228 297.542 245.255 297.519C247.339 294.628 248.792 291.332 249.521 287.843C249.516 287.827 249.516 287.81 249.521 287.794L249.559 287.611" stroke="black" stroke-width="1.69819" stroke-miterlimit="10"/>
</svg>
