<svg width="186" height="85" viewBox="0 0 186 85" fill="none" xmlns="http://www.w3.org/2000/svg">
<path d="M10.8528 5.66877L14.4417 2.07983L18.9977 6.63585L10.8528 5.66877ZM28.8619 16.5L25.1225 12.7607L23.6397 21.7223L28.8619 16.5ZM9.71376 26.1923L14.4417 30.9202L18.2026 27.1594L9.71376 26.1923ZM5.22222 11.2993L0 16.5215L3.78235 20.3039L5.22222 11.2993Z" fill="#15501A"/>
<path d="M24.1121 9.2363L27.6795 5.96973L24.1121 6.80786H4.72754V24.2368L1.35352 27.1595L5.67313 26.1924H24.1121V9.2363Z" fill="url(#paint0_radial_1065_3501)"/>
<path d="M13.0003 18.0467C11.324 19.7445 10.1635 22.4308 11.0876 23.3549C12.0117 24.279 14.6981 23.0755 16.3743 21.3778C17.8572 19.8734 18.0291 18.5195 17.4274 17.5739L20.1137 15.167L20.9948 14.3718L25.8087 9.94476C25.8087 9.94476 29.1183 7.02204 28.2586 6.01198L28.2372 5.99049L28.2157 5.969C27.2056 5.13086 24.3259 8.46191 24.3259 8.46191L19.9848 13.2758L19.1037 14.2859L16.8042 16.9292C15.8371 16.349 14.4617 16.5424 13.0003 18.0467Z" fill="white"/>
<path d="M18.6742 10.6968L18.4593 10.4819C16.3748 12.5665 14.763 14.3287 14.677 14.2643C14.591 14.1783 16.0739 12.2871 18.1585 10.181L17.9436 9.96614C15.859 12.0507 14.0967 13.6625 14.0108 13.5766C13.9248 13.4906 15.5581 11.7499 17.6427 9.66527L17.4063 9.42887C15.3002 11.5135 13.4305 12.9963 13.3446 12.9318C13.2586 12.8459 14.9993 11.2341 17.1054 9.12801L16.8475 8.87012L11.5823 13.2542L11.0451 15.8331L9.04645 17.7028L7.95042 18.7343L2.64224 23.6342C2.64224 23.6342 -0.237501 25.9337 0.622124 26.9437C0.622124 26.9437 0.643616 26.9437 0.643616 26.9652C0.643616 26.9652 0.643614 26.9867 0.665105 26.9867C1.67516 27.8463 4.1251 25.117 4.1251 25.117L8.96048 19.6154L9.82011 18.5839L11.6468 16.4348L14.2257 15.919L18.6742 10.6968Z" fill="white"/>
<path d="M45.2837 9.44121C45.2296 9.30981 45.2875 9.24411 45.4576 9.24411C46.3773 9.24411 47.2314 10.6547 48.0198 13.4759C48.1744 14.2874 48.2517 15.2613 48.2517 16.3975C48.2517 21.9548 47.4942 24.7334 45.9793 24.7334C45.0982 24.7334 43.4325 22.8166 40.9824 18.9829C39.9235 17.4139 39.2587 16.5637 38.9882 16.4323C38.6559 21.0621 38.424 23.632 38.2926 24.1422C38.2385 24.289 38.1264 24.3547 37.9564 24.3392C36.8356 23.8369 36.2753 22.9712 36.2753 21.7422C36.2753 17.1511 36.9129 13.9705 38.1883 12.2005C38.3506 12.015 38.5399 11.988 38.7564 12.1194C39.7766 12.9696 40.8935 14.4343 42.107 16.5134C43.2663 18.3375 44.3291 19.7752 45.2953 20.8263C45.8208 20.8263 46.0875 19.2805 46.0952 16.1888C46.0952 13.2594 45.8247 11.0102 45.2837 9.44121ZM51.4864 10.6238C52.2825 10.6238 52.7192 11.9918 52.7965 14.728C52.7965 21.5761 52.2168 25.0001 51.0574 25.0001C50.1994 25.0001 49.7086 23.3499 49.585 20.0495C49.585 16.7724 50.0758 13.7425 51.0574 10.96C51.1579 10.7977 51.3009 10.6856 51.4864 10.6238ZM65.2018 21.9045C65.9438 21.5026 66.3148 21.75 66.3148 22.6466C66.3148 24.146 64.17 24.8958 59.8803 24.8958C55.8765 24.8958 53.8747 23.0717 53.8747 19.4235C53.8747 17.1124 54.6669 15.0835 56.2514 13.3367C57.9673 11.4431 60.1431 10.4962 62.7787 10.4962C63.4975 10.4962 64.2357 10.6663 64.9931 11.0064C65.7506 11.3387 66.0714 11.7947 65.9554 12.3744C65.8472 12.9464 65.3487 13.1126 64.4598 12.873C61.6773 12.502 59.5866 13.1551 58.1876 14.8323C56.9123 16.3782 56.2746 17.9511 56.2746 19.551C56.2746 21.4524 57.5654 22.5345 60.1469 22.7973C61.3836 22.7973 62.3498 22.7509 63.0454 22.6581C63.7487 22.5577 64.4676 22.3065 65.2018 21.9045ZM74.303 10.8441C76.1812 10.8054 77.4372 11.1378 78.071 11.8411C78.2874 12.1889 78.2951 12.5793 78.0941 13.0121C77.6304 13.3599 76.5638 13.5338 74.8943 13.5338H72.019C71.6866 14.0285 71.3156 15.3888 70.906 17.6148H70.9871C73.1281 17.4371 74.2875 17.3482 74.4653 17.3482C75.3928 17.3868 75.8565 17.6999 75.8565 18.2873C75.4546 19.153 74.6237 19.6515 73.3639 19.7829C72.3513 19.8756 71.3852 19.9375 70.4654 19.9684L70.3843 21.8814C70.4693 22.8011 70.8751 23.261 71.6016 23.261C74.5851 23.1142 76.4092 22.975 77.0739 22.8436C77.3676 22.8282 77.5145 22.9132 77.5145 23.0987C77.5145 24.1499 75.7445 25.1006 72.2045 25.9508C71.6712 26.0745 71.1533 26.1363 70.6509 26.1363C68.68 26.1363 67.6945 25.1508 67.6945 23.1799C67.6945 22.3915 67.8414 21.2089 68.1351 19.6322C67.1998 19.3616 66.7322 19.0216 66.7322 18.6119C66.7322 18.3182 67.3119 18.0786 68.4713 17.8931C68.8191 16.1463 69.1978 14.6661 69.6075 13.4527H69.5031C68.1737 13.3367 67.509 13.0198 67.509 12.502C67.594 11.6595 69.8587 11.1068 74.303 10.8441Z" fill="#D24E00"/>
<path d="M82.1868 15.5164C83.1606 13.7309 84.0534 12.4865 84.8649 11.7832C86.0398 10.7706 86.9789 10.2644 87.6822 10.2644C88.5092 10.2644 88.9769 11.3271 89.0851 13.4527C89.402 17.5182 89.5875 19.7365 89.6416 20.1075C90.6 14.1174 92.3313 11.1223 94.8356 11.1223C95.3921 11.1223 95.7786 11.2846 95.995 11.6092C96.2191 11.9339 96.3583 12.4749 96.4124 13.2324C96.6211 16.9115 96.6752 19.8718 96.5747 22.1132C96.4742 24.3547 96.1457 25.4909 95.5892 25.5218C94.5921 25.5991 94.055 25.0967 93.9777 24.0146C93.9236 21.5026 93.8965 19.153 93.8965 16.9656C93.8965 15.1028 93.9352 14.0324 94.0124 13.7541C93.1854 14.0865 92.4473 15.6052 91.798 18.3105C91.6357 18.8515 91.3961 19.7829 91.0792 21.1046C90.8087 22.2099 90.6 22.9673 90.4531 23.377C90.3217 23.7634 89.9701 23.9567 89.3981 23.9567C88.4938 23.9953 87.7672 22.4456 87.2185 19.3075C86.832 16.7105 86.6388 14.6816 86.6388 13.2208C85.3248 14.0865 84.4089 14.9444 83.891 15.7946C82.7703 17.5801 82.2254 19.7442 82.2563 22.2871C82.2563 24.2658 81.9085 25.2706 81.2129 25.3015C80.5868 25.3556 80.154 24.973 79.9144 24.1537C79.582 23.1335 79.4158 21.4176 79.4158 19.0061C79.4158 17.2361 79.5704 15.5975 79.8796 14.0903C80.1192 12.9928 80.3047 12.3165 80.4361 12.0614C80.6989 11.5126 81.151 11.2382 81.7926 11.2382C82.4032 11.2382 82.5346 12.6643 82.1868 15.5164ZM104.609 10.8441C106.487 10.8054 107.743 11.1378 108.377 11.8411C108.594 12.1889 108.601 12.5793 108.4 13.0121C107.937 13.3599 106.87 13.5338 105.2 13.5338H102.325C101.993 14.0285 101.622 15.3888 101.212 17.6148H101.293C103.434 17.4371 104.594 17.3482 104.771 17.3482C105.699 17.3868 106.163 17.6999 106.163 18.2873C105.761 19.153 104.93 19.6515 103.67 19.7829C102.658 19.8756 101.691 19.9375 100.772 19.9684L100.69 21.8814C100.775 22.8011 101.181 23.261 101.908 23.261C104.891 23.1142 106.715 22.975 107.38 22.8436C107.674 22.8282 107.821 22.9132 107.821 23.0987C107.821 24.1499 106.051 25.1006 102.511 25.9508C101.977 26.0745 101.46 26.1363 100.957 26.1363C98.9862 26.1363 98.0007 25.1508 98.0007 23.1799C98.0007 22.3915 98.1476 21.2089 98.4413 19.6322C97.506 19.3616 97.0384 19.0216 97.0384 18.6119C97.0384 18.3182 97.6181 18.0786 98.7775 17.8931C99.1253 16.1463 99.504 14.6661 99.9137 13.4527H99.8093C98.4799 13.3367 97.8152 13.0198 97.8152 12.502C97.9002 11.6595 100.165 11.1068 104.609 10.8441ZM118.696 9.44121C118.642 9.30981 118.7 9.24411 118.87 9.24411C119.789 9.24411 120.643 10.6547 121.432 13.4759C121.586 14.2874 121.664 15.2613 121.664 16.3975C121.664 21.9548 120.906 24.7334 119.391 24.7334C118.51 24.7334 116.845 22.8166 114.394 18.9829C113.335 17.4139 112.671 16.5637 112.4 16.4323C112.068 21.0621 111.836 23.632 111.705 24.1422C111.65 24.289 111.538 24.3547 111.368 24.3392C110.248 23.8369 109.687 22.9712 109.687 21.7422C109.687 17.1511 110.325 13.9705 111.6 12.2005C111.763 12.015 111.952 11.988 112.168 12.1194C113.189 12.9696 114.305 14.4343 115.519 16.5134C116.678 18.3375 117.741 19.7752 118.707 20.8263C119.233 20.8263 119.499 19.2805 119.507 16.1888C119.507 13.2594 119.237 11.0102 118.696 9.44121ZM123.322 23.0639C122.827 22.0128 122.645 20.6795 122.777 19.0641C123.31 14.8362 124.624 11.7213 126.719 9.71946C126.889 9.58806 127.074 9.52236 127.275 9.52236C127.577 9.52236 127.77 9.79675 127.855 10.3455C126.603 13.6072 125.814 16.1965 125.49 18.1134C125.374 18.724 125.316 19.3346 125.316 19.9452C125.447 21.5065 125.953 22.2871 126.835 22.2871C128.311 22.2871 129.741 19.7172 131.124 14.5773C131.487 12.9773 131.909 12.1773 132.388 12.1773C132.628 12.1773 132.859 12.5058 133.084 13.1628C133.617 15.2188 134.077 17.2284 134.463 19.1916C134.85 21.1471 135.116 22.7316 135.263 23.9451C135.263 24.6871 134.834 25.0581 133.976 25.0581C133.528 25.0581 133.165 24.6523 132.886 23.8407C132.608 23.0291 132.349 21.1046 132.11 18.067C131.63 20.3317 130.769 22.1094 129.524 23.4002C128.489 24.3972 127.491 24.8958 126.533 24.8958H126.498C125.007 24.8571 123.948 24.2465 123.322 23.0639Z" fill="#15501A"/>
<path d="M5.70457 38.5676C5.6648 38.1955 5.49718 37.9057 5.20173 37.6983C4.90911 37.4909 4.52843 37.3872 4.05968 37.3872C3.73014 37.3872 3.44747 37.4369 3.21167 37.5364C2.97588 37.6358 2.79548 37.7708 2.67048 37.9412C2.54548 38.1117 2.48156 38.3063 2.47872 38.525C2.47872 38.7068 2.51991 38.8645 2.6023 38.998C2.68752 39.1315 2.80258 39.2452 2.94747 39.3389C3.09235 39.4298 3.25286 39.5065 3.429 39.569C3.60514 39.6315 3.78269 39.6841 3.96167 39.7267L4.77985 39.9313C5.1094 40.008 5.42616 40.1117 5.73014 40.2423C6.03696 40.373 6.3111 40.5378 6.55258 40.7367C6.7969 40.9355 6.99008 41.1756 7.13213 41.4568C7.27417 41.7381 7.34519 42.0676 7.34519 42.4455C7.34519 42.9568 7.21451 43.4071 6.95315 43.7963C6.69179 44.1827 6.31394 44.4852 5.81963 44.704C5.32815 44.9199 4.73298 45.0279 4.03411 45.0279C3.35514 45.0279 2.76565 44.9227 2.26565 44.7125C1.76849 44.5023 1.37928 44.1955 1.09803 43.7921C0.819626 43.3886 0.669058 42.8972 0.64633 42.3176H2.20173C2.22446 42.6216 2.31821 42.8744 2.48298 43.0761C2.64775 43.2779 2.86224 43.4284 3.12644 43.5279C3.39349 43.6273 3.69179 43.677 4.02133 43.677C4.36508 43.677 4.66622 43.6259 4.92474 43.5236C5.1861 43.4185 5.39065 43.2736 5.53838 43.0889C5.6861 42.9014 5.76139 42.6827 5.76423 42.4327C5.76139 42.2054 5.69463 42.0179 5.56394 41.8702C5.43326 41.7196 5.25002 41.5946 5.01423 41.4952C4.78127 41.3929 4.50855 41.302 4.19605 41.2225L3.20315 40.9668C2.4844 40.7821 1.91622 40.5023 1.4986 40.1273C1.08383 39.7494 0.876444 39.248 0.876444 38.623C0.876444 38.1088 1.01565 37.6585 1.29406 37.2722C1.57531 36.8858 1.95741 36.5861 2.44036 36.373C2.92332 36.1571 3.47019 36.0492 4.08099 36.0492C4.70031 36.0492 5.24292 36.1571 5.70883 36.373C6.17758 36.5861 6.54548 36.883 6.81252 37.2636C7.07957 37.6415 7.21735 38.0761 7.22588 38.5676H5.70457ZM12.9063 42.1429V38.3503H14.4489V44.8958H12.9532V43.7324H12.885C12.7373 44.0989 12.4944 44.3986 12.1563 44.6315C11.8211 44.8645 11.4078 44.981 10.9163 44.981C10.4873 44.981 10.108 44.8858 9.77849 44.6955C9.45179 44.5023 9.19611 44.2225 9.01145 43.856C8.82679 43.4867 8.73446 43.0406 8.73446 42.5179V38.3503H10.2771V42.2793C10.2771 42.694 10.3907 43.0236 10.618 43.2679C10.8453 43.5122 11.1435 43.6344 11.5129 43.6344C11.7401 43.6344 11.9603 43.579 12.1734 43.4682C12.3864 43.3574 12.5612 43.1926 12.6975 42.9739C12.8367 42.7523 12.9063 42.4753 12.9063 42.1429ZM16.0832 44.8958V38.3503H17.5577V39.4625H17.6344C17.7707 39.0875 17.9966 38.7949 18.3119 38.5847C18.6273 38.3716 19.0037 38.2651 19.4412 38.2651C19.8844 38.2651 20.258 38.373 20.5619 38.5889C20.8688 38.802 21.0847 39.0932 21.2097 39.4625H21.2778C21.4227 39.0989 21.667 38.8091 22.0108 38.5932C22.3574 38.3744 22.7679 38.2651 23.2423 38.2651C23.8446 38.2651 24.3361 38.4554 24.7168 38.8361C25.0974 39.2168 25.2878 39.7722 25.2878 40.5023V44.8958H23.7409V40.7409C23.7409 40.3347 23.633 40.0378 23.417 39.8503C23.2011 39.66 22.9369 39.5648 22.6244 39.5648C22.2523 39.5648 21.9611 39.6813 21.7509 39.9142C21.5435 40.1443 21.4398 40.444 21.4398 40.8134V44.8958H19.927V40.677C19.927 40.3389 19.8247 40.069 19.6202 39.8673C19.4185 39.6656 19.1543 39.5648 18.8276 39.5648C18.606 39.5648 18.4043 39.6216 18.2224 39.7352C18.0406 39.846 17.8957 40.0037 17.7878 40.2083C17.6798 40.41 17.6259 40.6458 17.6259 40.9156V44.8958H16.0832ZM26.9008 47.3503V38.3503H28.4178V39.4327H28.5073C28.5868 39.2736 28.6991 39.1046 28.844 38.9256C28.9888 38.7438 29.1849 38.5889 29.432 38.4611C29.6792 38.3304 29.9945 38.2651 30.378 38.2651C30.8837 38.2651 31.3397 38.3943 31.7459 38.6529C32.155 38.9085 32.4789 39.2878 32.7175 39.7906C32.959 40.2906 33.0797 40.9043 33.0797 41.6315C33.0797 42.3503 32.9618 42.9611 32.7261 43.4639C32.4903 43.9668 32.1692 44.3503 31.763 44.6145C31.3567 44.8787 30.8965 45.0108 30.3823 45.0108C30.0073 45.0108 29.6962 44.9483 29.4491 44.8233C29.2019 44.6983 29.003 44.5477 28.8525 44.3716C28.7047 44.1926 28.5897 44.0236 28.5073 43.8645H28.4434V47.3503H26.9008ZM28.4136 41.623C28.4136 42.0463 28.4732 42.4171 28.5925 42.7352C28.7147 43.0534 28.8894 43.302 29.1167 43.481C29.3468 43.6571 29.6252 43.7452 29.9519 43.7452C30.2928 43.7452 30.5783 43.6543 30.8084 43.4725C31.0386 43.2878 31.2118 43.0364 31.3283 42.7182C31.4476 42.3972 31.5073 42.0321 31.5073 41.623C31.5073 41.2168 31.4491 40.856 31.3326 40.5406C31.2161 40.2253 31.0428 39.9781 30.8127 39.7992C30.5826 39.6202 30.2957 39.5307 29.9519 39.5307C29.6224 39.5307 29.3425 39.6173 29.1124 39.7906C28.8823 39.9639 28.7076 40.2068 28.5883 40.5193C28.4718 40.8318 28.4136 41.1997 28.4136 41.623ZM37.7172 38.3503V39.5435H33.9545V38.3503H37.7172ZM34.8834 36.7821H36.426V42.927C36.426 43.1344 36.4573 43.2935 36.5198 43.4043C36.5851 43.5122 36.6704 43.5861 36.7755 43.6259C36.8806 43.6656 36.9971 43.6855 37.1249 43.6855C37.2215 43.6855 37.3096 43.6784 37.3891 43.6642C37.4715 43.65 37.534 43.6372 37.5766 43.6259L37.8366 44.8318C37.7542 44.8602 37.6363 44.8915 37.4829 44.9256C37.3323 44.9597 37.1476 44.9796 36.9289 44.9852C36.5425 44.9966 36.1945 44.9384 35.8849 44.8105C35.5752 44.6798 35.3295 44.4781 35.1476 44.2054C34.9687 43.9327 34.8806 43.5918 34.8834 43.1827V36.7821ZM43.2272 42.1429V38.3503H44.7699V44.8958H43.2741V43.7324H43.2059C43.0582 44.0989 42.8153 44.3986 42.4772 44.6315C42.142 44.8645 41.7287 44.981 41.2372 44.981C40.8082 44.981 40.4289 44.8858 40.0994 44.6955C39.7727 44.5023 39.517 44.2225 39.3324 43.856C39.1477 43.4867 39.0554 43.0406 39.0554 42.5179V38.3503H40.598V42.2793C40.598 42.694 40.7116 43.0236 40.9389 43.2679C41.1662 43.5122 41.4645 43.6344 41.8338 43.6344C42.061 43.6344 42.2812 43.579 42.4943 43.4682C42.7074 43.3574 42.8821 43.1926 43.0184 42.9739C43.1576 42.7523 43.2272 42.4753 43.2272 42.1429ZM49.2593 45.0236C48.6201 45.0236 48.0661 44.883 47.5973 44.6017C47.1286 44.3205 46.7649 43.927 46.5064 43.4213C46.2507 42.9156 46.1229 42.3247 46.1229 41.6486C46.1229 40.9725 46.2507 40.3801 46.5064 39.8716C46.7649 39.3631 47.1286 38.9682 47.5973 38.6869C48.0661 38.4057 48.6201 38.2651 49.2593 38.2651C49.8985 38.2651 50.4524 38.4057 50.9212 38.6869C51.3899 38.9682 51.7522 39.3631 52.0078 39.8716C52.2664 40.3801 52.3956 40.9725 52.3956 41.6486C52.3956 42.3247 52.2664 42.9156 52.0078 43.4213C51.7522 43.927 51.3899 44.3205 50.9212 44.6017C50.4524 44.883 49.8985 45.0236 49.2593 45.0236ZM49.2678 43.7878C49.6144 43.7878 49.9041 43.6926 50.1371 43.5023C50.3701 43.3091 50.5433 43.0506 50.657 42.7267C50.7735 42.4029 50.8317 42.0421 50.8317 41.6443C50.8317 41.2438 50.7735 40.8815 50.657 40.5577C50.5433 40.231 50.3701 39.971 50.1371 39.7779C49.9041 39.5847 49.6144 39.4881 49.2678 39.4881C48.9127 39.4881 48.6172 39.5847 48.3814 39.7779C48.1485 39.971 47.9737 40.231 47.8573 40.5577C47.7436 40.8815 47.6868 41.2438 47.6868 41.6443C47.6868 42.0421 47.7436 42.4029 47.8573 42.7267C47.9737 43.0506 48.1485 43.3091 48.3814 43.5023C48.6172 43.6926 48.9127 43.7878 49.2678 43.7878ZM57.9248 42.1429V38.3503H59.4674V44.8958H57.9717V43.7324H57.9035C57.7558 44.0989 57.5129 44.3986 57.1748 44.6315C56.8396 44.8645 56.4262 44.981 55.9347 44.981C55.5058 44.981 55.1265 44.8858 54.797 44.6955C54.4703 44.5023 54.2146 44.2225 54.0299 43.856C53.8453 43.4867 53.7529 43.0406 53.7529 42.5179V38.3503H55.2955V42.2793C55.2955 42.694 55.4092 43.0236 55.6364 43.2679C55.8637 43.5122 56.162 43.6344 56.5313 43.6344C56.7586 43.6344 56.9788 43.579 57.1918 43.4682C57.4049 43.3574 57.5796 43.1926 57.716 42.9739C57.8552 42.7523 57.9248 42.4753 57.9248 42.1429ZM66.275 40.0804L64.8688 40.2338C64.829 40.0918 64.7594 39.9583 64.6599 39.8333C64.5634 39.7083 64.4327 39.6074 64.2679 39.5307C64.1031 39.454 63.9014 39.4156 63.6628 39.4156C63.3418 39.4156 63.0719 39.4852 62.8531 39.6244C62.6372 39.7636 62.5307 39.944 62.5335 40.1656C62.5307 40.356 62.6003 40.5108 62.7423 40.6301C62.8872 40.7494 63.1259 40.8475 63.4582 40.9242L64.5747 41.1628C65.194 41.2963 65.6543 41.508 65.9554 41.7977C66.2594 42.0875 66.4128 42.4668 66.4156 42.9355C66.4128 43.3475 66.292 43.7111 66.0534 44.0264C65.8176 44.3389 65.4895 44.5833 65.069 44.7594C64.6486 44.9355 64.1656 45.0236 63.6202 45.0236C62.819 45.0236 62.1742 44.856 61.6855 44.5208C61.1969 44.1827 60.9057 43.7125 60.8119 43.1102L62.3162 42.9654C62.3844 43.2608 62.5293 43.4838 62.7509 43.6344C62.9724 43.785 63.2608 43.8602 63.6159 43.8602C63.9824 43.8602 64.2764 43.785 64.498 43.6344C64.7224 43.4838 64.8347 43.2977 64.8347 43.0761C64.8347 42.8886 64.7622 42.7338 64.6173 42.6117C64.4753 42.4895 64.2537 42.3958 63.9526 42.3304L62.8361 42.096C62.2082 41.9654 61.7438 41.7452 61.4426 41.4355C61.1415 41.123 60.9923 40.7281 60.9952 40.2509C60.9923 39.8475 61.1017 39.498 61.3233 39.2026C61.5477 38.9043 61.8588 38.6742 62.2565 38.5122C62.6571 38.3475 63.1188 38.2651 63.6415 38.2651C64.4085 38.2651 65.0122 38.4284 65.4526 38.7551C65.8957 39.0818 66.1699 39.5236 66.275 40.0804ZM70.8284 36.1685H72.7631L75.354 42.4923H75.4562L78.0471 36.1685H79.9818V44.8958H78.4648V38.9H78.3838L75.9719 44.8702H74.8383L72.4264 38.8872H72.3454V44.8958H70.8284V36.1685ZM84.5809 45.0236C83.9247 45.0236 83.3579 44.8872 82.8807 44.6145C82.4062 44.3389 82.0412 43.9497 81.7855 43.4469C81.5298 42.9412 81.402 42.346 81.402 41.6614C81.402 40.9881 81.5298 40.3972 81.7855 39.8886C82.044 39.3773 82.4048 38.9796 82.8679 38.6955C83.3309 38.4085 83.875 38.2651 84.5 38.2651C84.9034 38.2651 85.2841 38.3304 85.642 38.4611C86.0028 38.5889 86.321 38.7878 86.5966 39.0577C86.875 39.3276 87.0937 39.6713 87.2528 40.0889C87.4119 40.5037 87.4914 40.998 87.4914 41.5719V42.0449H82.1264V41.0051H86.0128C86.0099 40.7097 85.946 40.4469 85.821 40.2168C85.696 39.9838 85.5213 39.8006 85.2968 39.6671C85.0753 39.5335 84.8167 39.4668 84.5213 39.4668C84.2059 39.4668 83.9289 39.5435 83.6903 39.6969C83.4517 39.8475 83.2656 40.0463 83.1321 40.2935C83.0014 40.5378 82.9346 40.8063 82.9318 41.0989V42.0065C82.9318 42.3872 83.0014 42.7139 83.1406 42.9867C83.2798 43.2565 83.4744 43.4639 83.7244 43.6088C83.9744 43.7509 84.267 43.8219 84.6022 43.8219C84.8267 43.8219 85.0298 43.7906 85.2116 43.7281C85.3934 43.6628 85.5511 43.5676 85.6846 43.4426C85.8182 43.3176 85.919 43.1628 85.9872 42.9781L87.4275 43.1401C87.3366 43.5208 87.1633 43.8531 86.9076 44.1372C86.6548 44.4185 86.3309 44.6372 85.936 44.7935C85.5412 44.9469 85.0895 45.0236 84.5809 45.0236ZM90.728 45.0279C90.3132 45.0279 89.9397 44.954 89.6073 44.8063C89.2777 44.6557 89.0164 44.4341 88.8232 44.1415C88.6328 43.8489 88.5377 43.4881 88.5377 43.0591C88.5377 42.6898 88.6058 42.3844 88.7422 42.1429C88.8786 41.9014 89.0647 41.7083 89.3005 41.5634C89.5362 41.4185 89.8019 41.3091 90.0973 41.2352C90.3956 41.1585 90.7039 41.1031 91.022 41.069C91.4056 41.0293 91.7166 40.9938 91.9553 40.9625C92.1939 40.9284 92.3672 40.8773 92.4752 40.8091C92.586 40.7381 92.6414 40.6287 92.6414 40.481V40.4554C92.6414 40.1344 92.5462 39.8858 92.3558 39.7097C92.1655 39.5335 91.8914 39.4455 91.5334 39.4455C91.1556 39.4455 90.8558 39.5279 90.6343 39.6926C90.4155 39.8574 90.2678 40.052 90.1911 40.2764L88.7507 40.0719C88.8644 39.6742 89.0519 39.3418 89.3132 39.0747C89.5746 38.8048 89.8942 38.6031 90.272 38.4696C90.6499 38.3333 91.0675 38.2651 91.5249 38.2651C91.8402 38.2651 92.1541 38.302 92.4666 38.3759C92.7791 38.4497 93.0647 38.5719 93.3232 38.7423C93.5817 38.91 93.7891 39.1386 93.9453 39.4284C94.1044 39.7182 94.184 40.0804 94.184 40.5151V44.8958H92.701V43.9966H92.6499C92.5561 44.1784 92.424 44.3489 92.2536 44.508C92.086 44.6642 91.8743 44.7906 91.6186 44.8872C91.3658 44.981 91.0689 45.0279 90.728 45.0279ZM91.1286 43.8943C91.4382 43.8943 91.7067 43.8333 91.934 43.7111C92.1612 43.5861 92.336 43.4213 92.4581 43.2168C92.5831 43.0122 92.6456 42.7892 92.6456 42.5477V41.7764C92.5973 41.8162 92.5149 41.8531 92.3985 41.8872C92.2848 41.9213 92.157 41.9511 92.0149 41.9767C91.8729 42.0023 91.7323 42.025 91.5931 42.0449C91.4539 42.0648 91.3331 42.0818 91.2308 42.096C91.0007 42.1273 90.7948 42.1784 90.613 42.2494C90.4311 42.3205 90.2877 42.4199 90.1826 42.5477C90.0774 42.6727 90.0249 42.8347 90.0249 43.0335C90.0249 43.3176 90.1286 43.5321 90.336 43.677C90.5433 43.8219 90.8076 43.8943 91.1286 43.8943ZM97.3257 36.1685V44.8958H95.7831V36.1685H97.3257ZM100.771 43.7026L100.716 44.1713C100.676 44.5293 100.605 44.8929 100.503 45.2622C100.403 45.6344 100.298 45.9767 100.187 46.2892C100.076 46.6017 99.987 46.8475 99.9188 47.0264H98.8791C98.9188 46.8531 98.9728 46.6173 99.041 46.319C99.112 46.0208 99.1802 45.6855 99.2455 45.3134C99.3109 44.9412 99.3549 44.5634 99.3776 44.1798L99.4075 43.7026H100.771ZM110.113 38.5676C110.073 38.1955 109.906 37.9057 109.61 37.6983C109.318 37.4909 108.937 37.3872 108.468 37.3872C108.139 37.3872 107.856 37.4369 107.62 37.5364C107.384 37.6358 107.204 37.7708 107.079 37.9412C106.954 38.1117 106.89 38.3063 106.887 38.525C106.887 38.7068 106.929 38.8645 107.011 38.998C107.096 39.1315 107.211 39.2452 107.356 39.3389C107.501 39.4298 107.661 39.5065 107.838 39.569C108.014 39.6315 108.191 39.6841 108.37 39.7267L109.188 39.9313C109.518 40.008 109.835 40.1117 110.139 40.2423C110.446 40.373 110.72 40.5378 110.961 40.7367C111.206 40.9355 111.399 41.1756 111.541 41.4568C111.683 41.7381 111.754 42.0676 111.754 42.4455C111.754 42.9568 111.623 43.4071 111.362 43.7963C111.1 44.1827 110.723 44.4852 110.228 44.704C109.737 44.9199 109.142 45.0279 108.443 45.0279C107.764 45.0279 107.174 44.9227 106.674 44.7125C106.177 44.5023 105.788 44.1955 105.507 43.7921C105.228 43.3886 105.078 42.8972 105.055 42.3176H106.61C106.633 42.6216 106.727 42.8744 106.892 43.0761C107.056 43.2779 107.271 43.4284 107.535 43.5279C107.802 43.6273 108.1 43.677 108.43 43.677C108.774 43.677 109.075 43.6259 109.333 43.5236C109.595 43.4185 109.799 43.2736 109.947 43.0889C110.095 42.9014 110.17 42.6827 110.173 42.4327C110.17 42.2054 110.103 42.0179 109.973 41.8702C109.842 41.7196 109.659 41.5946 109.423 41.4952C109.19 41.3929 108.917 41.302 108.605 41.2225L107.612 40.9668C106.893 40.7821 106.325 40.5023 105.907 40.1273C105.492 39.7494 105.285 39.248 105.285 38.623C105.285 38.1088 105.424 37.6585 105.703 37.2722C105.984 36.8858 106.366 36.5861 106.849 36.373C107.332 36.1571 107.879 36.0492 108.49 36.0492C109.109 36.0492 109.652 36.1571 110.117 36.373C110.586 36.5861 110.954 36.883 111.221 37.2636C111.488 37.6415 111.626 38.0761 111.634 38.5676H110.113ZM114.494 44.8958L112.645 38.3503H114.217L115.368 42.9526H115.427L116.603 38.3503H118.159L119.335 42.927H119.399L120.532 38.3503H122.109L120.255 44.8958H118.649L117.421 40.4725H117.332L116.105 44.8958H114.494ZM123.234 44.8958V38.3503H124.777V44.8958H123.234ZM124.01 37.4213C123.765 37.4213 123.555 37.3404 123.379 37.1784C123.203 37.0136 123.115 36.8162 123.115 36.5861C123.115 36.3531 123.203 36.1557 123.379 35.9938C123.555 35.829 123.765 35.7466 124.01 35.7466C124.257 35.7466 124.467 35.829 124.64 35.9938C124.816 36.1557 124.905 36.3531 124.905 36.5861C124.905 36.8162 124.816 37.0136 124.64 37.1784C124.467 37.3404 124.257 37.4213 124.01 37.4213ZM129.726 38.3503V39.5435H125.857V38.3503H129.726ZM126.824 44.8958V37.7324C126.824 37.2921 126.915 36.9256 127.097 36.633C127.282 36.3404 127.529 36.1216 127.839 35.9767C128.148 35.8318 128.492 35.7594 128.87 35.7594C129.137 35.7594 129.374 35.7807 129.581 35.8233C129.789 35.8659 129.942 35.9043 130.042 35.9384L129.735 37.1315C129.669 37.1117 129.587 37.0918 129.488 37.0719C129.388 37.0492 129.277 37.0378 129.155 37.0378C128.868 37.0378 128.665 37.1074 128.546 37.2466C128.429 37.383 128.371 37.579 128.371 37.8347V44.8958H126.824ZM134.251 38.3503V39.5435H130.488V38.3503H134.251ZM131.417 36.7821H132.96V42.927C132.96 43.1344 132.991 43.2935 133.053 43.4043C133.119 43.5122 133.204 43.5861 133.309 43.6259C133.414 43.6656 133.531 43.6855 133.659 43.6855C133.755 43.6855 133.843 43.6784 133.923 43.6642C134.005 43.65 134.068 43.6372 134.11 43.6259L134.37 44.8318C134.288 44.8602 134.17 44.8915 134.016 44.9256C133.866 44.9597 133.681 44.9796 133.463 44.9852C133.076 44.9966 132.728 44.9384 132.418 44.8105C132.109 44.6798 131.863 44.4781 131.681 44.2054C131.502 43.9327 131.414 43.5918 131.417 43.1827V36.7821ZM141.639 44.8958H138.682V36.1685H141.699C142.565 36.1685 143.31 36.3432 143.932 36.6926C144.557 37.0392 145.037 37.5378 145.372 38.1884C145.707 38.8389 145.875 39.6173 145.875 40.5236C145.875 41.4327 145.706 42.2139 145.368 42.8673C145.033 43.5208 144.548 44.0222 143.915 44.3716C143.284 44.721 142.525 44.8958 141.639 44.8958ZM140.263 43.5279H141.562C142.17 43.5279 142.677 43.4171 143.084 43.1955C143.49 42.971 143.795 42.6372 144 42.194C144.204 41.748 144.307 41.1912 144.307 40.5236C144.307 39.856 144.204 39.302 144 38.8617C143.795 38.4185 143.493 38.0875 143.092 37.8688C142.695 37.6472 142.2 37.5364 141.609 37.5364H140.263V43.5279ZM150.255 45.0236C149.598 45.0236 149.032 44.8872 148.554 44.6145C148.08 44.3389 147.715 43.9497 147.459 43.4469C147.203 42.9412 147.076 42.346 147.076 41.6614C147.076 40.9881 147.203 40.3972 147.459 39.8886C147.718 39.3773 148.078 38.9796 148.542 38.6955C149.005 38.4085 149.549 38.2651 150.174 38.2651C150.577 38.2651 150.958 38.3304 151.316 38.4611C151.676 38.5889 151.995 38.7878 152.27 39.0577C152.549 39.3276 152.767 39.6713 152.926 40.0889C153.086 40.5037 153.165 40.998 153.165 41.5719V42.0449H147.8V41.0051H151.686C151.684 40.7097 151.62 40.4469 151.495 40.2168C151.37 39.9838 151.195 39.8006 150.971 39.6671C150.749 39.5335 150.49 39.4668 150.195 39.4668C149.88 39.4668 149.603 39.5435 149.364 39.6969C149.125 39.8475 148.939 40.0463 148.806 40.2935C148.675 40.5378 148.608 40.8063 148.605 41.0989V42.0065C148.605 42.3872 148.675 42.7139 148.814 42.9867C148.953 43.2565 149.148 43.4639 149.398 43.6088C149.648 43.7509 149.941 43.8219 150.276 43.8219C150.5 43.8219 150.703 43.7906 150.885 43.7281C151.067 43.6628 151.225 43.5676 151.358 43.4426C151.492 43.3176 151.593 43.1628 151.661 42.9781L153.101 43.1401C153.01 43.5208 152.837 43.8531 152.581 44.1372C152.328 44.4185 152.005 44.6372 151.61 44.7935C151.215 44.9469 150.763 45.0236 150.255 45.0236ZM156.061 36.1685V44.8958H154.518V36.1685H156.061ZM157.695 44.8958V38.3503H159.238V44.8958H157.695ZM158.471 37.4213C158.226 37.4213 158.016 37.3404 157.84 37.1784C157.664 37.0136 157.576 36.8162 157.576 36.5861C157.576 36.3531 157.664 36.1557 157.84 35.9938C158.016 35.829 158.226 35.7466 158.471 35.7466C158.718 35.7466 158.928 35.829 159.101 35.9938C159.277 36.1557 159.366 36.3531 159.366 36.5861C159.366 36.8162 159.277 37.0136 159.101 37.1784C158.928 37.3404 158.718 37.4213 158.471 37.4213ZM166.719 38.3503L164.388 44.8958H162.683L160.352 38.3503H161.997L163.501 43.2125H163.569L165.078 38.3503H166.719ZM170.509 45.0236C169.853 45.0236 169.286 44.8872 168.809 44.6145C168.334 44.3389 167.969 43.9497 167.714 43.4469C167.458 42.9412 167.33 42.346 167.33 41.6614C167.33 40.9881 167.458 40.3972 167.714 39.8886C167.972 39.3773 168.333 38.9796 168.796 38.6955C169.259 38.4085 169.803 38.2651 170.428 38.2651C170.832 38.2651 171.212 38.3304 171.57 38.4611C171.931 38.5889 172.249 38.7878 172.525 39.0577C172.803 39.3276 173.022 39.6713 173.181 40.0889C173.34 40.5037 173.42 40.998 173.42 41.5719V42.0449H168.055V41.0051H171.941C171.938 40.7097 171.874 40.4469 171.749 40.2168C171.624 39.9838 171.449 39.8006 171.225 39.6671C171.003 39.5335 170.745 39.4668 170.449 39.4668C170.134 39.4668 169.857 39.5435 169.618 39.6969C169.38 39.8475 169.194 40.0463 169.06 40.2935C168.93 40.5378 168.863 40.8063 168.86 41.0989V42.0065C168.86 42.3872 168.93 42.7139 169.069 42.9867C169.208 43.2565 169.403 43.4639 169.653 43.6088C169.903 43.7509 170.195 43.8219 170.53 43.8219C170.755 43.8219 170.958 43.7906 171.14 43.7281C171.322 43.6628 171.479 43.5676 171.613 43.4426C171.746 43.3176 171.847 43.1628 171.915 42.9781L173.356 43.1401C173.265 43.5208 173.091 43.8531 172.836 44.1372C172.583 44.4185 172.259 44.6372 171.864 44.7935C171.469 44.9469 171.018 45.0236 170.509 45.0236ZM174.773 44.8958V38.3503H176.268V39.4412H176.337C176.456 39.0634 176.66 38.7722 176.95 38.5676C177.243 38.3602 177.577 38.2565 177.952 38.2565C178.037 38.2565 178.132 38.2608 178.237 38.2693C178.345 38.275 178.435 38.285 178.506 38.2992V39.7182C178.44 39.6955 178.337 39.6756 178.195 39.6585C178.055 39.6386 177.92 39.6287 177.79 39.6287C177.508 39.6287 177.256 39.6898 177.031 39.8119C176.81 39.9313 176.635 40.0975 176.507 40.3105C176.379 40.5236 176.315 40.7693 176.315 41.0477V44.8958H174.773ZM180.736 47.3503C180.526 47.3503 180.332 47.3333 180.153 47.2992C179.977 47.2679 179.836 47.231 179.731 47.1884L180.089 45.9867C180.313 46.052 180.513 46.0833 180.69 46.0804C180.866 46.0776 181.021 46.0222 181.154 45.9142C181.29 45.8091 181.406 45.633 181.499 45.3858L181.631 45.0321L179.258 38.3503H180.894L182.403 43.2935H182.471L183.984 38.3503H185.624L183.004 45.6884C182.881 46.035 182.719 46.3318 182.518 46.579C182.316 46.829 182.069 47.0193 181.776 47.15C181.486 47.2835 181.14 47.3503 180.736 47.3503Z" fill="#70727A"/>
<path d="M12.0007 69.6458C10.2057 69.6458 8.75067 71.1009 8.75067 72.8958C8.75067 74.6907 10.2057 76.1458 12.0007 76.1458C13.7956 76.1458 15.2507 74.6907 15.2507 72.8958C15.2507 71.1009 13.7956 69.6458 12.0007 69.6458Z" fill="#70727A"/>
<path fill-rule="evenodd" clip-rule="evenodd" d="M6.77021 63.9773C10.2183 63.5919 13.783 63.5919 17.2312 63.9773C19.1296 64.1894 20.6607 65.6852 20.8836 67.5903C21.2958 71.1153 21.2958 74.6763 20.8836 78.2013C20.6607 80.1064 19.1296 81.6022 17.2312 81.8143C13.783 82.1997 10.2183 82.1997 6.77021 81.8143C4.87181 81.6022 3.34062 80.1064 3.1178 78.2013C2.70552 74.6763 2.70552 71.1153 3.1178 67.5903C3.34062 65.6852 4.87181 64.1894 6.77021 63.9773ZM17.0007 66.8958C16.4484 66.8958 16.0007 67.3435 16.0007 67.8958C16.0007 68.4481 16.4484 68.8958 17.0007 68.8958C17.553 68.8958 18.0007 68.4481 18.0007 67.8958C18.0007 67.3435 17.553 66.8958 17.0007 66.8958ZM7.25067 72.8958C7.25067 70.2724 9.37732 68.1458 12.0007 68.1458C14.624 68.1458 16.7507 70.2724 16.7507 72.8958C16.7507 75.5191 14.624 77.6458 12.0007 77.6458C9.37732 77.6458 7.25067 75.5191 7.25067 72.8958Z" fill="#70727A"/>
<path d="M42.2 63.7708C40.9734 63.7708 39.797 64.258 38.9296 65.1254C38.0623 65.9927 37.575 67.1691 37.575 68.3958V70.9708H35.1C34.9757 70.9708 34.875 71.0715 34.875 71.1958V74.5958C34.875 74.72 34.9757 74.8208 35.1 74.8208H37.575V81.7958C37.575 81.92 37.6757 82.0208 37.8 82.0208H41.2C41.3243 82.0208 41.425 81.92 41.425 81.7958V74.8208H43.9219C44.0252 74.8208 44.1152 74.7505 44.1402 74.6503L44.9902 71.2503C45.0257 71.1083 44.9183 70.9708 44.7719 70.9708H41.425V68.3958C41.425 68.1902 41.5067 67.9931 41.652 67.8477C41.7973 67.7024 41.9945 67.6208 42.2 67.6208H44.8C44.9243 67.6208 45.025 67.52 45.025 67.3958V63.9958C45.025 63.8715 44.9243 63.7708 44.8 63.7708H42.2Z" fill="#70727A"/>
<path d="M77.8088 67.123C77.8667 67.0422 77.7812 66.9379 77.6885 66.9739C77.0297 67.2292 76.3413 67.4015 75.6391 67.4864C76.421 67.0192 77.0243 66.3081 77.3589 65.4663C77.393 65.3805 77.2993 65.3039 77.2186 65.3486C76.4918 65.7499 75.7081 66.0389 74.8939 66.2053C74.8599 66.2123 74.8247 66.2007 74.8008 66.1754C74.1898 65.5308 73.3856 65.1015 72.5089 64.9532C71.6137 64.8018 70.6936 64.9517 69.8928 65.3795C69.0921 65.8074 68.456 66.4889 68.0843 67.3172C67.7309 68.1047 67.6355 68.9827 67.8098 69.8258C67.8234 69.8912 67.7721 69.953 67.7055 69.9488C66.1214 69.8504 64.5737 69.4291 63.1577 68.7102C61.7453 67.9931 60.4946 66.9956 59.4817 65.779C59.4367 65.7251 59.3515 65.732 59.3188 65.7942C59.0036 66.3923 58.8386 67.0589 58.8391 67.7364C58.8378 68.4107 59.0033 69.075 59.3208 69.6699C59.6383 70.2649 60.0981 70.7721 60.6591 71.1464C60.0641 71.1302 59.4808 70.9831 58.9503 70.7164C58.8819 70.6821 58.7999 70.731 58.8035 70.8074C58.8448 71.6967 59.1713 72.5894 59.7364 73.2743C60.3377 74.0032 61.1723 74.502 62.0991 74.6864C61.7423 74.7949 61.3719 74.8522 60.9991 74.8564C60.7961 74.854 60.5936 74.839 60.3926 74.8115C60.3181 74.8013 60.2572 74.8721 60.2833 74.9427C60.5597 75.6902 61.048 76.3424 61.6901 76.8185C62.3766 77.3275 63.2046 77.6099 64.0591 77.6264C62.6163 78.7616 60.8349 79.3812 58.9991 79.3864C58.8104 79.387 58.6218 79.3809 58.4337 79.368C58.3277 79.3608 58.279 79.5021 58.3703 79.5563C60.1591 80.6178 62.2036 81.1789 64.2891 81.1764C65.8287 81.1923 67.3562 80.9014 68.7822 80.3204C70.2081 79.7395 71.5041 78.8802 72.5943 77.7928C73.6844 76.7055 74.547 75.4117 75.1316 73.9873C75.7162 72.5628 76.0111 71.0361 75.9991 69.4964V69.0165C75.9991 68.985 76.014 68.9553 76.0392 68.9362C76.7175 68.4241 77.314 67.8127 77.8088 67.123Z" fill="#70727A"/>
<defs>
<radialGradient id="paint0_radial_1065_3501" cx="0" cy="0" r="1" gradientUnits="userSpaceOnUse" gradientTransform="translate(5.17102 7.86498) scale(21.3427 21.3427)">
<stop offset="0.3331" stop-color="#FBAE08"/>
<stop offset="0.3956" stop-color="#F49D07"/>
<stop offset="0.5451" stop-color="#E57B04"/>
<stop offset="0.6868" stop-color="#DB6202"/>
<stop offset="0.8161" stop-color="#D45300"/>
<stop offset="0.9218" stop-color="#D24E00"/>
</radialGradient>
</defs>
</svg>
