<svg width="136" height="33" viewBox="0 0 136 33" fill="none" xmlns="http://www.w3.org/2000/svg">
<path d="M10.8528 5.56452L14.4417 1.97559L18.9977 6.5316L10.8528 5.56452ZM28.8619 16.3958L25.1225 12.6564L23.6397 21.618L28.8619 16.3958ZM9.71376 26.0881L14.4417 30.816L18.2026 27.0551L9.71376 26.0881ZM5.22222 11.1951L0 16.4173L3.78235 20.1996L5.22222 11.1951Z" fill="#15501A"/>
<path d="M24.1121 9.13181L27.6795 5.86523L24.1121 6.70337H4.72754V24.1323L1.35352 27.055L5.67313 26.0879H24.1121V9.13181Z" fill="url(#paint0_radial_912_2985)"/>
<path d="M13.0003 17.9425C11.324 19.6402 10.1635 22.3266 11.0876 23.2507C12.0117 24.1748 14.6981 22.9713 16.3743 21.2735C17.8572 19.7692 18.0291 18.4153 17.4274 17.4697L20.1137 15.0627L20.9948 14.2676L25.8087 9.84051C25.8087 9.84051 29.1183 6.91779 28.2586 5.90773L28.2372 5.88624L28.2157 5.86475C27.2056 5.02661 24.3259 8.35766 24.3259 8.35766L19.9848 13.1716L19.1037 14.1816L16.8042 16.825C15.8371 16.2447 14.4617 16.4381 13.0003 17.9425Z" fill="white"/>
<path d="M18.6742 10.5923L18.4593 10.3774C16.3748 12.462 14.763 14.2242 14.677 14.1598C14.591 14.0738 16.0739 12.1826 18.1585 10.0766L17.9436 9.86165C15.859 11.9462 14.0967 13.558 14.0108 13.4721C13.9248 13.3861 15.5581 11.6454 17.6427 9.56078L17.4063 9.32438C15.3002 11.409 13.4305 12.8918 13.3446 12.8274C13.2586 12.7414 14.9993 11.1296 17.1054 9.02352L16.8475 8.76562L11.5823 13.1497L11.0451 15.7286L9.04645 17.5983L7.95042 18.6298L2.64224 23.5297C2.64224 23.5297 -0.237501 25.8292 0.622124 26.8392C0.622124 26.8392 0.643616 26.8392 0.643616 26.8607C0.643616 26.8607 0.643614 26.8822 0.665105 26.8822C1.67516 27.7418 4.1251 25.0125 4.1251 25.0125L8.96048 19.5109L9.82011 18.4794L11.6468 16.3303L14.2257 15.8145L18.6742 10.5923Z" fill="white"/>
<path d="M45.2837 9.33647C45.2296 9.20507 45.2875 9.13937 45.4576 9.13937C46.3773 9.13937 47.2314 10.55 48.0198 13.3711C48.1744 14.1827 48.2517 15.1566 48.2517 16.2928C48.2517 21.8501 47.4942 24.6287 45.9793 24.6287C45.0982 24.6287 43.4325 22.7119 40.9824 18.8782C39.9235 17.3091 39.2587 16.4589 38.9882 16.3275C38.6559 20.9573 38.424 23.5273 38.2926 24.0374C38.2385 24.1843 38.1264 24.25 37.9564 24.2345C36.8356 23.7321 36.2753 22.8664 36.2753 21.6375C36.2753 17.0464 36.9129 13.8658 38.1883 12.0958C38.3506 11.9103 38.5399 11.8832 38.7564 12.0146C39.7766 12.8649 40.8935 14.3295 42.107 16.4087C43.2663 18.2328 44.3291 19.6704 45.2953 20.7216C45.8208 20.7216 46.0875 19.1757 46.0952 16.0841C46.0952 13.1547 45.8247 10.9055 45.2837 9.33647ZM51.4864 10.519C52.2825 10.519 52.7192 11.8871 52.7965 14.6232C52.7965 21.4713 52.2168 24.8954 51.0574 24.8954C50.1994 24.8954 49.7086 23.2452 49.585 19.9448C49.585 16.6676 50.0758 13.6378 51.0574 10.8553C51.1579 10.6929 51.3009 10.5809 51.4864 10.519ZM65.2018 21.7998C65.9438 21.3979 66.3148 21.6452 66.3148 22.5418C66.3148 24.0413 64.17 24.791 59.8803 24.791C55.8765 24.791 53.8747 22.9669 53.8747 19.3187C53.8747 17.0077 54.6669 14.9788 56.2514 13.232C57.9673 11.3383 60.1431 10.3915 62.7787 10.3915C63.4975 10.3915 64.2357 10.5615 64.9931 10.9016C65.7506 11.234 66.0714 11.69 65.9554 12.2697C65.8472 12.8417 65.3487 13.0078 64.4598 12.7682C61.6773 12.3972 59.5866 13.0504 58.1876 14.7276C56.9123 16.2734 56.2746 17.8463 56.2746 19.4463C56.2746 21.3477 57.5654 22.4297 60.1469 22.6925C61.3836 22.6925 62.3498 22.6462 63.0454 22.5534C63.7487 22.4529 64.4676 22.2017 65.2018 21.7998ZM74.303 10.7393C76.1812 10.7007 77.4372 11.033 78.071 11.7364C78.2874 12.0842 78.2951 12.4745 78.0941 12.9074C77.6304 13.2552 76.5638 13.4291 74.8943 13.4291H72.019C71.6866 13.9238 71.3156 15.2841 70.906 17.5101H70.9871C73.1281 17.3323 74.2875 17.2434 74.4653 17.2434C75.3928 17.2821 75.8565 17.5951 75.8565 18.1825C75.4546 19.0482 74.6237 19.5467 73.3639 19.6781C72.3513 19.7709 71.3852 19.8327 70.4654 19.8636L70.3843 21.7766C70.4693 22.6964 70.8751 23.1563 71.6016 23.1563C74.5851 23.0094 76.4092 22.8703 77.0739 22.7389C77.3676 22.7235 77.5145 22.8085 77.5145 22.994C77.5145 24.0451 75.7445 24.9958 72.2045 25.8461C71.6712 25.9697 71.1533 26.0316 70.6509 26.0316C68.68 26.0316 67.6945 25.0461 67.6945 23.0751C67.6945 22.2868 67.8414 21.1042 68.1351 19.5274C67.1998 19.2569 66.7322 18.9168 66.7322 18.5072C66.7322 18.2135 67.3119 17.9739 68.4713 17.7884C68.8191 16.0416 69.1978 14.5614 69.6075 13.3479H69.5031C68.1737 13.232 67.509 12.9151 67.509 12.3972C67.594 11.5548 69.8587 11.0021 74.303 10.7393Z" fill="#D24E00"/>
<path d="M82.1868 15.4116C83.1606 13.6262 84.0534 12.3818 84.8649 11.6784C86.0398 10.6659 86.9789 10.1596 87.6822 10.1596C88.5092 10.1596 88.9769 11.2224 89.0851 13.3479C89.402 17.4135 89.5875 19.6318 89.6416 20.0028C90.6 14.0126 92.3313 11.0176 94.8356 11.0176C95.3921 11.0176 95.7786 11.1799 95.995 11.5045C96.2191 11.8291 96.3583 12.3702 96.4124 13.1276C96.6211 16.8067 96.6752 19.767 96.5747 22.0085C96.4742 24.25 96.1457 25.3862 95.5892 25.4171C94.5921 25.4944 94.055 24.992 93.9777 23.9099C93.9236 21.3979 93.8965 19.0482 93.8965 16.8609C93.8965 14.9981 93.9352 13.9276 94.0124 13.6494C93.1854 13.9817 92.4473 15.5005 91.798 18.2057C91.6357 18.7468 91.3961 19.6781 91.0792 20.9998C90.8087 22.1051 90.6 22.8626 90.4531 23.2722C90.3217 23.6587 89.9701 23.8519 89.3981 23.8519C88.4938 23.8906 87.7672 22.3409 87.2185 19.2028C86.832 16.6058 86.6388 14.5769 86.6388 13.1161C85.3248 13.9817 84.4089 14.8397 83.891 15.6899C82.7703 17.4753 82.2254 19.6395 82.2563 22.1824C82.2563 24.1611 81.9085 25.1659 81.2129 25.1968C80.5868 25.2509 80.154 24.8683 79.9144 24.049C79.582 23.0288 79.4158 21.3129 79.4158 18.9014C79.4158 17.1314 79.5704 15.4928 79.8796 13.9856C80.1192 12.888 80.3047 12.2117 80.4361 11.9567C80.6989 11.4079 81.151 11.1335 81.7926 11.1335C82.4032 11.1335 82.5346 12.5595 82.1868 15.4116ZM104.609 10.7393C106.487 10.7007 107.743 11.033 108.377 11.7364C108.594 12.0842 108.601 12.4745 108.4 12.9074C107.937 13.2552 106.87 13.4291 105.2 13.4291H102.325C101.993 13.9238 101.622 15.2841 101.212 17.5101H101.293C103.434 17.3323 104.594 17.2434 104.771 17.2434C105.699 17.2821 106.163 17.5951 106.163 18.1825C105.761 19.0482 104.93 19.5467 103.67 19.6781C102.658 19.7709 101.691 19.8327 100.772 19.8636L100.69 21.7766C100.775 22.6964 101.181 23.1563 101.908 23.1563C104.891 23.0094 106.715 22.8703 107.38 22.7389C107.674 22.7235 107.821 22.8085 107.821 22.994C107.821 24.0451 106.051 24.9958 102.511 25.8461C101.977 25.9697 101.46 26.0316 100.957 26.0316C98.9862 26.0316 98.0007 25.0461 98.0007 23.0751C98.0007 22.2868 98.1476 21.1042 98.4413 19.5274C97.506 19.2569 97.0384 18.9168 97.0384 18.5072C97.0384 18.2135 97.6181 17.9739 98.7775 17.7884C99.1253 16.0416 99.504 14.5614 99.9137 13.3479H99.8093C98.4799 13.232 97.8152 12.9151 97.8152 12.3972C97.9002 11.5548 100.165 11.0021 104.609 10.7393ZM118.696 9.33647C118.642 9.20507 118.7 9.13937 118.87 9.13937C119.789 9.13937 120.643 10.55 121.432 13.3711C121.586 14.1827 121.664 15.1566 121.664 16.2928C121.664 21.8501 120.906 24.6287 119.391 24.6287C118.51 24.6287 116.845 22.7119 114.394 18.8782C113.335 17.3091 112.671 16.4589 112.4 16.3275C112.068 20.9573 111.836 23.5273 111.705 24.0374C111.65 24.1843 111.538 24.25 111.368 24.2345C110.248 23.7321 109.687 22.8664 109.687 21.6375C109.687 17.0464 110.325 13.8658 111.6 12.0958C111.763 11.9103 111.952 11.8832 112.168 12.0146C113.189 12.8649 114.305 14.3295 115.519 16.4087C116.678 18.2328 117.741 19.6704 118.707 20.7216C119.233 20.7216 119.499 19.1757 119.507 16.0841C119.507 13.1547 119.237 10.9055 118.696 9.33647ZM123.322 22.9592C122.827 21.908 122.645 20.5747 122.777 18.9593C123.31 14.7315 124.624 11.6166 126.719 9.61472C126.889 9.48332 127.074 9.41763 127.275 9.41763C127.577 9.41763 127.77 9.69201 127.855 10.2408C126.603 13.5025 125.814 16.0918 125.49 18.0086C125.374 18.6192 125.316 19.2299 125.316 19.8405C125.447 21.4018 125.953 22.1824 126.835 22.1824C128.311 22.1824 129.741 19.6124 131.124 14.4725C131.487 12.8726 131.909 12.0726 132.388 12.0726C132.628 12.0726 132.859 12.4011 133.084 13.0581C133.617 15.1141 134.077 17.1236 134.463 19.0869C134.85 21.0424 135.116 22.6268 135.263 23.8403C135.263 24.5823 134.834 24.9533 133.976 24.9533C133.528 24.9533 133.165 24.5475 132.886 23.736C132.608 22.9244 132.349 20.9998 132.11 17.9623C131.63 20.2269 130.769 22.0046 129.524 23.2954C128.489 24.2925 127.491 24.791 126.533 24.791H126.498C125.007 24.7524 123.948 24.1418 123.322 22.9592Z" fill="#15501A"/>
<defs>
<radialGradient id="paint0_radial_912_2985" cx="0" cy="0" r="1" gradientUnits="userSpaceOnUse" gradientTransform="translate(5.17102 7.76049) scale(21.3427 21.3427)">
<stop offset="0.3331" stop-color="#FBAE08"/>
<stop offset="0.3956" stop-color="#F49D07"/>
<stop offset="0.5451" stop-color="#E57B04"/>
<stop offset="0.6868" stop-color="#DB6202"/>
<stop offset="0.8161" stop-color="#D45300"/>
<stop offset="0.9218" stop-color="#D24E00"/>
</radialGradient>
</defs>
</svg>
