<svg width="183" height="164" viewBox="0 0 183 164" fill="none" xmlns="http://www.w3.org/2000/svg">
<path d="M149.778 105.832H105.167C104.211 105.832 103.437 106.607 103.437 107.563V139.01C103.437 139.965 104.211 140.74 105.167 140.74H149.778C150.733 140.74 151.508 139.965 151.508 139.01V107.563C151.508 106.607 150.733 105.832 149.778 105.832Z" fill="#E68145"/>
<path d="M147.528 107.466H107.42C106.464 107.466 105.689 108.241 105.689 109.197V137.375C105.689 138.331 106.464 139.106 107.42 139.106H147.528C148.484 139.106 149.259 138.331 149.259 137.375V109.197C149.259 108.241 148.484 107.466 147.528 107.466Z" fill="#E68145"/>
<path d="M171.108 140.74H155.014C154.554 140.74 154.098 140.649 153.673 140.473C153.248 140.297 152.862 140.039 152.536 139.713C152.211 139.387 151.953 139.001 151.777 138.576C151.601 138.15 151.511 137.695 151.511 137.234V112.141C151.511 111.915 151.556 111.692 151.643 111.484C151.731 111.276 151.858 111.088 152.02 110.93C152.181 110.772 152.372 110.648 152.582 110.565C152.792 110.482 153.016 110.441 153.241 110.446L162.194 110.526C162.434 110.532 162.671 110.588 162.888 110.692C163.105 110.796 163.298 110.944 163.453 111.128L174.298 123.963C176.015 125.73 176.975 128.097 176.973 130.56V134.872C176.974 135.643 176.823 136.406 176.528 137.118C176.233 137.83 175.801 138.477 175.257 139.022C174.712 139.567 174.065 139.999 173.353 140.294C172.641 140.588 171.878 140.74 171.108 140.74Z" fill="#E68145"/>
<path d="M127.472 133.409C133.062 133.409 137.593 128.877 137.593 123.288C137.593 117.698 133.062 113.167 127.472 113.167C121.882 113.167 117.351 117.698 117.351 123.288C117.351 128.877 121.882 133.409 127.472 133.409Z" fill="#D7E8F0"/>
<path d="M155.015 123.223V114.694C155.015 114.441 155.115 114.199 155.294 114.02C155.472 113.841 155.715 113.741 155.967 113.741H160.754C160.9 113.741 161.044 113.775 161.175 113.84C161.306 113.905 161.421 113.998 161.51 114.114L168.07 122.639C168.179 122.78 168.246 122.949 168.263 123.126C168.281 123.303 168.249 123.482 168.17 123.642C168.091 123.802 167.969 123.936 167.818 124.03C167.667 124.124 167.492 124.174 167.314 124.173H155.973C155.848 124.174 155.723 124.15 155.607 124.103C155.491 124.055 155.386 123.985 155.296 123.897C155.207 123.809 155.137 123.704 155.088 123.588C155.04 123.472 155.015 123.348 155.015 123.223Z" fill="white"/>
<path d="M107.528 140.666V140.734C107.528 142.811 108.353 144.802 109.821 146.27C111.29 147.738 113.281 148.563 115.357 148.563C117.434 148.563 119.425 147.738 120.893 146.27C122.362 144.802 123.187 142.811 123.187 140.734" stroke="#CCDDE2" stroke-width="0.916472" stroke-miterlimit="10"/>
<path d="M155.015 140.734C155.015 142.81 155.839 144.801 157.307 146.269C158.776 147.737 160.767 148.562 162.843 148.562C164.919 148.562 166.91 147.737 168.378 146.269C169.846 144.801 170.671 142.81 170.671 140.734" fill="#E68145"/>
<path d="M155.034 68.2065C161.544 66.8147 168.553 69.3275 173.32 73.972C178.086 78.6166 180.74 85.1662 181.423 91.7861C182.524 102.32 179.572 114.489 173.765 123.337" stroke="#CCDDE2" stroke-width="0.916472" stroke-miterlimit="10"/>
<path d="M96.7285 25.854C107.634 21.9234 120.707 25.4088 130.935 52.5259C134.276 61.3878 138.519 65.561 144.497 66.0825" stroke="#CCDDE2" stroke-width="0.916472" stroke-miterlimit="10"/>
<path d="M55.0508 38.8889C55.0508 38.8889 67.2236 37.4851 67.2978 52.4234L101.374 42.5007L106.724 40.8181C106.724 40.8181 99.0474 31.505 90.1915 29.9027C90.287 30.8077 90.4663 31.7019 90.727 32.5739C91.1842 34.1782 89.6681 35.1208 87.5645 35.7184C85.4608 36.316 81.2013 32.7804 80.4693 29.662C80.4693 29.662 81.5202 28.7135 77.6056 29.3933C73.691 30.0731 61.813 32.8326 55.0508 38.8889Z" fill="#2E2E2E"/>
<path d="M2.2022 111.385C2.53445 111.564 2.9057 111.659 3.28311 111.66C3.62325 111.66 3.95894 111.583 4.26542 111.435C4.57189 111.288 4.84134 111.073 5.05389 110.808L12.7346 101.392L18.9333 93.6135L13.8597 90.7678C13.3338 90.471 12.7118 90.3952 12.13 90.5568C11.5482 90.7187 11.0545 91.1045 10.7573 91.6301L1.29776 108.241C1.14751 108.506 1.05168 108.798 1.01586 109.101C0.980062 109.404 1.00501 109.71 1.08924 110.003C1.17346 110.296 1.31529 110.569 1.5064 110.806C1.69752 111.044 1.93406 111.241 2.2022 111.385Z" fill="#2E2E2E"/>
<path d="M119.117 155.807L125.51 162.096C126.063 162.641 126.809 162.947 127.586 162.948H143.583C144.241 162.952 144.874 162.702 145.353 162.251C145.831 161.799 146.116 161.181 146.15 160.525C146.184 159.868 145.963 159.223 145.534 158.725C145.105 158.227 144.5 157.914 143.846 157.85L134.97 156.932L119.117 155.807Z" fill="#2E2E2E"/>
<path d="M89.6611 29.1852V29.6184V29.7287C93.1983 30.6157 96.5289 32.1821 99.4676 34.3411C99.9429 34.6901 100.408 35.043 100.871 35.416C100.883 33.92 100.755 32.4179 100.27 31.0041C99.8777 29.7892 99.1413 28.7141 98.15 27.9098C97.2777 27.2139 96.2449 26.7667 95.2061 26.3636C94.1673 25.9605 93.1485 25.6076 92.198 25.0641C91.3958 24.6241 90.6949 24.0209 90.1404 23.2933C89.9465 23.03 89.8258 22.72 89.7905 22.3949C89.7554 22.0698 89.8069 21.7411 89.9399 21.4423C89.8464 21.4361 89.754 21.4179 89.6651 21.3882L89.6611 29.1852Z" fill="#E68145"/>
<path d="M89.6611 29.1852V29.6184V29.7287C93.1983 30.6157 96.5289 32.1821 99.4676 34.3411C99.9429 34.6901 100.408 35.043 100.871 35.416C100.883 33.92 100.755 32.4179 100.27 31.0041C99.8777 29.7892 99.1413 28.7141 98.15 27.9098C97.2777 27.2139 96.2449 26.7667 95.2061 26.3636C94.1673 25.9605 93.1485 25.6076 92.198 25.0641C91.3958 24.6241 90.6949 24.0209 90.1404 23.2933C89.9465 23.03 89.8258 22.72 89.7905 22.3949C89.7554 22.0698 89.8069 21.7411 89.9399 21.4423C89.8464 21.4361 89.754 21.4179 89.6651 21.3882L89.6611 29.1852Z" fill="#E68145"/>
<path d="M40.8007 62.9761C42.1285 63.9289 43.6061 64.6534 45.1725 65.1199C45.8443 65.3204 44.2561 66.0704 44.9459 66.2048C42.2166 59.7634 44.1638 49.8607 52.7991 40.8244C54.2691 39.2842 57.6502 37.3329 59.3167 35.9773C61.9979 33.7974 64.9318 33.5146 67.7394 32.2071C68.9942 31.6278 70.2827 31.1242 71.5978 30.699C73.9357 29.9221 76.3488 29.3925 78.7972 29.1188C79.3527 29.0506 79.9022 29.0025 80.4577 28.9724C80.3219 28.0176 80.3492 27.0466 80.5379 26.1006C81.0493 23.5056 81.9417 22.0156 83.5661 19.9701C84.5848 18.6826 86.1731 15.6043 84.0534 14.5435C82.7178 13.8777 82.5955 12.516 83.2232 11.6858C83.7546 10.9759 84.8275 10.653 86.1551 11.4852C87.0715 12.0708 88.1605 12.1089 89.2073 11.8221C90.0233 11.3469 90.731 10.7061 91.2849 9.94107C92.823 7.73512 92.8772 4.39612 90.4727 2.77775C89.1592 1.89337 87.4866 1.67879 85.9164 1.84925C85.2147 1.93047 84.5237 2.08568 83.8549 2.3125C83.852 2.31129 83.8488 2.31069 83.8458 2.31069C83.8426 2.31069 83.8396 2.31129 83.8368 2.3125C80.9971 3.84463 78.9637 6.67827 77.987 9.87088C77.4135 11.758 76.7657 13.627 76.0077 15.4579C75.386 16.96 74.9528 18.7869 73.5651 19.8117C72.9865 20.2414 72.329 20.5529 71.6299 20.7282C69.0108 22.3886 65.377 21.4301 62.5133 21.0771C60.2233 20.7641 57.8918 20.9999 55.711 21.765C53.2684 22.9983 51.1687 24.9736 49.4641 27.5345C46.6565 31.778 49.6285 37.8965 44.9219 41.2435C43.504 42.2462 41.8616 42.8618 40.3094 43.65C38.0874 44.781 36.2986 46.3854 35.6388 48.864C34.3213 53.8294 36.6536 59.966 40.8007 62.9761Z" fill="#E68145"/>
<path d="M98.8632 99.3008L135.071 156.874L119.629 156.144L113.87 150.89H107.286C107.286 150.89 89.3415 124.575 85.2264 120.115C81.1113 115.655 85.2264 104.35 85.2264 104.35L98.8632 99.3008Z" fill="white"/>
<path d="M155.909 162.946H44.5264" stroke="black" stroke-width="0.916472" stroke-miterlimit="10"/>
<path d="M93.7471 7.92776C94.033 8.52056 94.2777 9.13221 94.479 9.7587C94.7718 10.7794 94.455 11.4091 94.9002 12.3798C95.0526 12.7147 95.2732 13.2822 95.5018 13.8578C95.568 13.7234 95.6302 13.6131 95.6662 13.5269C97.413 9.63837 95.1168 7.76331 94.0118 7.12158C93.9434 7.39652 93.855 7.66605 93.7471 7.92776Z" fill="#E68145"/>
<path d="M93.7471 7.92776C94.033 8.52056 94.2777 9.13221 94.479 9.7587C94.7718 10.7794 94.455 11.4091 94.9002 12.3798C95.0526 12.7147 95.2732 13.2822 95.5018 13.8578C95.568 13.7234 95.6302 13.6131 95.6662 13.5269C97.413 9.63837 95.1168 7.76331 94.0118 7.12158C93.9434 7.39652 93.855 7.66605 93.7471 7.92776Z" fill="#E68145"/>
<path d="M77.2346 112.098C75.3676 118.662 72.3555 125.318 69.8588 129.525C68.0537 132.561 65.1669 134.802 61.7782 135.797C58.3894 136.793 54.7496 136.469 51.5895 134.892L24.1856 121.293V115.139L12.7347 101.4L5.05402 110.807C4.84068 111.071 4.57087 111.284 4.26445 111.43C3.958 111.576 3.62272 111.652 3.28324 111.651C2.88487 111.649 2.49395 111.543 2.14912 111.343C1.80429 111.144 1.51748 110.858 1.317 110.513C1.11652 110.169 1.00929 109.779 1.00594 109.38C1.00259 108.982 1.10322 108.59 1.29789 108.242L10.7574 91.6392C11.0548 91.1138 11.5485 90.7277 12.1301 90.5661C12.7118 90.4043 13.3339 90.4803 13.8597 90.7769L18.9334 93.6225L48.0118 109.908C48.4955 110.179 49.0364 110.331 49.5903 110.352C50.144 110.373 50.6949 110.261 51.1972 110.028C51.6998 109.794 52.1396 109.444 52.4803 109.007C52.8212 108.57 53.0532 108.058 53.1577 107.514L56.603 89.4653" stroke="black" stroke-width="0.916472" stroke-miterlimit="10"/>
<path d="M64.623 101.657L72.0731 107.718C79.9143 113.904 86.7383 121.279 92.2977 129.577L107.182 150.948H131.207" stroke="black" stroke-width="0.916472" stroke-miterlimit="10"/>
<path d="M114.189 150.951L119.117 155.806L125.51 162.095C126.063 162.641 126.809 162.947 127.585 162.948H143.583C144.24 162.952 144.874 162.702 145.352 162.251C145.83 161.799 146.116 161.181 146.15 160.524C146.183 159.868 145.963 159.223 145.534 158.725C145.104 158.227 144.5 157.914 143.845 157.85L134.969 156.931L92.1218 88.7977C89.9159 85.2802 87.9506 79.4906 89.6612 75.6984C96.1767 61.2735 95.6132 47.2998 95.6132 47.2998" stroke="black" stroke-width="0.916472" stroke-miterlimit="10"/>
<path d="M89.6618 20.1614V29.1255V29.5587V29.669C90.5822 31.0126 91.0475 32.9178 90.1671 34.3456C88.99 36.2568 86.3889 35.9399 84.7385 34.871C84.2536 34.5564 83.7907 34.2092 83.3528 33.8322C81.886 32.5574 80.9372 30.7896 80.6856 28.8628C80.5502 27.9087 80.5767 26.9384 80.7638 25.9931C81.2792 23.4001 82.1676 21.9101 83.798 19.8606C84.8167 18.5751 86.405 15.4948 84.2813 14.4339C81.7966 13.1946 83.5172 9.5668 86.3829 11.3797C88.6049 12.7835 91.7975 11.0327 93.1171 9.14566C94.6552 6.93971 94.7114 3.60071 92.3049 1.98234C90.9913 1.09796 89.3188 0.883377 87.7506 1.05384C82.9677 1.57925 79.5665 5.31733 78.2049 9.76132C77.6313 11.6484 76.9836 13.5174 76.2275 15.3484C75.6039 16.8524 75.1707 18.6774 73.785 19.7021C71.1478 21.6755 67.3255 20.6427 64.3395 20.2777C58.1227 19.5136 53.1092 22.267 49.684 27.4209C46.8764 31.6644 49.8484 37.7829 45.1397 41.1299C43.7239 42.1326 42.0815 42.7483 40.5273 43.5364C38.3033 44.6655 36.5164 46.2718 35.8547 48.7505C34.5371 53.7319 36.8694 59.8705 41.0146 62.8806C42.9137 64.2603 45.1357 65.0865 47.4439 65.5357" stroke="black" stroke-width="0.916472" stroke-miterlimit="10"/>
<path d="M101.934 36.5687C101.946 36.4544 101.952 36.3441 101.956 36.2358C102.06 34.2685 102.048 32.225 101.406 30.342C101.013 29.1281 100.277 28.054 99.2865 27.2496C98.4102 26.5537 97.3794 26.1025 96.3446 25.7014C95.3098 25.3004 94.2851 24.9474 93.3365 24.4019C92.5329 23.965 91.832 23.3613 91.281 22.6312C91.086 22.3693 90.9639 22.0604 90.927 21.7361C90.8899 21.4117 90.9394 21.0834 91.0704 20.7842" stroke="black" stroke-width="0.916472" stroke-miterlimit="10"/>
<path d="M24.1875 115.141V96.563" stroke="black" stroke-width="0.916472" stroke-miterlimit="10"/>
<path d="M87.7344 18.1552C88.4543 19.184 89.4309 20.2949 90.6623 20.698C92.2566 21.2154 93.3295 19.8638 93.901 18.5462C94.2439 17.7621 94.4786 16.9279 94.7553 16.1177C94.8456 15.851 94.8997 15.7166 95.2065 15.7006C95.5134 15.6845 95.8322 15.7487 96.1451 15.7487C96.1689 15.7499 96.1924 15.7443 96.213 15.7324C96.2337 15.7206 96.2505 15.7032 96.2616 15.6819C96.2726 15.6609 96.2772 15.637 96.275 15.6133C96.2728 15.5897 96.264 15.567 96.2493 15.5481C95.8282 14.9084 95.2005 13.1597 94.8817 12.4598C94.4405 11.4892 94.7593 10.8555 94.4625 9.84076C94.26 9.21467 94.0167 8.60242 93.7346 8.00781" stroke="black" stroke-width="0.916472" stroke-miterlimit="10"/>
<path d="M94.2041 6.13428C94.2041 6.13428 98.5498 7.79877 96.3058 12.8083C96.1674 13.1131 95.8265 13.7448 95.666 14.0316" stroke="black" stroke-width="0.916472" stroke-miterlimit="10"/>
<path d="M93.9643 18.3942C93.6165 18.4413 93.2636 18.3603 92.9712 18.1662C92.679 17.9721 92.4672 17.6781 92.376 17.3394" stroke="black" stroke-width="0.916472" stroke-miterlimit="10"/>
<path d="M94.7006 11.684C93.8002 10.952 92.8135 11.8846 92.2119 12.5684" stroke="black" stroke-width="0.916472" stroke-miterlimit="10"/>
<path d="M89.6611 29.6704C93.1999 30.5576 96.5325 32.1242 99.4736 34.2828C100.328 34.9005 101.152 35.5583 101.952 36.2421C105.109 38.9214 107.886 42.0217 110.586 45.1562" stroke="black" stroke-width="0.916472" stroke-miterlimit="10"/>
<path d="M114.636 74.7264C114.62 74.7166 114.605 74.7043 114.592 74.6903C111.05 71.1488 107.483 67.6333 103.931 64.1038C100.955 61.1478 97.0845 58.1216 95.2676 54.2432" stroke="black" stroke-width="0.916472" stroke-miterlimit="10"/>
<path d="M73.1094 100.224C73.3982 100.132 73.6729 100.04 73.9336 99.9434C73.9382 99.945 73.943 99.945 73.9476 99.9434" stroke="black" stroke-width="0.916472" stroke-miterlimit="10"/>
<path d="M46.1504 58.5805L67.2975 52.4239L106.132 41.1154C107.998 40.5782 110 40.8016 111.702 41.7365C113.403 42.6714 114.666 44.2418 115.213 46.1049L123.553 74.7561C124.091 76.6216 123.868 78.6238 122.934 80.3258C122.001 82.028 120.432 83.2914 118.57 83.8406L77.1821 95.8891L73.2315 97.0362L69.2206 98.2094L65.27 99.3625L62.0613 100.291L50.6706 103.608C48.805 104.146 46.802 103.923 45.1002 102.988C43.3982 102.053 42.1362 100.482 41.5901 98.6185L33.2496 69.9672C32.7118 68.1028 32.9338 66.1012 33.8671 64.4C34.8006 62.6988 36.3697 61.4364 38.2311 60.8887L38.5299 60.8025L38.7806 60.7283L44.0989 59.1781L46.1504 58.5805Z" fill="white"/>
<path d="M49.3291 59.3286L68.922 53.6253L104.907 43.147C106.637 42.6461 108.495 42.8512 110.074 43.7177C111.652 44.5841 112.823 46.0412 113.33 47.7695L121.055 74.309C121.552 76.0375 121.347 77.8925 120.483 79.4702C119.619 81.0476 118.166 82.22 116.442 82.7318L78.0887 93.8979L74.4288 94.9647L70.7048 96.0497L67.0449 97.1206L64.0689 97.9729L51.8901 101.583C50.1602 102.084 48.302 101.879 46.7231 101.013C45.1441 100.146 43.9733 98.6888 43.4673 96.9601L35.7465 70.4065C35.2456 68.6781 35.4497 66.8214 36.3141 65.243C37.1786 63.6645 38.6329 62.4928 40.359 61.9838L40.6357 61.9036L40.8683 61.8374L47.428 59.8721L49.3291 59.3286Z" fill="#E68145"/>
<path d="M51.451 60.2705L69.618 54.9822L104.312 44.8248C105.914 44.3636 107.635 44.5553 109.096 45.3583C110.558 46.1613 111.642 47.5103 112.113 49.1104L119.28 73.7268C119.742 75.3295 119.55 77.0498 118.748 78.5121C117.946 79.9744 116.598 81.06 114.998 81.5318L78.1109 92.331L74.7178 93.3176L71.2665 94.3203L67.8713 95.311L65.1219 96.1132L52.7265 99.763C51.1225 100.229 49.3997 100.039 47.9355 99.2354C46.4716 98.4318 45.3861 97.0804 44.9174 95.4774L37.7481 70.8631C37.286 69.2609 37.4769 67.5409 38.2791 66.0792C39.0815 64.6174 40.4299 63.5327 42.0296 63.062L43.3893 62.675L43.6059 62.6108L49.6883 60.7899L51.451 60.2705Z" fill="#E68145"/>
<path d="M78.4536 74.921L45.8035 84.1358C45.6294 84.1849 45.4473 84.1994 45.2677 84.1781C45.0882 84.1569 44.9145 84.1003 44.7567 84.0119C44.5989 83.9234 44.4601 83.8047 44.3482 83.6625C44.2365 83.5203 44.1537 83.3575 44.1049 83.1832C44.0692 83.0629 44.051 82.938 44.0508 82.8122C44.0522 82.5126 44.1505 82.2214 44.3313 81.9824C44.512 81.7436 44.7655 81.5695 45.0535 81.4867L77.7035 72.2778C77.572 72.7274 77.5658 73.2045 77.6855 73.6576C77.8152 74.1437 78.0818 74.582 78.4536 74.921Z" fill="#E68145"/>
<path d="M86.0806 71.72C86.0802 72.0206 85.9823 72.3128 85.8015 72.5531C85.6206 72.7931 85.3667 72.9682 85.0779 73.0516L82.7215 73.7174C82.8557 73.25 82.8571 72.7544 82.7258 72.2862C82.5944 71.8179 82.3353 71.3956 81.9775 71.0663L84.3339 70.4025C84.6852 70.3048 85.0609 70.3501 85.3787 70.5286C85.6966 70.7071 85.931 71.0043 86.0305 71.355C86.0658 71.4734 86.0828 71.5965 86.0806 71.72Z" fill="#D7E8F0"/>
<path d="M87.5639 76.9785C87.5629 77.2783 87.4646 77.5695 87.2837 77.8085C87.1028 78.0476 86.8494 78.2214 86.5612 78.3041L54.1137 87.4568C54.3082 87.0069 54.3714 86.5114 54.2958 86.0273C54.2202 85.5432 54.0088 85.0904 53.6865 84.7214L85.8112 75.6529C86.1625 75.5559 86.5377 75.6016 86.8556 75.7799C87.1732 75.9583 87.4077 76.2551 87.5077 76.6055C87.545 76.7262 87.5639 76.852 87.5639 76.9785Z" fill="#D7E8F0"/>
<path d="M50.2125 88.5471L47.2886 89.3714C47.1103 89.4416 46.9194 89.4738 46.7279 89.4658C46.5366 89.458 46.3489 89.4101 46.177 89.3252C46.0052 89.2404 45.8529 89.1207 45.7302 88.9735C45.6075 88.8265 45.5168 88.6552 45.4641 88.4711C45.4113 88.2868 45.3979 88.0937 45.4242 87.904C45.4507 87.7141 45.5164 87.532 45.6175 87.3692C45.7186 87.2063 45.8525 87.0665 46.0108 86.9585C46.169 86.8506 46.3481 86.777 46.5366 86.7423L49.1436 86.0083C49.0875 86.3683 49.1045 86.7359 49.1937 87.0892C49.35 87.6804 49.7109 88.197 50.2125 88.5471Z" fill="#E68145"/>
<path d="M79.2788 86.094L48.9852 94.643C48.634 94.7385 48.2592 94.6922 47.9419 94.5139C47.6247 94.3358 47.3901 94.04 47.2886 93.6905C47.2533 93.5716 47.2364 93.4478 47.2384 93.3235C47.239 93.0231 47.3371 92.7309 47.518 92.4908C47.6987 92.2506 47.9526 92.0757 48.2411 91.9919L78.4907 83.4629C78.3642 83.9314 78.371 84.4259 78.5102 84.8907C78.6493 85.3556 78.9157 85.7723 79.2788 86.094Z" fill="#E68145"/>
<path d="M89.2675 82.2344C89.2679 82.5345 89.17 82.8264 88.989 83.0657C88.8079 83.3051 88.5536 83.4786 88.2648 83.56L83.514 84.8976L79.2826 86.1009C78.9194 85.779 78.6531 85.3623 78.5139 84.8974C78.3747 84.4326 78.3679 83.9383 78.4945 83.4698L82.8061 82.2545L87.5188 80.9229C87.8695 80.8238 88.2452 80.868 88.5636 81.0454C88.8819 81.2227 89.1171 81.5191 89.2174 81.8695C89.2509 81.9882 89.2679 82.1111 89.2675 82.2344Z" fill="#D7E8F0"/>
<path d="M82.7212 73.7166C82.5637 74.2669 82.2294 74.7502 81.7702 75.0918C81.3108 75.4333 80.7517 75.6142 80.1793 75.6065C79.607 75.5987 79.0529 75.4028 78.6031 75.0488C78.1531 74.6951 77.832 74.2028 77.6896 73.6485C77.6032 73.3168 77.5831 72.9714 77.6304 72.6321C77.6776 72.2928 77.7913 71.9661 77.9647 71.6707C78.1384 71.3753 78.3684 71.117 78.642 70.9107C78.9155 70.7041 79.2269 70.5537 79.5586 70.4679C79.98 70.3582 80.422 70.3558 80.8445 70.4609C81.2669 70.5659 81.6563 70.7751 81.9772 71.0695C82.3349 71.3988 82.594 71.8211 82.7254 72.2894C82.8567 72.7577 82.8553 73.2532 82.7212 73.7207V73.7166Z" fill="white"/>
<g opacity="0.72">
<path opacity="0.72" d="M81.322 72.4665C81.3541 72.7824 81.2957 73.1011 81.1535 73.385C81.0852 73.5254 81.0047 73.6598 80.9129 73.7861C80.8628 73.8523 80.6 74.2313 80.5238 74.2153C80.0064 74.123 79.2664 73.7199 79.0278 73.1805C78.9921 73.0956 78.9672 73.0068 78.9536 72.9158C78.9352 72.7836 78.9572 72.649 79.0166 72.5297C79.0759 72.4104 79.17 72.3115 79.2863 72.2465C79.4028 72.1816 79.536 72.1533 79.6689 72.1653C79.8017 72.1774 79.9276 72.2291 80.0305 72.3141C80.0861 72.1784 80.1841 72.0643 80.3103 71.9893C80.4362 71.9141 80.5834 71.8822 80.7292 71.898C80.875 71.9138 81.0118 71.9766 81.1186 72.0771C81.2255 72.1776 81.2969 72.3099 81.322 72.4545V72.4665Z" fill="#E68145"/>
</g>
<path d="M54.1141 87.4557C53.9001 87.9562 53.535 88.377 53.0697 88.6593C52.6047 88.9417 52.0626 89.0714 51.5199 89.0303C50.9775 88.9892 50.4613 88.7792 50.0439 88.4301C49.6266 88.0808 49.329 87.6097 49.1928 87.0827C49.1036 86.7295 49.0866 86.3619 49.1427 86.0017C49.2269 85.5054 49.4528 85.0438 49.7929 84.6726C50.1328 84.3012 50.5728 84.0356 51.0599 83.9081C51.5304 83.7834 52.0267 83.794 52.4913 83.9388C52.9562 84.0834 53.3705 84.3565 53.687 84.7263C54.0094 85.0953 54.2206 85.5481 54.2962 86.0322C54.3718 86.5163 54.3086 87.0121 54.1141 87.4617V87.4557Z" fill="white"/>
<g opacity="0.72">
<path opacity="0.72" d="M52.8269 85.898C52.8584 86.2143 52.7994 86.5327 52.6564 86.8165C52.5899 86.9581 52.5092 87.0924 52.4158 87.2176C52.3657 87.2837 52.1029 87.6628 52.0287 87.6467C51.5093 87.5545 50.7714 87.1514 50.5327 86.6099C50.496 86.5255 50.4709 86.4365 50.4585 86.3452C50.4401 86.2133 50.4619 86.0787 50.5213 85.9592C50.5806 85.8398 50.6747 85.7412 50.7912 85.6762C50.9075 85.611 51.0409 85.5828 51.1738 85.5948C51.3066 85.6068 51.4325 85.6588 51.5354 85.7436C51.5749 85.6465 51.6365 85.5597 51.7151 85.4901C51.7937 85.4205 51.8874 85.37 51.9886 85.3425C52.0803 85.321 52.1755 85.3184 52.2682 85.3349C52.361 85.3515 52.4495 85.387 52.5279 85.439C52.6065 85.4911 52.6735 85.5587 52.725 85.6375C52.7764 85.7165 52.8111 85.8052 52.8269 85.898Z" fill="#E68145"/>
</g>
<path d="M83.5094 84.8974C83.3269 85.4976 82.9333 86.0116 82.4012 86.3441C81.8694 86.6766 81.2349 86.8053 80.6154 86.7065C79.9958 86.6076 79.433 86.2877 79.031 85.806C78.6291 85.3245 78.4149 84.7135 78.4283 84.0864C78.4418 83.4591 78.6818 82.8579 79.1042 82.3938C79.5265 81.93 80.1024 81.6346 80.7255 81.5622C81.3488 81.49 81.9771 81.6458 82.4943 82.0008C83.0117 82.3557 83.3829 82.8861 83.5395 83.4936C83.658 83.9554 83.6476 84.4409 83.5094 84.8974Z" fill="white"/>
<g opacity="0.72">
<path opacity="0.72" d="M82.1219 83.6215C82.1522 83.9376 82.0932 84.2558 81.9514 84.54C81.8838 84.681 81.8032 84.8151 81.7108 84.9411C81.6606 85.0072 81.3979 85.3863 81.3237 85.3702C80.8043 85.278 80.0643 84.8749 79.8257 84.3354C79.7898 84.25 79.7649 84.1604 79.7515 84.0687C79.733 83.9368 79.7549 83.8022 79.8145 83.6827C79.8738 83.5634 79.9679 83.4647 80.0842 83.3995C80.2005 83.3345 80.3339 83.3063 80.4668 83.3183C80.5996 83.3303 80.7255 83.3823 80.8284 83.4671C80.8847 83.3317 80.9832 83.2182 81.1095 83.1436C81.2357 83.069 81.3827 83.0373 81.5285 83.0534C81.6743 83.0694 81.8108 83.1324 81.9179 83.2327C82.0248 83.3329 82.0964 83.4651 82.1219 83.6095V83.6215Z" fill="#E68145"/>
</g>
<path d="M78.1282 91.914C76.3895 92.0102 74.5185 89.5075 73.9469 88.8838C73.8835 88.8174 73.8113 88.7601 73.7323 88.7134L72.1781 87.456L72.4388 89.4333C72.854 90.3859 75.0459 92.4635 76.6081 94.8479C78.1703 97.2323 76.6823 97.7537 75.846 98.0566C75.0098 98.3594 74.1354 96.7791 74.4763 98.4957C74.8173 100.212 72.7918 100.236 71.5284 100.022C70.265 99.8073 69.8118 98.4175 70.0985 99.5085C70.3853 100.599 69.4387 101.396 68.5844 101.432C67.9367 101.464 66.6913 100.589 66.1298 100.168C66.0015 100.858 65.5382 102.154 63.9239 101.464C61.7801 100.547 59.6985 95.0705 58.1082 89.4654C56.5179 83.8603 46.2181 73.6367 44.7161 62.8115C44.7161 62.7935 44.7161 62.7674 44.7161 62.7493C44.6359 61.9311 44.5952 61.1069 44.5938 60.2767C44.5942 58.6986 44.7474 57.1244 45.051 55.576C45.2682 54.4494 45.5581 53.338 45.9193 52.249L62.9252 55.6261C62.8089 55.7545 62.6926 55.8828 62.5762 56.0172C58.5955 60.6397 60.9218 66.5015 63.9499 70.8051C67.0222 75.1849 70.5578 79.5126 74.5987 83.0381C75.7851 84.0706 76.8939 85.1895 77.9156 86.3851L77.695 86.5074C77.9351 86.9749 78.203 87.4277 78.4972 87.8631C79.6984 89.5195 79.8749 91.8157 78.1282 91.914Z" fill="white"/>
<path d="M67.2979 52.4239L106.133 41.1154C107.998 40.5782 110.001 40.8016 111.702 41.7365C113.404 42.6714 114.666 44.2418 115.213 46.1049L123.554 74.7561C124.091 76.6216 123.869 78.6238 122.935 80.3258C122.001 82.028 120.432 83.2914 118.57 83.8406L77.1825 95.8891" stroke="black" stroke-width="0.916472" stroke-miterlimit="10"/>
<path d="M62.0513 100.291L50.6706 103.608C48.805 104.146 46.802 103.923 45.1002 102.988C43.3982 102.053 42.1362 100.482 41.5901 98.6186L33.2496 69.9673C32.7118 68.1029 32.9338 66.1013 33.8671 64.4003C34.8006 62.6991 36.3697 61.4365 38.2311 60.8888L38.5299 60.8026L38.7805 60.7284L44.0989 59.1782" stroke="black" stroke-width="0.916472" stroke-miterlimit="10"/>
<path d="M73.2324 97.0356H73.2256" stroke="black" stroke-width="0.916472" stroke-miterlimit="10"/>
<path d="M65.2588 99.3623H65.252" stroke="black" stroke-width="0.916472" stroke-miterlimit="10"/>
<path d="M67.4221 88.3792C67.9816 91.4314 70.5244 94.7383 73.2217 97.0285C74.0058 97.6943 75.7385 98.5045 76.679 97.7444C78.7085 96.108 75.2391 93.4128 74.2826 92.3298C73.1214 91.0143 72.1829 89.4721 71.834 87.7334C71.8035 87.6261 71.8099 87.5118 71.852 87.4086C71.8927 87.3524 71.9503 87.3109 72.0164 87.2904C72.0826 87.2698 72.1536 87.2712 72.219 87.2943C72.3483 87.342 72.4651 87.4188 72.5599 87.5189C73.6589 88.5216 74.6395 89.6306 75.6342 90.7275C76.3381 91.5116 78.169 92.4843 79.0675 91.4856C81.0167 89.3177 75.4998 84.2661 74.088 83.0267C70.0511 79.4972 66.5096 75.1696 63.4373 70.7938C60.4091 66.4901 58.0829 60.6283 62.0636 56.0059C64.1412 53.5994 67.2175 52.5485 69.9649 51.1267C74.3969 48.8405 75.3093 45.0303 75.3093 45.0303" stroke="black" stroke-width="0.916472" stroke-miterlimit="10"/>
<path d="M64.8477 91.481C64.8477 91.481 67.1418 98.0206 72.015 100.056C72.3044 100.185 72.619 100.247 72.9357 100.237C73.2521 100.228 73.5626 100.148 73.8439 100.002C74.4455 99.665 74.9369 98.9992 74.0926 97.6636" stroke="black" stroke-width="0.916472" stroke-miterlimit="10"/>
<path d="M61.6709 93.0093C62.5653 95.4358 63.7525 97.9727 65.6617 99.7775C66.532 100.598 67.635 101.41 68.8703 101.462C70.3583 101.524 70.4746 100.024 69.873 99.0034C69.7429 98.7847 69.5866 98.5827 69.4078 98.4018" stroke="black" stroke-width="0.916472" stroke-miterlimit="10"/>
<path d="M65.6617 99.7782C65.6617 99.7782 65.5534 102.385 63.4096 101.465C61.2658 100.544 59.1782 95.0695 57.5939 89.4623C56.0096 83.8552 45.6517 73.6016 44.1818 62.7503L44.1978 62.8826C44.1978 62.8586 44.1978 62.8405 44.1978 62.8165C43.9473 60.3997 44.058 57.959 44.5267 55.5749C49.1692 32.0796 80.4696 28.9712 80.4696 28.9712" stroke="black" stroke-width="0.916472" stroke-miterlimit="10"/>
<path d="M126.845 78.5896C125.978 81.1465 123.836 82.7769 121.197 83.174C120.066 83.3404 118.847 83.4928 117.788 82.9734C117.012 82.5944 116.248 81.71 116.481 80.7815C116.135 80.7859 115.791 80.7468 115.456 80.6652C114.997 80.5549 114.521 80.3363 114.319 79.9132C114.116 79.49 114.259 78.9004 114.587 78.5214C114.946 78.1681 115.387 77.9102 115.871 77.7714C115.988 77.7281 116.108 77.6912 116.23 77.6611C115.838 77.6645 115.447 77.6397 115.059 77.5869C114.313 77.4907 113.476 77.1718 113.254 76.4579C113.192 76.2152 113.193 75.9609 113.256 75.7187C113.319 75.4762 113.443 75.2538 113.615 75.0721C113.966 74.7116 114.406 74.4501 114.89 74.3141C114.94 74.3021 114.983 74.284 115.031 74.272C114.146 74.2599 113.242 74.0835 112.851 73.2452C112.725 72.9474 112.69 72.6193 112.748 72.3013C112.807 71.9834 112.958 71.6896 113.182 71.4564C113.964 70.578 115.135 70.4537 116.24 70.3694C117.345 70.2852 118.689 70.2471 119.99 70.223C120.273 70.2156 120.55 70.1434 120.801 70.0125C121.051 69.8813 121.268 69.6946 121.436 69.4666C121.603 69.2388 121.716 68.9755 121.766 68.6971C121.816 68.4188 121.802 68.1328 121.725 67.8607C121.217 66.0558 121.003 64.0865 122.072 63.6052C123.666 62.8833 124.765 64.8506 125.222 66.0598C126.62 69.7658 128.176 74.6751 126.845 78.5896Z" fill="white"/>
<path d="M120.121 77.1006C118.831 77.3753 117.526 77.6561 116.218 77.6681C116.096 77.6984 115.977 77.7353 115.859 77.7784C115.375 77.917 114.934 78.1749 114.576 78.5284C114.247 78.9075 114.088 79.469 114.307 79.9202C114.525 80.3714 114.985 80.5619 115.444 80.6722C115.779 80.7536 116.124 80.7927 116.469 80.7885C117.174 80.7741 117.877 80.6861 118.564 80.5258C118.681 80.5018 120.104 80.3373 120.215 80.3112" stroke="black" stroke-width="0.916472" stroke-miterlimit="10"/>
<path d="M115.016 74.2793C114.968 74.2913 114.926 74.3094 114.876 74.3214C114.391 74.4572 113.951 74.7187 113.6 75.0795C113.428 75.2609 113.304 75.4833 113.241 75.7258C113.178 75.9681 113.177 76.2225 113.239 76.4652C113.472 77.1791 114.308 77.498 115.044 77.5942C115.432 77.6468 115.824 77.6717 116.215 77.6684" stroke="black" stroke-width="0.916472" stroke-miterlimit="10"/>
<path d="M121.203 74.1448C121.104 74.1448 121.012 74.1448 120.916 74.1448L116.255 74.249C115.89 74.249 115.453 74.2851 115.016 74.2731C114.132 74.2611 113.227 74.0846 112.836 73.2463C112.71 72.9485 112.675 72.6202 112.734 72.3024C112.792 71.9845 112.943 71.6907 113.167 71.4575C113.949 70.5791 115.12 70.4548 116.225 70.3706C117.33 70.2863 118.676 70.2523 119.977 70.2242C120.261 70.2178 120.54 70.1462 120.791 70.0152C121.043 69.8845 121.261 69.6974 121.429 69.4689C121.598 69.2403 121.711 68.9762 121.761 68.6969C121.811 68.4175 121.796 68.1305 121.718 67.8578C121.211 66.0529 120.992 64.0816 122.063 63.6003C123.657 62.8784 124.756 64.8457 125.214 66.0549C126.617 69.7609 128.176 74.6782 126.844 78.5847C125.976 81.1416 123.836 82.776 121.199 83.1691C120.07 83.3375 118.846 83.49 117.789 82.9686C117.017 82.5915 116.251 81.7091 116.482 80.7806" stroke="black" stroke-width="0.916472" stroke-miterlimit="10"/>
<g opacity="0.54">
<path opacity="0.54" d="M84.2707 63.6383C84.2356 63.4067 84.1827 63.1781 84.1123 62.9545L83.3241 60.4056C83.0835 59.6255 82.8168 58.8013 82.2031 58.2639C81.0661 57.2611 79.3133 57.6362 77.8594 58.0733L74.2918 59.1442C73.4716 59.3909 72.6393 59.6436 71.9234 60.1108C71.2075 60.5781 70.6099 61.3041 70.4976 62.1523C70.4133 62.778 70.5978 63.4037 70.7803 64.0093L71.5143 66.4559C71.7569 67.2581 72.0257 68.1044 72.6574 68.6619C73.7824 69.6405 75.5011 69.2735 76.9329 68.8504L80.5828 67.7735C82.7847 67.1157 84.6257 65.9385 84.2707 63.6383Z" fill="white"/>
<path opacity="0.54" d="M79.2658 63.9377C79.413 63.7828 79.5165 63.5913 79.5652 63.3834C79.614 63.1752 79.6064 62.9578 79.5434 62.7535C79.4802 62.5493 79.3639 62.3656 79.2061 62.2212C79.0485 62.0768 78.8551 61.9772 78.6462 61.9323L77.5151 61.6756L76.3861 61.4189C76.1783 61.3687 75.9609 61.3747 75.7564 61.4365C75.5516 61.4983 75.3671 61.6134 75.2217 61.77C75.0763 61.9266 74.9753 62.1192 74.9289 62.3277C74.8826 62.5365 74.8929 62.7537 74.9582 62.957L75.3011 64.064L75.6421 65.171C75.7024 65.3763 75.8163 65.5618 75.9722 65.7084C76.1282 65.855 76.3203 65.9573 76.5289 66.005C76.7374 66.0526 76.955 66.0437 77.159 65.9794C77.3631 65.9148 77.5462 65.7971 77.6896 65.6382L78.4777 64.788L79.2658 63.9377Z" fill="#E68145"/>
</g>
<path d="M160.038 148.563H150.205" stroke="#CCDDE2" stroke-width="0.916472" stroke-miterlimit="10"/>
<path d="M148.531 87.0887C154.544 87.0887 159.418 82.2143 159.418 76.2013C159.418 70.1885 154.544 65.314 148.531 65.314C142.518 65.314 137.644 70.1885 137.644 76.2013C137.644 82.2143 142.518 87.0887 148.531 87.0887Z" fill="#E68145"/>
<path d="M146.768 81.083C146.642 81.083 146.516 81.0582 146.399 81.0096C146.282 80.9611 146.176 80.8899 146.086 80.8003L143.279 77.9927C143.098 77.812 142.996 77.567 142.996 77.3115C142.996 77.056 143.097 76.8107 143.278 76.63C143.459 76.4491 143.703 76.3475 143.959 76.3473C144.215 76.3471 144.46 76.4483 144.641 76.629L146.774 78.7628L152.428 73.1055C152.608 72.9246 152.853 72.823 153.109 72.8228C153.364 72.8226 153.609 72.9238 153.79 73.1045C153.971 73.285 154.073 73.5301 154.073 73.7855C154.073 74.041 153.972 74.2863 153.791 74.4672L147.448 80.8103C147.266 80.9874 147.022 81.0854 146.768 81.083Z" fill="white"/>
</svg>
