<svg width="119" height="195" viewBox="0 0 119 195" fill="none" xmlns="http://www.w3.org/2000/svg">
<path d="M80.9023 81.5639V1H117.809V92.1247" stroke="#CCDDE2" stroke-width="0.710139" stroke-miterlimit="10"/>
<path d="M84.5713 54.9797V59.6943H89.2859V51.043H84.5713V54.9797ZM85.3463 51.815H88.505V54.9797H85.3463V51.815ZM85.3463 55.7532H88.505V58.9208H85.3463V55.7532Z" fill="#D7E8F0"/>
<path d="M92.8828 54.9797V59.6943H97.5974V51.043H92.8828V54.9797ZM93.6607 51.8179H96.8254V54.9797H93.6607V51.8179ZM93.6607 55.7561H96.8254V58.9208H93.6607V55.7561Z" fill="#D7E8F0"/>
<path d="M100.969 54.9797V59.6943H105.683V51.043H100.969V54.9797ZM101.744 51.815H104.908V54.9797H101.744V51.815ZM101.744 55.7532H104.908V58.9208H101.744V55.7532Z" fill="#D7E8F0"/>
<path d="M108.58 54.9797V59.6943H113.295V51.043H108.58V54.9797ZM109.354 51.815H112.52V54.9797H109.354V51.815ZM109.354 55.7532H112.52V58.9208H109.354V55.7532Z" fill="#D7E8F0"/>
<path d="M79.2735 154.151C78.0285 155.406 76.7953 156.803 75.4811 158.071C75.1197 158.424 74.7499 158.765 74.3717 159.094C73.9518 159.459 73.5187 159.807 73.0752 160.125C73.0429 160.032 73.0036 159.942 72.9573 159.855C72.2133 158.382 70.1949 157.449 69.9444 155.779C69.7161 154.218 71.1231 152.785 70.8932 151.256C70.6339 149.526 68.5064 148.499 68.1131 146.809C67.8626 145.76 68.0866 144.55 67.9952 143.469C67.8908 142.26 67.6863 141.061 67.3838 139.886C67.5311 139.876 67.6785 139.871 67.8258 139.867C70.8166 139.817 73.7603 141.496 74.7283 143.857C75.5077 145.772 75.1113 147.969 76.1471 149.759C76.2094 149.874 76.2798 149.986 76.3578 150.092C76.4951 150.279 76.6426 150.46 76.7998 150.631L77.1283 150.973C77.1828 151.027 77.2432 151.077 77.2977 151.136C77.3523 151.195 77.4112 151.247 77.4657 151.306C77.9814 151.799 78.5073 152.296 78.8491 152.885C78.8801 152.936 78.9076 152.989 78.9317 153.044C78.9627 153.099 78.9903 153.156 79.0142 153.214C79.0451 153.277 79.0687 153.337 79.0908 153.396C79.1129 153.455 79.1409 153.544 79.1644 153.606C79.1968 153.716 79.2278 153.821 79.2514 153.93C79.2514 153.958 79.2514 153.981 79.2602 154.003C79.269 154.025 79.2602 154.021 79.2602 154.031C79.2623 154.04 79.2623 154.049 79.2602 154.058C79.2602 154.077 79.2602 154.09 79.269 154.103V154.112C79.2668 154.125 79.2684 154.139 79.2735 154.151Z" fill="white"/>
<path d="M79.293 154.242H79.2984L79.293 154.247V154.242Z" fill="white"/>
<path d="M79.3013 154.233C79.3381 154.201 79.3691 154.178 79.4059 154.146C79.375 154.174 79.3381 154.205 79.3057 154.237C79.3057 154.237 79.3057 154.237 79.2969 154.237L79.3013 154.233Z" fill="white"/>
<path d="M89.7722 146.98C89.7405 147.494 89.7405 148.009 89.7722 148.522C88.8735 148.742 87.988 148.984 87.1202 149.275C86.581 149.454 86.0521 149.649 85.5231 149.873C84.0557 150.469 82.6739 151.256 81.4141 152.216C81.6885 151.748 81.8818 151.237 81.9857 150.704C81.9857 150.682 81.9945 150.659 81.999 150.632C82.2273 149.529 82.245 148.369 82.7651 147.314C83.7331 145.369 86.5633 143.96 89.5261 143.868H89.5807C89.8503 143.868 90.1243 143.868 90.3984 143.881C90.0915 144.892 89.8818 145.929 89.7722 146.98Z" fill="white"/>
<path d="M88.4259 145.56L87.1117 149.269C86.5725 149.448 86.0436 149.644 85.5146 149.868C86.3589 148.226 87.3253 146.743 88.4259 145.56Z" fill="white"/>
<path d="M79.3083 154.248C79.3083 154.219 79.3037 154.189 79.2949 154.161C79.3039 154.216 79.3083 154.248 79.3083 154.248Z" fill="white"/>
<path d="M69.3145 141.831C72.2611 145.651 74.2177 152.144 75.4818 158.071C75.1204 158.424 74.7506 158.765 74.3724 159.094L69.3145 141.831Z" fill="white"/>
<path d="M79.7191 148.272C79.1298 150.071 79.1077 151.888 79.1769 153.038C79.1948 153.41 79.2341 153.78 79.2948 154.148L79.7191 148.272Z" fill="white"/>
<path d="M79.2735 154.151C78.0285 155.406 76.7953 156.803 75.4811 158.071C75.1197 158.424 74.7499 158.765 74.3717 159.094C73.9518 159.459 73.5187 159.807 73.0752 160.125C73.0429 160.032 73.0036 159.942 72.9573 159.855C72.2133 158.382 70.1949 157.449 69.9444 155.779C69.7161 154.218 71.1231 152.785 70.8932 151.256C70.6339 149.526 68.5064 148.499 68.1131 146.809C67.8626 145.76 68.0866 144.55 67.9952 143.469C67.8908 142.26 67.6863 141.061 67.3838 139.886C67.5311 139.876 67.6785 139.871 67.8258 139.867C70.8166 139.817 73.7603 141.496 74.7283 143.857C75.5077 145.772 75.1113 147.969 76.1471 149.759C76.2094 149.874 76.2798 149.986 76.3578 150.092C76.4951 150.279 76.6426 150.46 76.7998 150.631L77.1283 150.973C77.1828 151.027 77.2432 151.077 77.2977 151.136C77.3523 151.195 77.4112 151.247 77.4657 151.306C77.9814 151.799 78.5073 152.296 78.8491 152.885C78.8801 152.936 78.9076 152.989 78.9317 153.044C78.9627 153.099 78.9903 153.156 79.0142 153.214C79.0451 153.277 79.0687 153.337 79.0908 153.396C79.1129 153.455 79.1409 153.544 79.1644 153.606C79.1968 153.716 79.2278 153.821 79.2514 153.93C79.2514 153.958 79.2514 153.981 79.2602 154.003C79.269 154.025 79.2602 154.021 79.2602 154.031C79.2623 154.04 79.2623 154.049 79.2602 154.058C79.2602 154.077 79.2602 154.09 79.269 154.103V154.112C79.2668 154.125 79.2684 154.139 79.2735 154.151Z" stroke="#CCDDE2" stroke-width="0.685093" stroke-miterlimit="10"/>
<path d="M81.9857 150.709C81.8814 151.24 81.6881 151.749 81.4141 152.216" stroke="#CCDDE2" stroke-width="0.685093" stroke-miterlimit="10"/>
<path d="M89.7683 148.522C89.7367 148.009 89.7367 147.494 89.7683 146.98C89.8783 145.931 90.0879 144.895 90.3945 143.886C90.1205 143.868 89.8464 143.868 89.5768 143.873H89.5223C86.5594 143.964 83.7292 145.374 82.7612 147.319C82.2412 148.374 82.2235 149.529 81.9951 150.637" stroke="#CCDDE2" stroke-width="0.685093" stroke-miterlimit="10"/>
<path d="M81.9873 150.712C81.9873 150.688 81.9962 150.665 82.0007 150.637" stroke="#CCDDE2" stroke-width="0.685093" stroke-miterlimit="10"/>
<path d="M81.999 150.63C81.999 150.657 81.9901 150.68 81.9857 150.703C81.882 151.236 81.6887 151.747 81.4141 152.216" stroke="#CCDDE2" stroke-width="0.685093" stroke-miterlimit="10"/>
<path d="M81.9873 150.712C81.9873 150.688 81.9962 150.665 82.0007 150.637" stroke="#CCDDE2" stroke-width="0.685093" stroke-miterlimit="10"/>
<path d="M79.293 154.22V154.242" stroke="#CCDDE2" stroke-width="0.685093" stroke-miterlimit="10"/>
<path d="M88.4259 145.56C87.3253 146.738 86.3633 148.226 85.5146 149.873" stroke="#CCDDE2" stroke-width="0.685093" stroke-miterlimit="10"/>
<path d="M79.3083 154.248C79.3083 154.219 79.3037 154.189 79.2949 154.161C79.3039 154.216 79.3083 154.248 79.3083 154.248Z" stroke="#CCDDE2" stroke-width="0.685093" stroke-miterlimit="10"/>
<path d="M69.3145 141.831C72.2611 145.651 74.2177 152.144 75.4818 158.071" stroke="#CCDDE2" stroke-width="0.685093" stroke-miterlimit="10"/>
<path d="M79.7191 148.272C79.1298 150.071 79.1077 151.888 79.1769 153.038C79.1948 153.41 79.2341 153.78 79.2948 154.148" stroke="#CCDDE2" stroke-width="0.685093" stroke-miterlimit="10"/>
<path d="M111.057 105.865C112.933 112.89 114.867 120.458 114.708 127.679C114.539 135.288 110.664 141.675 103.722 144.917C99.2029 147.025 94.3454 147.412 89.7678 148.522C88.8691 148.741 87.9836 148.983 87.1158 149.275C86.5766 149.453 86.0476 149.649 85.5187 149.873C84.0526 150.469 82.6723 151.258 81.4141 152.218" stroke="#CCDDE2" stroke-width="0.685093" stroke-miterlimit="10"/>
<path d="M36.0936 65.8814C36.0936 65.8814 27.348 63.8851 20.0684 66.3455C19.1615 66.6443 18.2829 67.0229 17.4429 67.477C13.3176 69.7091 10.2045 73.9037 10.4329 81.5222C10.5552 85.5002 10.3224 89.4236 9.53857 93.2307C9.28221 94.4662 8.96545 95.689 8.58828 96.8992C7.66436 99.8579 6.33086 102.673 4.62653 105.262C-0.801174 113.492 0.020936 122.046 6.04091 129.978C6.3562 130.394 6.68033 130.805 7.0133 131.207" stroke="#CCDDE2" stroke-width="0.685093" stroke-miterlimit="10"/>
<path d="M99.8176 62.2373H45.9885C39.7801 62.2373 34.7471 67.2703 34.7471 73.4788V124.211C34.7471 130.419 39.7801 135.452 45.9885 135.452H99.8176C106.026 135.452 111.059 130.419 111.059 124.211V73.4788C111.059 67.2703 106.026 62.2373 99.8176 62.2373Z" fill="#E68145"/>
<path d="M99.0702 61.167H45.6212C39.0003 61.167 33.6328 66.5344 33.6328 73.1554V123.463C33.6328 130.084 39.0003 135.452 45.6212 135.452H99.0702C105.691 135.452 111.059 130.084 111.059 123.463V73.1554C111.059 66.5344 105.691 61.167 99.0702 61.167Z" stroke="black" stroke-width="0.685093" stroke-miterlimit="10"/>
<path d="M98.316 63.6763H47.4895C41.281 63.6763 36.248 68.7092 36.248 74.9177V122.77C36.248 128.978 41.281 134.011 47.4895 134.011H98.316C104.524 134.011 109.557 128.978 109.557 122.77V74.9177C109.557 68.7092 104.524 63.6763 98.316 63.6763Z" fill="#E68145"/>
<path d="M100.896 67.3682H85.5457C83.4594 67.3682 81.7666 69.1892 81.7666 71.4301V106.961C81.7666 109.206 83.4594 111.031 85.5457 111.031H100.896C102.987 111.031 104.686 109.206 104.686 106.961V71.4301C104.686 69.1892 102.987 67.3682 100.896 67.3682ZM103.598 107.115C103.596 107.862 103.298 108.578 102.769 109.106C102.241 109.634 101.525 109.931 100.778 109.934H85.6738C84.9258 109.931 84.2091 109.634 83.6798 109.105C83.1505 108.577 82.8515 107.86 82.848 107.112V71.2843C82.8515 70.5363 83.1505 69.8199 83.6798 69.2915C84.2091 68.763 84.9258 68.4652 85.6738 68.4628H100.778C101.526 68.4652 102.242 68.7633 102.77 69.2919C103.299 69.8205 103.596 70.5369 103.598 71.2843V107.115Z" fill="#D7E8F0"/>
<path d="M100.694 115.201H85.3435C83.2588 115.201 81.5645 117.022 81.5645 119.263V124.667C81.5645 126.914 83.2588 128.739 85.3435 128.739H100.694C102.785 128.739 104.483 126.914 104.483 124.667V119.263C104.483 117.022 102.785 115.201 100.694 115.201ZM103.396 124.823C103.394 125.571 103.096 126.287 102.568 126.815C102.04 127.344 101.323 127.641 100.576 127.643H85.4717C84.7238 127.641 84.0071 127.344 83.4777 126.816C82.9483 126.287 82.6494 125.571 82.6459 124.823V119.117C82.6494 118.369 82.9483 117.653 83.4777 117.125C84.0069 116.596 84.7237 116.298 85.4717 116.296H100.576C101.324 116.298 102.04 116.596 102.568 117.125C103.096 117.654 103.394 118.37 103.396 119.117V124.823Z" fill="#D7E8F0"/>
<path d="M66.2938 119.129L43.7992 118.799C43.5571 118.795 43.3266 118.695 43.1582 118.522C42.9896 118.348 42.897 118.114 42.9005 117.872C42.9002 117.789 42.9121 117.705 42.9358 117.625C42.9939 117.434 43.1122 117.268 43.2729 117.151C43.4337 117.033 43.6282 116.971 43.8272 116.974L66.3218 117.301C66.1536 117.562 66.0594 117.864 66.0493 118.174C66.037 118.51 66.122 118.841 66.2938 119.129Z" fill="#E68145"/>
<path d="M71.7478 118.54C71.6908 118.73 71.5739 118.896 71.4147 119.015C71.2554 119.133 71.0623 119.197 70.8638 119.197L69.2432 119.173C69.417 118.902 69.5116 118.587 69.5166 118.264C69.5215 117.942 69.4366 117.624 69.2712 117.348L70.8918 117.371C71.1334 117.376 71.3634 117.476 71.5317 117.65C71.6999 117.823 71.7929 118.056 71.7905 118.298C71.7877 118.38 71.7733 118.461 71.7478 118.54Z" fill="#D7E8F0"/>
<path d="M71.6947 122.162C71.6377 122.352 71.5207 122.518 71.3614 122.636C71.202 122.754 71.0089 122.817 70.8107 122.815L48.4531 122.488C48.6619 122.239 48.7958 121.936 48.8394 121.614C48.8829 121.292 48.8343 120.964 48.6992 120.668L70.8313 120.984C71.0731 120.988 71.3032 121.088 71.4716 121.262C71.6399 121.436 71.7329 121.669 71.7301 121.91C71.7308 121.996 71.7189 122.081 71.6947 122.162Z" fill="#D7E8F0"/>
<path d="M45.7634 122.447L43.7479 122.418C43.5064 122.414 43.2761 122.315 43.1074 122.142C42.9388 121.97 42.8453 121.737 42.8477 121.496C42.8487 121.41 42.8611 121.326 42.8845 121.244C42.9411 121.054 43.0579 120.888 43.2177 120.771C43.3772 120.654 43.5707 120.592 43.7685 120.595L45.5645 120.623C45.4595 120.841 45.4002 121.078 45.3906 121.32C45.3758 121.728 45.5079 122.128 45.7634 122.447Z" fill="#E68145"/>
<path d="M64.7029 126.386L43.8304 126.082C43.5889 126.077 43.3592 125.977 43.191 125.803C43.0229 125.63 42.9296 125.397 42.9317 125.156C42.9323 125.074 42.9451 124.992 42.97 124.914C43.0266 124.724 43.1434 124.557 43.3027 124.438C43.4621 124.32 43.6554 124.256 43.854 124.257L64.6955 124.563C64.5254 124.837 64.4352 125.152 64.4352 125.475C64.4352 125.797 64.5254 126.112 64.6955 126.386H64.7029Z" fill="#E68145"/>
<path d="M71.782 125.824C71.7254 126.014 71.6085 126.18 71.449 126.298C71.2895 126.415 71.096 126.478 70.898 126.475L67.6184 126.433L64.7027 126.393C64.5326 126.119 64.4424 125.804 64.4424 125.482C64.4424 125.159 64.5326 124.844 64.7027 124.57L67.6729 124.615L70.9142 124.662C71.1554 124.666 71.3854 124.765 71.5538 124.938C71.7222 125.11 71.8153 125.343 71.813 125.584C71.814 125.665 71.8037 125.746 71.782 125.824Z" fill="#D7E8F0"/>
<path d="M69.2346 119.173C69.008 119.527 68.6607 119.787 68.2572 119.905C67.8535 120.022 67.4211 119.989 67.0401 119.811C66.6589 119.634 66.3553 119.324 66.1854 118.94C66.0154 118.555 65.9906 118.122 66.1159 117.721C66.2411 117.32 66.5076 116.978 66.8659 116.758C67.2244 116.539 67.6503 116.456 68.0646 116.527C68.4789 116.598 68.8535 116.817 69.1188 117.142C69.3841 117.468 69.522 117.88 69.5072 118.3C69.4964 118.61 69.4023 118.912 69.2346 119.173Z" fill="white"/>
<g opacity="0.72">
<path opacity="0.72" d="M68.5826 118.112C68.5436 118.32 68.4459 118.512 68.3012 118.665C68.2308 118.743 68.1539 118.815 68.0714 118.88C68.0257 118.912 67.7885 119.103 67.7428 119.079C67.4305 118.921 67.0371 118.525 66.9885 118.137C66.9804 118.077 66.9804 118.015 66.9885 117.955C67.0057 117.85 67.0598 117.756 67.141 117.688C67.222 117.62 67.3247 117.584 67.4305 117.585C67.4997 117.588 67.5675 117.606 67.6281 117.64C67.6888 117.673 67.7406 117.721 67.7797 117.778C67.8239 117.725 67.8796 117.682 67.9426 117.653C68.0057 117.624 68.0743 117.61 68.1436 117.612C68.2059 117.614 68.2672 117.628 68.3236 117.655C68.38 117.682 68.4304 117.72 68.4715 117.767C68.5126 117.814 68.5437 117.869 68.5629 117.928C68.582 117.988 68.5887 118.05 68.5826 118.112Z" fill="#E68145"/>
</g>
<path d="M48.45 122.488C48.285 122.686 48.0777 122.844 47.8436 122.952C47.6093 123.059 47.3542 123.113 47.0965 123.109C46.8389 123.105 46.5854 123.043 46.3547 122.929C46.1238 122.814 45.9216 122.65 45.7627 122.447C45.5084 122.128 45.3771 121.728 45.3929 121.32C45.4026 121.078 45.4617 120.841 45.5667 120.623C45.7146 120.322 45.9464 120.071 46.234 119.899C46.5214 119.727 46.8526 119.643 47.1874 119.655C47.5097 119.665 47.8228 119.766 48.0905 119.946C48.3581 120.126 48.5695 120.378 48.7005 120.673C48.8356 120.969 48.8842 121.296 48.8407 121.618C48.7971 121.94 48.6632 122.243 48.4544 122.493L48.45 122.488Z" fill="white"/>
<g opacity="0.72">
<path opacity="0.72" d="M47.9269 121.256C47.8869 121.462 47.7888 121.653 47.644 121.807C47.5748 121.886 47.4977 121.958 47.4142 122.022C47.37 122.054 47.1313 122.246 47.0871 122.221C46.7747 122.064 46.3814 121.668 46.3313 121.279C46.3232 121.218 46.3232 121.157 46.3313 121.096C46.3464 121.01 46.387 120.93 46.4475 120.867C46.5082 120.804 46.5863 120.76 46.6718 120.741C46.7574 120.723 46.8466 120.729 46.9281 120.762C47.0097 120.794 47.0799 120.849 47.1298 120.921C47.1883 120.84 47.2726 120.781 47.3689 120.754C47.4653 120.727 47.5678 120.733 47.6601 120.772C47.7523 120.811 47.8286 120.88 47.8766 120.968C47.9245 121.055 47.9412 121.157 47.9239 121.256H47.9269Z" fill="#E68145"/>
</g>
<path d="M67.6187 126.433C67.4107 126.747 67.1058 126.985 66.7505 127.111C66.3951 127.236 66.0085 127.242 65.6495 127.128C65.2903 127.014 64.9781 126.786 64.7603 126.478C64.5424 126.171 64.4307 125.801 64.4422 125.424C64.4531 125.122 64.542 124.828 64.7 124.571C64.8213 124.377 64.9798 124.209 65.1662 124.077C65.3527 123.945 65.5636 123.851 65.7866 123.8C66.0097 123.75 66.2405 123.744 66.4657 123.784C66.6909 123.823 66.9062 123.907 67.0989 124.03C67.2916 124.153 67.4581 124.313 67.5886 124.5C67.7193 124.688 67.8114 124.9 67.8597 125.123C67.908 125.347 67.9116 125.577 67.8703 125.802C67.8289 126.027 67.7433 126.242 67.6187 126.433Z" fill="white"/>
<g opacity="0.72">
<path opacity="0.72" d="M66.9777 125.351C66.9382 125.559 66.8399 125.75 66.6948 125.904C66.6255 125.983 66.5485 126.055 66.4649 126.119C66.4207 126.151 66.1821 126.341 66.1379 126.318C65.8255 126.16 65.4321 125.765 65.3821 125.376C65.374 125.316 65.374 125.254 65.3821 125.194C65.3972 125.107 65.4377 125.027 65.4983 124.964C65.559 124.901 65.6371 124.857 65.7225 124.838C65.8081 124.82 65.8974 124.827 65.9789 124.859C66.0605 124.891 66.1306 124.946 66.1806 125.018C66.2391 124.937 66.3232 124.878 66.4193 124.851C66.5153 124.824 66.6179 124.831 66.71 124.869C66.802 124.908 66.8784 124.977 66.9264 125.064C66.9744 125.152 66.9915 125.253 66.9747 125.351H66.9777Z" fill="#E68145"/>
</g>
<path d="M42.728 71.6809L42.7663 77.0128C42.7761 77.9428 43.1451 78.8331 43.7961 79.4973C44.4472 80.1614 45.3298 80.5483 46.2595 80.5768L51.5369 80.6681C51.9907 80.675 52.4414 80.5908 52.862 80.4203C53.2827 80.2497 53.6647 79.9964 53.9856 79.6754C54.3065 79.3545 54.5596 78.9723 54.7299 78.5515C54.9002 78.1309 54.9844 77.6802 54.9771 77.2264L54.9374 71.8945C54.9282 70.9645 54.5596 70.0744 53.9087 69.4102C53.2578 68.7462 52.3751 68.3597 51.4456 68.332L46.1682 68.2392C45.7144 68.2322 45.2637 68.3165 44.8431 68.487C44.4224 68.6575 44.0404 68.9107 43.7195 69.2318C43.3986 69.5528 43.1455 69.935 42.9752 70.3556C42.8049 70.7764 42.7207 71.2271 42.728 71.6809Z" fill="white"/>
<path d="M43.54 73.0185L43.568 76.8786C43.5767 77.6862 43.8973 78.4591 44.4628 79.0356C45.0281 79.6122 45.7945 79.948 46.6016 79.9726L51.1851 80.0522C51.5792 80.0582 51.9707 79.985 52.3359 79.8369C52.7013 79.689 53.0332 79.4692 53.3121 79.1906C53.591 78.912 53.8111 78.5802 53.9595 78.2149C54.1079 77.8497 54.1815 77.4585 54.1759 77.0643V76.8035C53.5321 75.4864 52.2783 73.5151 50.9346 74.6937C49.006 76.388 48.1235 75.0989 46.9994 73.4355C46.0609 72.0432 44.6332 71.0266 43.54 73.0185Z" fill="#E68145"/>
<path d="M52.1632 72.4855C52.7455 72.0987 52.8954 71.3005 52.4982 70.7027C52.1012 70.105 51.3072 69.934 50.7249 70.3207C50.1428 70.7076 49.9929 71.5057 50.3901 72.1034C50.7871 72.7011 51.5811 72.8722 52.1632 72.4855Z" fill="#E68145"/>
<path d="M73.3844 73.838C72.5597 73.8377 71.7549 74.0928 71.081 74.5682C70.407 75.0435 69.8966 75.7159 69.6201 76.493C69.3436 77.27 69.3142 78.1136 69.5364 78.9079C69.7586 79.7021 70.2211 80.4083 70.8606 80.9291L60.4001 102.249C60.3357 102.239 60.2707 102.233 60.2056 102.23C60.0388 102.233 59.8731 102.258 59.7135 102.307L52.9082 93.8516C53.212 93.4323 53.3841 92.9319 53.4025 92.4145C53.4208 91.8969 53.2845 91.3857 53.0111 90.9461C52.7376 90.5063 52.3396 90.158 51.8672 89.9455C51.395 89.7329 50.8702 89.666 50.3597 89.753C49.8493 89.84 49.3764 90.0771 49.0012 90.4341C48.6261 90.7911 48.3657 91.2516 48.2534 91.7571C48.1412 92.2626 48.1821 92.7902 48.3709 93.2723C48.5596 93.7545 48.8877 94.1695 49.3134 94.4645L44.5442 108.037C44.1285 108.062 43.734 108.23 43.428 108.512C43.1222 108.795 42.9234 109.175 42.866 109.588C42.8084 110 42.8953 110.42 43.1122 110.776C43.329 111.131 43.6623 111.401 44.0554 111.539C44.4486 111.676 44.8772 111.674 45.2687 111.531C45.6601 111.389 45.9901 111.115 46.2027 110.757C46.4153 110.399 46.4974 109.978 46.4348 109.566C46.3723 109.154 46.1691 108.777 45.8599 108.498L50.629 94.9242C50.688 94.9242 50.7454 94.933 50.8044 94.933C51.159 94.933 51.5098 94.8608 51.8357 94.7208L58.6395 103.173C58.4961 103.433 58.4201 103.725 58.4185 104.022C58.4115 104.263 58.4531 104.502 58.5403 104.727C58.6277 104.951 58.7591 105.155 58.9269 105.328C59.0947 105.501 59.2955 105.638 59.5173 105.732C59.739 105.826 59.9774 105.874 60.2181 105.874C60.4589 105.874 60.6972 105.826 60.919 105.732C61.1407 105.638 61.3415 105.501 61.5093 105.328C61.677 105.155 61.8086 104.951 61.8958 104.727C61.9831 104.502 62.0247 104.263 62.0178 104.022C62.0166 103.622 61.8806 103.233 61.6318 102.92L72.0923 81.5995C72.6422 81.7931 73.2277 81.8639 73.8079 81.8072C74.388 81.7505 74.9488 81.5674 75.4506 81.2709C75.9526 80.9743 76.3834 80.5715 76.7131 80.0908C77.0427 79.6101 77.2631 79.063 77.3588 78.488C77.4546 77.9129 77.4232 77.3239 77.2672 76.7623C77.111 76.2006 76.8339 75.68 76.4551 75.237C76.0763 74.7938 75.6052 74.439 75.0748 74.1972C74.5442 73.9556 73.9673 73.833 73.3844 73.838Z" fill="#D7E8F0"/>
<path d="M86.0254 81.521H100.022" stroke="white" stroke-width="0.685093" stroke-miterlimit="10"/>
<path d="M86.0254 83.6826H100.022" stroke="white" stroke-width="0.685093" stroke-miterlimit="10"/>
<path d="M86.0254 85.8423H100.022" stroke="white" stroke-width="0.685093" stroke-miterlimit="10"/>
<path d="M86.0254 88.0024H100.022" stroke="white" stroke-width="0.685093" stroke-miterlimit="10"/>
<path d="M86.0254 90.1636H100.022" stroke="white" stroke-width="0.685093" stroke-miterlimit="10"/>
<path d="M86.0254 102.781H100.022" stroke="white" stroke-width="0.685093" stroke-miterlimit="10"/>
<path d="M86.0254 104.688H100.022" stroke="white" stroke-width="0.685093" stroke-miterlimit="10"/>
<path d="M97.0824 119.286C97.2231 119.403 97.3359 119.55 97.4123 119.716C97.4888 119.882 97.5271 120.063 97.5244 120.245L97.492 124.567C97.4909 124.73 97.4576 124.891 97.3939 125.041C97.3303 125.191 97.2377 125.328 97.1213 125.442C97.005 125.556 96.8672 125.646 96.7159 125.707C96.5646 125.768 96.4028 125.799 96.2397 125.797L89.7571 125.741C89.4284 125.738 89.1143 125.604 88.8839 125.37C88.6535 125.135 88.5256 124.819 88.5284 124.49L88.5667 120.166C88.579 119.84 88.7155 119.531 88.948 119.303C89.1805 119.074 89.4916 118.944 89.8175 118.937L96.3001 118.993C96.5873 118.996 96.8644 119.099 97.0824 119.286Z" fill="white"/>
<path d="M96.1655 120.077L93.1422 122.674C93.1036 122.707 93.0546 122.725 93.0037 122.725C92.9531 122.725 92.9038 122.707 92.8652 122.674L89.7875 120.022C89.7535 119.994 89.7293 119.955 89.7184 119.912C89.7075 119.869 89.7104 119.824 89.7266 119.782C89.743 119.741 89.7719 119.706 89.8091 119.682C89.8466 119.658 89.8905 119.646 89.9348 119.648L96.0358 119.703C96.0787 119.704 96.1201 119.719 96.1546 119.744C96.1892 119.769 96.2151 119.805 96.2291 119.845C96.2433 119.886 96.2446 119.93 96.2333 119.971C96.2219 120.012 96.1983 120.049 96.1655 120.077Z" fill="#E68145"/>
<path d="M93.2269 93.6357C92.581 93.6352 91.9495 93.8261 91.4122 94.1846C90.8749 94.5429 90.456 95.0526 90.2083 95.6492C89.9608 96.2457 89.8957 96.9022 90.0214 97.5358C90.147 98.1693 90.4578 98.7512 90.9142 99.2081C91.3708 99.665 91.9524 99.9763 92.5858 100.103C93.2192 100.229 93.8759 100.164 94.4727 99.9172C95.0694 99.6702 95.5795 99.2517 95.9384 98.7147C96.2973 98.1778 96.4888 97.5465 96.4888 96.9006C96.4889 96.472 96.4048 96.0477 96.241 95.6517C96.0772 95.2557 95.8369 94.8957 95.5339 94.5927C95.2312 94.2895 94.8714 94.0489 94.4757 93.8847C94.0798 93.7205 93.6555 93.6359 93.2269 93.6357ZM93.2269 99.3817C93.1003 99.3817 92.9789 99.3314 92.8893 99.2419C92.7998 99.1523 92.7495 99.0309 92.7495 98.9043C92.7495 98.7778 92.7998 98.6562 92.8893 98.5668C92.9789 98.4772 93.1003 98.427 93.2269 98.427C93.3534 98.427 93.4748 98.4772 93.5644 98.5668C93.654 98.6562 93.7042 98.7778 93.7042 98.9043C93.7042 99.0309 93.654 99.1523 93.5644 99.2419C93.4748 99.3314 93.3534 99.3817 93.2269 99.3817ZM93.8265 95.7102C93.7263 96.4188 93.6409 97.1629 93.4302 97.8494C93.4106 97.8867 93.3811 97.9181 93.345 97.9399C93.3089 97.9617 93.2675 97.9732 93.2254 97.9732C93.1833 97.9732 93.1419 97.9617 93.1058 97.9399C93.0697 97.9181 93.0402 97.8867 93.0206 97.8494C92.8712 97.3323 92.757 96.8056 92.6788 96.273C92.6125 95.887 92.3841 95.2579 92.6037 94.8836C92.7937 94.5463 93.3315 94.5065 93.635 94.6818C94.0225 94.8895 93.8722 95.3477 93.8265 95.7043V95.7102Z" fill="white"/>
<path d="M73.4426 80.8404C75.0618 80.8404 76.3745 79.5278 76.3745 77.9085C76.3745 76.2893 75.0618 74.9766 73.4426 74.9766C71.8235 74.9766 70.5107 76.2893 70.5107 77.9085C70.5107 79.5278 71.8235 80.8404 73.4426 80.8404Z" fill="white"/>
<path d="M93.2044 73.7085C93.7455 73.7085 94.1841 73.2699 94.1841 72.7288C94.1841 72.1878 93.7455 71.749 93.2044 71.749C92.6632 71.749 92.2246 72.1878 92.2246 72.7288C92.2246 73.2699 92.6632 73.7085 93.2044 73.7085Z" fill="white"/>
<path d="M90.4678 77.1583C90.4678 76.4327 90.7561 75.7367 91.2691 75.2237C91.7823 74.7105 92.4781 74.4224 93.2037 74.4224C93.9293 74.4224 94.6252 74.7105 95.1383 75.2237C95.6515 75.7367 95.9397 76.4327 95.9397 77.1583H90.4678Z" fill="white"/>
<path d="M74.3599 170.81C74.3593 171.033 74.2908 171.25 74.1637 171.432C74.0367 171.615 73.8568 171.754 73.6483 171.832L63.3866 175.663C63.3866 175.663 62.8975 174.755 62.0444 173.239L56.1836 163.434C54.5998 171.582 52.8332 179.74 51.7386 184.824L50.6837 189.886L54.9121 191.277C55.1662 191.339 55.3926 191.483 55.5546 191.689C55.7168 191.894 55.8055 192.147 55.8064 192.409C55.806 192.586 55.7653 192.761 55.6874 192.92C55.6094 193.08 55.4963 193.219 55.3565 193.328C55.2166 193.437 55.0538 193.513 54.8804 193.55C54.707 193.587 54.5273 193.584 54.3552 193.542L44.5547 191.058V188.662L44.3219 188.616L44.5237 160.672L34.9472 158.408C33.7464 158.782 32.4779 159.125 31.1814 159.403C31.1674 159.405 31.1537 159.408 31.1401 159.412C27.9933 160.237 24.7063 160.379 21.5002 159.828C21.4722 159.828 21.4398 159.815 21.4133 159.809C21.1805 159.764 20.9477 159.713 20.7193 159.661C20.6501 159.648 20.5823 159.635 20.5131 159.616C20.3127 159.57 20.1123 159.511 19.912 159.457C19.8015 159.424 19.6924 159.398 19.5878 159.365C19.4832 159.333 19.4052 159.306 19.3138 159.274C17.5883 158.732 15.9946 157.836 14.6345 156.644C13.5917 155.768 12.7076 154.72 12.0209 153.544C11.7262 153.079 11.4507 152.589 11.1944 152.087C9.63853 149.015 9.3144 147.971 9.76671 147.943C8.7706 147.592 7.80572 147.158 6.88195 146.646C6.88195 146.646 4.84583 134.764 9.28641 122.805C9.2014 122.065 9.21672 121.317 9.33208 120.582C10.2676 113.872 15.4169 106.975 21.5606 104.182C24.852 102.685 30.2193 100.388 28.4852 95.8151C27.9371 94.3683 27.1592 93.1219 27.0119 91.6205C26.9986 91.4732 26.981 91.3421 26.9706 91.1962C26.7246 87.6603 28.7828 84.3026 32.1155 83.093C33.2059 82.6824 34.3714 82.5094 35.5341 82.5857C36.6969 82.6619 37.8299 82.9856 38.8574 83.535C39.2123 83.7222 39.5307 83.9718 39.7973 84.2716C40.811 84.2982 42.0839 84.4764 42.6821 84.7549C43.6957 85.2293 44.5075 86.0602 45.1145 86.9958C46.2343 88.7396 46.6838 90.8303 46.3801 92.8802C46.2057 94.0147 45.8015 95.1015 45.1926 96.0744C44.8924 96.5618 44.5439 97.0179 44.1525 97.4357C43.8092 97.7952 43.3215 98.3197 42.8515 98.5127C42.8568 98.5168 42.8633 98.5192 42.8699 98.5192C42.8766 98.5192 42.8832 98.5168 42.8884 98.5127L42.7513 100.704C45.5654 100.063 53.0837 97.4225 58.5954 86.5214C58.9932 85.6772 59.4028 84.8374 59.833 84.0064C61.1059 81.5327 62.4702 79.0723 64.278 76.9448C64.72 76.4292 65.3741 75.9636 66.0769 76.1875C66.6928 76.3835 67.1082 77.0715 66.6795 77.6491L63.7211 81.6919L64.6655 81.5696C64.7685 81.5945 64.8647 81.6415 64.9476 81.7073C65.0304 81.7733 65.098 81.8564 65.1453 81.9512C65.1928 82.0459 65.219 82.1498 65.2221 82.2555C65.2252 82.3615 65.2051 82.4667 65.1634 82.5641L64.5653 83.9843L64.8482 83.6514C65.0428 83.4215 65.3186 83.2758 65.6183 83.2447C65.9178 83.2136 66.2176 83.2995 66.4553 83.4844C66.6929 83.6695 66.85 83.9391 66.8934 84.2372C66.9367 84.5351 66.8634 84.8383 66.6883 85.0834L65.1296 87.0975C64.9208 87.3634 64.6556 87.5798 64.3531 87.731L61.268 89.219C62.1804 90.3407 63.0289 91.5128 63.8095 92.7299C62.1154 95.9768 60.1296 99.0629 57.8764 101.95C54.0782 106.843 48.6093 112.312 41.9322 114.598C41.7848 118.643 41.0703 122.65 39.9609 126.571C43.4246 126.571 46.7293 126.571 50.0708 126.571L52.5902 119.696C52.706 119.379 52.9165 119.105 53.1932 118.912C53.4699 118.718 53.7995 118.614 54.1371 118.615H64.2073C64.3824 118.615 64.556 118.649 64.7185 118.715C64.9653 118.817 65.1764 118.99 65.3251 119.211C65.4739 119.433 65.5534 119.694 65.5539 119.961C65.5521 120.125 65.5212 120.287 65.4625 120.44L64.7951 122.176H64.773H61.9339L60.7789 125.485L61.1074 124.649H62.5277C62.7502 124.649 62.9691 124.704 63.1652 124.809C63.3613 124.914 63.5284 125.066 63.6515 125.251C63.7747 125.437 63.8503 125.649 63.8713 125.871C63.8926 126.092 63.8585 126.315 63.7726 126.52L62.563 129.414C62.1984 130.285 61.6201 131.051 60.8815 131.64C60.1431 132.229 59.2681 132.622 58.3376 132.784L58.2094 132.806L57.9722 133.507L58.0945 133.265C58.0547 133.361 58.009 133.466 57.9678 133.581H61.1531C61.1531 133.581 60.4459 135.643 59.1449 135.767C59.0398 135.775 58.9341 135.772 58.8297 135.757H52.2292C52.599 136.168 53.0145 136.666 53.4579 137.251C55.3733 137.223 58.1593 137.427 58.8488 138.765C58.9674 138.898 59.0758 139.04 59.1729 139.19C59.4367 139.632 59.5236 140.663 59.4602 142.152C59.4788 143.688 59.35 145.223 59.0757 146.734C59.4097 147.361 59.7309 147.991 60.0392 148.625C60.7099 149.878 61.3148 151.165 61.8514 152.482C61.8698 152.517 61.8852 152.553 61.8971 152.591C63.5054 156.279 64.9164 160.05 66.124 163.888L66.1918 164.125C67.1053 166.819 67.8493 169.266 68.1322 170.755L72.9205 169.774C73.0847 169.72 73.2595 169.705 73.4307 169.731C73.6017 169.757 73.7641 169.824 73.9046 169.925C74.045 170.026 74.1595 170.159 74.2386 170.313C74.3179 170.466 74.3595 170.637 74.3599 170.81Z" fill="white"/>
<path d="M57.8364 133.755H61.0217C60.891 134.115 60.7247 134.46 60.5252 134.787C60.1318 135.402 59.5248 136.046 58.7219 135.937H49.0584C48.6827 135.94 48.3169 135.818 48.0182 135.59C47.9521 135.283 47.9709 134.965 48.0727 134.669C51.9756 134.071 55.9741 133.427 57.7627 133.057L58.1001 132.998L57.8364 133.755Z" fill="#E68145"/>
<path d="M65.4229 120.156C65.4212 120.319 65.3902 120.482 65.3316 120.634L64.6657 122.369H61.8251L60.6582 125.698L60.2339 126.762H50.9756L53.1207 120.919C53.2371 120.602 53.4481 120.328 53.7249 120.135C54.0019 119.941 54.3315 119.838 54.6692 119.837H64.7378C64.9132 119.838 65.0867 119.872 65.2491 119.938C65.3055 119.961 65.3606 119.987 65.4141 120.016C65.4185 120.06 65.4229 120.11 65.4229 120.156Z" fill="#E68145"/>
<path d="M65.425 120.154C65.4231 120.318 65.3921 120.48 65.3336 120.633L64.6662 122.367H61.8271L62.8143 119.689C62.9233 119.392 63.1334 119.143 63.4079 118.985C63.6822 118.827 64.0032 118.772 64.3148 118.827C64.6263 118.883 64.9083 119.046 65.1112 119.289C65.3142 119.531 65.4253 119.838 65.425 120.154Z" fill="#E68145"/>
<path d="M61.0209 133.755C61.0209 133.755 60.1074 136.44 58.4485 135.862C57.4172 135.507 57.5719 134.48 57.8415 133.75L61.0209 133.755Z" fill="#E68145"/>
<path d="M58.6873 122.368H54.0566" stroke="white" stroke-width="0.685093" stroke-linecap="round" stroke-linejoin="round"/>
<path d="M58.117 124.109H53.4863" stroke="white" stroke-width="0.685093" stroke-linecap="round" stroke-linejoin="round"/>
<path d="M61.7436 152.658C60.9417 150.719 60.0064 148.838 58.9443 147.028C59.3745 144.749 59.6677 140.756 58.7351 138.944C58.0456 137.605 55.2625 137.402 53.3413 137.43C51.8577 135.469 50.6584 134.458 50.6584 134.458C50.6584 134.458 41.7271 135.905 39.6881 135.917C37.649 135.928 37.6505 137.058 37.6505 137.058C37.6505 137.058 36.2302 141.344 34.6243 143.473C33.0184 145.602 28.6986 148.188 22.4738 149.184C16.2491 150.18 11.3532 148.953 10.2306 148.328C9.10789 147.703 9.07105 148.306 11.0807 152.265C13.0903 156.223 16.1842 159.07 21.3806 160.008C24.5857 160.56 27.8719 160.418 31.0176 159.593C31.0176 159.593 39.2402 157.52 41.652 155.939C44.0638 154.358 44.441 156.508 44.441 156.508L44.2053 188.8L50.57 190.07L56.0684 163.619L61.9322 173.432L68.0244 170.927C67.3069 167.16 63.6221 157.225 61.7436 152.658Z" fill="#2E2E2E"/>
<path d="M45.1103 109.482C44.9798 110.379 44.5984 111.22 44.0098 111.91C43.5576 112.487 42.9824 112.957 42.3258 113.284C42.1717 113.359 42.0115 113.42 41.8469 113.467C41.8469 112.956 41.8381 112.436 41.8101 111.929C41.7055 110.03 41.3224 108.052 40.1128 106.592C39.5309 105.895 38.7964 105.34 37.9662 104.972C37.9898 104.621 38.0178 104.273 38.0399 103.923C38.1032 103.323 38.1003 102.718 38.031 102.119C37.953 101.756 37.9086 101.386 37.8984 101.014C37.9117 100.668 37.8616 99.3392 38.1356 99.0519C38.5928 99.2424 39.0827 99.3426 39.578 99.3466C40.6874 99.3378 41.5685 98.6571 42.1622 97.7864C42.3806 97.715 42.6076 97.6734 42.837 97.6626C43.5088 97.7628 41.5036 99.5705 42.1578 99.3658C41.732 99.4969 41.4211 100.136 41.2208 100.502C40.9261 101.067 40.7552 101.733 41.044 102.332C41.3268 102.903 41.9191 103.395 42.339 103.865C42.9051 104.46 43.4346 105.088 43.9243 105.747C44.6993 106.825 45.265 108.15 45.1103 109.482Z" fill="#E68145"/>
<path d="M34.9138 104.22C35.9688 104.286 37.0035 104.539 37.9694 104.969C38.799 105.338 39.5329 105.892 40.1146 106.589C41.3242 108.051 41.7072 110.027 41.8118 111.926C41.8398 112.437 41.8531 112.957 41.8487 113.464C41.8266 117.96 41.0781 122.41 39.8494 126.761C43.6653 126.761 47.2852 126.761 50.9729 126.761H60.2342L60.6585 125.698L60.9974 124.844H62.4265C62.6491 124.844 62.8682 124.899 63.0644 125.004C63.2607 125.109 63.4279 125.261 63.5512 125.446C63.6747 125.631 63.7503 125.844 63.7715 126.066C63.7927 126.288 63.7588 126.511 63.6729 126.716L62.4633 129.61C62.0978 130.481 61.5189 131.246 60.7804 131.834C60.0416 132.423 59.1669 132.816 58.2364 132.978L58.1082 133.001L57.7708 133.06C55.9822 133.43 51.9836 134.074 48.0808 134.672C44.511 135.225 41.0192 135.736 39.3676 135.973C38.7414 136.065 38.102 136.132 37.4523 136.174C33.5966 136.411 29.6157 135.553 28.5844 131.164C27.9126 128.353 28.0599 125.323 28.0908 122.397" stroke="black" stroke-width="0.685093" stroke-miterlimit="10"/>
<path d="M53.3721 137.556C55.8679 137.442 58.1044 137.811 59.0635 139.373C59.5467 140.163 59.4289 142.947 58.9309 146.831" stroke="black" stroke-width="0.685093" stroke-miterlimit="10"/>
<path d="M11.5615 153.09C11.567 153.096 11.5714 153.104 11.5748 153.112C12.6429 155.29 14.5214 157.169 16.9244 158.485C25.3916 163.117 38.1269 157.69 42.7075 155.431C42.8903 155.341 43.093 155.299 43.2965 155.309C43.5 155.32 43.6974 155.381 43.8703 155.489C44.0432 155.597 44.1856 155.747 44.2843 155.926C44.3831 156.104 44.4346 156.304 44.4342 156.508V191.244L54.2332 193.727C54.385 193.766 54.5429 193.774 54.6978 193.75C54.8526 193.726 55.0011 193.671 55.1341 193.589C55.2673 193.506 55.3824 193.398 55.4723 193.269C55.5623 193.141 55.6255 192.996 55.6579 192.843C55.7224 192.545 55.6678 192.234 55.5056 191.976C55.3434 191.718 55.0864 191.534 54.7901 191.464L50.5632 190.072C50.7591 188.698 53.6262 176.141 56.0631 163.621" stroke="black" stroke-width="0.685093" stroke-miterlimit="10"/>
<path d="M50.47 134.294C52.9747 136.416 54.7736 139.678 56.4576 142.449C60.5608 149.201 63.6297 156.55 66.0135 164.07C66.734 166.342 67.397 168.637 68.0231 170.933L72.8085 169.95C73.08 169.862 73.3754 169.883 73.6313 170.01C73.8872 170.137 74.0835 170.359 74.1779 170.628C74.2725 170.898 74.2578 171.193 74.137 171.452C74.0163 171.711 73.7991 171.912 73.5319 172.013L63.2702 175.843C63.2702 175.843 60.2676 170.235 56.0716 163.615C49.922 153.903 38.5583 138.934 35.5586 142.127" stroke="black" stroke-width="0.685093" stroke-miterlimit="10"/>
<path d="M41.5176 101.062C41.5176 101.062 51.5803 100.365 58.4784 86.7085C58.4784 86.7085 60.6589 88.2128 63.6984 92.9185C63.6984 92.9185 55.1708 110.226 41.8108 114.793" stroke="black" stroke-width="0.685093" stroke-miterlimit="10"/>
<path d="M40.6084 85.0938L41.1977 85.9895L41.5528 86.5347C41.913 87.3739 42.2296 88.231 42.5016 89.1026L42.5193 89.1645L43.1941 91.7428C43.1952 91.7458 43.1952 91.7489 43.1941 91.7517C43.4208 92.125 43.7336 92.4387 44.1061 92.6666C44.1942 92.7142 44.2762 92.7721 44.3506 92.839C44.7558 93.2456 43.6876 93.3635 43.4666 93.4976C43.3691 93.5646 43.2891 93.654 43.2336 93.7583C43.1779 93.8628 43.1481 93.979 43.1469 94.0972C41.8784 99.3761 42.6946 97.9897 42.1495 99.1639C42.6224 98.7632 43.7981 97.4888 43.7981 97.4888C43.9455 97.393 44.084 97.1057 44.1797 96.9628C44.484 96.4961 44.7458 96.0029 44.962 95.4895C45.6343 93.9559 45.7895 92.2454 45.404 90.6157C44.7956 88.0831 43.3768 85.549 40.6084 85.0938Z" fill="#E68145"/>
<path d="M40.4872 86.6868C40.3794 87.2346 40.1195 87.7411 39.7373 88.1483C39.3223 88.602 38.8392 88.9883 38.3052 89.2931C37.3004 89.8913 36.1822 90.3436 35.338 91.1509C34.4927 91.9638 33.9868 93.0665 33.9221 94.2375C33.8632 95.4368 34.2919 96.6788 34.5527 97.8015C35.3792 101.43 35.114 104.918 34.6573 108.57C34.2241 112.016 33.3018 115.388 31.5132 118.388C29.4034 121.924 25.9397 124.754 22.0413 126.207C18.8 127.417 12.5015 128.489 10.1192 125.124C9.70814 124.062 9.70372 122.846 9.86284 121.702C10.7984 114.986 15.9476 108.094 22.0914 105.301C25.3828 103.804 30.7501 101.504 29.016 96.9293C28.4635 95.4869 27.69 94.242 27.5426 92.7348C27.5294 92.5977 27.5161 92.4607 27.5029 92.3149C27.2553 88.7789 29.3136 85.4227 32.6462 84.2116C33.7365 83.7998 34.9022 83.6263 36.0651 83.7026C37.2279 83.7788 38.3609 84.103 39.3881 84.6536C39.7528 84.8476 40.0793 85.1062 40.3517 85.4168C40.3704 85.4379 40.3872 85.4605 40.4018 85.4846C40.4225 85.5367 40.4392 85.5903 40.4519 85.6452C40.5332 85.9865 40.5453 86.3407 40.4872 86.6868Z" fill="#E68145"/>
<path d="M41.8561 113.312C43.6359 112.901 45.1976 111.627 45.644 109.764C46.0595 108.039 45.4024 106.268 44.3843 104.88C43.4399 103.599 41.4731 102.523 41.6278 100.705C41.6779 100.116 41.9696 99.6 42.3497 99.1433C42.4867 98.9841 42.6281 98.8368 42.7828 98.6865" stroke="black" stroke-width="0.685093" stroke-miterlimit="10"/>
<path d="M38.185 99.0107L38.1025 105.026" stroke="black" stroke-width="0.685093" stroke-miterlimit="10"/>
<path d="M28.3735 95.9951C27.824 94.5513 27.0476 93.3063 26.9002 91.8006C26.8855 91.6621 26.8722 91.5236 26.8619 91.3763C26.6129 87.8403 28.6726 84.4856 32.0038 83.273C33.0944 82.8617 34.2602 82.6883 35.4234 82.7646C36.5864 82.8408 37.7197 83.1649 38.7472 83.715C39.1109 83.9098 39.4364 84.169 39.7078 84.4797L39.777 84.5637C40.0176 84.8577 40.1925 85.1999 40.2897 85.567C40.3871 85.9343 40.4047 86.3181 40.3413 86.6926C40.2341 87.2389 39.9758 87.7443 39.5958 88.1512C39.1793 88.6057 38.6953 88.9934 38.1608 89.3004C37.156 89.8986 36.0392 90.3479 35.1921 91.1553C34.3464 91.9703 33.8418 93.0764 33.7806 94.2493C33.7202 95.4485 34.1504 96.6891 34.4068 97.8147C35.2333 101.443 34.9696 104.929 34.5129 108.58C34.0797 112.026 33.1589 115.4 31.3673 118.4C29.2575 121.936 25.7952 124.768 21.8954 126.219C18.5907 127.45 12.1111 128.541 9.83479 124.936C9.07014 123.726 9.02005 122.195 9.21747 120.778C10.153 114.064 15.3052 107.169 21.446 104.377C24.7433 102.862 30.1106 100.568 28.3735 95.9951Z" stroke="black" stroke-width="0.685093" stroke-miterlimit="10"/>
<path d="M41.0243 91.9124C41.3408 91.9124 41.5974 91.6558 41.5974 91.3392C41.5974 91.0228 41.3408 90.7661 41.0243 90.7661C40.7078 90.7661 40.4512 91.0228 40.4512 91.3392C40.4512 91.6558 40.7078 91.9124 41.0243 91.9124Z" fill="black"/>
<path d="M40.8905 89.4917C40.8905 89.4917 38.9502 90.3668 39.5646 92.0685" stroke="black" stroke-width="0.685093" stroke-miterlimit="10"/>
<path d="M42.6844 98.7147C43.1706 98.5379 43.6892 97.978 44.0428 97.6111C44.4338 97.1938 44.7831 96.7394 45.0859 96.2542C45.9383 94.8901 46.3837 93.3108 46.3693 91.7023C46.355 90.0938 45.8816 88.5228 45.0049 87.1742C44.3978 86.2371 43.589 85.4062 42.5754 84.9347C41.7304 84.5366 40.785 84.4031 39.863 84.5517C40.3782 84.9723 40.8404 85.4542 41.2391 85.9867C41.8396 86.7747 42.2601 87.6851 42.4707 88.6534C42.5032 88.8228 42.5312 88.9908 42.5606 89.1617C42.708 90.0722 42.7905 90.9945 43.2369 91.74C43.4645 92.1163 43.7788 92.433 44.1533 92.6637C44.2414 92.7112 44.3234 92.7691 44.3978 92.8361C44.803 93.2428 43.7349 93.3592 43.5139 93.4932C42.9466 93.8247 43.1573 94.7765 43.0822 95.3275C42.9916 95.9706 42.7991 96.5953 42.512 97.178C42.4103 97.385 42.2947 97.5848 42.1658 97.7762C41.5764 98.6498 40.6925 99.3335 39.5816 99.3393C39.0873 99.3349 38.5984 99.2347 38.1421 99.0447C37.3595 98.7266 36.6595 98.2344 36.0957 97.6053" stroke="black" stroke-width="0.685093" stroke-miterlimit="10"/>
<path d="M41.6175 95.6663C41.6175 95.6663 40.2812 96.4281 39.7021 94.6748" stroke="black" stroke-width="0.685093" stroke-miterlimit="10"/>
<path d="M60.9119 89.528L64.2416 87.9192C64.546 87.7724 64.812 87.5564 65.0181 87.2886L66.5724 85.2716C66.7514 85.0267 66.828 84.7219 66.7862 84.4215C66.7442 84.1211 66.5869 83.8488 66.3476 83.6624C66.1083 83.4759 65.8059 83.39 65.5043 83.4229C65.2028 83.4557 64.9259 83.6045 64.7323 83.8381L64.4479 84.1696L65.0475 82.7508C65.0882 82.6532 65.1075 82.5482 65.1041 82.4425C65.1006 82.3369 65.0744 82.2332 65.0272 82.1386C64.9802 82.044 64.9133 81.9606 64.8311 81.8942C64.7489 81.8277 64.6534 81.7797 64.551 81.7533L63.6037 81.8785L66.5651 77.8343C66.985 77.2612 66.5768 76.5687 65.9625 76.3728C65.2553 76.1473 64.6011 76.6129 64.1621 77.1286C62.3558 79.256 60.9871 81.7165 59.7156 84.1917C59.2883 85.0236 58.8763 85.8624 58.4795 86.7081" stroke="black" stroke-width="0.685093" stroke-linejoin="round"/>
<path d="M63.6052 81.8789C63.6052 81.8789 61.6737 84.2819 64.4494 84.1699" stroke="black" stroke-width="0.685093" stroke-miterlimit="10"/>
<path d="M58.2273 132.975C58.2273 132.975 56.7952 135.298 58.463 135.868C60.1308 136.438 61.0428 133.757 61.0428 133.757H57.8236" stroke="black" stroke-width="0.685093" stroke-miterlimit="10"/>
<path d="M58.7394 135.936H52.0977" stroke="black" stroke-width="0.685093" stroke-miterlimit="10"/>
<path d="M65.445 120.154C65.4431 120.318 65.4121 120.48 65.3537 120.633L64.6877 122.367H61.8486L62.8343 119.689C62.9433 119.392 63.1535 119.143 63.4279 118.985C63.7022 118.827 64.0234 118.772 64.3349 118.827C64.6463 118.883 64.9283 119.046 65.1313 119.289C65.3342 119.531 65.4453 119.838 65.445 120.154Z" stroke="black" stroke-width="0.685093" stroke-miterlimit="10"/>
<path d="M51.5826 122.367L49.9619 126.759L52.4769 119.889C52.5933 119.571 52.8045 119.297 53.0821 119.104C53.3597 118.91 53.69 118.807 54.0283 118.808H64.0969" stroke="black" stroke-width="0.685093" stroke-miterlimit="10"/>
<path d="M60.2363 126.76L61.8481 122.368" stroke="black" stroke-width="0.685093" stroke-miterlimit="10"/>
<path d="M9.17834 122.987C4.73629 134.946 6.77241 146.831 6.77241 146.831C13.4819 150.564 22.9951 150.24 29.8092 146.959C32.2196 145.795 34.8185 144.042 35.8704 141.473C36.6425 139.591 37.4454 137.724 38.1069 135.816" stroke="black" stroke-width="0.685093" stroke-miterlimit="10"/>
<path d="M5.34766 160.3H44.4392" stroke="black" stroke-width="0.685093" stroke-miterlimit="10"/>
<path d="M39.852 126.762L39.4307 128.186" stroke="black" stroke-width="0.685093" stroke-miterlimit="10"/>
<path d="M11.5746 153.112C11.5746 153.112 9.85381 150.042 9.29395 147.998" stroke="black" stroke-width="0.685093" stroke-miterlimit="10"/>
<path d="M20.068 66.3457V96.8993H8.58789C8.96609 95.6903 9.28285 94.4674 9.53818 93.2307C10.322 89.4237 10.5548 85.4929 10.4325 81.5223C10.2041 73.9038 13.3128 69.7092 17.4425 67.4772C18.2825 67.0231 19.1612 66.6445 20.068 66.3457Z" stroke="#CCDDE2" stroke-width="0.685093" stroke-miterlimit="10"/>
<path d="M17.4429 67.4771V93.2306H9.53418C10.318 89.4236 10.5508 85.4928 10.4285 81.5222C10.2045 73.9036 13.3132 69.7121 17.4429 67.4771Z" stroke="#CCDDE2" stroke-width="0.685093" stroke-miterlimit="10"/>
</svg>
