<svg width="140" height="139" viewBox="0 0 140 139" fill="none" xmlns="http://www.w3.org/2000/svg">
<path d="M108.625 30.0825C107.988 28.2953 107.278 26.5205 106.5 24.7953C104.951 21.3619 104.596 18.1081 102.42 15.2368" stroke="#CCDDE2" stroke-width="1.12125" stroke-miterlimit="10"/>
<path d="M97.3767 11.9456C95.5045 10.0222 93.7534 7.95466 90.5717 6.4106C83.848 3.15836 75.2505 2.82849 64.2764 7.42808" stroke="#CCDDE2" stroke-width="1.12125" stroke-miterlimit="10"/>
<path d="M18.1401 137.997C7.50631 122.815 4.06702 105.651 5.84416 88.0967" stroke="#CCDDE2" stroke-width="1.12125" stroke-miterlimit="10"/>
<path d="M114.609 63.2588V63.4462C114.505 66.8533 117.622 80.9773 126.463 85.4638C135.305 89.9503 141.608 109.643 121.675 117.37C101.741 125.096 102.827 137.997 102.827 137.997" stroke="#CCDDE2" stroke-width="1.12125" stroke-miterlimit="10"/>
<path d="M64.2751 22.011V5.32547C64.2723 4.17917 63.8202 3.08062 63.0176 2.27006C62.2151 1.45949 61.1274 1.00287 59.9925 1H5.28264C4.14769 1.00287 3.06002 1.45949 2.25748 2.27006C1.45494 3.08062 1.00284 4.17917 1 5.32547V83.7817C1.00202 84.9275 1.45418 86.0255 2.25716 86.8348C3.06013 87.644 4.14828 88.0984 5.28264 88.0979H59.9925C60.5232 88.1013 61.0494 87.9991 61.5411 87.7975" stroke="black" stroke-width="1.12125" stroke-linecap="round" stroke-linejoin="round"/>
<path d="M58.5277 3.64355H6.7466C4.63372 3.64355 2.9209 5.37351 2.9209 7.50752V81.598C2.9209 83.7321 4.63372 85.462 6.7466 85.462H58.5277C60.6407 85.462 62.3534 83.7321 62.3534 81.598V7.50752C62.3534 5.37351 60.6407 3.64355 58.5277 3.64355Z" fill="#E68145"/>
<path d="M57.5908 9.97461H8.33354C7.27668 9.97461 6.41992 10.84 6.41992 11.9074V23.3614C6.41992 24.4289 7.27668 25.2942 8.33354 25.2942H57.5908C58.6477 25.2942 59.5044 24.4289 59.5044 23.3614V11.9074C59.5044 10.84 58.6477 9.97461 57.5908 9.97461Z" fill="#E68145"/>
<path d="M32.637 16.4269C33.5033 16.4269 34.2056 15.7176 34.2056 14.8426C34.2056 13.9676 33.5033 13.2583 32.637 13.2583C31.7706 13.2583 31.0684 13.9676 31.0684 14.8426C31.0684 15.7176 31.7706 16.4269 32.637 16.4269Z" fill="#D7E8F0"/>
<path d="M28.2539 22.0112C28.2539 20.8368 28.7157 19.7106 29.5379 18.8804C30.36 18.05 31.475 17.5835 32.6377 17.5835C33.8005 17.5835 34.9154 18.05 35.7376 18.8804C36.5597 19.7106 37.0216 20.8368 37.0216 22.0112H28.2539Z" fill="#D7E8F0"/>
<path d="M32.956 41.708C31.2837 41.7071 29.6487 42.2071 28.2578 43.145C26.8669 44.0828 25.7828 45.4162 25.1423 46.9765C24.502 48.5368 24.3343 50.2538 24.6602 51.9104C24.9862 53.567 25.7914 55.0888 26.9739 56.2831C28.1564 57.4775 29.6631 58.2907 31.3033 58.6199C32.9435 58.9493 34.6436 58.7798 36.1884 58.133C37.7333 57.4863 39.0535 56.3912 39.9819 54.9864C40.9105 53.5816 41.4056 51.9304 41.4047 50.2413C41.4035 47.9785 40.5129 45.8088 38.9288 44.2088C37.3446 42.6087 35.1963 41.7092 32.956 41.708ZM32.956 56.7163C32.6287 56.7163 32.315 56.5851 32.0836 56.3514C31.8524 56.1177 31.7224 55.8009 31.7224 55.4704C31.7224 55.14 31.8524 54.823 32.0836 54.5895C32.315 54.3558 32.6287 54.2245 32.956 54.2245C33.2832 54.2245 33.5969 54.3558 33.8283 54.5895C34.0595 54.823 34.1895 55.14 34.1895 55.4704C34.1895 55.8009 34.0595 56.1177 33.8283 56.3514C33.5969 56.5851 33.2832 56.7163 32.956 56.7163ZM34.5215 47.1145C34.2562 48.9636 34.0324 50.9134 33.4942 52.7114C33.3623 53.1388 32.5588 53.1388 32.4208 52.7114C32.035 51.3582 31.7391 49.9803 31.5345 48.5873C31.3689 47.5744 30.7817 45.9359 31.3444 44.9479C31.8335 44.0697 33.2243 43.9613 34.0278 44.4213C35.026 45.0005 34.6365 46.2007 34.5215 47.1207V47.1145Z" fill="#D7E8F0"/>
<path d="M11.7285 32.1333H53.0047" stroke="white" stroke-width="1.12125" stroke-miterlimit="10"/>
<path d="M11.7285 36.2354H53.0047" stroke="white" stroke-width="1.12125" stroke-miterlimit="10"/>
<path d="M11.7285 62.6611H53.0047" stroke="white" stroke-width="1.12125" stroke-miterlimit="10"/>
<path d="M21.3164 66.542H43.4165" stroke="white" stroke-width="1.12125" stroke-miterlimit="10"/>
<path d="M16.1143 91.9571C16.1143 91.9571 23.459 62.4794 46.335 55.2796L55.6332 53.0387C55.6332 53.0387 57.1037 46.4057 56.5624 45.7088C56.0211 45.0118 54.9095 43.584 52.8732 43.8937C50.8369 44.2034 45.5729 44.3025 44.2251 37.8027C42.8773 31.3029 47.8576 15.8532 60.8006 13.5426C73.7436 11.232 74.0456 20.8307 74.0456 20.8307L64.5389 43.0806L66.014 61.0299L66.1995 87.7679L16.1143 91.9571Z" fill="white"/>
<path d="M95.1661 69.1853C95.0128 69.2302 93.0562 69.8047 92.2865 71.1738C92.1399 70.8603 91.9081 70.5955 91.6181 70.4101C91.3281 70.2247 90.992 70.1266 90.6489 70.1267H67.6717C67.2629 70.1261 66.8659 70.2656 66.5459 70.5224C66.2257 70.7793 66.0015 71.1383 65.9098 71.5407L61.3849 91.1363C61.0783 91.0759 60.7716 91.0387 60.4527 91.0078L49.7744 88.3161C49.3164 88.2 48.8319 88.2605 48.4157 88.486C47.9994 88.7114 47.6814 89.0854 47.5235 89.5348C47.4523 89.7366 47.4171 89.9495 47.4192 90.1636C47.4192 90.65 47.6018 91.1183 47.9301 91.4742C48.2586 91.83 48.7083 92.0468 49.1887 92.081L54.238 92.4092C49.3742 94.7213 43.457 99.1258 38.5181 103.173C33.7126 95.5731 38.2222 87.9754 41.614 83.8838C41.177 79.3741 38.9628 68.9033 27.915 69.1882C31.7208 64.2588 36.4665 60.0341 42.3469 57.2061C62.4889 79.755 85.5321 61.3194 86.0212 60.9229C89.4671 63.1933 92.5508 65.9804 95.1661 69.1882" fill="#2E2E2E"/>
<path d="M93.0728 133.871V137.767H26.5547V132.248C29.146 132.403 31.8723 131.783 34.3518 130.654C37.4905 129.211 40.2015 126.968 42.5199 124.41C44.9042 121.762 46.2137 118.09 47.7333 114.896C50.0149 110.088 53.0371 106.662 57.8334 105.211L57.5268 106.543C57.4653 106.811 57.4644 107.09 57.5242 107.358C57.584 107.627 57.7029 107.878 57.8722 108.094C58.0415 108.309 58.2568 108.484 58.502 108.604C58.7473 108.724 59.0161 108.786 59.2886 108.787H82.3808C81.9208 112.813 79.9811 134.805 93.0728 133.876" fill="#2E2E2E"/>
<path d="M82.3917 31.3928C82.3732 33.4762 82.1044 35.5495 81.5913 37.5674C81.3573 38.5242 80.8549 39.3922 80.1445 40.0677C79.4341 40.7433 78.5458 41.1973 77.5862 41.3756C77.5479 39.9694 76.956 38.7351 76.0529 37.9685C76.1354 36.778 76.1236 35.5828 76.0176 34.3941C75.9578 33.609 75.8643 32.8764 75.7661 32.2182C75.7077 31.8436 75.6232 31.4736 75.5131 31.1109C75.2049 30.7766 74.8418 30.4983 74.4398 30.2886C73.0184 29.4802 70.0928 28.6206 64.6724 29.8844C63.7873 30.0891 62.9547 30.4789 62.2282 31.0288C62.2121 31.0391 62.1977 31.0515 62.1853 31.066C61.6962 31.5213 61.0736 32.0974 60.4296 32.3963C59.7626 32.7061 59.0665 32.7185 58.4823 31.9859C58.4669 31.9704 58.4593 31.9565 58.4455 31.941C58.1388 31.5368 57.8459 31.0118 57.3046 30.9081C56.1638 30.6912 55.6088 31.8373 55.4646 32.8005C55.3389 33.691 55.598 34.4762 55.9768 35.2242C56.294 35.8324 56.7085 36.3834 57.2034 36.855C57.3306 36.9792 57.4469 37.1138 57.5515 37.2577C57.504 37.2662 57.4572 37.2792 57.412 37.2964C57.3071 37.332 57.2047 37.3744 57.1053 37.4234C55.7253 38.0506 54.7424 39.6225 54.721 41.4623C54.721 41.5196 52.4071 41.4856 52.1143 41.4623C50.9857 41.357 49.874 41.0287 49.0798 40.1692C46.8258 37.73 46.8365 34.1107 47.7626 31.2797C48.6397 28.5928 49.756 25.9693 51.2188 23.5518C54.3882 18.3204 59.3057 14.461 65.5311 14.1141C67.0241 14.0384 68.5206 14.1267 69.9946 14.3774C70.6921 14.4885 71.382 14.6436 72.06 14.842C78.4066 17.6389 82.4347 23.9792 82.3979 31.3928" fill="#2E2E2E"/>
<path d="M78.7161 91.0326C77.9663 92.9762 76.1815 94.0881 74.7294 93.5105C73.2773 92.9328 72.7069 90.9009 73.4552 88.9573C74.2035 87.0137 75.9898 85.9002 77.4419 86.4794C78.894 87.0587 79.4659 89.0905 78.7161 91.0341" fill="#E68145"/>
<path d="M82.5745 108.39C82.5745 108.39 78.5019 137.064 94.7922 133.886C110.994 130.722 117.125 64.1521 70.2295 54.5781" stroke="black" stroke-width="1.12125" stroke-miterlimit="10"/>
<path d="M44.4339 80.7852C44.4339 80.7852 31.2901 91.9807 38.3726 103.178" stroke="black" stroke-width="1.12125" stroke-miterlimit="10"/>
<path d="M82.87 100.426C82.6446 100.44 82.3226 100.288 82.1033 100.228C81.8254 100.153 81.5498 100.074 81.2769 99.9893C79.6756 99.4858 78.1689 98.7153 76.8194 97.7096C76.5128 97.4882 75.9669 97.3457 75.5928 97.4913C75.3845 97.5684 75.2007 97.7006 75.0604 97.8742C74.9201 98.0477 74.8285 98.2561 74.7954 98.4778C74.6804 99.2769 75.2386 100.059 75.8473 100.572C76.5695 101.182 77.3193 101.744 78.1948 102.109C79.04 102.452 79.9119 102.723 80.8015 102.919C81.2048 103.014 81.6142 103.074 82.0144 103.178" stroke="black" stroke-width="1.12125" stroke-miterlimit="10"/>
<path d="M87.9148 92.668C88.0804 93.5507 88.2015 94.4675 88.1187 95.3642C88.0497 96.1231 87.7799 97.0089 86.9442 97.1932C86.7853 97.2356 86.6205 97.2508 86.4566 97.2381C83.3101 97.0507 80.7173 95.9527 77.7564 93.7908C74.7955 91.6288 73.7528 96.6078 76.4576 97.4906" stroke="black" stroke-width="1.12125" stroke-miterlimit="10"/>
<path d="M76.5718 101.172C76.4991 101.111 76.4301 101.047 76.3648 100.978C74.8913 99.4217 74.6245 102.549 76.1716 103.468L76.3709 103.588C76.4752 103.633 76.5871 103.685 76.6975 103.743C76.7497 103.756 76.8079 103.78 76.8616 103.795C78.26 104.415 79.7489 104.811 81.2148 105.215C79.7642 104.737 78.3183 104.266 76.8616 103.795C76.7359 103.743 76.6163 103.69 76.4905 103.63C76.4519 103.613 76.4119 103.601 76.3709 103.592C76.3449 103.58 76.3162 103.575 76.2877 103.578C76.2592 103.581 76.2319 103.591 76.2084 103.608C76.1734 103.637 76.1478 103.676 76.1348 103.719C75.8971 104.295 76.0903 105.022 76.3939 105.537C76.7129 106.083 77.2603 106.502 77.8 106.801C79.2521 107.624 80.9403 108.11 82.5703 108.401C82.8726 108.464 83.1824 108.485 83.4903 108.461" stroke="black" stroke-width="1.12125" stroke-miterlimit="10"/>
<path d="M96.639 112.009C96.639 112.009 91.6418 103.408 91.0852 95.9293C90.7448 91.3003 89.3985 90.32 88.4355 90.2534" stroke="black" stroke-width="1.12125" stroke-miterlimit="10"/>
<path d="M86.9445 97.1918L87.9166 92.6681L88.4349 90.2522L92.2775 72.3401C92.3345 72.0734 92.3316 71.7973 92.2692 71.5317C92.2066 71.2662 92.0863 71.0183 91.9165 70.806C91.7469 70.5937 91.5324 70.4222 91.2886 70.3045C91.045 70.1868 90.7782 70.1256 90.508 70.1255H67.5292C67.1206 70.1252 66.7238 70.2647 66.4038 70.5216C66.0838 70.7784 65.8594 71.1372 65.7674 71.5394L61.2425 91.1365L57.9397 105.435L57.633 106.775C57.572 107.043 57.5715 107.322 57.6318 107.59C57.6919 107.858 57.811 108.11 57.9805 108.325C58.1497 108.54 58.365 108.714 58.6102 108.834C58.8552 108.954 59.124 109.017 59.3964 109.018H82.487" stroke="black" stroke-width="1.12125" stroke-miterlimit="10"/>
<path d="M58.4561 31.4706C58.4561 31.4706 59.672 26.2624 66.5383 25.5717C73.4047 24.881 75.1251 30.0629 75.1251 30.0629L74.9089 30.5848C74.9089 30.5848 65.8821 26.9268 60.8971 32.1474C60.8971 32.1474 59.1016 32.9697 58.4561 31.4737" fill="#E68145"/>
<path d="M60.307 91.0075L49.6272 88.3128C49.3725 88.2491 49.1074 88.2397 48.8489 88.2849C48.5904 88.3303 48.3439 88.4294 48.1253 88.5761C47.9068 88.7227 47.7208 88.9138 47.5791 89.137C47.4376 89.3602 47.3436 89.6106 47.303 89.8725C47.2625 90.1344 47.2763 90.402 47.3436 90.6581C47.4109 90.9143 47.5302 91.1535 47.694 91.3606C47.8577 91.5677 48.0624 91.7382 48.2949 91.8611C48.5275 91.9839 48.7828 92.0567 49.0445 92.0746L54.0938 92.4106" stroke="black" stroke-width="1.12125" stroke-miterlimit="10"/>
<path d="M85.8836 60.9153C85.8836 60.9153 62.5568 80.0013 42.2031 57.2061" stroke="black" stroke-width="1.12125" stroke-miterlimit="10"/>
<path d="M41.4722 83.8807C41.0352 79.3709 38.8226 68.8925 27.7656 69.1852" stroke="black" stroke-width="1.12125" stroke-miterlimit="10"/>
<path d="M95.0272 69.1821C95.0272 69.1821 92.9434 69.7613 92.1445 71.1768" stroke="black" stroke-width="1.12125" stroke-miterlimit="10"/>
<path d="M10.3721 137.999H109.412" stroke="black" stroke-width="1.12125" stroke-miterlimit="10"/>
<path d="M76.0525 37.9746C76.9863 38.7675 77.5858 40.0622 77.5858 41.5273C77.5858 43.9587 75.9129 45.9255 73.846 45.9255C73.6121 45.9243 73.3792 45.8967 73.1514 45.8435C75.5587 43.985 76.0463 37.9746 76.0463 37.9746" fill="#E68145"/>
<path d="M62.4363 47.7889C63.5967 48.3721 64.8666 48.6998 66.1618 48.7503C67.457 48.8008 68.7481 48.5728 69.9497 48.0816C76.724 45.2242 76.4648 36.8025 75.761 32.2246C75.7049 31.8532 75.625 31.4859 75.5218 31.125V31.1173C74.7444 28.5 72.7158 26.3675 70.0432 25.7619C64.8666 24.5803 60.1332 27.5445 58.1689 31.5354" stroke="black" stroke-width="1.12125" stroke-miterlimit="10"/>
<path d="M75.5859 31.207C75.5859 31.207 75.5644 31.176 75.52 31.1249V31.1172C75.06 30.5937 72.3965 28.0957 64.6869 29.8906C63.8023 30.0949 62.97 30.4848 62.2442 31.0351C62.2271 31.045 62.2116 31.0576 62.1982 31.0723" stroke="black" stroke-width="1.12125" stroke-miterlimit="10"/>
<path d="M55.0359 43.8938H51.2225C48.4701 43.8938 46.2882 41.3477 45.339 38.9581C44.005 35.5975 44.8591 32.1578 46.0597 28.8917C47.0656 26.1583 48.3444 23.5023 50.0265 21.125C53.7924 15.8053 59.478 12.7916 66.0131 13.3491C66.5927 13.3987 67.1697 13.4708 67.7443 13.5659C76.5196 15.0031 82.4368 22.4135 82.3923 31.3882C82.3739 33.473 82.1053 35.5479 81.5919 37.5674C81.356 38.5234 80.8529 39.3907 80.1425 40.0659C79.4321 40.7411 78.5444 41.1957 77.5853 41.3756" stroke="black" stroke-width="1.12125" stroke-miterlimit="10"/>
<path d="M57.5545 37.2575C57.4495 37.1135 57.3331 36.9783 57.2064 36.8533C56.7112 36.3825 56.2965 35.832 55.9798 35.2241C55.601 34.4761 55.3419 33.6909 55.4676 32.8004C55.6087 31.8433 56.1638 30.6911 57.3076 30.9079C57.8489 31.0132 58.1372 31.5367 58.4484 31.9409C59.6322 33.4896 61.2621 31.9332 62.2619 30.9978" stroke="black" stroke-width="1.12125" stroke-miterlimit="10"/>
<path d="M76.0525 37.9746C76.9863 38.7675 77.5858 40.0622 77.5858 41.5273C77.5858 43.9587 75.9129 45.9255 73.846 45.9255C73.6121 45.9243 73.3792 45.8967 73.1514 45.8435" stroke="black" stroke-width="1.12125" stroke-miterlimit="10"/>
<path d="M68.0498 40.9592C68.887 41.5275 70.9095 41.9937 70.5032 40.3087C70.0156 38.3125 69.3593 34.0474 73.3782 33.7222C73.3782 33.7222 75.1477 33.7981 76.0217 34.4051" stroke="black" stroke-width="1.12125" stroke-miterlimit="10"/>
<path d="M69.5649 44.2966C69.5649 44.2966 67.5409 45.3806 66.5381 43.2202" stroke="black" stroke-width="1.12125" stroke-miterlimit="10"/>
<path d="M65.459 36.6383C65.3808 37.3244 65.646 37.9175 66.0524 37.9656C66.4587 38.0136 66.8513 37.5009 66.931 36.8102C67.0107 36.1195 66.7424 35.5326 66.3376 35.4846C65.9328 35.4366 65.5372 35.9492 65.459 36.6383Z" fill="black"/>
<path d="M72.0488 37.0424C71.9706 37.727 72.2359 38.3217 72.6422 38.3697C73.0486 38.4177 73.4411 37.9051 73.5193 37.2143C73.5975 36.5236 73.3322 35.9351 72.9274 35.8887C72.5226 35.8422 72.127 36.3533 72.0488 37.0424Z" fill="black"/>
<path d="M68.0504 34.1602C68.0504 34.1602 66.8115 32.2306 64.0039 34.0611" stroke="black" stroke-width="1.12125" stroke-miterlimit="10"/>
<path d="M70.2285 47.9546V58.6591" stroke="black" stroke-width="1.12125" stroke-miterlimit="10"/>
<path d="M28.3281 112.009C28.3281 112.009 32.6966 107.828 38.37 103.182C43.3089 99.1351 49.2322 94.7229 54.0976 92.4123C54.7201 92.1196 55.3242 91.8579 55.9115 91.638C57.3128 91.0986 58.8167 90.8867 60.3107 91.0185C60.6235 91.0445 60.9346 91.0868 61.243 91.1455" stroke="black" stroke-width="1.12125" stroke-miterlimit="10"/>
<path d="M57.94 105.436C53.1421 106.887 50.1199 110.312 47.8398 115.121C46.3233 118.314 45.0108 121.986 42.6264 124.635C40.3095 127.191 37.5986 129.435 34.4598 130.879C28.765 133.496 21.753 133.295 18.053 127.603C15.5506 123.744 14.5662 118.949 14.0663 114.44C13.2076 106.602 15.9186 84.5082 27.7652 69.1839C31.571 64.2545 36.3182 60.0297 42.1971 57.2018C46.3233 55.2226 50.9878 53.9279 56.2747 53.5608L57.756 45.8438" stroke="black" stroke-width="1.12125" stroke-miterlimit="10"/>
<path d="M93.1787 134.13V137.999" stroke="black" stroke-width="1.12125" stroke-miterlimit="10"/>
<path d="M26.6602 132.75V138" stroke="black" stroke-width="1.12125" stroke-miterlimit="10"/>
<path d="M62.1901 41.5277C62.2046 42.6887 61.7964 43.8146 61.0431 44.6916C60.6207 44.8889 60.1607 44.9908 59.6953 44.9905C57.6299 44.9905 55.9555 43.0237 55.9555 40.5923C55.9406 39.4314 56.3495 38.3056 57.104 37.4298C57.5261 37.2315 57.9861 37.1289 58.4518 37.1294C60.5172 37.1294 62.1901 39.0978 62.1901 41.5277Z" fill="#E68145"/>
<path d="M58.455 45.9259C60.5179 45.9259 62.1902 43.9568 62.1902 41.5277C62.1902 39.0985 60.5179 37.1294 58.455 37.1294C56.392 37.1294 54.7197 39.0985 54.7197 41.5277C54.7197 43.9568 56.392 45.9259 58.455 45.9259Z" stroke="black" stroke-width="1.12125" stroke-miterlimit="10"/>
<path d="M102.863 3.09112C100.562 2.39826 98.1092 2.41017 95.8147 3.12535C93.5202 3.84052 91.4873 5.22684 89.9728 7.10898C88.4585 8.99116 87.5307 11.2846 87.3068 13.6993C87.0829 16.114 87.573 18.5416 88.7152 20.675C89.8572 22.8083 91.6 24.5519 93.7232 25.6847C95.8463 26.8177 98.2544 27.2893 100.643 27.0401C103.032 26.7908 105.293 25.8317 107.142 24.2841C108.991 22.7365 110.344 20.6699 111.03 18.3457C111.95 15.2289 111.606 11.8709 110.075 9.01005C108.543 6.14934 105.949 4.02021 102.863 3.09112ZM96.7637 23.7568C96.5405 23.6894 96.3324 23.5784 96.1516 23.4298C95.9708 23.2813 95.8207 23.0983 95.71 22.8912C95.5991 22.6841 95.5298 22.4571 95.5061 22.2229C95.4821 21.9888 95.5041 21.7521 95.5708 21.5267C95.6375 21.3012 95.7474 21.091 95.8945 20.9084C96.0415 20.7258 96.2228 20.5742 96.4278 20.4624C96.8418 20.2365 97.3278 20.1858 97.7788 20.3218C98.2297 20.4578 98.6088 20.769 98.8325 21.1873C99.0562 21.6055 99.1064 22.0964 98.9717 22.5519C98.8371 23.0074 98.5289 23.3902 98.1148 23.6161C97.7007 23.8421 97.2147 23.8927 96.7637 23.7568ZM102.897 11.2217C102.871 11.2837 102.847 11.3441 102.824 11.4029C101.829 13.8749 100.591 16.2402 99.1297 18.4634C98.7755 19.0054 97.6653 18.6709 97.6623 18.0204C97.683 15.9991 97.8366 13.9813 98.1223 11.9806C98.3001 10.5186 98.1621 8.01595 99.3321 6.89159C100.37 5.88495 102.328 6.31703 103.251 7.28341C104.271 8.35666 103.388 10.0432 102.893 11.2217H102.897Z" fill="#D7E8F0"/>
<path d="M111.264 73.4041C110.421 74.2692 109.852 75.3672 109.628 76.5592C109.403 77.7512 109.534 78.9838 110.003 80.1009C110.472 81.218 111.258 82.1695 112.263 82.8349C113.267 83.5004 114.445 83.8501 115.646 83.8397C116.847 83.8293 118.019 83.4594 119.012 82.7765C120.005 82.0937 120.775 81.1287 121.225 80.0036C121.675 78.8787 121.785 77.6441 121.54 76.4561C121.296 75.2682 120.708 74.1801 119.851 73.3297C118.702 72.1901 117.152 71.5576 115.542 71.5715C113.932 71.5855 112.393 72.2446 111.264 73.4041ZM118.882 80.9663C118.716 81.136 118.491 81.2325 118.256 81.2345C118.02 81.2365 117.794 81.1439 117.626 80.9771C117.458 80.8105 117.362 80.5831 117.36 80.3453C117.358 80.1074 117.45 79.8785 117.615 79.7088C117.697 79.6248 117.794 79.5579 117.901 79.5119C118.009 79.4659 118.124 79.4418 118.241 79.4407C118.357 79.4398 118.473 79.4619 118.581 79.506C118.689 79.5502 118.788 79.6154 118.871 79.6979C118.954 79.7806 119.02 79.8788 119.066 79.9874C119.111 80.0958 119.135 80.2121 119.136 80.3299C119.137 80.4476 119.115 80.5646 119.072 80.6737C119.028 80.7829 118.963 80.8824 118.882 80.9663ZM114.797 75.3213C115.605 76.3899 116.483 77.4895 117.118 78.6727C117.272 78.9577 116.865 79.3758 116.58 79.224C115.699 78.7421 114.851 78.201 114.042 77.6041C113.444 77.1829 112.316 76.6579 112.098 75.8727C111.9 75.1727 112.547 74.3999 113.187 74.214C113.972 73.9879 114.389 74.7979 114.797 75.3213Z" fill="#E68145"/>
<path d="M135.076 24.2724C135.681 23.5207 136.052 22.6045 136.142 21.64C136.231 20.6755 136.036 19.7057 135.58 18.8534C135.123 18.0012 134.427 17.3048 133.579 16.8519C132.731 16.3992 131.769 16.2106 130.815 16.31C129.861 16.4095 128.958 16.7925 128.219 17.4104C127.48 18.0285 126.94 18.8538 126.665 19.7822C126.391 20.7105 126.396 21.7001 126.678 22.6259C126.961 23.5517 127.509 24.372 128.253 24.9833C128.747 25.3892 129.316 25.6927 129.926 25.8767C130.537 26.0607 131.177 26.1214 131.811 26.0553C132.444 25.9893 133.059 25.7979 133.619 25.492C134.179 25.186 134.675 24.7716 135.076 24.2724ZM128.457 18.8381C128.516 18.765 128.588 18.7045 128.67 18.6597C128.752 18.6149 128.842 18.5869 128.934 18.5772C129.027 18.5674 129.12 18.5762 129.21 18.6032C129.299 18.63 129.382 18.6743 129.454 18.7336C129.527 18.7929 129.587 18.866 129.631 18.9487C129.675 19.0314 129.703 19.122 129.713 19.2157C129.722 19.3092 129.714 19.4037 129.687 19.4938C129.661 19.584 129.617 19.6679 129.558 19.741C129.439 19.8884 129.268 19.9823 129.081 20.0019C128.894 20.0215 128.706 19.9652 128.56 19.8455C128.415 19.7258 128.322 19.5524 128.302 19.3634C128.283 19.1745 128.338 18.9855 128.457 18.8381ZM132.126 23.0196C131.404 22.2313 130.627 21.4291 130.03 20.5308C129.886 20.3156 130.184 19.9532 130.417 20.0523C131.155 20.3702 131.872 20.7376 132.562 21.1518C133.068 21.4414 134.005 21.7713 134.236 22.3815C134.445 22.922 133.988 23.5864 133.492 23.7753C132.881 24.0138 132.488 23.4021 132.126 23.0103V23.0196Z" fill="#E68145"/>
<path d="M86.8668 56.5686C88.5781 59.5111 88.4998 61.6065 88.0552 65.0027C87.8773 66.2959 89.2558 67.1709 90.3736 66.5204C100.25 60.7903 109.468 65.3218 121.244 62.5124C125.569 61.4872 130.96 59.3624 134.655 55.946C135.881 54.1071 136.537 51.9405 136.537 49.7234C136.537 40.4313 123.963 32.8877 108.456 32.8877C98.5187 32.8877 89.7879 35.9851 84.7968 40.6512C84.7968 40.6512 84.7968 40.6512 84.783 40.6652C83.5165 42.5809 82.8203 44.6747 82.8203 46.8599C82.8127 50.1942 85.2676 53.8088 86.8668 56.5686Z" fill="#D7E8F0"/>
<path d="M82.8584 46.8596C82.8584 46.9371 82.8584 47.0145 82.8584 47.095C82.9136 50.3473 84.5297 53.378 86.4434 55.9999C87.7252 57.7531 89.2463 59.7013 88.886 61.8509C88.7327 62.7987 88.2036 63.6582 88.0718 64.6091C87.9399 65.56 88.4413 66.7463 89.392 66.7958C89.9961 66.8268 90.5098 66.3932 90.9882 66.0215C93.8172 63.8069 97.4942 62.9783 101.07 62.8327C104.646 62.6872 108.217 63.1642 111.794 63.2664C116.952 63.4212 122.192 62.7646 126.956 60.7668C131.225 58.9796 135.136 56.0464 137.705 52.1282C140.229 48.2813 138.737 42.6952 136.044 39.3501C133.52 36.2109 129.863 34.2022 126.113 32.7867C116.025 28.9832 104.511 29.0699 94.5624 33.2374C91.6092 34.4764 88.7526 36.087 86.5384 38.4178C84.381 40.6881 82.8814 43.7143 82.8584 46.8596Z" stroke="black" stroke-width="1.12125" stroke-miterlimit="10"/>
<path d="M124.248 50.5608C126.387 50.5608 128.121 48.8094 128.121 46.6488C128.121 44.4882 126.387 42.7368 124.248 42.7368C122.109 42.7368 120.375 44.4882 120.375 46.6488C120.375 48.8094 122.109 50.5608 124.248 50.5608Z" fill="white"/>
<path d="M111.722 50.5608C113.861 50.5608 115.595 48.8094 115.595 46.6488C115.595 44.4882 113.861 42.7368 111.722 42.7368C109.583 42.7368 107.849 44.4882 107.849 46.6488C107.849 48.8094 109.583 50.5608 111.722 50.5608Z" fill="white"/>
<path d="M98.9504 50.5608C101.09 50.5608 102.824 48.8094 102.824 46.6488C102.824 44.4882 101.09 42.7368 98.9504 42.7368C96.8112 42.7368 95.0771 44.4882 95.0771 46.6488C95.0771 48.8094 96.8112 50.5608 98.9504 50.5608Z" fill="white"/>
</svg>
