<svg width="1483" height="1482" viewBox="0 0 1483 1482" fill="none" xmlns="http://www.w3.org/2000/svg">
<path d="M392.665 808.913C392.665 808.913 369.931 592.541 524.682 563.405C679.432 534.269 708.198 558.707 815.984 484.725C923.769 410.744 1264.32 629.117 1195.38 936.276C1187.24 972.704 1176.93 1008.61 1164.48 1043.8" stroke="#BCBCBC" stroke-width="4.44288" stroke-miterlimit="10"/>
<path d="M1060.07 665.684L1003.78 665.684L1003.78 1400.74L1060.07 1400.74L1060.07 665.684Z" stroke="#BCBCBC" stroke-width="4.44288" stroke-miterlimit="10"/>
<path d="M556.493 1231.41L556.493 665.684L1003.78 665.684L1003.78 1400.76L928.415 1400.76L928.415 1175C928.396 1165.95 924.786 1157.28 918.379 1150.89C911.971 1144.5 903.29 1140.91 894.24 1140.92L669.273 1140.92C660.225 1140.92 651.545 1144.5 645.139 1150.9C638.732 1157.28 635.122 1165.95 635.098 1175L635.098 1400.76L561.754 1400.76M610.156 1048.32C609.683 1048.32 609.216 1048.22 608.781 1048.04C608.346 1047.86 607.951 1047.59 607.619 1047.25C607.287 1046.92 607.024 1046.52 606.848 1046.08C606.67 1045.65 606.58 1045.18 606.584 1044.71L606.584 1015.78C606.584 1014.83 606.961 1013.92 607.631 1013.25C608.3 1012.58 609.209 1012.21 610.156 1012.21L668.487 1012.21C668.96 1012.2 669.428 1012.29 669.866 1012.47C670.303 1012.65 670.702 1012.91 671.038 1013.24C671.373 1013.57 671.641 1013.97 671.823 1014.4C672.006 1014.84 672.102 1015.3 672.104 1015.78L672.104 1044.71C672.105 1045.18 672.013 1045.65 671.832 1046.09C671.651 1046.53 671.385 1046.93 671.048 1047.27C670.712 1047.6 670.313 1047.87 669.873 1048.05C669.434 1048.23 668.963 1048.32 668.487 1048.32L610.156 1048.32ZM712.695 1095.27C712.688 1096.22 712.303 1097.14 711.625 1097.81C710.948 1098.48 710.034 1098.86 709.079 1098.86L650.748 1098.86C649.793 1098.86 648.879 1098.48 648.202 1097.81C647.525 1097.14 647.139 1096.22 647.132 1095.27L647.132 1066.31C647.144 1065.36 647.529 1064.45 648.206 1063.78C648.884 1063.12 649.796 1062.74 650.748 1062.74L709.079 1062.74C710.031 1062.74 710.944 1063.12 711.621 1063.78C712.298 1064.45 712.684 1065.36 712.695 1066.31L712.695 1095.27ZM683.53 1044.71L683.53 1015.78C683.531 1015.3 683.628 1014.84 683.81 1014.4C683.992 1013.97 684.26 1013.57 684.595 1013.24C684.932 1012.91 685.33 1012.65 685.768 1012.47C686.205 1012.29 686.673 1012.2 687.146 1012.21L745.477 1012.21C746.429 1012.21 747.342 1012.58 748.019 1013.25C748.696 1013.92 749.082 1014.83 749.093 1015.78L749.093 1044.71C749.089 1045.66 748.707 1046.58 748.029 1047.26C747.352 1047.93 746.435 1048.32 745.477 1048.32L687.131 1048.32C686.657 1048.32 686.187 1048.23 685.75 1048.05C685.311 1047.86 684.914 1047.6 684.579 1047.26C684.244 1046.93 683.98 1046.53 683.799 1046.09C683.62 1045.65 683.528 1045.18 683.53 1044.71ZM789.374 1095.27C789.376 1095.74 789.285 1096.21 789.106 1096.64C788.928 1097.08 788.666 1097.47 788.334 1097.81C788.002 1098.14 787.608 1098.4 787.173 1098.58C786.739 1098.76 786.272 1098.86 785.803 1098.86L727.412 1098.86C726.942 1098.86 726.477 1098.76 726.041 1098.58C725.607 1098.4 725.212 1098.14 724.88 1097.81C724.549 1097.47 724.286 1097.08 724.108 1096.64C723.929 1096.21 723.839 1095.74 723.84 1095.27L723.84 1066.31C723.84 1065.37 724.217 1064.46 724.886 1063.79C725.556 1063.12 726.465 1062.74 727.412 1062.74L785.788 1062.74C786.735 1062.74 787.643 1063.12 788.313 1063.79C788.983 1064.46 789.359 1065.37 789.359 1066.31L789.374 1095.27ZM826.009 1044.71C826.011 1045.18 825.919 1045.65 825.738 1046.09C825.557 1046.53 825.29 1046.93 824.954 1047.27C824.618 1047.6 824.219 1047.87 823.779 1048.05C823.34 1048.23 822.869 1048.32 822.393 1048.32L764.062 1048.32C763.589 1048.32 763.121 1048.22 762.685 1048.04C762.249 1047.86 761.852 1047.59 761.52 1047.26C761.187 1046.92 760.923 1046.52 760.743 1046.08C760.564 1045.65 760.474 1045.18 760.475 1044.71L760.475 1015.78C760.475 1015.31 760.569 1014.84 760.748 1014.41C760.929 1013.97 761.194 1013.58 761.526 1013.25C761.859 1012.91 762.255 1012.65 762.691 1012.47C763.125 1012.29 763.592 1012.2 764.062 1012.21L822.378 1012.21C822.851 1012.2 823.319 1012.29 823.757 1012.47C824.194 1012.65 824.592 1012.91 824.929 1013.24C825.264 1013.57 825.532 1013.97 825.714 1014.4C825.898 1014.84 825.993 1015.3 825.994 1015.78L826.009 1044.71ZM902.94 1044.71C902.944 1045.18 902.854 1045.65 902.677 1046.08C902.5 1046.52 902.237 1046.92 901.905 1047.25C901.573 1047.59 901.178 1047.86 900.743 1048.04C900.308 1048.22 899.841 1048.32 899.368 1048.32L841.022 1048.32C840.546 1048.32 840.075 1048.23 839.636 1048.05C839.196 1047.87 838.797 1047.6 838.461 1047.27C838.125 1046.93 837.858 1046.53 837.677 1046.09C837.496 1045.65 837.404 1045.18 837.406 1044.71L837.406 1015.78C837.407 1015.3 837.504 1014.84 837.686 1014.4C837.868 1013.97 838.136 1013.57 838.471 1013.24C838.808 1012.91 839.206 1012.65 839.644 1012.47C840.081 1012.29 840.549 1012.2 841.022 1012.21L899.353 1012.21C900.3 1012.21 901.209 1012.58 901.879 1013.25C902.549 1013.92 902.925 1014.83 902.925 1015.78L902.94 1044.71ZM956.944 936.09C956.956 940.573 956.083 945.014 954.376 949.161C952.667 953.306 950.158 957.075 946.992 960.249C943.825 963.424 940.064 965.943 935.923 967.661C931.781 969.38 927.341 970.265 922.858 970.265L638.077 970.265C629.014 970.26 620.324 966.659 613.916 960.251C607.508 953.843 603.906 945.152 603.902 936.09L603.902 815.588C603.902 806.525 607.503 797.831 613.911 791.423C620.321 785.013 629.013 781.414 638.077 781.414L922.799 781.414C927.283 781.414 931.722 782.298 935.864 784.016C940.005 785.735 943.766 788.253 946.933 791.427C950.099 794.603 952.608 798.371 954.316 802.517C956.024 806.662 956.896 811.104 956.885 815.588L956.944 936.09ZM951.95 741.503C950.382 743.092 948.511 744.352 946.45 745.21C944.39 746.066 942.177 746.505 939.945 746.498L623.583 746.498C619.076 746.493 614.755 744.701 611.567 741.514C608.38 738.327 606.589 734.006 606.584 729.499C606.601 724.995 608.395 720.681 611.58 717.496C614.765 714.311 619.079 712.515 623.583 712.5L939.916 712.5C942.149 712.497 944.36 712.936 946.423 713.79C948.486 714.643 950.361 715.896 951.939 717.474C953.519 719.054 954.771 720.929 955.625 722.992C956.479 725.054 956.916 727.266 956.914 729.499C956.923 731.729 956.487 733.941 955.632 736.002C954.779 738.063 953.52 739.934 951.935 741.503L951.95 741.503ZM556.493 1315.66L556.493 1277.35L556.493 1315.66Z" stroke="#BCBCBC" stroke-width="4.44288" stroke-miterlimit="10"/>
<path d="M668.484 1048.32L610.152 1048.32C609.68 1048.32 609.213 1048.23 608.777 1048.04C608.343 1047.86 607.947 1047.59 607.615 1047.26C607.283 1046.92 607.021 1046.52 606.843 1046.09C606.667 1045.65 606.576 1045.18 606.581 1044.71L606.581 1015.78C606.581 1014.83 606.957 1013.92 607.627 1013.25C608.297 1012.58 609.205 1012.21 610.152 1012.21L668.484 1012.21C668.957 1012.2 669.425 1012.29 669.862 1012.47C670.299 1012.65 670.698 1012.91 671.034 1013.24C671.369 1013.57 671.636 1013.97 671.82 1014.4C672.002 1014.84 672.098 1015.31 672.1 1015.78L672.1 1044.71C672.101 1045.18 672.01 1045.65 671.829 1046.09C671.648 1046.53 671.381 1046.93 671.045 1047.27C670.708 1047.6 670.31 1047.87 669.87 1048.05C669.431 1048.23 668.96 1048.32 668.484 1048.32Z" stroke="#BCBCBC" stroke-width="4.44288" stroke-miterlimit="10"/>
<path d="M650.756 1062.74L709.087 1062.74C710.039 1062.74 710.952 1063.11 711.629 1063.78C712.306 1064.45 712.691 1065.36 712.703 1066.31L712.703 1095.27C712.696 1096.22 712.311 1097.14 711.633 1097.81C710.956 1098.48 710.042 1098.86 709.087 1098.86L650.756 1098.86C649.801 1098.86 648.887 1098.48 648.21 1097.81C647.532 1097.14 647.147 1096.22 647.14 1095.27L647.14 1066.31C647.152 1065.36 647.537 1064.45 648.214 1063.78C648.891 1063.11 649.804 1062.74 650.756 1062.74Z" stroke="#BCBCBC" stroke-width="4.44288" stroke-miterlimit="10"/>
<path d="M749.079 1015.78L749.079 1044.71C749.074 1045.66 748.692 1046.58 748.015 1047.26C747.337 1047.94 746.42 1048.32 745.463 1048.32L687.131 1048.32C686.656 1048.32 686.184 1048.23 685.746 1048.05C685.305 1047.87 684.907 1047.6 684.57 1047.27C684.234 1046.93 683.967 1046.53 683.786 1046.09C683.606 1045.65 683.514 1045.18 683.515 1044.71L683.515 1015.78C683.517 1015.31 683.613 1014.84 683.795 1014.4C683.978 1013.97 684.246 1013.57 684.581 1013.24C684.917 1012.91 685.316 1012.65 685.753 1012.47C686.19 1012.29 686.658 1012.2 687.131 1012.21L745.463 1012.21C746.414 1012.21 747.327 1012.58 748.004 1013.25C748.682 1013.92 749.067 1014.83 749.079 1015.78Z" stroke="#BCBCBC" stroke-width="4.44288" stroke-miterlimit="10"/>
<path d="M785.792 1062.74L727.416 1062.74C725.444 1062.74 723.845 1064.34 723.845 1066.31L723.845 1095.29C723.845 1097.26 725.444 1098.86 727.416 1098.86L785.792 1098.86C787.765 1098.86 789.364 1097.26 789.364 1095.29L789.364 1066.31C789.364 1064.34 787.765 1062.74 785.792 1062.74Z" stroke="#BCBCBC" stroke-width="4.44288" stroke-miterlimit="10"/>
<path d="M764.059 1048.32C763.586 1048.32 763.118 1048.23 762.682 1048.04C762.245 1047.86 761.849 1047.59 761.518 1047.26C761.184 1046.92 760.92 1046.52 760.741 1046.09C760.562 1045.65 760.471 1045.18 760.473 1044.71L760.473 1015.78C760.473 1015.31 760.566 1014.84 760.745 1014.41C760.926 1013.97 761.192 1013.58 761.523 1013.25C761.857 1012.92 762.253 1012.65 762.688 1012.47C763.122 1012.3 763.589 1012.21 764.059 1012.21L822.376 1012.21C822.849 1012.2 823.317 1012.29 823.754 1012.47C824.191 1012.65 824.59 1012.91 824.926 1013.24C825.261 1013.57 825.53 1013.97 825.712 1014.4C825.894 1014.84 825.99 1015.31 825.992 1015.78L825.992 1044.71C825.993 1045.18 825.902 1045.65 825.721 1046.09C825.54 1046.53 825.273 1046.93 824.937 1047.27C824.6 1047.6 824.202 1047.87 823.762 1048.05C823.323 1048.23 822.852 1048.32 822.376 1048.32L764.059 1048.32Z" stroke="#BCBCBC" stroke-width="4.44288" stroke-miterlimit="10"/>
<path d="M841.024 1048.32C840.548 1048.32 840.077 1048.23 839.638 1048.05C839.198 1047.87 838.799 1047.6 838.463 1047.27C838.126 1046.93 837.86 1046.53 837.679 1046.09C837.498 1045.65 837.406 1045.18 837.408 1044.71L837.408 1015.78C837.409 1015.31 837.505 1014.84 837.688 1014.4C837.872 1013.97 838.138 1013.57 838.473 1013.24C838.81 1012.91 839.208 1012.65 839.646 1012.47C840.083 1012.29 840.551 1012.2 841.024 1012.21L899.355 1012.21C900.302 1012.21 901.211 1012.58 901.881 1013.25C902.55 1013.92 902.927 1014.83 902.927 1015.78L902.927 1044.71C902.931 1045.18 902.841 1045.65 902.665 1046.09C902.487 1046.52 902.224 1046.92 901.892 1047.26C901.56 1047.59 901.166 1047.86 900.731 1048.04C900.295 1048.23 899.828 1048.32 899.355 1048.32L841.024 1048.32Z" stroke="#BCBCBC" stroke-width="4.44288" stroke-miterlimit="10"/>
<path d="M928.421 1175L928.421 1400.76L635.104 1400.76L635.104 1175C635.127 1165.95 638.737 1157.28 645.144 1150.89C651.551 1144.5 660.231 1140.92 669.278 1140.92L894.246 1140.92C903.295 1140.91 911.977 1144.5 918.385 1150.89C924.792 1157.28 928.402 1165.95 928.421 1175Z" stroke="#BCBCBC" stroke-width="4.44288" stroke-miterlimit="10"/>
<path d="M606.581 729.501C606.597 724.997 608.392 720.681 611.576 717.498C614.761 714.313 619.075 712.517 623.579 712.502L939.912 712.502C942.145 712.499 944.357 712.938 946.419 713.791C948.482 714.645 950.357 715.897 951.937 717.476C953.515 719.054 954.768 720.929 955.621 722.993C956.475 725.056 956.912 727.267 956.911 729.501C956.896 734.003 955.1 738.318 951.915 741.502C948.73 744.687 944.416 746.483 939.912 746.499L623.579 746.499C619.072 746.495 614.751 744.703 611.565 741.515C608.377 738.329 606.585 734.007 606.581 729.501Z" stroke="#BCBCBC" stroke-width="4.44288" stroke-miterlimit="10"/>
<path d="M763.379 832.439L763.379 919.388C763.383 922.548 762.764 925.678 761.557 928.599C760.351 931.518 758.582 934.174 756.35 936.41C754.118 938.647 751.466 940.421 748.548 941.633C745.629 942.844 742.5 943.469 739.341 943.471L655.03 943.471C648.65 943.463 642.534 940.922 638.025 936.406C633.519 931.89 630.987 925.768 630.992 919.388L630.992 832.439C630.99 829.281 631.61 826.153 632.818 823.233C634.024 820.315 635.793 817.662 638.027 815.427C640.259 813.193 642.908 811.419 645.827 810.208C648.743 808.997 651.872 808.373 655.03 808.372L739.341 808.372C742.5 808.372 745.629 808.994 748.547 810.205C751.465 811.414 754.116 813.187 756.348 815.423C758.582 817.658 760.351 820.311 761.557 823.232C762.764 826.151 763.383 829.28 763.379 832.439Z" stroke="#BCBCBC" stroke-width="4.44288" stroke-miterlimit="10"/>
<path d="M928.93 832.334L928.93 919.505C928.935 922.665 928.315 925.795 927.109 928.716C925.904 931.635 924.133 934.291 921.901 936.527C919.669 938.764 917.018 940.538 914.1 941.75C911.18 942.961 908.052 943.586 904.892 943.588L820.418 943.588C817.257 943.586 814.128 942.961 811.209 941.75C808.289 940.539 805.638 938.764 803.405 936.527C801.171 934.291 799.399 931.637 798.193 928.716C796.985 925.796 796.364 922.666 796.365 919.505L796.365 832.334C796.364 829.173 796.985 826.043 798.193 823.122C799.399 820.202 801.171 817.548 803.405 815.312C805.638 813.075 808.289 811.3 811.209 810.089C814.128 808.878 817.257 808.253 820.418 808.251L904.892 808.251C908.052 808.253 911.18 808.878 914.1 810.089C917.018 811.301 919.669 813.075 921.901 815.312C924.133 817.548 925.904 820.202 927.109 823.123C928.315 826.044 928.935 829.174 928.93 832.334Z" stroke="#BCBCBC" stroke-width="4.44288" stroke-miterlimit="10"/>
<path d="M922.8 781.417L638.078 781.417C629.014 781.417 620.322 785.016 613.912 791.426C607.504 797.834 603.903 806.528 603.903 815.591L603.903 936.093C603.907 945.155 607.509 953.844 613.917 960.252C620.325 966.661 629.015 970.263 638.078 970.268L922.8 970.268C927.284 970.268 931.723 969.383 935.865 967.664C940.006 965.945 943.767 963.427 946.934 960.252C950.099 957.078 952.608 953.309 954.317 949.164C956.025 945.017 956.897 940.576 956.886 936.093L956.886 815.591C956.897 811.107 956.025 806.665 954.317 802.519C952.608 798.373 950.099 794.605 946.934 791.43C943.767 788.256 940.006 785.738 935.865 784.019C931.723 782.3 927.284 781.417 922.8 781.417ZM763.381 919.391C763.385 922.55 762.766 925.68 761.559 928.6C760.353 931.521 758.584 934.175 756.352 936.411C754.12 938.648 751.469 940.423 748.55 941.634C745.631 942.846 742.502 943.47 739.343 943.473L655.032 943.473C648.652 943.464 642.536 940.923 638.027 936.407C633.519 931.891 630.989 925.771 630.994 919.391L630.994 832.442C630.992 829.282 631.612 826.154 632.82 823.236C634.026 820.316 635.795 817.663 638.029 815.428C640.261 813.193 642.911 811.421 645.829 810.21C648.745 808.999 651.874 808.376 655.032 808.374L739.343 808.374C742.502 808.374 745.631 808.996 748.549 810.206C751.467 811.415 754.118 813.189 756.35 815.424C758.584 817.66 760.353 820.313 761.559 823.233C762.766 826.152 763.385 829.282 763.381 832.442L763.381 919.391ZM928.935 919.509C928.94 922.669 928.32 925.799 927.114 928.718C925.907 931.639 924.138 934.294 921.906 936.53C919.674 938.766 917.023 940.542 914.105 941.753C911.185 942.965 908.057 943.589 904.897 943.592L820.423 943.592C817.262 943.589 814.133 942.965 811.214 941.753C808.294 940.542 805.643 938.768 803.41 936.531C801.175 934.295 799.404 931.641 798.196 928.72C796.988 925.799 796.369 922.669 796.37 919.509L796.37 832.338C796.369 829.177 796.988 826.047 798.196 823.126C799.404 820.205 801.175 817.551 803.41 815.314C805.643 813.078 808.294 811.304 811.214 810.093C814.133 808.881 817.262 808.257 820.423 808.256L904.897 808.256C908.057 808.257 911.185 808.881 914.105 810.093C917.023 811.304 919.674 813.079 921.906 815.316C924.138 817.552 925.907 820.206 927.114 823.127C928.32 826.048 928.94 829.177 928.935 832.338L928.935 919.509Z" stroke="#BCBCBC" stroke-width="4.44288" stroke-miterlimit="10"/>
<path d="M763.379 832.439L763.379 919.388C763.383 922.548 762.764 925.678 761.557 928.599C760.351 931.518 758.582 934.174 756.35 936.41C754.118 938.647 751.466 940.421 748.548 941.633C745.629 942.844 742.5 943.469 739.341 943.471L655.03 943.471C648.65 943.463 642.534 940.922 638.025 936.406C633.519 931.89 630.987 925.768 630.992 919.388L630.992 832.439C630.99 829.281 631.61 826.153 632.818 823.233C634.024 820.315 635.793 817.662 638.027 815.427C640.259 813.193 642.908 811.419 645.827 810.208C648.743 808.997 651.872 808.373 655.03 808.372L739.341 808.372C742.5 808.372 745.629 808.994 748.547 810.205C751.465 811.414 754.116 813.187 756.348 815.423C758.582 817.658 760.351 820.311 761.557 823.232C762.764 826.151 763.383 829.28 763.379 832.439Z" stroke="#BCBCBC" stroke-width="4.44288" stroke-miterlimit="10"/>
<path d="M928.93 832.334L928.93 919.505C928.935 922.665 928.315 925.795 927.109 928.716C925.904 931.635 924.133 934.291 921.901 936.527C919.669 938.764 917.018 940.538 914.1 941.75C911.18 942.961 908.052 943.586 904.892 943.588L820.418 943.588C817.257 943.586 814.128 942.961 811.209 941.75C808.289 940.539 805.638 938.764 803.405 936.527C801.171 934.291 799.399 931.637 798.193 928.716C796.985 925.796 796.364 922.666 796.365 919.505L796.365 832.334C796.364 829.173 796.985 826.043 798.193 823.122C799.399 820.202 801.171 817.548 803.405 815.312C805.638 813.075 808.289 811.3 811.209 810.089C814.128 808.878 817.257 808.253 820.418 808.251L904.892 808.251C908.052 808.253 911.18 808.878 914.1 810.089C917.018 811.301 919.669 813.075 921.901 815.312C924.133 817.548 925.904 820.202 927.109 823.123C928.315 826.044 928.935 829.174 928.93 832.334Z" stroke="#BCBCBC" stroke-width="4.44288" stroke-miterlimit="10"/>
<path d="M928.93 832.334L928.93 919.505C928.935 922.665 928.315 925.795 927.109 928.716C925.904 931.635 924.133 934.291 921.901 936.527C919.669 938.764 917.018 940.538 914.1 941.75C911.18 942.961 908.052 943.586 904.892 943.588L820.418 943.588C817.257 943.586 814.128 942.961 811.209 941.75C808.289 940.539 805.638 938.764 803.405 936.527C801.171 934.291 799.399 931.637 798.193 928.716C796.985 925.796 796.364 922.666 796.365 919.505L796.365 832.334C796.364 829.173 796.985 826.043 798.193 823.122C799.399 820.202 801.171 817.548 803.405 815.312C805.638 813.075 808.289 811.3 811.209 810.089C814.128 808.878 817.257 808.253 820.418 808.251L904.892 808.251C908.052 808.253 911.18 808.878 914.1 810.089C917.018 811.301 919.669 813.075 921.901 815.312C924.133 817.548 925.904 820.202 927.109 823.123C928.315 826.044 928.935 829.174 928.93 832.334Z" stroke="#BCBCBC" stroke-width="4.44288" stroke-miterlimit="10"/>
<path d="M763.379 832.439L763.379 919.388C763.383 922.548 762.764 925.678 761.557 928.599C760.351 931.518 758.582 934.174 756.35 936.41C754.118 938.647 751.466 940.421 748.548 941.633C745.629 942.844 742.5 943.469 739.341 943.471L655.03 943.471C648.65 943.463 642.534 940.922 638.025 936.406C633.519 931.89 630.987 925.768 630.992 919.388L630.992 832.439C630.99 829.281 631.61 826.153 632.818 823.233C634.024 820.315 635.793 817.662 638.027 815.427C640.259 813.193 642.908 811.419 645.827 810.208C648.743 808.997 651.872 808.373 655.03 808.372L739.341 808.372C742.5 808.372 745.629 808.994 748.547 810.205C751.465 811.414 754.116 813.187 756.348 815.423C758.582 817.658 760.351 820.311 761.557 823.232C762.764 826.151 763.383 829.28 763.379 832.439Z" stroke="#BCBCBC" stroke-width="4.44288" stroke-miterlimit="10"/>
<path d="M928.421 1175L928.421 1400.76L635.104 1400.76L635.104 1175C635.127 1165.95 638.737 1157.28 645.144 1150.89C651.551 1144.5 660.231 1140.92 669.278 1140.92L894.246 1140.92C903.295 1140.91 911.977 1144.5 918.385 1150.89C924.792 1157.28 928.402 1165.95 928.421 1175Z" stroke="#BCBCBC" stroke-width="4.44288" stroke-miterlimit="10"/>
<path d="M672.1 1015.78L672.1 1044.71C672.101 1045.18 672.01 1045.65 671.829 1046.09C671.648 1046.53 671.381 1046.93 671.045 1047.27C670.708 1047.6 670.31 1047.87 669.87 1048.05C669.431 1048.23 668.96 1048.32 668.484 1048.32L610.152 1048.32C609.68 1048.32 609.213 1048.23 608.777 1048.04C608.343 1047.86 607.947 1047.59 607.615 1047.26C607.283 1046.92 607.021 1046.52 606.843 1046.09C606.667 1045.65 606.576 1045.18 606.581 1044.71L606.581 1015.78C606.581 1014.83 606.957 1013.92 607.627 1013.25C608.297 1012.58 609.205 1012.21 610.152 1012.21L668.484 1012.21C668.957 1012.2 669.425 1012.29 669.862 1012.47C670.299 1012.65 670.698 1012.91 671.034 1013.24C671.369 1013.57 671.636 1013.97 671.82 1014.4C672.002 1014.84 672.098 1015.31 672.1 1015.78Z" stroke="#BCBCBC" stroke-width="4.44288" stroke-miterlimit="10"/>
<path d="M749.079 1015.78L749.079 1044.71C749.074 1045.66 748.692 1046.58 748.015 1047.26C747.337 1047.94 746.42 1048.32 745.463 1048.32L687.131 1048.32C686.656 1048.32 686.184 1048.23 685.746 1048.05C685.305 1047.87 684.907 1047.6 684.57 1047.27C684.234 1046.93 683.967 1046.53 683.786 1046.09C683.606 1045.65 683.514 1045.18 683.515 1044.71L683.515 1015.78C683.517 1015.31 683.613 1014.84 683.795 1014.4C683.978 1013.97 684.246 1013.57 684.581 1013.24C684.917 1012.91 685.316 1012.65 685.753 1012.47C686.19 1012.29 686.658 1012.2 687.131 1012.21L745.463 1012.21C746.414 1012.21 747.327 1012.58 748.004 1013.25C748.682 1013.92 749.067 1014.83 749.079 1015.78Z" stroke="#BCBCBC" stroke-width="4.44288" stroke-miterlimit="10"/>
<path d="M825.992 1015.78L825.992 1044.71C825.993 1045.18 825.902 1045.65 825.721 1046.09C825.54 1046.53 825.273 1046.93 824.937 1047.27C824.6 1047.6 824.202 1047.87 823.762 1048.05C823.323 1048.23 822.852 1048.32 822.376 1048.32L764.059 1048.32C763.586 1048.32 763.118 1048.23 762.682 1048.04C762.245 1047.86 761.849 1047.59 761.518 1047.26C761.184 1046.92 760.92 1046.52 760.741 1046.09C760.562 1045.65 760.471 1045.18 760.473 1044.71L760.473 1015.78C760.473 1015.31 760.566 1014.84 760.745 1014.41C760.926 1013.97 761.192 1013.58 761.523 1013.25C761.857 1012.92 762.253 1012.65 762.688 1012.47C763.122 1012.3 763.589 1012.21 764.059 1012.21L822.376 1012.21C822.849 1012.2 823.317 1012.29 823.754 1012.47C824.191 1012.65 824.59 1012.91 824.926 1013.24C825.261 1013.57 825.53 1013.97 825.712 1014.4C825.894 1014.84 825.99 1015.31 825.992 1015.78Z" stroke="#BCBCBC" stroke-width="4.44288" stroke-miterlimit="10"/>
<path d="M902.868 1015.78L902.868 1044.71C902.872 1045.18 902.782 1045.65 902.605 1046.09C902.427 1046.52 902.165 1046.92 901.833 1047.26C901.501 1047.59 901.106 1047.86 900.671 1048.04C900.236 1048.23 899.769 1048.32 899.296 1048.32L841.024 1048.32C840.548 1048.32 840.077 1048.23 839.638 1048.05C839.198 1047.87 838.799 1047.6 838.463 1047.27C838.126 1046.93 837.86 1046.53 837.679 1046.09C837.498 1045.65 837.406 1045.18 837.408 1044.71L837.408 1015.78C837.409 1015.31 837.505 1014.84 837.688 1014.4C837.872 1013.97 838.138 1013.57 838.473 1013.24C838.81 1012.91 839.208 1012.65 839.646 1012.47C840.083 1012.29 840.551 1012.2 841.024 1012.21L899.355 1012.21C900.292 1012.22 901.186 1012.61 901.842 1013.27C902.5 1013.94 902.868 1014.84 902.868 1015.78Z" stroke="#BCBCBC" stroke-width="4.44288" stroke-miterlimit="10"/>
<path d="M712.703 1066.31L712.703 1095.27C712.696 1096.22 712.311 1097.14 711.633 1097.81C710.956 1098.48 710.042 1098.86 709.087 1098.86L650.756 1098.86C649.801 1098.86 648.887 1098.48 648.21 1097.81C647.532 1097.14 647.147 1096.22 647.14 1095.27L647.14 1066.31C647.152 1065.36 647.537 1064.45 648.214 1063.78C648.891 1063.11 649.804 1062.74 650.756 1062.74L709.087 1062.74C710.039 1062.74 710.952 1063.11 711.629 1063.78C712.306 1064.45 712.691 1065.36 712.703 1066.31Z" stroke="#BCBCBC" stroke-width="4.44288" stroke-miterlimit="10"/>
<path d="M785.792 1062.74L727.416 1062.74C725.444 1062.74 723.845 1064.34 723.845 1066.31L723.845 1095.29C723.845 1097.26 725.444 1098.86 727.416 1098.86L785.792 1098.86C787.765 1098.86 789.364 1097.26 789.364 1095.29L789.364 1066.31C789.364 1064.34 787.765 1062.74 785.792 1062.74Z" stroke="#BCBCBC" stroke-width="4.44288" stroke-miterlimit="10"/>
<path d="M956.925 729.501C956.911 734.006 955.111 738.323 951.924 741.508C948.737 744.693 944.419 746.487 939.912 746.499L623.579 746.499C619.072 746.495 614.751 744.703 611.565 741.515C608.377 738.329 606.585 734.007 606.581 729.501C606.597 724.997 608.392 720.681 611.576 717.498C614.761 714.313 619.075 712.517 623.579 712.502L939.912 712.502C942.147 712.498 944.359 712.935 946.424 713.787C948.488 714.639 950.366 715.891 951.946 717.471C953.526 719.049 954.779 720.924 955.635 722.989C956.488 725.053 956.927 727.266 956.925 729.501Z" stroke="#BCBCBC" stroke-width="4.44288" stroke-miterlimit="10"/>
<path d="M893.317 1167.03L669.313 1167.03C664.002 1167.03 659.695 1171.33 659.695 1176.65L659.695 1177.02C659.695 1182.33 664.002 1186.63 669.313 1186.63L893.317 1186.63C898.629 1186.63 902.935 1182.33 902.935 1177.02L902.935 1176.65C902.935 1171.33 898.629 1167.03 893.317 1167.03Z" stroke="#BCBCBC" stroke-width="4.44288" stroke-miterlimit="10"/>
<path d="M893.317 1207.49L669.313 1207.49C664.002 1207.49 659.695 1211.8 659.695 1217.11L659.695 1217.48C659.695 1222.79 664.002 1227.1 669.313 1227.1L893.317 1227.1C898.629 1227.1 902.935 1222.79 902.935 1217.48L902.935 1217.11C902.935 1211.8 898.629 1207.49 893.317 1207.49Z" stroke="#BCBCBC" stroke-width="4.44288" stroke-miterlimit="10"/>
<path d="M893.317 1247.94L669.313 1247.94C664.002 1247.94 659.695 1252.25 659.695 1257.56L659.695 1257.93C659.695 1263.24 664.002 1267.55 669.313 1267.55L893.317 1267.55C898.629 1267.55 902.935 1263.24 902.935 1257.93L902.935 1257.56C902.935 1252.25 898.629 1247.94 893.317 1247.94Z" stroke="#BCBCBC" stroke-width="4.44288" stroke-miterlimit="10"/>
<path d="M893.317 1288.42L669.313 1288.42C664.002 1288.42 659.695 1292.72 659.695 1298.04L659.695 1298.41C659.695 1303.72 664.002 1308.02 669.313 1308.02L893.317 1308.02C898.629 1308.02 902.935 1303.72 902.935 1298.41L902.935 1298.04C902.935 1292.72 898.629 1288.42 893.317 1288.42Z" stroke="#BCBCBC" stroke-width="4.44288" stroke-miterlimit="10"/>
<path d="M893.317 1328.88L669.313 1328.88C664.002 1328.88 659.695 1333.19 659.695 1338.5L659.695 1338.87C659.695 1344.18 664.002 1348.49 669.313 1348.49L893.317 1348.49C898.629 1348.49 902.935 1344.18 902.935 1338.87L902.935 1338.5C902.935 1333.19 898.629 1328.88 893.317 1328.88Z" stroke="#BCBCBC" stroke-width="4.44288" stroke-miterlimit="10"/>
<path d="M515.139 598.723L1087.31 598.723C1096.28 598.723 1104.88 602.286 1111.22 608.629C1117.57 614.97 1121.13 623.573 1121.13 632.542L1121.13 665.146L481.319 665.146L481.319 632.542C481.319 623.573 484.882 614.97 491.225 608.629C497.567 602.286 506.17 598.723 515.139 598.723Z" stroke="#BCBCBC" stroke-width="4.44288" stroke-miterlimit="10"/>
<path d="M1060.04 1126.77L1121.56 1126.77L1121.56 1182.75L1179.94 1182.75L1179.94 1247.03L1236.79 1247.03L1236.79 1297.38L1292.73 1297.38L1292.73 1341.67L1408.23 1341.67L1408.23 1400.72L1060.04 1400.72L1060.04 1126.77Z" stroke="#BCBCBC" stroke-width="4.44288" stroke-miterlimit="10"/>
<path d="M1071.65 1002.84L1121.96 1002.84L1123.49 1002.84L1180.03 1059.39L1237.02 1116.37L1292.75 1172.1L1319.1 1198.45" stroke="#BCBCBC" stroke-width="4.44288" stroke-miterlimit="10"/>
<path d="M1121.96 1182.75L1121.96 1002.84" stroke="#BCBCBC" stroke-width="4.44288" stroke-miterlimit="10"/>
<path d="M1292.75 1297.4L1292.75 1172.09" stroke="#BCBCBC" stroke-width="4.44288" stroke-miterlimit="10"/>
<path d="M1180.04 1207.95L1180.04 1059.38" stroke="#BCBCBC" stroke-width="4.44288" stroke-miterlimit="10"/>
<path d="M1236.79 1116.37L1236.79 1251.96" stroke="#BCBCBC" stroke-width="4.44288" stroke-miterlimit="10"/>
<path d="M556.276 1277.67L556.276 1315.65" stroke="#BCBCBC" stroke-width="4.44288" stroke-miterlimit="10"/>
<path d="M499.99 1315.66L499.99 1292.3C502.376 1299.15 508.793 1305.12 517.063 1308.07C514.38 1288.51 509.134 1257.68 499.99 1230.1" stroke="#BCBCBC" stroke-width="4.44288" stroke-miterlimit="10"/>
<path d="M556.277 1201.61L556.277 875.863L499.99 875.863L499.99 1186.96" stroke="#BCBCBC" stroke-width="4.44288" stroke-miterlimit="10"/>
<path d="M499.99 1292.32L499.99 1315.65" stroke="#BCBCBC" stroke-width="4.44288" stroke-miterlimit="10"/>
<path d="M499.993 1186.96L499.993 875.863L149.619 875.863L149.619 1400.76L495.443 1400.76L499.993 1400.76" stroke="#BCBCBC" stroke-width="4.44288" stroke-miterlimit="10"/>
<path d="M256.186 952.728L256.186 1157.82C256.186 1176.33 271.188 1191.33 289.694 1191.33L368.24 1191.33C386.745 1191.33 401.748 1176.33 401.748 1157.82L401.748 952.728C401.748 934.222 386.745 919.22 368.24 919.22L289.694 919.22C271.188 919.22 256.186 934.222 256.186 952.728Z" stroke="#BCBCBC" stroke-width="4.44288" stroke-miterlimit="10"/>
<path d="M276.882 964.405L276.882 1019.42C276.882 1032.46 287.451 1043.02 300.49 1043.02L357.577 1043.02C370.615 1043.02 381.185 1032.46 381.185 1019.42L381.185 964.405C381.185 951.366 370.615 940.796 357.577 940.796L300.49 940.796C287.451 940.796 276.882 951.366 276.882 964.405Z" stroke="#BCBCBC" stroke-width="4.44288" stroke-miterlimit="10"/>
<path d="M276.978 1091.99L276.978 1146.84C276.978 1159.88 287.547 1170.45 300.586 1170.45L357.495 1170.45C370.533 1170.45 381.103 1159.88 381.103 1146.84L381.103 1091.99C381.103 1078.96 370.533 1068.39 357.495 1068.39L300.586 1068.39C287.547 1068.39 276.978 1078.96 276.978 1091.99Z" stroke="#BCBCBC" stroke-width="4.44288" stroke-miterlimit="10"/>
<path d="M261.675 1222.39L203.225 1222.39C201.268 1222.39 199.683 1223.97 199.683 1225.93L199.683 1254.97C199.683 1256.93 201.268 1258.52 203.225 1258.52L261.675 1258.52C263.631 1258.52 265.217 1256.93 265.217 1254.97L265.217 1225.93C265.217 1223.97 263.631 1222.39 261.675 1222.39Z" stroke="#BCBCBC" stroke-width="4.44288" stroke-miterlimit="10"/>
<path d="M338.632 1222.39L280.182 1222.39C278.225 1222.39 276.64 1223.97 276.64 1225.93L276.64 1254.97C276.64 1256.93 278.225 1258.52 280.182 1258.52L338.632 1258.52C340.588 1258.52 342.174 1256.93 342.174 1254.97L342.174 1225.93C342.174 1223.97 340.588 1222.39 338.632 1222.39Z" stroke="#BCBCBC" stroke-width="4.44288" stroke-miterlimit="10"/>
<path d="M415.566 1222.39L357.116 1222.39C355.16 1222.39 353.574 1223.97 353.574 1225.93L353.574 1254.97C353.574 1256.93 355.16 1258.52 357.116 1258.52L415.566 1258.52C417.523 1258.52 419.108 1256.93 419.108 1254.97L419.108 1225.93C419.108 1223.97 417.523 1222.39 415.566 1222.39Z" stroke="#BCBCBC" stroke-width="4.44288" stroke-miterlimit="10"/>
<path d="M302.258 1272.93L243.808 1272.93C241.851 1272.93 240.266 1274.52 240.266 1276.47L240.266 1305.52C240.266 1307.48 241.851 1309.06 243.808 1309.06L302.258 1309.06C304.214 1309.06 305.8 1307.48 305.8 1305.52L305.8 1276.47C305.8 1274.52 304.214 1272.93 302.258 1272.93Z" stroke="#BCBCBC" stroke-width="4.44288" stroke-miterlimit="10"/>
<path d="M378.938 1272.93L320.488 1272.93C318.532 1272.93 316.946 1274.52 316.946 1276.47L316.946 1305.52C316.946 1307.48 318.532 1309.06 320.488 1309.06L378.938 1309.06C380.895 1309.06 382.48 1307.48 382.48 1305.52L382.48 1276.47C382.48 1274.52 380.895 1272.93 378.938 1272.93Z" stroke="#BCBCBC" stroke-width="4.44288" stroke-miterlimit="10"/>
<path d="M108.904 808.915L556.468 808.915L556.468 875.293L74.4331 875.293L74.4331 843.401C74.437 834.258 78.0696 825.491 84.5329 819.025C90.9962 812.559 99.762 808.922 108.904 808.915Z" stroke="#BCBCBC" stroke-width="4.44288" stroke-miterlimit="10"/>
<path d="M528.666 1244.97C531.734 1242.48 535.291 1240.18 537.751 1237.44C544.657 1229.72 542.004 1219.85 546.435 1211.37C551.83 1200.99 568.784 1193.81 585.456 1194.76C583.878 1199.63 582.795 1204.66 582.225 1209.75C581.736 1214.29 582.922 1219.33 581.618 1223.73C579.499 1230.78 568.176 1235.07 566.798 1242.31C565.583 1248.71 573.082 1254.7 571.837 1261.22C570.518 1268.22 559.773 1272.09 555.816 1278.27C552.585 1283.3 554.112 1289.05 552.437 1294.4C550.407 1300.87 543.382 1306.57 534.179 1309.22L533.26 1309.49C529.88 1306.59 526.979 1303.18 524.665 1299.37" stroke="#BCBCBC" stroke-width="4.44288" stroke-miterlimit="10"/>
<path d="M575.341 1202.88C550.488 1228.24 538.795 1281.7 534.245 1309.26C533.874 1311.59 533.534 1313.71 533.252 1315.65" stroke="#BCBCBC" stroke-width="4.44288" stroke-miterlimit="10"/>
<path d="M577.571 1331.17L566.129 1395.11C565.812 1396.9 564.874 1398.52 563.478 1399.7C562.082 1400.87 560.319 1401.51 558.497 1401.51L498.728 1401.51C496.889 1401.51 495.109 1400.85 493.709 1399.66C492.308 1398.47 491.376 1396.82 491.081 1395L480.5 1331.17L577.571 1331.17Z" stroke="#BCBCBC" stroke-width="4.44288" stroke-miterlimit="10"/>
<path d="M588.433 1324.04C588.273 1325.98 587.388 1327.8 585.955 1329.12C584.523 1330.44 582.646 1331.17 580.697 1331.17L477.535 1331.17C475.604 1331.17 473.742 1330.45 472.314 1329.15C470.886 1327.85 469.994 1326.07 469.814 1324.15C469.71 1323.07 469.833 1321.98 470.174 1320.96C470.514 1319.93 471.067 1318.99 471.793 1318.18C472.521 1317.38 473.406 1316.74 474.396 1316.31C475.384 1315.87 476.453 1315.64 477.535 1315.64L580.637 1315.64C581.716 1315.63 582.783 1315.85 583.773 1316.28C584.763 1316.7 585.653 1317.33 586.386 1318.12C587.12 1318.91 587.68 1319.85 588.033 1320.87C588.385 1321.89 588.522 1322.97 588.433 1324.04Z" stroke="#BCBCBC" stroke-width="4.44288" stroke-miterlimit="10"/>
<path d="M499.992 1292.3C499.818 1291.81 499.669 1291.32 499.548 1290.82C497.903 1284.62 499.37 1277.91 496.273 1272.1C492.464 1264.94 482.179 1260.46 480.875 1252.34C479.719 1244.81 486.921 1237.85 485.721 1230.42C484.417 1222.05 473.539 1217.09 471.479 1208.89C470.249 1203.82 471.375 1197.97 470.93 1192.71C470.378 1186.84 469.327 1181.03 467.789 1175.34C480.089 1174.49 492.538 1179.22 499.992 1186.9C502.227 1189.12 504.022 1191.74 505.283 1194.62C509.536 1204.42 507.002 1215.86 513.642 1224.81C517.258 1229.65 523.26 1233.27 526.342 1238.34C527.374 1239.99 528.096 1241.82 528.476 1243.73C528.491 1243.87 528.516 1244.01 528.551 1244.15C528.625 1244.41 528.654 1244.67 528.699 1244.89C529.81 1252.39 526.95 1260.51 527.869 1268.23C528.699 1274.63 532.167 1281.05 530.181 1287.3C528.789 1291.51 526.941 1295.55 524.668 1299.35C522.824 1302.63 520.557 1305.65 517.925 1308.33C517.628 1308.26 517.361 1308.14 517.065 1308.04C514.383 1288.47 509.136 1257.65 499.992 1230.07" stroke="#BCBCBC" stroke-width="4.44288" stroke-miterlimit="10"/>
<path d="M518.037 1315.63C517.77 1313.35 517.429 1310.86 517.058 1308.1C514.376 1288.54 509.13 1257.71 499.986 1230.13C494.221 1212.57 486.87 1196.25 477.593 1184.84" stroke="#BCBCBC" stroke-width="4.44288" stroke-miterlimit="10"/>
<path d="M513.643 1224.86C513.643 1224.86 515.288 1199.34 529.055 1191.57C542.823 1183.81 542.527 1227.32 542.527 1227.32" stroke="#BCBCBC" stroke-width="4.44288" stroke-miterlimit="10"/>
<path d="M528.671 1244.97C527.116 1235.28 527.841 1225.36 530.79 1216.01" stroke="#BCBCBC" stroke-width="4.44288" stroke-miterlimit="10"/>
<path d="M736.028 767.513C737.94 769.585 739.044 772.274 739.139 775.093C739.233 777.91 738.313 780.67 736.547 782.866L702.298 841.776L701.097 853.632L690.442 960.706L673.517 1130.77C673.413 1131.85 673.191 1132.93 672.998 1134.01C672.895 1134.87 672.776 1135.73 672.628 1136.59C672.406 1137.7 672.139 1138.75 671.887 1139.82C671.635 1140.89 671.472 1141.58 671.205 1142.44C670.938 1143.3 670.583 1144.49 670.212 1145.5L669.308 1148.03C668.908 1149.04 668.493 1150 668.078 1150.99C667.663 1151.99 667.293 1152.61 666.893 1153.43C666.492 1154.24 665.959 1155.29 665.411 1156.18C664.862 1157.07 664.506 1157.75 664.032 1158.49C663.558 1159.23 662.95 1160.24 662.343 1161.1C661.735 1161.96 661.305 1162.58 660.787 1163.27C659.66 1164.75 658.549 1166.14 657.319 1167.47C656.682 1168.22 656.015 1168.96 655.348 1169.67C654.681 1170.38 653.866 1171.05 653.184 1171.73C652.502 1172.41 651.835 1172.99 651.124 1173.58C650.413 1174.17 649.642 1174.86 648.827 1175.45C648.012 1176.04 647.345 1176.6 646.589 1177.12C645.833 1177.64 644.974 1178.25 644.159 1178.81C643.344 1179.38 642.558 1179.81 641.743 1180.29C640.928 1180.78 640.053 1181.27 639.209 1181.78C638.364 1182.28 637.49 1182.64 636.6 1183.04C635.711 1183.44 634.881 1183.9 633.992 1184.27C633.103 1184.64 632.08 1185.02 631.117 1185.35C630.154 1185.67 629.398 1186.01 628.538 1186.28C626.908 1186.8 625.233 1187.24 623.544 1187.63C622.581 1187.85 621.647 1188.03 620.684 1188.18C619.72 1188.33 618.816 1188.55 617.853 1188.71L618.001 1188.71L631.221 1216.87L643.596 1216.99C639.602 1217.55 635.56 1217.73 631.532 1217.51L651.124 1259.28C654.27 1265.98 655.674 1273.37 655.205 1280.76C654.736 1288.14 652.412 1295.29 648.445 1301.54C644.479 1307.79 638.998 1312.93 632.513 1316.5C626.028 1320.07 618.748 1321.94 611.347 1321.94L587.635 1321.94C586.718 1321.95 585.809 1322.13 584.962 1322.48C584.114 1322.84 583.345 1323.35 582.699 1324C582.051 1324.65 581.54 1325.43 581.191 1326.28C580.843 1327.13 580.665 1328.03 580.67 1328.95L580.67 1332.42C588.763 1335.16 595.62 1340.69 600.016 1348.02C604.413 1355.35 606.062 1364 604.672 1372.44C603.282 1380.87 598.941 1388.53 592.427 1394.06C585.91 1399.59 577.642 1402.63 569.095 1402.63C560.549 1402.63 552.281 1399.59 545.764 1394.06C539.249 1388.53 534.909 1380.87 533.518 1372.44C532.128 1364 533.778 1355.35 538.175 1348.02C542.571 1340.69 549.428 1335.16 557.521 1332.42L557.521 1328.95C557.522 1328.03 557.343 1327.12 556.993 1326.27C556.642 1325.42 556.128 1324.65 555.477 1324C554.828 1323.35 554.056 1322.83 553.207 1322.48C552.356 1322.12 551.446 1321.94 550.526 1321.94L288.879 1321.94C287.959 1321.94 287.049 1322.12 286.198 1322.48C285.349 1322.83 284.577 1323.35 283.927 1324C283.277 1324.65 282.763 1325.42 282.411 1326.27C282.062 1327.12 281.882 1328.03 281.884 1328.95L281.884 1332.42C289.99 1335.16 296.858 1340.7 301.262 1348.04C305.667 1355.37 307.322 1364.04 305.931 1372.48C304.541 1380.93 300.195 1388.6 293.672 1394.14C287.146 1399.68 278.868 1402.72 270.309 1402.72C261.751 1402.72 253.472 1399.68 246.947 1394.14C240.423 1388.6 236.078 1380.93 234.688 1372.48C233.296 1364.04 234.952 1355.37 239.356 1348.04C243.761 1340.7 250.628 1335.16 258.735 1332.42L258.735 1328.95C258.735 1327.09 257.997 1325.31 256.682 1324C255.368 1322.68 253.584 1321.94 251.725 1321.94L211.059 1321.94C209.187 1321.94 207.36 1321.38 205.807 1320.34C204.252 1319.29 203.043 1317.81 202.33 1316.08C201.616 1314.35 201.43 1312.45 201.798 1310.62C202.164 1308.78 203.067 1307.1 204.39 1305.78C205.264 1304.9 206.303 1304.2 207.449 1303.73C208.593 1303.26 209.82 1303.01 211.059 1303.02L602.826 1303.02C607.771 1303.01 612.635 1301.76 616.968 1299.38C621.303 1297 624.968 1293.57 627.627 1289.4C630.284 1285.23 631.849 1280.46 632.177 1275.52C632.504 1270.59 631.585 1265.65 629.502 1261.17L595.816 1188.47L258.201 1161.18C257.944 1161.12 257.68 1161.08 257.416 1161.06C255.934 1160.91 254.452 1160.72 252.97 1160.46C252.472 1160.4 251.977 1160.31 251.488 1160.2C249.813 1159.9 248.213 1159.53 246.597 1159.12L245.219 1158.72C243.737 1158.26 242.255 1157.78 240.773 1157.23L239.617 1156.79C238.269 1156.27 236.935 1155.68 235.631 1155.04C235.078 1154.81 234.538 1154.55 234.015 1154.26C232.83 1153.66 231.644 1153.03 230.488 1152.31C220.76 1146.6 212.695 1138.44 207.092 1128.65C201.487 1118.85 198.538 1107.77 198.536 1096.49L198.536 950.139C198.539 934.528 204.171 919.441 214.396 907.646C224.624 895.851 238.761 888.139 254.215 885.925L677.104 825.163L718.763 767.468C719.874 766.293 721.214 765.358 722.7 764.721C724.187 764.083 725.787 763.757 727.404 763.76C729.022 763.765 730.621 764.1 732.103 764.746C733.587 765.39 734.922 766.332 736.028 767.513Z" fill="#F9F9F9"/>
<path d="M1217.31 1266.46C1189.96 1209.72 1133.68 1108.46 1056.38 1047.3L1048.85 911.412C1054.55 911.131 1060.2 910.135 1065.65 908.448C1071.85 907.441 1076.03 905.87 1077.51 903.558C1078.65 901.634 1079.45 899.528 1079.87 897.333C1081.11 894.627 1081.7 891.668 1081.59 888.693C1081.59 887.211 1081.47 885.448 1081.44 883.655C1081.99 868.716 1080.53 847.242 1078.79 821.751C1076.99 784.998 1074.99 749.133 1074.95 748.807L1074.95 748.733C1074.95 748.215 1075.17 716.011 1076.67 680.458C1078.59 700.628 1086.95 713.254 1097.9 721.005C1109.76 730.771 1125.31 733.424 1138.64 733.424C1148.39 733.404 1158.1 732.123 1167.53 729.616C1183.4 724.666 1196.46 716.767 1206.15 705.503C1215.04 696.937 1222.45 686.015 1224.48 672.588C1226.33 661.727 1225.74 650.591 1222.76 639.984C1220.14 627.648 1213.15 616.677 1203.07 609.099C1200.7 607.096 1198.08 605.403 1195.29 604.06C1190.59 601.334 1185.74 598.696 1181.15 595.672C1174.95 591.336 1169.55 585.955 1165.19 579.771C1162.32 574.484 1160.57 568.661 1160.04 562.668C1160.51 552.656 1160.37 542.624 1159.63 532.628C1159.63 530.538 1159.41 528.449 1159.18 526.404C1158.62 519.246 1158.1 514.296 1158.1 514.296C1152.02 498.635 1141.63 485.014 1128.14 475.008C1127.31 474.341 1126.46 473.704 1125.63 473.067C1113.79 464.418 1100.03 458.755 1085.53 456.557C1084.19 456.364 1082.85 456.216 1081.54 456.112C1077.26 455.414 1072.94 455.029 1068.6 454.957C1063.07 452.637 1058.31 448.781 1054.9 443.842C1051.9 438.391 1049.77 432.506 1048.6 426.398C1046.92 416.41 1046.77 404.42 1045.94 390.593C1046.07 376.708 1042.46 363.044 1035.48 351.039C1035.45 350.945 1035.4 350.859 1035.33 350.787C1032.36 345.783 1028.74 341.186 1024.59 337.108C1012.63 322.94 995.971 314.078 975.253 319.25C975.06 319.25 974.868 319.368 974.645 319.442C973.786 319.442 972.941 319.442 972.081 319.591C972.058 319.583 972.031 319.583 972.007 319.591C963.899 320.265 956.042 322.735 949.007 326.823C946.416 328.324 943.971 330.059 941.7 332.01C927.992 343.866 920.122 362.198 917.988 380.353C917.885 381.094 917.84 381.835 917.811 382.576C915.41 385.47 913.988 389.049 913.75 392.801C913.516 396.45 914.344 400.09 916.134 403.278C917.926 406.465 920.604 409.066 923.842 410.763L923.842 411.697C924.072 418.107 925.474 424.421 927.977 430.326C932.186 440.314 939.715 451.681 952.46 453.504C952.919 453.504 953.364 453.578 953.764 453.652L963.086 470.28L965.323 479.928L970.51 502.292L972.289 501.284C974.349 500.128 976.394 498.987 978.513 497.86L979.862 500.321C971.898 504.873 964.293 510.025 957.113 515.733C938.781 529.56 916.269 550.694 900.427 579.607C891.105 595.791 884.51 613.382 882.465 632.055C882.453 632.304 882.428 632.55 882.391 632.796C882.124 634.471 881.902 636.146 881.724 637.865L881.724 629.699C881.398 629.699 881.087 629.551 880.761 629.521L880.761 629.373C879.618 629.207 878.484 628.98 877.367 628.691L791.944 577.829C788.11 574.391 785.338 569.927 783.956 564.965C781.59 555.399 776.238 546.835 768.677 540.512C762.221 535.487 754.617 532.146 746.551 530.79C746.062 530.672 745.543 530.598 745.069 530.524C745.395 529.809 745.564 529.034 745.567 528.249C745.569 527.463 745.404 526.687 745.083 525.971C744.762 525.254 744.292 524.613 743.704 524.093C743.117 523.573 742.425 523.183 741.675 522.951L678.542 503.018C677.224 502.598 675.797 502.687 674.542 503.265C673.285 503.845 672.292 504.872 671.754 506.145L657.216 540.542C656.919 541.253 656.774 542.018 656.79 542.789C656.807 543.558 656.983 544.317 657.31 545.015C657.636 545.713 658.105 546.334 658.686 546.839C659.267 547.346 659.947 547.725 660.683 547.952L662.329 548.471L662.329 548.619L699.645 560.193L700.327 560.416C700.327 561.157 700.327 561.898 700.401 562.639C700.503 566.179 700.875 569.706 701.513 573.19C701.779 574.672 702.105 576.154 702.476 577.636C702.698 578.452 702.891 579.237 703.187 580.022L703.306 580.437C703.528 581.134 703.75 581.919 704.047 582.586C704.119 582.863 704.208 583.135 704.314 583.401C704.337 583.41 704.364 583.41 704.388 583.401C705.312 585.798 706.474 588.096 707.856 590.263C711.11 595.346 715.864 599.293 721.46 601.556C726.751 603.631 732.412 603.231 737.762 605.35C741.881 607.072 745.655 609.522 748.907 612.582L750.922 614.775C749.841 616.391 740.119 631.403 747.129 636.131L746.862 636.25L753.946 640.696L840.865 698.093C841.725 698.76 842.614 699.398 843.473 700.02L837.219 706.911C819.969 713.017 799.606 719.686 783.467 724.31C773.79 726.77 764.023 728.934 754.183 730.683C739.081 733.291 723.683 733.409 708.671 735.973C697.748 737.767 688.501 747.948 686.441 759.344C684.722 768.622 684.307 778.61 694.562 783.382C706.299 788.836 712.153 772.134 719.267 766.206C730.234 756.929 741.141 767.999 752.553 774.298C753.59 780.404 755.383 786.287 756.762 792.289C757.125 794.417 757.95 796.44 759.177 798.217C761.267 800.9 763.46 801.181 765.402 800.188L764.913 800.603C768.647 799.615 772.412 798.628 776.205 797.639C779.762 797.087 783.267 796.239 786.683 795.105C812.144 789.058 839.279 783.427 866.415 776.61L866.518 776.61C867.793 776.284 869.097 775.943 870.357 775.646C870.781 775.633 871.203 775.703 871.599 775.852C871.996 776.002 872.358 776.229 872.667 776.519C872.976 776.811 873.223 777.16 873.397 777.546C873.57 777.933 873.665 778.35 873.677 778.773C873.528 780.715 873.336 782.686 873.158 784.701C871.187 793.386 867.941 816.831 864.266 835.756C862.25 844.145 860.161 851.969 858.145 858.905C854.87 866.315 851.669 873.621 852.677 879.653C852.786 882.343 853.828 884.911 855.624 886.918C857.419 888.923 859.855 890.244 862.517 890.65L867.2 891.361C870.416 892.132 875.855 893.065 882.672 894.043C883.606 900.668 884.614 907.381 885.725 913.902L885.992 915.547C886.777 919.86 887.593 924.261 888.408 928.618L888.408 928.737L888.408 928.885L889.075 932.457L889.786 936.31L884.377 984.238L882.761 998.865L841.621 1361.64L798.346 1373.16L765.92 1381.81C764.738 1382.07 763.613 1382.53 762.601 1383.19C761.095 1384.13 759.856 1385.44 759.002 1387C758.149 1388.56 757.709 1390.31 757.725 1392.08C757.728 1393.82 758.177 1395.53 759.029 1397.05C759.496 1397.95 760.084 1398.77 760.778 1399.51C762.211 1400.92 764.022 1401.9 765.994 1402.31C766.728 1402.48 767.479 1402.57 768.232 1402.56L894.617 1402.56L904.991 1361.67L966.939 1116.55L970.184 1119.51C970.184 1119.51 970.184 1119.63 970.303 1119.66L970.303 1119.74L1065.3 1210.05L1066.43 1211.04L1067.91 1212.53L1087.69 1231.3L1089.17 1232.68L1089.77 1233.27C1163.64 1304.65 1166.28 1313.97 1164.64 1314.95L1163.7 1314.95L1129.62 1385.67C1128.56 1387.89 1128.3 1390.41 1128.9 1392.8C1129.5 1395.19 1130.91 1397.29 1132.89 1398.75L1135.28 1400.5C1137.42 1402.05 1140.07 1402.74 1142.7 1402.42C1145.33 1402.1 1147.74 1400.8 1149.45 1398.78L1235.98 1297.64C1235.98 1297.64 1229.56 1291.72 1217.31 1266.46ZM768.01 797.965C768.458 797.421 768.87 796.846 769.24 796.246C769.256 796.433 769.323 796.612 769.433 796.765L768.01 797.965ZM841.354 705.429C841.843 705.207 842.317 705.014 842.836 704.822L847.949 702.821L848.171 702.925C845.978 703.74 843.696 704.599 841.354 705.429ZM876.048 628.365C871.624 626.98 867.547 624.665 864.088 621.578L859.36 618.747L876.878 628.513C876.581 628.528 876.315 628.528 876.048 628.454L876.048 628.365Z" fill="#F9F9F9"/>
<path d="M852.712 703.82L850.133 702.856C849.95 702.759 849.77 702.649 849.6 702.53C836.129 693.816 825.606 681.516 816.611 668.444C807.126 654.647 774.581 640.449 764.059 627.378C757.316 619.109 750.261 609.594 739.932 605.474C734.612 603.385 728.921 603.785 723.63 601.68C718.029 599.431 713.277 595.48 710.04 590.387C708.637 588.216 707.458 585.907 706.528 583.496C706.414 583.221 706.32 582.939 706.246 582.651C705.898 581.814 705.616 580.952 705.401 580.073C705.12 579.273 704.912 578.502 704.705 577.687C704.299 576.224 703.977 574.739 703.742 573.241C703.189 569.89 702.837 566.51 702.689 563.119L702.689 562.956C702.571 559.517 702.615 556.138 702.778 552.834L702.778 552.745L702.615 552.745L687.484 547.424C685.396 546.734 683.533 545.492 682.094 543.83C680.653 542.169 679.689 540.148 679.303 537.984C679.097 536.778 679.137 535.542 679.422 534.353C679.767 532.781 680.452 531.303 681.427 530.024C682.402 528.744 683.644 527.693 685.068 526.943C686.383 526.245 687.828 525.827 689.313 525.716C690.796 525.603 692.289 525.799 693.694 526.291L724.149 537.347L730.403 539.599L730.566 539.688C730.566 539.688 730.566 530.411 739.458 530.604C747.683 530.811 777.486 533.227 786.319 565.816C787.697 570.77 790.47 575.225 794.307 578.65L866.302 621.761C871.197 626.197 877.339 629.017 883.893 629.838L883.893 638.982C883.885 638.99 883.876 639 883.871 639.012C883.865 639.024 883.864 639.036 883.864 639.049C883.864 639.061 883.865 639.073 883.871 639.085C883.876 639.096 883.885 639.107 883.893 639.116L883.893 645.77L889.614 685.858L893.645 713.883C888.385 714.311 883.093 714.121 877.877 713.319L874.453 712.03L874.364 712.03L852.712 703.82Z" fill="#F9F9F9"/>
<path d="M882.954 638.507L882.954 638.625C881.249 653.638 879.56 671.066 878.226 690.347C868.623 694.793 858.827 698.646 849.194 702.485C849.01 702.387 848.83 702.279 848.66 702.159C842.114 697.859 836.105 692.795 830.758 687.072L749.04 636.358C754.097 633.8 758.602 630.276 762.304 625.984L762.556 625.732C777.954 609.193 791.307 581.272 792.967 577.774L793.322 578.145L865.318 621.256C870.213 625.689 876.356 628.505 882.909 629.318L882.954 638.507Z" fill="#18284D"/>
<path d="M737.998 553.439L736.353 557.885L734.782 562.198L733.923 564.643L733.804 565.014L733.641 565.458C733.254 566.57 732.442 567.483 731.384 567.997C730.326 568.51 729.108 568.584 727.995 568.2L701.941 560.197L701.823 560.197L664.387 548.697L674.109 525.711L678.392 515.589C678.939 514.316 679.939 513.292 681.199 512.717C682.46 512.14 683.89 512.056 685.209 512.477L736.798 528.779C735.126 528.398 733.426 528.155 731.715 528.053C730.499 527.98 729.283 528.179 728.152 528.632C727.022 529.086 726.007 529.784 725.179 530.676C724.395 531.566 723.83 532.629 723.529 533.776C723.229 534.923 723.199 536.125 723.445 537.285C724.217 540.264 725.749 542.991 727.891 545.199C728.098 545.436 728.306 545.644 728.543 545.881C730.459 548.006 732.676 549.838 735.123 551.32C735.123 551.32 735.197 551.32 735.286 551.439C735.375 551.557 735.286 551.439 735.286 551.439C736.143 552.168 737.05 552.836 737.998 553.439Z" fill="#E68145"/>
<path d="M702.498 560.189C702.498 560.99 702.498 561.849 702.586 562.65C702.693 566.196 703.07 569.728 703.713 573.216C703.95 574.715 704.272 576.2 704.676 577.662C704.884 578.463 705.076 579.233 705.358 580.033C705.639 580.834 705.936 581.812 706.291 582.701C706.406 583.03 706.539 583.352 706.692 583.664" stroke="#70727A" stroke-width="4.44288" stroke-miterlimit="10"/>
<path d="M749.849 556.421C748.367 556.184 746.885 555.903 745.403 555.532C743.921 555.162 742.824 554.762 741.579 554.287C739.595 553.514 737.689 552.552 735.888 551.412C735.888 551.412 735.77 551.412 735.725 551.294C733.018 549.64 730.583 547.574 728.508 545.173C726.364 542.966 724.831 540.238 724.062 537.259C723.791 536.099 723.807 534.891 724.11 533.738C724.41 532.586 724.99 531.525 725.796 530.649C726.626 529.757 727.641 529.061 728.77 528.607C729.901 528.154 731.116 527.955 732.332 528.026C734.612 528.206 736.877 528.558 739.104 529.079C742.291 529.642 745.477 530.16 748.634 530.812C756.7 532.188 764.304 535.525 770.775 540.534C778.32 546.863 783.668 555.418 786.054 564.973C787.418 569.931 790.174 574.395 793.998 577.836L883.851 631.337" stroke="#70727A" stroke-width="4.44288" stroke-miterlimit="10"/>
<path d="M702.607 562.638C702.607 562.638 705.482 578.806 727.964 578.362C729.707 578.298 731.387 577.702 732.78 576.656C734.175 575.608 735.214 574.159 735.759 572.503C736.305 570.846 736.33 569.064 735.832 567.393C735.334 565.722 734.337 564.244 732.973 563.156L732.677 562.934" stroke="#70727A" stroke-width="4.44288" stroke-miterlimit="10"/>
<path d="M706.225 582.579C706.225 582.579 717.236 594.035 728.218 589.085C737.925 584.639 731.286 575.94 731.286 575.94" stroke="#70727A" stroke-width="4.44288" stroke-miterlimit="10"/>
<path d="M736.26 562.417L735.46 562.18" stroke="#70727A" stroke-width="4.44288" stroke-miterlimit="10"/>
<path d="M620.019 1188.68C615.346 1189.35 610.613 1189.48 605.91 1189.08L598.5 1188.48L620.019 1188.68Z" fill="#EDEDED"/>
<path d="M703.301 853.707L675.662 1130.84C674.212 1145.32 667.935 1158.9 657.839 1169.38C647.744 1179.86 634.415 1186.65 619.998 1188.64C615.325 1189.31 610.592 1189.44 605.889 1189.04L598.479 1188.45L260.331 1161.13C250.532 1160.37 241.04 1157.36 232.588 1152.34C228.501 1143.75 226.389 1134.35 226.408 1124.84L226.408 1118.39L537.08 1143.59L544.49 1144.19C549.192 1144.58 553.924 1144.45 558.599 1143.79C573.013 1141.79 586.337 1135.01 596.431 1124.53C606.527 1114.04 612.806 1100.47 614.263 1086L636.493 863.473L703.301 853.707Z" fill="#E68145"/>
<path d="M636.469 863.308L614.239 1085.83C612.782 1100.31 606.503 1113.88 596.408 1124.36C586.314 1134.84 572.989 1141.63 558.575 1143.63C553.901 1144.28 549.17 1144.42 544.466 1144.03L537.056 1143.42L226.385 1118.23L226.385 978.459C226.392 962.846 232.022 947.759 242.244 935.958C252.466 924.157 266.597 916.433 282.049 914.199L636.469 863.308Z" fill="#EDEDED"/>
<path d="M645.807 1217.01C641.13 1217.67 636.392 1217.81 631.683 1217.41L624.273 1216.81L645.807 1217.01Z" fill="#EDEDED"/>
<path d="M620.194 1188.69L653.331 1259.32C656.47 1266.02 657.869 1273.4 657.396 1280.78C656.924 1288.17 654.597 1295.31 650.63 1301.56C646.661 1307.8 641.182 1312.94 634.7 1316.51C628.216 1320.07 620.938 1321.94 613.54 1321.95L589.828 1321.95C588.91 1321.95 588 1322.13 587.153 1322.48C586.303 1322.83 585.533 1323.34 584.882 1323.99C584.233 1324.63 583.717 1325.41 583.366 1326.25C583.013 1327.1 582.832 1328.01 582.832 1328.93L582.832 1363.37C582.832 1366.44 581.613 1369.38 579.443 1371.55C577.272 1373.72 574.327 1374.94 571.258 1374.94C568.189 1374.94 565.244 1373.72 563.074 1371.55C560.903 1369.38 559.684 1366.44 559.684 1363.37L559.684 1328.91C559.685 1327.99 559.506 1327.08 559.155 1326.24C558.803 1325.39 558.289 1324.62 557.638 1323.97C556.988 1323.32 556.216 1322.81 555.367 1322.46C554.517 1322.11 553.607 1321.93 552.689 1321.93L291.056 1321.93C290.139 1321.93 289.23 1322.11 288.383 1322.46C287.535 1322.81 286.764 1323.32 286.117 1323.97C285.468 1324.62 284.953 1325.39 284.604 1326.24C284.254 1327.09 284.075 1328 284.076 1328.91L284.076 1363.35C283.969 1366.35 282.702 1369.2 280.541 1371.28C278.381 1373.36 275.497 1374.53 272.494 1374.53C269.492 1374.53 266.608 1373.36 264.447 1371.28C262.288 1369.2 261.019 1366.35 260.912 1363.35L260.912 1328.91C260.914 1328 260.735 1327.09 260.385 1326.24C260.035 1325.39 259.521 1324.62 258.872 1323.97C258.224 1323.32 257.453 1322.81 256.606 1322.46C255.758 1322.11 254.85 1321.93 253.932 1321.93L213.266 1321.93C210.818 1321.84 208.501 1320.79 206.803 1319.03C205.105 1317.26 204.156 1314.91 204.156 1312.46C204.156 1310 205.105 1307.65 206.803 1305.88C208.501 1304.12 210.818 1303.07 213.266 1302.98L604.988 1302.98C609.926 1302.97 614.784 1301.72 619.113 1299.35C623.444 1296.97 627.106 1293.54 629.761 1289.38C632.419 1285.22 633.987 1280.45 634.319 1275.53C634.651 1270.6 633.738 1265.67 631.664 1261.19L597.979 1188.57" fill="#18284D"/>
<path d="M605.895 1189.08L260.337 1161.14C244.084 1159.83 228.921 1152.45 217.866 1140.47C206.81 1128.48 200.67 1112.77 200.671 1096.47L200.671 950.137C200.676 934.527 206.306 919.442 216.529 907.645C226.753 895.848 240.884 888.131 256.335 885.907L679.209 825.145L720.898 767.421C722.014 766.241 723.361 765.303 724.855 764.665C726.349 764.026 727.958 763.703 729.582 763.712C731.207 763.722 732.812 764.066 734.298 764.721C735.785 765.377 737.12 766.332 738.222 767.525C740.119 769.604 741.215 772.291 741.312 775.104C741.41 777.917 740.503 780.673 738.756 782.878L704.463 841.847L675.697 1130.84C674.009 1147.75 665.751 1163.33 652.698 1174.22C639.644 1185.11 622.84 1190.45 605.895 1189.08Z" stroke="#70727A" stroke-width="4.44288" stroke-miterlimit="10"/>
<path d="M607.41 1366.5C607.424 1373.14 605.607 1379.65 602.158 1385.32C598.711 1390.99 593.765 1395.6 587.867 1398.64C581.969 1401.68 575.347 1403.03 568.729 1402.55C562.11 1402.07 555.752 1399.78 550.355 1395.92C544.957 1392.06 540.729 1386.78 538.136 1380.67C535.542 1374.57 534.684 1367.86 535.655 1361.3C536.626 1354.73 539.389 1348.56 543.64 1343.47C547.89 1338.37 553.465 1334.55 559.749 1332.42L559.749 1363.36C559.749 1366.43 560.969 1369.37 563.138 1371.54C565.31 1373.72 568.254 1374.94 571.324 1374.94C574.393 1374.94 577.338 1373.72 579.507 1371.54C581.678 1369.37 582.898 1366.43 582.898 1363.36L582.898 1332.4C590.043 1334.8 596.252 1339.38 600.651 1345.5C605.049 1351.62 607.413 1358.97 607.41 1366.5Z" stroke="#70727A" stroke-width="4.44288" stroke-miterlimit="10"/>
<path d="M308.592 1366.5C308.604 1373.14 306.787 1379.65 303.339 1385.31C299.89 1390.98 294.946 1395.59 289.048 1398.62C283.151 1401.66 276.529 1403.01 269.914 1402.53C263.297 1402.05 256.942 1399.75 251.547 1395.89C246.153 1392.03 241.929 1386.75 239.339 1380.65C236.749 1374.54 235.894 1367.83 236.87 1361.27C237.845 1354.71 240.61 1348.54 244.863 1343.45C249.117 1338.36 254.692 1334.54 260.976 1332.42L260.976 1363.36C260.98 1366.43 262.203 1369.38 264.375 1371.55C266.548 1373.72 269.494 1374.94 272.565 1374.94C275.634 1374.94 278.579 1373.72 280.75 1371.54C282.92 1369.37 284.139 1366.43 284.139 1363.36L284.139 1332.4C291.277 1334.8 297.477 1339.39 301.866 1345.51C306.254 1351.63 308.607 1358.97 308.592 1366.5Z" stroke="#70727A" stroke-width="4.44288" stroke-miterlimit="10"/>
<path d="M620.194 1188.69L653.331 1259.32C656.47 1266.02 657.869 1273.4 657.396 1280.78C656.924 1288.17 654.597 1295.31 650.63 1301.56C646.661 1307.8 641.182 1312.94 634.7 1316.51C628.216 1320.07 620.938 1321.94 613.54 1321.95L589.828 1321.95C588.91 1321.95 588 1322.13 587.153 1322.48C586.303 1322.83 585.533 1323.34 584.882 1323.99C584.233 1324.63 583.717 1325.41 583.366 1326.25C583.013 1327.1 582.832 1328.01 582.832 1328.93L582.832 1363.37C582.832 1366.44 581.613 1369.38 579.443 1371.55C577.272 1373.72 574.327 1374.94 571.258 1374.94C568.189 1374.94 565.244 1373.72 563.074 1371.55C560.903 1369.38 559.684 1366.44 559.684 1363.37L559.684 1328.91C559.685 1327.99 559.506 1327.08 559.155 1326.24C558.803 1325.39 558.289 1324.62 557.638 1323.97C556.988 1323.32 556.216 1322.81 555.367 1322.46C554.517 1322.11 553.607 1321.93 552.689 1321.93L291.056 1321.93C290.139 1321.93 289.23 1322.11 288.383 1322.46C287.535 1322.81 286.764 1323.32 286.117 1323.97C285.468 1324.62 284.953 1325.39 284.604 1326.24C284.254 1327.09 284.075 1328 284.076 1328.91L284.076 1363.35C283.969 1366.35 282.702 1369.2 280.541 1371.28C278.381 1373.36 275.497 1374.53 272.494 1374.53C269.492 1374.53 266.608 1373.36 264.447 1371.28C262.288 1369.2 261.019 1366.35 260.912 1363.35L260.912 1328.91C260.914 1328 260.735 1327.09 260.385 1326.24C260.035 1325.39 259.521 1324.62 258.872 1323.97C258.224 1323.32 257.453 1322.81 256.606 1322.46C255.758 1322.11 254.85 1321.93 253.932 1321.93L213.266 1321.93C210.818 1321.84 208.501 1320.79 206.803 1319.03C205.105 1317.26 204.156 1314.91 204.156 1312.46C204.156 1310 205.105 1307.65 206.803 1305.88C208.501 1304.12 210.818 1303.07 213.266 1302.98L604.988 1302.98C609.926 1302.97 614.784 1301.72 619.113 1299.35C623.444 1296.97 627.106 1293.54 629.761 1289.38C632.419 1285.22 633.987 1280.45 634.319 1275.53C634.651 1270.6 633.738 1265.67 631.664 1261.19L597.979 1188.57" stroke="#70727A" stroke-width="4.44288" stroke-miterlimit="10"/>
<path d="M738.85 553.028L735.411 562.186L734.478 564.646L734.196 565.462C733.809 566.551 733.012 567.447 731.973 567.96C730.936 568.471 729.74 568.559 728.639 568.203L702.511 560.2L662.793 547.989C662.058 547.761 661.378 547.381 660.797 546.876C660.216 546.37 659.746 545.748 659.42 545.05C659.094 544.353 658.916 543.595 658.9 542.824C658.884 542.055 659.029 541.289 659.326 540.579L673.849 506.167C674.397 504.895 675.399 503.873 676.659 503.298C677.919 502.723 679.346 502.637 680.666 503.054L743.785 522.987C744.539 523.216 745.236 523.602 745.828 524.12C746.423 524.637 746.9 525.276 747.229 525.99C747.558 526.706 747.731 527.484 747.737 528.271C747.745 529.059 747.585 529.839 747.267 530.56" stroke="#70727A" stroke-width="4.44288" stroke-miterlimit="10"/>
<path d="M725.768 534.424L669.585 516.24" stroke="#70727A" stroke-width="4.44288" stroke-miterlimit="10"/>
<path d="M794.064 577.834C794.064 577.834 772.456 624.828 751.516 635.988C751.363 636.065 751.233 636.179 751.139 636.323C751.046 636.465 750.993 636.629 750.982 636.8C750.973 636.97 751.01 637.139 751.087 637.292C751.166 637.443 751.283 637.572 751.427 637.662L849.609 702.47" stroke="#70727A" stroke-width="4.44288" stroke-miterlimit="10"/>
<path d="M753.191 614.728C753.191 614.728 741.068 632.393 750.019 636.72" stroke="#70727A" stroke-width="4.44288" stroke-miterlimit="10"/>
<path d="M759.902 730.033C759.902 730.033 754.937 730.255 764.896 742.793C774.855 755.331 778.234 779.191 771.461 796.249C771.461 796.249 771.165 800.695 788.889 795.152C806.614 789.609 868.784 776.642 868.784 776.642C868.784 776.642 878.491 771.529 875.483 784.482C872.474 797.434 866.591 845.081 860.44 858.819C854.29 872.557 848.303 886.176 869.466 891.334C890.629 896.491 1006.08 907.339 1006.08 907.339C1006.08 907.339 1084.62 924.753 1083.79 888.681C1082.96 852.609 1077.2 748.765 1077.2 748.765C1077.2 748.765 1077.67 668.604 1082.96 621.21C1082.96 621.21 1096.77 500.797 1055.71 489.667C1014.64 478.538 1000.7 490.379 990.278 495.996C979.86 501.612 888.02 549.614 883.011 648.642C883.011 648.642 882.67 686.907 874.92 692.613C867.169 698.318 776.47 729.692 759.902 730.033Z" fill="#18284D"/>
<path d="M907.126 1361.64L896.752 1402.53L770.441 1402.53C767.668 1402.51 765.012 1401.41 763.031 1399.47C761.706 1398.14 760.76 1396.48 760.295 1394.66C759.83 1392.84 759.859 1390.93 760.384 1389.13C760.907 1387.32 761.904 1385.69 763.272 1384.41C764.639 1383.12 766.327 1382.22 768.158 1381.81L843.859 1361.64C843.859 1361.64 887.682 1377.04 907.126 1361.64Z" fill="#18284D"/>
<path d="M1053.9 909.597C1052.94 909.597 1051.93 909.686 1050.94 909.686C1046.99 935.206 1042.59 960.642 1037.75 985.994C981.167 973.323 902.991 995.791 902.991 995.791L904.636 1004.68C891.743 1005.38 887.786 1000.62 887.786 1000.62L884.94 998.858L892.039 936.214L890.676 928.804L890.676 928.567C889.831 924.21 889.031 919.808 888.26 915.451L887.978 913.851C886.852 907.108 885.8 900.335 884.866 893.592L885.8 893.725C886.126 893.725 886.437 893.844 886.808 893.873L887.608 894.007C888.305 894.081 888.986 894.199 889.668 894.288C891.15 894.481 893.062 894.763 895.196 895.089C896.041 895.089 896.93 895.296 897.863 895.459C929.993 899.92 1013.7 910.813 1053.9 909.597Z" fill="#E68145"/>
<path d="M969.279 1115.75L969.086 1116.53L907.124 1361.65L896.75 1402.54L770.439 1402.54C767.666 1402.52 765.01 1401.42 763.029 1399.48C761.704 1398.15 760.76 1396.49 760.294 1394.67C759.829 1392.85 759.86 1390.94 760.383 1389.13C760.906 1387.33 761.904 1385.7 763.27 1384.41C764.638 1383.12 766.325 1382.22 768.156 1381.8L843.857 1361.65L884.938 998.869L892.037 936.225" stroke="#70727A" stroke-width="4.44288" stroke-miterlimit="10"/>
<path d="M774.703 777.713C770.257 777.92 767.767 777.964 767.767 777.964C763.321 778.276 759.009 776.586 754.74 774.289C743.329 767.991 732.392 756.95 721.425 766.227C714.326 772.155 708.472 788.842 696.735 783.403C686.494 778.646 686.895 768.583 688.584 759.365C690.688 747.954 699.921 737.787 710.814 735.965C725.812 733.43 741.225 733.312 756.311 730.689C786.7 725.131 816.441 716.481 845.068 704.872C876.857 692.201 911.536 679.145 935.011 653.121C962.887 622.31 980.597 581.985 990.275 541.882" stroke="#70727A" stroke-width="4.44288" stroke-miterlimit="10"/>
<path d="M931.673 376.186C931.673 376.186 934.444 330.052 977.511 319.248C1020.58 308.444 1046.28 358.477 1048.22 390.592C1050.16 422.706 1048.22 444.862 1070.85 454.97C1070.85 454.97 1136.25 454.169 1160.35 514.25C1160.35 514.25 1163.61 543.697 1162.27 562.652C1160.94 581.606 1184.59 598.22 1197.47 604.059C1210.35 609.898 1232.76 633.699 1226.66 672.572C1220.57 711.444 1169.73 729.569 1169.73 729.569C1169.73 729.569 1126.27 742.433 1100.07 720.959C1072.26 698.181 1080.12 656.522 1080.12 656.522C1080.12 656.522 1095.14 521.037 1067.81 498.778C1052.77 486.521 1045.94 487.633 1035.31 481.171C1024.12 474.369 1020.12 472.279 1016.37 467.492C1009.08 458.111 996.155 443.943 1005.51 410.524C1014.86 377.105 1005.51 393.956 996.614 389.243C996.614 389.243 985.707 372.407 969.242 384.308C952.777 396.208 956.793 367.176 956.793 367.176L949.561 376.898C949.561 376.898 938.253 379.165 931.673 376.186Z" fill="#E68145"/>
<path d="M921.532 392.133C921.132 370.6 929.165 346.414 945.896 332.068C948.168 330.112 950.608 328.361 953.188 326.836C971.268 316.151 996.388 317.115 1014.38 327.503C1023.95 333.187 1031.93 341.188 1037.59 350.771L1037.74 351.038C1044.71 363.046 1048.33 376.707 1048.21 390.592C1048.3 408.643 1048.41 433.14 1060 448.123C1067.32 457.608 1077.05 454.941 1087.77 456.556C1102.28 458.736 1116.04 464.406 1127.87 473.08C1143.85 484.833 1157.16 502.365 1160.83 522.164C1164.37 541.223 1157.45 562.712 1167.72 580.333C1175.25 593.211 1189.57 599.095 1201.69 606.608C1226.02 621.873 1231.03 651.454 1223.33 677.478C1215.29 704.613 1196.41 721.286 1169.72 729.6C1169.72 729.6 1079.53 751.83 1078.42 672.78" stroke="#70727A" stroke-width="4.44288" stroke-miterlimit="10"/>
<path d="M955.527 365.811C954.593 372.154 950.74 378.008 943.878 379.757C936.142 381.728 932.023 389.256 929.859 396.829C926.763 407.94 927.563 419.774 932.126 430.367C936.35 440.326 943.893 451.708 956.639 453.531C979.965 456.85 991.569 447.025 991.569 447.025" stroke="#70727A" stroke-width="4.44288" stroke-miterlimit="10"/>
<path d="M974.958 399.712C977.177 399.712 978.974 397.914 978.974 395.695C978.974 393.477 977.177 391.679 974.958 391.679C972.74 391.679 970.942 393.477 970.942 395.695C970.942 397.914 972.74 399.712 974.958 399.712Z" fill="#70727A"/>
<path d="M939.73 397.071C941.948 397.071 943.746 395.271 943.746 393.054C943.746 390.836 941.948 389.038 939.73 389.038C937.511 389.038 935.713 390.836 935.713 393.054C935.713 395.271 937.511 397.071 939.73 397.071Z" fill="#70727A"/>
<path d="M955.523 365.811C954.64 369.623 954.778 373.599 955.923 377.341C956.1 377.947 956.328 378.537 956.605 379.105C959.391 385.64 965.868 390.857 977.353 390.205C1002.3 388.826 1011.19 387.241 1009.16 398.697C1008.32 402.75 1007.11 406.719 1005.54 410.553C1002.8 417.829 1000.89 430.322 1003.7 443.927C1006.95 459.829 1014.66 476.072 1040.63 485.112" stroke="#70727A" stroke-width="4.44288" stroke-miterlimit="10"/>
<path d="M957.699 396.673C957.699 396.673 953.49 412.056 953.919 414.323C954.349 416.591 959.729 414.827 959.729 414.827" stroke="#70727A" stroke-width="4.44288" stroke-miterlimit="10"/>
<path d="M960.667 428.928C968.714 433.271 978.051 430.529 981.697 423.267" stroke="#70727A" stroke-width="4.44288" stroke-miterlimit="10"/>
<path d="M994.68 411.663C1001.6 404.33 1001.12 392.637 993.613 385.547C986.102 378.456 974.401 378.653 967.479 385.984C960.557 393.317 961.034 405.01 968.546 412.1C976.057 419.191 987.757 418.994 994.68 411.663Z" stroke="#70727A" stroke-width="4.44288" stroke-miterlimit="10"/>
<path d="M947.944 407.368C954.867 400.035 954.389 388.344 946.877 381.252C939.366 374.162 927.666 374.358 920.743 381.691C913.823 389.024 914.3 400.715 921.81 407.807C929.321 414.897 941.022 414.701 947.944 407.368Z" stroke="#70727A" stroke-width="4.44288" stroke-miterlimit="10"/>
<path d="M933.989 381.735C934.389 381.712 934.789 381.712 935.19 381.735C938.61 382.05 941.773 383.686 944.009 386.296C946.244 388.905 947.376 392.28 947.164 395.71C946.975 398.858 945.583 401.811 943.277 403.963C940.972 406.113 937.928 407.298 934.775 407.269C934.375 407.269 933.974 407.269 933.574 407.269C930.157 406.945 926.999 405.306 924.765 402.699C922.53 400.092 921.397 396.721 921.6 393.294C921.789 390.146 923.181 387.191 925.487 385.041C927.793 382.889 930.836 381.705 933.989 381.735ZM933.989 378.993C930.145 378.972 926.437 380.423 923.624 383.045C920.813 385.666 919.107 389.265 918.858 393.102C918.605 397.244 919.972 401.322 922.673 404.474C925.371 407.628 929.19 409.607 933.322 409.996C933.811 409.996 934.3 410.07 934.804 410.07C938.652 410.085 942.358 408.633 945.171 406.008C947.982 403.384 949.687 399.785 949.936 395.947C950.185 391.805 948.815 387.728 946.118 384.576C943.419 381.425 939.602 379.443 935.471 379.052C934.982 379.052 934.493 379.052 933.989 379.052L933.989 378.993Z" fill="#F9F9F9"/>
<path d="M962.614 397.118L952.803 396.214" stroke="#70727A" stroke-width="4.44288" stroke-miterlimit="10"/>
<path d="M980.656 385.629L981.887 385.629C985.411 385.961 988.668 387.648 990.971 390.336C993.274 393.023 994.444 396.501 994.232 400.034C994.02 403.268 992.578 406.299 990.202 408.503C987.826 410.708 984.698 411.92 981.457 411.89C981.042 411.89 980.642 411.89 980.227 411.89C976.702 411.558 973.445 409.87 971.142 407.182C968.839 404.495 967.67 401.018 967.882 397.485C968.091 394.25 969.531 391.216 971.907 389.011C974.284 386.806 977.414 385.595 980.656 385.629ZM980.656 382.888C976.708 382.859 972.901 384.343 970.01 387.031C967.12 389.72 965.367 393.413 965.11 397.352C964.852 401.595 966.254 405.773 969.02 409.003C971.785 412.233 975.698 414.262 979.93 414.662C980.434 414.662 980.923 414.736 981.412 414.736C985.354 414.751 989.154 413.261 992.035 410.57C994.916 407.88 996.661 404.19 996.914 400.257C997.194 396.006 995.8 391.817 993.031 388.581C990.261 385.346 986.336 383.325 982.094 382.947C981.59 382.947 981.101 382.947 980.612 382.947L980.656 382.888Z" fill="#F9F9F9"/>
<path d="M946.02 405.555C951.958 399.264 951.546 389.231 945.101 383.147C938.656 377.062 928.615 377.229 922.677 383.52C916.739 389.812 917.149 399.843 923.594 405.928C930.041 412.013 940.08 411.846 946.02 405.555Z" fill="#E68145"/>
<path d="M992.821 409.877C998.788 403.556 998.376 393.477 991.901 387.364C985.425 381.251 975.338 381.42 969.372 387.74C963.405 394.061 963.817 404.14 970.292 410.253C976.768 416.367 986.855 416.198 992.821 409.877Z" fill="#E68145"/>
<path d="M974.955 503.566L969.501 479.973L963.573 454.527" stroke="#70727A" stroke-width="4.44288" stroke-miterlimit="10"/>
<path d="M1238.2 1297.7L1151.68 1398.85C1149.96 1400.87 1147.55 1402.16 1144.93 1402.48C1142.3 1402.79 1139.65 1402.11 1137.51 1400.55L1135.14 1398.82C1133.15 1397.37 1131.73 1395.27 1131.13 1392.88C1130.52 1390.49 1130.77 1387.97 1131.83 1385.75L1165.83 1315C1165.83 1315 1219.92 1316.56 1219.48 1266.42C1231.73 1291.75 1238.2 1297.7 1238.2 1297.7Z" fill="#18284D"/>
<path d="M1091.99 1233.33L1091.38 1232.72L1068.63 1211.1L1067.54 1210.09L972.511 1119.69L972.511 1119.6L972.377 1119.48L969.161 1116.51L940.277 1089.05C924.458 1073.99 913.813 1054.31 909.867 1032.83L904.635 1004.79L902.975 995.894L892.038 936.362L890.675 928.952L890.675 928.715C889.83 924.358 889.03 919.956 888.259 915.599L887.978 913.999" stroke="#70727A" stroke-width="4.44288" stroke-miterlimit="10"/>
<path d="M884.817 893.641C885.751 900.384 886.803 907.156 887.93 913.9L888.211 915.5C888.982 919.857 889.782 924.259 890.627 928.616L890.627 928.853" stroke="#70727A" stroke-width="4.44288" stroke-linejoin="round"/>
<path d="M972.28 1119.55L972.405 1119.67L972.499 1119.76" stroke="#70727A" stroke-width="4.44288" stroke-linejoin="round"/>
<path d="M1067.52 1210.1L1068.62 1211.11C1076.84 1218.81 1084.42 1226.02 1091.37 1232.73L1091.96 1233.34C1183.09 1321.38 1165.82 1314.99 1165.82 1314.99L1131.81 1385.74C1130.75 1387.97 1130.51 1390.49 1131.11 1392.88C1131.72 1395.27 1133.14 1397.37 1135.13 1398.82L1137.5 1400.55C1139.64 1402.1 1142.29 1402.79 1144.92 1402.47C1147.55 1402.16 1149.96 1400.86 1151.67 1398.85L1238.17 1297.7C1238.17 1297.7 1231.73 1291.77 1219.47 1266.41C1190.02 1205.39 1127.14 1092.77 1040.58 1034.08C1037.36 1031.92 1034.85 1028.85 1033.37 1025.26C1031.89 1021.68 1031.5 1017.73 1032.26 1013.93C1033.92 1005.89 1035.5 997.861 1037.04 989.799C1037.27 988.554 1037.51 987.294 1037.72 986.049C1042.55 960.678 1046.95 935.242 1050.91 909.741" stroke="#70727A" stroke-width="4.44288" stroke-linejoin="round"/>
<path d="M879.149 690.71C880.483 671.444 882.113 654 883.877 638.84C884.114 636.543 884.395 634.275 884.632 632.052C888.248 599.018 906.166 569.2 928.203 545.029C949.988 521.139 977.717 497.916 1009.18 488.506C1019.31 485.312 1029.98 484.159 1040.57 485.112C1047.83 485.986 1054.78 488.612 1060.8 492.766C1066.82 496.92 1071.75 502.478 1075.14 508.957C1079.36 517.242 1082.05 526.217 1083.09 535.455C1083.09 535.574 1083.09 535.692 1083.09 535.826C1084.94 550.646 1083.89 566.192 1084.05 580.908C1084.33 611.615 1081.71 642.263 1078.31 672.792" stroke="#70727A" stroke-width="4.44288" stroke-linejoin="round"/>
<path d="M876.52 767.51L876.52 767.463" stroke="#70727A" stroke-width="4.44288" stroke-linejoin="round"/>
<path d="M756.36 730.617C770.395 747.038 779.138 771.002 773.121 792.431C771.639 797.515 766.275 804.406 761.399 798.137C760.166 796.363 759.34 794.339 758.983 792.209C757.605 786.177 755.797 780.249 754.745 774.129" stroke="#70727A" stroke-width="4.44288" stroke-miterlimit="10"/>
<path d="M767.131 800.567C881.764 770.275 1044.09 760.02 1079.05 600.201C1083.62 578.921 1084.99 557.076 1083.11 535.393" stroke="#70727A" stroke-width="4.44288" stroke-miterlimit="10"/>
<path d="M876.199 774.733C873.931 812.968 861.957 854.761 855.347 875.509C854.83 877.118 854.668 878.82 854.873 880.497C855.079 882.175 855.645 883.787 856.534 885.225C857.423 886.662 858.613 887.89 860.023 888.822C861.432 889.754 863.028 890.369 864.698 890.625C870.108 891.47 876.954 892.478 884.824 893.589L885.757 893.723C886.084 893.723 886.395 893.841 886.765 893.871L887.565 894.004C888.262 894.078 888.944 894.197 889.625 894.286C891.404 894.567 893.256 894.805 895.153 895.086C895.998 895.086 896.887 895.294 897.821 895.457C943.763 901.977 1012.2 910.499 1050.93 909.654C1051.93 909.654 1052.94 909.654 1053.89 909.565L1056.85 909.447L1059.73 909.284C1070.31 908.513 1077.51 906.705 1079.57 903.519C1092.91 883.349 1068.16 767.427 1080.02 656.469" stroke="#70727A" stroke-width="4.44288" stroke-miterlimit="10"/>
<path d="M1184.49 1402.55L99.3257 1402.55" stroke="#70727A" stroke-width="4.44288" stroke-linejoin="round"/>
<path d="M149.617 1062.74C149.617 1062.74 2.67705 1235.08 149.617 1400.76" stroke="#BCBCBC" stroke-width="4.44288" stroke-miterlimit="10"/>
</svg>
