<svg width="187" height="160" viewBox="0 0 187 160" fill="none" xmlns="http://www.w3.org/2000/svg">
<path d="M42.5518 79.9561C43.0329 79.9861 43.487 80.1889 43.8302 80.5275C44.3626 81.0804 55.5462 92.8353 55.7044 93.1478C55.8627 93.4602 51.9553 93.4623 51.5751 93.4623C51.1948 93.4623 42.9875 93.5691 42.7696 93.1478C42.5518 92.7264 42.5518 79.9561 42.5518 79.9561Z" fill="#E68145"/>
<path d="M34.9926 27.5054C34.9926 27.5054 35.1982 26.3544 37.2536 26.7922C39.309 27.23 47.058 29.2382 47.2923 29.2854C47.5266 29.3327 50.2994 29.0532 48.6797 30.8393L29.0072 52.5343C29.0072 52.5343 23.6426 57.0419 26.9641 62.5175L33.8457 70.0897L38.2916 74.7309C38.2916 74.7309 39.3563 74.143 39.161 77.3618C38.9658 80.5806 39.3316 91.8729 39.3316 91.8729C39.3316 91.8729 39.5372 92.8618 38.2854 91.8299C37.0337 90.7981 20.1977 72.6241 20.1977 72.6241L12.2761 63.8906C12.2761 63.8906 9.78901 61.3501 10.9072 56.8631C12.0253 52.3761 17.503 47.4801 17.503 47.4801L34.9926 27.5054Z" fill="#E68145"/>
L180.235<path d="M79.8911 81.5731C76.5533 83.7256 73.3536 86.0852 70.3107 88.6376C65.0858 83.1455 55.3493 72.6321 55.3493 72.6321L47.4318 63.8986C47.4318 63.8986 44.9386 61.356 46.0608 56.869C46.0814 56.7909 46.0999 56.7107 46.1266 56.6265C50.443 62.2748 56.4037 70.9815 69.2481 70.3567L79.8911 81.5731Z" fill="#E68145"/>
<path d="M83.8349 30.8307C82.7455 32.0373 74.1559 41.5066 68.6967 47.5269L64.1748 52.5216C63.4188 53.2057 62.7678 53.9972 62.2427 54.871C58.1606 53.3376 54.0641 51.831 50.0088 50.2401C50.8404 49.2693 51.7286 48.3483 52.6685 47.4817L68.8632 28.9829C69.04 28.9623 69.2085 28.95 69.3853 28.9295C71.8059 28.6908 74.2118 28.319 76.5916 27.8154C77.2843 27.6654 77.9811 27.5092 78.6717 27.3447C81.1382 28.689 77.7262 31.4412 82.4557 29.2768C82.5338 29.2892 82.8668 29.2768 83.2512 29.2953C84.0137 29.3652 84.9202 29.6324 83.8349 30.8307Z" fill="#E68145"/>
<path d="M65.2087 93.458H56.2224H43.524H42.5518" stroke="#CCDDE2" stroke-width="0.978382" stroke-miterlimit="10"/>
<path d="M26.0901 26.5806L7.87495 47.3917L3.30163 52.6187C1.78962 54.3465 0.970105 56.5725 1.00083 58.8684C1.03158 61.1641 1.9104 63.3673 3.46812 65.054L26.9904 90.4775C27.8615 91.4169 28.9167 92.1663 30.0906 92.6791C31.2644 93.1919 32.5314 93.4571 33.8123 93.4579H39.1565" stroke="#CCDDE2" stroke-width="0.978382" stroke-miterlimit="10"/>
<path d="M35.8533 26.5146L13.0134 52.6185C11.5015 54.3469 10.6823 56.5738 10.7138 58.8699C10.7453 61.1662 11.6252 63.3696 13.184 65.0559L36.7022 90.4774C37.413 91.241 38.2466 91.8802 39.1687 92.3684" stroke="#CCDDE2" stroke-width="0.978382" stroke-miterlimit="10"/>
<path d="M39.1609 75.6389L28.2425 64.2519C26.8494 62.8277 26.0564 60.9229 26.0272 58.9308C25.9982 56.9387 26.7353 55.0115 28.0863 53.5472L49.6683 29.7495" stroke="#CCDDE2" stroke-width="0.978382" stroke-miterlimit="10"/>
<path d="M42.5518 93.4049C42.8747 93.4392 43.1992 93.4571 43.524 93.4583H56.2224L42.5518 79.1875" stroke="#CCDDE2" stroke-width="0.978382" stroke-miterlimit="10"/>
<path d="M69.1221 70.3306L69.1488 70.3634L79.8904 81.5737" stroke="#CCDDE2" stroke-width="0.978382" stroke-miterlimit="10"/>
<path d="M69.371 28.9404L50.1055 50.2942" stroke="#CCDDE2" stroke-width="0.978382" stroke-miterlimit="10"/>
<path d="M46.0424 56.5098C45.672 58.0034 45.6788 59.566 46.0623 61.0564C46.4459 62.547 47.194 63.9185 48.2396 65.048L70.1669 88.7553" stroke="#CCDDE2" stroke-width="0.978382" stroke-miterlimit="10"/>
<path d="M62.0723 55.0152C62.1052 54.9638 62.1319 54.9124 62.1709 54.859C62.4459 54.3876 62.7719 53.9478 63.1431 53.5476L68.6722 47.443L68.7257 47.3916" stroke="#CCDDE2" stroke-width="0.978382" stroke-miterlimit="10"/>
<path d="M7.875 47.3922C7.875 47.3922 9.73927 29.5614 26.0902 26.581C30.682 25.7465 35.4115 26.2419 39.9047 27.3826C43.5901 28.3158 47.2343 29.5799 51.0574 29.808C55.1271 30.0506 59.2544 29.658 63.318 29.4175C65.1514 29.3065 67.0034 29.177 68.8492 28.9941C69.0259 28.9735 69.1945 28.9612 69.3712 28.9407C71.7919 28.702 74.1978 28.33 76.5776 27.8266C77.2702 27.6766 77.967 27.5204 78.6576 27.3559C79.005 27.284 79.3503 27.1997 79.6956 27.1216" stroke="#CCDDE2" stroke-width="0.978382" stroke-miterlimit="10"/>
<path d="M138.049 145.785C147.348 137.713 153.023 124.293 155.045 112.183" stroke="#CCDDE2" stroke-width="0.978382" stroke-miterlimit="10"/>
<path d="M89.5039 24.2249C93.2489 23.1972 98.3155 21.4789 105.086 18.6362C125.135 10.209 132.269 18.2827 132.269 18.2827C133.442 19.3225 134.439 20.5455 135.221 21.9043C135.317 22.0667 135.41 22.2353 135.494 22.3997C142.316 35.1885 130.15 49.0997 135.128 62.0694C137.952 69.4525 144.963 74.1738 148.466 81.2054C150.329 84.9814 151.673 88.9913 152.464 93.1268" stroke="#CCDDE2" stroke-width="0.978382" stroke-miterlimit="10"/>
<path d="M79.422 23.7954C79.4016 23.7964 79.3815 23.8006 79.3623 23.8078" stroke="#CCDDE2" stroke-width="0.978382" stroke-miterlimit="10"/>
<path d="M123.841 70.3896C122.047 95.0342 97.1024 95.0547 96.6831 94.7813C96.6831 94.7813 98.2986 96.475 88.4716 88.6459C78.6447 80.8168 74.6099 69.1934 74.6099 69.1934C70.4744 71.1173 62.8693 70.1245 62.8693 70.1245C57.9568 68.6446 53.8439 65.5409 50.7012 62.3858C55.0361 57.0643 54.1954 52.9946 53.8686 51.9628C57.9918 53.6441 62.7069 55.4241 64.6328 55.6317C68.3675 56.0325 68.0305 50.7295 68.0305 50.7295C71.3767 30.35 83.1974 29.3161 83.1974 29.3161C96.0027 27.8362 103.425 33.3571 109.606 47.1983C115.786 61.0395 123.841 70.3896 123.841 70.3896Z" fill="#2E2E2E"/>
<path d="M99.9516 149.018H77.4633C77.023 148.789 76.6723 148.419 76.4676 147.967C76.2629 147.516 76.216 147.008 76.3346 146.526C76.4532 146.045 76.7303 145.617 77.1214 145.311C77.5126 145.006 77.9948 144.841 78.491 144.843H83.9481C83.9481 144.843 83.7302 144.685 83.3315 144.379H96.1244C98.0175 146.708 99.4255 148.389 99.9516 149.018Z" fill="#E68145"/>
<path d="M181.293 114.256 126.087C180.224 126.161 180.212 126.231 180.202 126.311C179.908 128.671 178.621 128.698 178.621 128.698L179.776 131.207L179.68 132.274V138.496C179.68 138.946 179.81 139.387 180.055 139.764C180.3 140.142 180.649 140.44 181.06 140.624C181.472 140.807 181.927 140.868 182.372 140.798C182.816 140.728 183.231 140.531 183.566 140.231C183.996 139.85 184.267 139.322 184.327 138.751C184.818 134.167 185.955 123.609 185.955 123.609C186.401 121.385 182.483 115.596 181.293 114.256Z" fill="#E68145"/>
<path d="M101.857 97.7561C90.2929 107.417 75.8803 109.332 77.3273 115.758C78.8154 122.335 89.9743 136.785 96.1303 144.375C98.009 146.71 99.419 148.387 99.9534 149.006C100.089 149.183 100.159 149.267 100.159 149.267H78.4907C78.1281 149.269 77.7711 149.179 77.4527 149.006C77.0175 148.774 76.6722 148.404 76.4718 147.954C76.2714 147.503 76.2274 146.999 76.3469 146.521C76.4661 146.042 76.7419 145.618 77.1304 145.314C77.5189 145.011 77.9978 144.846 78.4907 144.846H83.9499L83.3332 144.375C79.1648 141.173 55.1739 121.985 57.5973 106.901C58.6661 100.221 64.15 93.8549 70.308 88.6383C73.3509 86.0858 76.5505 83.7262 79.8884 81.5738C80.3118 81.3004 80.7229 81.0332 81.1216 80.7783" stroke="black" stroke-width="0.978382" stroke-miterlimit="10"/>
<path d="M42.5497 53.6856V149.493C42.5497 149.943 42.371 150.374 42.0531 150.692C41.7349 151.01 41.3037 151.189 40.8539 151.189C40.4042 151.189 39.973 151.01 39.6548 150.692C39.3368 150.374 39.1582 149.943 39.1582 149.493V53.6856C39.159 53.3503 39.2591 53.0229 39.4458 52.7446C39.6324 52.4663 39.8971 52.2493 40.2069 52.1212C40.5166 51.9929 40.8572 51.9594 41.1861 52.0246C41.5147 52.0898 41.8169 52.2507 42.0543 52.4873C42.2124 52.6439 42.3377 52.8307 42.4228 53.0365C42.5079 53.2422 42.5509 53.463 42.5497 53.6856Z" stroke="black" stroke-width="0.978382" stroke-miterlimit="10"/>
<path d="M50.8801 149.268C50.8811 151.18 50.3356 153.052 49.3083 154.664C48.2808 156.275 46.8141 157.56 45.0809 158.366C43.3476 159.172 41.4202 159.466 39.5255 159.213C37.6309 158.961 35.8478 158.172 34.3866 156.939C32.9254 155.707 31.8467 154.083 31.2777 152.258C30.7088 150.433 30.6732 148.484 31.1754 146.639C31.6775 144.795 32.6962 143.132 34.1116 141.848C35.5269 140.563 37.28 139.709 39.1642 139.388V149.492C39.1642 149.942 39.3428 150.373 39.6608 150.691C39.979 151.009 40.4102 151.188 40.8599 151.188C41.3097 151.188 41.7409 151.009 42.0591 150.691C42.377 150.373 42.5556 149.942 42.5556 149.492V139.388C44.8859 139.788 46.9995 140.999 48.523 142.807C50.0462 144.615 50.8811 146.904 50.8801 149.268Z" stroke="black" stroke-width="0.978382" stroke-miterlimit="10"/>
<path d="M125.544 159.297C131.083 159.297 135.572 154.807 135.572 149.269C135.572 143.73 131.083 139.24 125.544 139.24C120.005 139.24 115.516 143.73 115.516 149.269C115.516 154.807 120.005 159.297 125.544 159.297Z" stroke="black" stroke-width="0.978382" stroke-miterlimit="10"/>
<path d="M92.8374 44.6128C91.337 54.7152 84.9138 66.5072 74.6593 69.5204C73.8934 69.7459 73.1134 69.9204 72.3243 70.0425C71.3028 70.2014 70.2736 70.3064 69.2412 70.357C56.4051 70.9736 50.4382 62.2751 46.1197 56.6267C44.1897 54.0842 42.5844 52.1665 40.8496 51.9897" stroke="black" stroke-width="0.978382" stroke-miterlimit="10"/>
<path d="M39.1604 53.6851V54.4415C39.1682 54.9782 38.9919 55.5015 38.661 55.9241C38.33 56.3467 37.8643 56.6431 37.3414 56.7641C37.0041 56.8369 36.6549 56.8332 36.3194 56.7534C35.9838 56.6735 35.6703 56.5195 35.4021 56.3027C35.1336 56.0858 34.9174 55.8116 34.7688 55.5002C34.6204 55.1888 34.5435 54.8483 34.5439 54.5031V53.9235C34.5439 51.8229 35.4627 49.6955 37.1132 48.3739C40.0874 45.9814 44.0708 47.8724 47.1108 49.0974C48.0707 49.49 49.0285 49.8682 49.9884 50.2464C54.0438 51.8373 58.1402 53.3439 62.2223 54.8772L63.7289 55.4445C64.1338 55.6012 64.5688 55.6643 65.0014 55.6289C65.4341 55.5935 65.8532 55.4608 66.2273 55.2406C66.6014 55.0203 66.9208 54.7184 67.1617 54.357C67.4024 53.9959 67.5584 53.5848 67.6178 53.1548C67.8788 51.3625 68.218 49.455 68.6804 47.5332C70.6043 39.4842 74.5898 31.0898 83.1794 29.316L83.2308 29.3037C93.9786 27.1311 103.958 34.2428 108.089 43.8108C111.663 52.1004 116.027 60.1103 121.466 67.3352C131.576 80.7653 140.1 86.3931 154.41 94.2078C164.362 99.6464 174.296 106.335 181.893 114.869C183.087 116.213 186.415 121.385 185.957 123.609C185.957 123.609 184.822 134.167 184.333 138.753C184.272 139.349 183.983 139.898 183.528 140.287C183.072 140.676 182.485 140.874 181.887 140.841C181.289 140.809 180.727 140.547 180.316 140.111C179.906 139.674 179.679 139.097 179.684 138.498V132.276C179.685 131.846 179.634 131.416 179.534 130.998C178.489 126.223 171.928 121.697 168.504 119.395C161.697 114.829 154.209 111.368 146.32 109.142C139.969 107.342 133.609 106.97 127.153 105.961C126.716 105.895 126.279 105.826 125.842 105.755C117.591 104.316 109.347 101.665 101.859 97.7657C93.773 93.5583 86.5585 87.8997 81.1322 80.7879C78.4901 77.336 76.3145 73.551 74.6617 69.5304" stroke="black" stroke-width="0.978382" stroke-miterlimit="10"/>
<path d="M50.8818 149.269H94.3684H115.564" stroke="black" stroke-width="0.978382" stroke-miterlimit="10"/>
<path d="M125.593 151.184C126.529 151.184 127.287 150.426 127.287 149.491C127.287 148.555 126.529 147.797 125.593 147.797C124.658 147.797 123.899 148.555 123.899 149.491C123.899 150.426 124.658 151.184 125.593 151.184Z" stroke="black" stroke-width="0.978382" stroke-miterlimit="10"/>
<path d="M135.573 149.268H138.524C138.524 145.826 137.157 142.525 134.723 140.091C132.289 137.657 128.988 136.29 125.546 136.29C122.104 136.29 118.803 137.657 116.369 140.091C113.936 142.525 112.568 145.826 112.568 149.268" stroke="black" stroke-width="0.978382" stroke-miterlimit="10"/>
<path d="M27.875 149.269C27.8738 146.12 29.018 143.078 31.0944 140.711C33.1706 138.344 36.0373 136.813 39.1593 136.404" stroke="black" stroke-width="0.978382" stroke-miterlimit="10"/>
<path d="M42.5498 136.404C45.6706 136.814 48.5354 138.346 50.6102 140.713C52.6849 143.08 53.8279 146.121 53.8259 149.269H50.8804" stroke="black" stroke-width="0.978382" stroke-miterlimit="10"/>
<path d="M71.075 8.04476C71.9074 8.91009 73.264 9.0437 74.3965 9.01081C75.8353 8.97176 77.2905 8.71894 78.7129 8.51751L79.57 8.52984H79.5823C79.747 8.54073 79.9077 8.58369 80.0557 8.65666C80.2037 8.72963 80.3357 8.83117 80.4444 8.95531C80.5529 9.07946 80.6362 9.22375 80.6888 9.37996C80.7416 9.53618 80.763 9.70143 80.7519 9.86587C80.6499 11.7129 80.3445 13.543 79.8413 15.323L81.422 16.3199C81.6727 15.7403 81.4898 14.8811 81.9975 14.8441C82.3592 14.2645 82.8649 13.9048 83.5863 14.4022C85.0004 15.3744 85.4115 17.9807 83.9152 19.0639L84.7127 20.8254C85.2861 22.0998 87.6622 22.7061 89.0188 22.3916C88.5502 21.1358 87.245 20.3568 87.245 20.3568C89.3991 20.8871 91.103 18.2684 90.548 16.5624C90.1719 15.3929 90.2521 14.507 90.9345 13.4382C90.9797 13.3663 90.5748 13.2326 90.6159 13.1628C90.6899 12.3529 90.5213 11.465 90.1575 11.0231C89.5183 10.2358 88.1391 10.0077 88.4967 8.90393C88.6546 8.42234 88.7345 7.91856 88.7331 7.41169C88.7023 6.74676 88.5294 6.09622 88.2258 5.50364C87.9222 4.91126 87.4953 4.39063 86.9737 3.97708C85.8761 3.15491 84.5462 3.74481 83.3212 3.6441C81.833 3.53105 80.8547 2.2053 79.2905 2.07581C78.5135 2.01209 77.8681 2.28135 77.1816 2.60611C76.604 2.8877 76.0347 3.18779 75.4777 3.51461C74.9206 3.84142 74.4294 4.13123 73.7943 4.08396C72.9721 4.04079 72.2013 3.46733 71.3524 3.65232C70.9268 3.73947 70.543 3.96762 70.2631 4.29978C69.8951 5.57208 70.2692 7.2082 71.075 8.04476Z" fill="#E68145"/>
<path d="M81.4307 16.1393C81.4656 16.0406 81.5006 15.946 81.5417 15.8392V15.8268C81.6564 15.4889 81.8043 15.1631 81.9836 14.8546C82.3494 14.275 82.851 13.9153 83.5765 14.4106C84.9927 15.3849 85.3997 17.9912 83.9075 19.0785L84.7029 20.8359C84.7315 20.9013 84.7652 20.9646 84.8036 21.025C85.2455 21.7917 86.2075 22.3405 87.2989 22.398H87.3174C87.7114 22.4171 88.1059 22.3713 88.4849 22.2624" stroke="black" stroke-width="0.978382" stroke-linecap="round" stroke-linejoin="round"/>
<path d="M72.7363 11.9846C72.7363 11.9846 75.5091 11.4872 76.5635 13.6289" stroke="black" stroke-width="0.978382" stroke-miterlimit="10"/>
<path d="M73.1219 18.2109C72.3717 18.363 71.3707 18.4801 70.8486 17.7998L72.2545 15.2798C72.5968 14.6624 72.7184 13.9469 72.5999 13.2511C72.4066 12.0816 71.8476 10.2852 72.6697 8.81348" stroke="black" stroke-width="0.978382" stroke-miterlimit="10"/>
<path d="M75.1932 14.8532C75.4228 14.5235 75.2949 14.0372 74.9075 13.7673C74.5198 13.4974 74.0195 13.5459 73.79 13.8756C73.5602 14.2055 73.6882 14.6916 74.0757 14.9615C74.4631 15.2314 74.9634 15.1829 75.1932 14.8532Z" fill="black"/>
<path d="M79.5873 30.55L79.4229 23.6992" stroke="black" stroke-width="0.978382" stroke-miterlimit="10"/>
<path d="M81.4121 16.3259C81.4121 16.2622 81.4265 16.1985 81.4306 16.1347C81.4347 16.071 81.4491 16.0011 81.4512 15.9292" stroke="black" stroke-width="0.978382" stroke-linecap="round" stroke-linejoin="round"/>
<path d="M81.4117 16.3255L80.869 15.9863L79.8311 15.3286" stroke="black" stroke-width="0.978382" stroke-linecap="round" stroke-linejoin="round"/>
<path d="M76.7299 18.6367C76.7299 18.6367 76.5552 20.4517 74.4258 21.0642" stroke="black" stroke-width="0.978382" stroke-miterlimit="10"/>
<path d="M87.2341 20.3628C89.3882 20.8931 91.0922 18.2745 90.5372 16.5685C90.1611 15.3989 90.2412 14.513 90.9236 13.4442C90.9688 13.3723 91.0079 13.3003 91.0469 13.2387C91.3 12.7951 91.4138 12.286 91.3738 11.7768C91.3339 11.2677 91.1419 10.7824 90.8229 10.3837C90.2063 9.54096 89.2156 9.19359 89.5896 8.05078C89.7543 7.55501 89.8375 7.03581 89.8363 6.51332C89.8044 5.82784 89.6258 5.15694 89.3124 4.54628C88.9989 3.93561 88.558 3.39935 88.0193 2.97388C86.8909 2.11266 85.5158 2.73545 84.2476 2.63268C82.7204 2.50935 81.7009 1.13427 80.0977 1.00889C79.2981 0.947231 78.6281 1.21444 77.921 1.55564C77.3249 1.84956 76.735 2.15993 76.1677 2.49496C75.6004 2.83 75.0804 3.12392 74.4268 3.08282C73.5717 3.03349 72.7824 2.44152 71.913 2.63679C71.0436 2.83205 70.4886 3.49801 70.2687 4.30579C69.911 5.57193 70.2851 7.20805 71.0908 8.04461C71.8966 8.88117 73.2799 9.04354 74.4124 9.01066C75.8512 8.9716 77.3064 8.71879 78.7288 8.51736L79.5859 8.52969H79.5982C79.9277 8.55559 80.2338 8.71036 80.4496 8.9605C80.6656 9.21086 80.7739 9.53603 80.7513 9.86572C80.6494 11.7127 80.3439 13.5429 79.8408 15.3229" stroke="black" stroke-width="0.978382" stroke-miterlimit="10"/>
<path d="M81.3691 21.9798C81.3691 21.9798 77.8338 26.0907 75.0096 24.9253C72.1855 23.7598 72.391 18.4116 72.391 18.4116" stroke="black" stroke-width="0.978382" stroke-linecap="round" stroke-linejoin="round"/>
<path d="M50.5143 62.2095L50.6911 62.3862C50.578 62.5342 50.4547 62.6802 50.3252 62.8282L50.5143 62.2095Z" fill="#2E2E2E"/>
<path d="M53.8521 51.9629L53.7041 51.9033L53.7637 51.6978C53.7995 51.7839 53.8291 51.8725 53.8521 51.9629Z" fill="#2E2E2E"/>
<path d="M40.8525 159.295H156.034" stroke="black" stroke-width="0.978382" stroke-miterlimit="10"/>
<path d="M87.5205 20.4141L92.4021 29.7683" stroke="black" stroke-width="0.978382" stroke-linecap="round" stroke-linejoin="round"/>
<path d="M146.034 86.4487C146.034 86.4487 165.269 94.7218 169.135 99.8398" stroke="black" stroke-width="0.978382" stroke-miterlimit="10"/>
<path d="M142.559 149.008H150.819" stroke="black" stroke-width="0.978382" stroke-miterlimit="10"/>
<path d="M146.688 146.694H159.081" stroke="black" stroke-width="0.978382" stroke-miterlimit="10"/>
<path d="M122.995 42.383C130.574 42.383 136.717 36.2393 136.717 28.661C136.717 21.0824 130.574 14.939 122.995 14.939C115.417 14.939 109.273 21.0824 109.273 28.661C109.273 36.2393 115.417 42.383 122.995 42.383Z" stroke="#CCDDE2" stroke-width="0.978382" stroke-miterlimit="10"/>
<path d="M122.995 36.1975C127.158 36.1975 130.532 32.8229 130.532 28.6603C130.532 24.4974 127.158 21.123 122.995 21.123C118.833 21.123 115.458 24.4974 115.458 28.6603C115.458 32.8229 118.833 36.1975 122.995 36.1975Z" stroke="#CCDDE2" stroke-width="0.978382" stroke-miterlimit="10"/>
<path d="M122.995 29.9529C123.709 29.9529 124.288 29.3741 124.288 28.66C124.288 27.9462 123.709 27.3672 122.995 27.3672C122.281 27.3672 121.702 27.9462 121.702 28.66C121.702 29.3741 122.281 29.9529 122.995 29.9529Z" stroke="#CCDDE2" stroke-width="0.978382" stroke-miterlimit="10"/>
<path d="M125.669 24.3462L123.675 27.5609" stroke="#CCDDE2" stroke-width="0.978382" stroke-miterlimit="10"/>
<path d="M122.995 21.123V22.4632" stroke="#CCDDE2" stroke-width="0.978382" stroke-miterlimit="10"/>
<path d="M130.533 28.6611H129.263" stroke="#CCDDE2" stroke-width="0.978382" stroke-miterlimit="10"/>
<path d="M122.995 36.1982V34.895" stroke="#CCDDE2" stroke-width="0.978382" stroke-miterlimit="10"/>
<path d="M115.458 28.6611H116.603" stroke="#CCDDE2" stroke-width="0.978382" stroke-miterlimit="10"/>
</svg>
