<svg width="1483" height="1482" viewBox="0 0 1483 1482" fill="none" xmlns="http://www.w3.org/2000/svg">
<path d="M689.013 1383.48C689.013 1383.48 679.395 1368.78 679.395 1335.66C679.395 1302.54 694.318 1287.85 694.318 1287.85C678.135 1335.09 711.509 1383.51 711.509 1383.51C712.517 1381.7 722.135 1368.04 723.143 1343.76C723.143 1343.76 732.243 1364.6 724.625 1383.51" stroke="#BCBCBC" stroke-width="4.38284" stroke-linejoin="round"/>
<path d="M900.77 1383.49C900.77 1383.49 906.698 1374.45 906.698 1354.09C906.698 1333.72 897.451 1324.67 897.451 1324.67C907.41 1353.72 886.884 1383.49 886.884 1383.49C886.261 1382.38 880.348 1373.98 879.726 1359.05C879.726 1359.05 874.139 1371.86 878.807 1383.49" stroke="#BCBCBC" stroke-width="4.38284" stroke-linejoin="round"/>
<path d="M1182.21 1169.85L1240.62 1225.84L1240.62 844.273" stroke="#BCBCBC" stroke-width="4.38284" stroke-miterlimit="10"/>
<path d="M1240.61 1171.72L1311.33 1109.58" stroke="#BCBCBC" stroke-width="4.38284" stroke-miterlimit="10"/>
<path d="M1240.61 1016.95L1192.4 962.973" stroke="#BCBCBC" stroke-width="4.38284" stroke-miterlimit="10"/>
<path d="M1240.61 968.374L1275.97 947.078" stroke="#BCBCBC" stroke-width="4.38284" stroke-miterlimit="10"/>
<path d="M1240.62 866.4C1240.62 859.924 1216.52 814.219 1216.52 814.219" stroke="#BCBCBC" stroke-width="4.38284" stroke-miterlimit="10"/>
<path d="M1170.12 925.394C1181.64 917.391 1191.51 907.938 1195.63 890.984C1202.6 862.307 1193.82 831.465 1195.88 802.285C1197.36 782.618 1205.41 757.825 1218.11 742.664C1234.41 723.146 1255.16 737.314 1265.91 755.72C1284.24 786.931 1276.01 825.256 1275.91 859.549C1275.91 886.062 1283.94 908.929 1305.42 925.128C1324.68 939.696 1347.15 952.828 1355.15 977.132C1363.85 1003.65 1320.74 996.724 1308.47 1007.41C1286.36 1026.68 1331.63 1071.33 1344.26 1084.09C1375.86 1116.11 1436.89 1174.07 1393.91 1226.8C1367.02 1259.85 1340.56 1252.63 1311.3 1253.82L1295.58 1253.61C1291.33 1253.56 1287.12 1254.34 1283.18 1255.92C1279.25 1257.51 1275.66 1259.85 1272.64 1262.84C1269.62 1265.81 1267.22 1269.37 1265.59 1273.28C1263.95 1277.19 1263.11 1281.4 1263.11 1285.64L1262.42 1388.04" stroke="#BCBCBC" stroke-width="4.38284" stroke-miterlimit="10"/>
<path d="M1127.15 961.225C1124.01 966.186 1121.52 971.53 1119.74 977.126C1116.35 987.5 1120.2 992.539 1127.15 995.563C1152.76 1006.83 1220.25 989.22 1112.14 1103.63C1109.65 1106.24 1107.34 1108.76 1105.1 1111.28C1103.62 1112.86 1102.3 1114.42 1100.92 1115.98" stroke="#BCBCBC" stroke-width="4.38284" stroke-miterlimit="10"/>
<path d="M159.559 1381.62C153.261 1380.36 147.066 1378.85 141.049 1377.08C116.27 1369.84 87.4598 1357.48 77.6193 1331.5C75.1429 1324.78 74.3611 1317.55 75.3434 1310.45C76.3256 1303.36 79.0416 1296.61 83.2509 1290.82C87.697 1284.62 93.958 1279.96 101.168 1277.48C116.833 1272.52 134.217 1280.44 145.791 1292.08C157.366 1303.71 164.894 1318.75 173.949 1332.52C165.724 1314.07 157.366 1295.12 156.165 1274.95C155.276 1259.24 159.559 1242.19 170.392 1230.4C180.366 1219.52 203.678 1211.01 217.416 1219C226.486 1224.28 230.087 1235.46 231.658 1245.84C235.912 1274.19 230.443 1302.98 224.989 1331.13C228.65 1316.09 232.577 1300.9 240.046 1287.32C247.516 1273.75 258.942 1261.76 273.599 1256.73C283.854 1253.22 296.051 1253.59 304.647 1260.21C312.665 1266.39 316.251 1276.83 317.348 1286.89C319.185 1303.76 315.214 1320.87 308.456 1336.4C283.01 1394.39 212.318 1392.2 159.559 1381.62Z" stroke="#BCBCBC" stroke-width="4.38284" stroke-miterlimit="10"/>
<path d="M217.053 1352.93C217.053 1352.93 256.341 1363.84 270.212 1309.24" stroke="#BCBCBC" stroke-width="4.38284" stroke-miterlimit="10"/>
<path d="M199.57 1259.7C188.648 1284.46 199.57 1358.74 199.57 1358.74" stroke="#BCBCBC" stroke-width="4.38284" stroke-miterlimit="10"/>
<path d="M163.162 1351.24C161.531 1350.95 145.778 1348.75 132.336 1342.58C121.962 1337.79 112.922 1330.64 112.922 1320.16" stroke="#BCBCBC" stroke-width="4.38284" stroke-miterlimit="10"/>
<path d="M135.496 1320.16C135.496 1320.16 120.128 1338.06 132.34 1342.58" stroke="#BCBCBC" stroke-width="4.38284" stroke-miterlimit="10"/>
<path d="M125.321 1358.89C127.5 1355.93 138.882 1361.94 146.306 1347.6" stroke="#BCBCBC" stroke-width="4.38284" stroke-miterlimit="10"/>
<path d="M194.73 1292.48C190.847 1289.51 180.651 1292.48 179.184 1269.18" stroke="#BCBCBC" stroke-width="4.38284" stroke-miterlimit="10"/>
<path d="M196.452 1314.34C196.452 1314.34 213.451 1308.2 213.451 1294.88" stroke="#BCBCBC" stroke-width="4.38284" stroke-miterlimit="10"/>
<path d="M232.948 1353.24C232.948 1353.24 241.84 1330.35 245.456 1320.16" stroke="#BCBCBC" stroke-width="4.38284" stroke-miterlimit="10"/>
<path d="M260.483 1331.36C260.483 1331.36 270.22 1339.08 281.869 1326.71" stroke="#BCBCBC" stroke-width="4.38284" stroke-miterlimit="10"/>
<path d="M260.482 1320.16C260.482 1320.16 254.258 1317.49 257.103 1301.68" stroke="#BCBCBC" stroke-width="4.38284" stroke-miterlimit="10"/>
<path d="M635.495 1160.84L635.495 1243.66L375.167 1243.66C382.95 1212.76 400.825 1185.35 425.957 1165.77C451.088 1146.19 482.037 1135.55 513.897 1135.56L610.227 1135.56C616.93 1135.56 623.358 1138.23 628.095 1142.97C632.833 1147.71 635.495 1154.14 635.495 1160.84Z" fill="#EDEDED"/>
<path d="M699.285 1013.02C699.285 1013.02 703.301 1012.07 704.635 1026.36C705.969 1040.64 716.491 1072.3 699.285 1071.63C682.079 1070.96 475.073 1071.26 475.073 1071.26C475.073 1071.26 443.151 1080.45 439.283 1055.2C435.415 1029.94 437.134 997.028 470.761 986.239C470.761 986.239 517.859 1008.34 567.476 1010.57C617.093 1012.81 699.285 1013.02 699.285 1013.02Z" fill="#18284D"/>
<path d="M1100.48 1138.18C1100.48 1138.18 1089.41 1130.53 1063.12 1140.52C1036.83 1150.51 987.361 1162.88 961.93 1243.07L635.608 1243.07L635.608 1160.23C635.604 1153.52 632.938 1147.09 628.194 1142.35C623.45 1137.61 617.018 1134.95 610.31 1134.95L496.878 1134.95C467.604 1134.93 439.033 1143.91 415.02 1160.65C391.009 1177.4 372.715 1201.11 362.609 1228.58L358.934 1228.58L358.934 1208.68C359.111 1206.59 359.363 1204.53 359.615 1202.51C368.789 1132.5 429.995 1080.99 500.583 1080.99L682.069 1080.99L682.069 1164.45C682.069 1172.39 684.812 1180.08 689.833 1186.23C694.853 1192.38 701.843 1196.6 709.619 1198.18C711.856 1198.61 714.129 1198.83 716.407 1198.82L830.965 1198.82C858.356 1198.9 885.3 1191.88 909.171 1178.44C961.041 1149.19 1014.97 1090.18 1016.26 959.315L1016.26 917.819L1017.56 916.959C1017.56 916.959 1023.66 889.972 1051.95 896.063C1055.8 898.51 1059.24 901.539 1062.16 905.044C1067.45 911.476 1071.97 921.035 1067.12 932.787C1067.12 932.787 1057.36 951.297 1035.1 948.378C1034.68 949.775 1034.39 951.21 1034.24 952.661C1034.05 954.45 1034.05 956.252 1034.24 958.04C1035.02 964.354 1038.99 971.378 1052.91 971.201L1053.74 971.201C1079.9 970.415 1099.84 947.726 1100.24 926.014C1100.57 907.934 1091.19 887.482 1065 870.425C1064.96 870.433 1064.92 870.433 1064.88 870.425C1061.83 868.394 1058.68 866.52 1055.44 864.808C1052.78 863.326 1049.99 861.948 1047.04 860.584C1042.03 859.596 1037.24 857.675 1032.93 854.923L1116.62 854.923C1119.18 854.923 1121.64 855.941 1123.45 857.754C1125.27 859.565 1126.28 862.023 1126.28 864.586L1126.28 994.261C1126.29 995.531 1126.04 996.789 1125.55 997.963C1125.07 999.136 1124.36 1000.2 1123.46 1001.1C1122.56 1002 1121.5 1002.72 1120.32 1003.2C1119.15 1003.69 1117.89 1003.94 1116.62 1003.94C1114.39 1003.92 1112.18 1004.35 1110.12 1005.2C1108.05 1006.05 1106.18 1007.3 1104.6 1008.87C1103.03 1010.45 1101.78 1012.32 1100.93 1014.39C1100.08 1016.45 1099.65 1018.66 1099.67 1020.89L1099.67 1089.06C1099.63 1100.31 1103.17 1111.27 1109.78 1120.37C1116.39 1129.46 1125.72 1136.22 1136.42 1139.66C1136.97 1139.84 1137.5 1140.02 1138.05 1140.16C1162.37 1146.93 1184.47 1160.02 1202.09 1178.1C1219.72 1196.17 1232.24 1218.59 1238.4 1243.07L982.47 1243.07C984.664 1234.86 1010.17 1147.22 1100.48 1138.18Z" fill="#EDEDED"/>
<path d="M522.01 1004.52C509.518 1002.05 497.28 998.438 485.449 993.727L522.01 1004.52Z" fill="#18284D"/>
<path d="M408.564 910.829C387.104 906.502 359.539 902.5 346.557 882.552C344.719 879.766 342.407 876.447 341.903 873.097C341.834 872.706 341.799 872.309 341.799 871.912C341.577 865.228 349.55 865.658 354.663 866.458C366.86 868.34 378.909 871.008 390.883 873.868C394.459 874.698 398.007 875.553 401.524 876.432C402.507 888.135 404.869 899.681 408.564 910.829Z" fill="#70727A"/>
<path d="M1010.92 901.626C1001.33 927.531 981.847 927.635 981.535 927.635C939.936 917.617 934.304 916.49 902.752 904.545C805.83 867.836 751.825 824.147 723.075 788.253C697.718 813.862 690.574 826.311 682.32 852.927C681.829 854.578 681.235 856.197 680.541 857.773C680.541 857.773 680.541 857.951 680.438 858.025L678.748 861.597C678.735 861.647 678.71 861.692 678.674 861.73C673.472 871.689 657.852 885.042 647.908 889.755L466.066 888.421L390.899 873.853C378.91 871.008 366.876 868.34 354.679 866.443C351.033 865.865 345.906 865.509 343.386 867.777C342.811 868.285 342.367 868.926 342.09 869.643C341.814 870.36 341.715 871.132 341.801 871.897C341.801 863.198 346.321 857.24 351.582 850.941C357.169 844.154 362.8 837.366 368.388 830.623C399.806 793.143 430.469 755.041 461.961 717.65C469.712 708.447 477.611 699.437 486.058 690.885C515.595 660.875 549.784 634.569 587.205 615.022C647.834 583.529 694.872 572.044 733.034 574.593L733.508 574.593C736.724 574.845 739.851 575.171 742.963 575.571L744.267 575.749C773.522 579.898 797.397 592.629 818.367 610.709C820.867 613.602 823.099 616.717 825.036 620.016C833.617 634.555 839.501 650.101 845.518 665.78C874.387 741.362 927.027 808.304 1002.94 840.227L1003.19 845.932L1003.19 847.77C1003.19 847.34 1003.19 846.762 1003.19 845.932C1003.19 844.598 1003.08 842.746 1002.98 840.227C1002.98 839.975 1002.98 839.723 1002.98 839.471L1008.58 842.435L1014.64 845.725C1014.63 845.833 1014.63 845.943 1014.64 846.051C1016.3 870.03 1015.33 889.696 1010.92 901.626Z" fill="#18284D"/>
<path d="M196.417 1385.03L1170.25 1385.03" stroke="#70727A" stroke-width="4.38284" stroke-miterlimit="10"/>
<path d="M682.855 855.513L748.849 855.513C796.065 855.513 824.431 900.981 818.607 947.397L789.485 1159.71L717.06 1159.71L703.307 1012.66" stroke="#70727A" stroke-width="4.38284" stroke-miterlimit="10"/>
<path d="M700.221 706.409C700.221 706.409 668.062 851.897 982.779 927.731C982.779 927.731 1023.02 928.872 1014.6 845.91" stroke="#70727A" stroke-width="4.38284" stroke-miterlimit="10"/>
<path d="M719.459 1013.01L644.899 1013.01C535.498 1013.01 452.595 1005.48 416.464 927.633C408.952 911.489 404.322 894.155 402.785 876.416" stroke="#70727A" stroke-width="4.38284" stroke-miterlimit="10"/>
<path d="M1012.18 898.882C1031.62 899.03 1022.44 897.726 1041.41 902.927C1051.9 905.891 1061 911.153 1061.03 924.283C1061.03 941.385 1024.27 942.927 1035.37 962.222C1047.23 982.867 1084.77 963.245 1092.19 949.892C1125.24 890.33 1051.44 861.876 1007.07 841.958" stroke="#70727A" stroke-width="4.38284" stroke-miterlimit="10"/>
<path d="M409.862 910.831C388.403 906.504 360.852 902.503 347.855 882.555C346.018 879.769 343.706 876.449 343.202 873.1C341.987 865.201 350.612 865.69 355.977 866.46C391.945 871.944 426.461 884.57 462.681 887.846C472.773 888.75 482.954 889.194 493.091 889.194L634.919 889.194C645.847 889.151 656.473 885.606 665.239 879.08C674.003 872.553 680.444 863.388 683.617 852.93C690.612 830.359 702.557 806.187 722.89 787.722" stroke="#70727A" stroke-width="4.38284" stroke-miterlimit="10"/>
<path d="M864.066 580.558C862.584 580.558 781.978 572.066 744.172 575.608" stroke="#70727A" stroke-width="4.38284" stroke-miterlimit="10"/>
<path d="M1043.2 948.4C1057.64 948.4 1069.36 936.689 1069.36 922.243C1069.36 907.798 1057.64 896.085 1043.2 896.085C1028.75 896.085 1017.04 907.798 1017.04 922.243C1017.04 936.689 1028.75 948.4 1043.2 948.4Z" fill="#E68145"/>
<path d="M1043.2 948.4C1057.64 948.4 1069.36 936.689 1069.36 922.243C1069.36 907.798 1057.64 896.085 1043.2 896.085C1028.75 896.085 1017.04 907.798 1017.04 922.243C1017.04 936.689 1028.75 948.4 1043.2 948.4Z" stroke="#70727A" stroke-width="4.38284" stroke-miterlimit="10"/>
<path d="M1043.2 948.4C1057.64 948.4 1069.36 936.689 1069.36 922.243C1069.36 907.798 1057.64 896.085 1043.2 896.085C1028.75 896.085 1017.04 907.798 1017.04 922.243C1017.04 936.689 1028.75 948.4 1043.2 948.4Z" stroke="#70727A" stroke-width="4.38284" stroke-miterlimit="10"/>
<path d="M840.886 575.442C843.09 581.128 845.839 586.588 849.097 591.744C849.438 592.307 851.853 591.24 853.854 594.1C857.959 599.939 865.71 600.606 867.74 598.206L867.548 598.072L865.354 596.738L870.304 597.879L873.55 597.998L878.337 593.33C878.337 593.33 855.543 576.213 866.97 564.297C866.97 564.297 866.97 564.297 867.059 564.208C867.307 563.949 867.531 563.666 867.725 563.364C868.289 562.474 867.607 562.519 868.689 562.356C869.501 561.572 870.476 560.978 871.544 560.618C872.613 560.256 873.748 560.136 874.869 560.266C876.133 560.315 877.348 560.766 878.337 561.556C878.485 552.886 877.699 543.164 883.005 539.326C885.139 534.88 888.666 531.916 894.298 532.138C895.928 532.212 897.41 532.331 898.818 532.523L914.067 536.199C917.283 531.753 919.67 535.561 924.16 537.043C925.701 537.559 927.343 537.691 928.947 537.429C931.119 537.057 933.123 536.021 934.682 534.465C937.557 527.529 938.076 518.844 935.556 513.628C935.556 513.628 921.552 513.109 911.844 510.53C902.137 507.952 898.655 490.449 870.823 508.13C869.369 509.045 867.746 509.66 866.051 509.938C863.087 510.338 858.389 510.516 855.04 508.633C854.791 508.505 854.553 508.356 854.328 508.189C853.962 507.98 853.629 507.721 853.335 507.418C854.165 508.233 851.572 515.866 850.238 519.66C850.229 519.703 850.229 519.748 850.238 519.793C850.075 520.312 849.882 520.741 849.764 521.082L849.764 521.186C849.707 521.346 849.644 521.505 849.571 521.66C848.249 524.586 846.534 527.318 844.473 529.782L843.465 531.13C842.114 532.885 840.943 534.771 839.968 536.762C834.217 548.722 835.922 562.578 840.886 575.442Z" fill="#E68145"/>
<path d="M867.678 598.262C872.717 598.78 877.445 597.921 878.378 593.327L878.541 592.541C878.541 592.541 856.8 577.558 867.011 564.294C867.011 564.294 867.011 564.294 867.1 564.205C867.189 564.116 867.397 563.79 867.545 563.612C867.693 563.435 867.708 563.435 867.767 563.361C868.123 562.975 868.39 562.664 868.731 562.353C871.205 559.922 873.176 559.507 874.91 560.263C875.343 560.454 875.74 560.72 876.081 561.049C878.808 563.375 880.364 568.859 881.209 572.905C880.083 564.872 878.512 548.674 883.047 539.323C885.181 534.877 888.708 531.913 894.34 532.135L898.86 532.52L914.109 536.195L924.202 537.04L928.989 537.426C931.161 537.054 933.165 536.018 934.724 534.462C941.986 527.63 944.668 511.001 940.533 503.073C940.533 503.073 925.995 503.458 915.814 501.398C905.632 499.338 901.246 480.131 871.087 503.162C866.226 506.126 860.565 508.571 855.081 505.963C855.148 506.85 855.148 507.743 855.081 508.63C854.903 510.145 854.468 511.619 853.792 512.987C852.695 515.24 851.539 517.433 850.28 519.656C850.271 519.699 850.271 519.745 850.28 519.79C849.079 521.909 847.79 524.028 846.56 526.133C845.834 527.378 845.078 528.578 844.485 529.778C841.957 534.103 840.107 538.792 839.002 543.68C837.857 549.348 837.552 555.156 838.098 560.915C838.55 565.865 839.543 570.75 841.062 575.483C843.803 584.375 846.471 591.459 855.748 595.179C859.578 596.708 863.586 597.744 867.678 598.262Z" stroke="#70727A" stroke-width="4.38284" stroke-miterlimit="10"/>
<path d="M924.835 550.443C924.835 550.443 910.149 550.088 906.325 562.299" stroke="#70727A" stroke-width="4.38284" stroke-miterlimit="10"/>
<path d="M930.194 537.694L930.505 564.845C930.548 565.672 930.849 566.464 931.364 567.112C934.506 572.003 937.381 577.086 940.168 582.214C940.51 582.839 940.692 583.539 940.701 584.25C940.71 584.963 940.545 585.667 940.218 586.299C939.892 586.934 939.416 587.476 938.831 587.884C938.245 588.29 937.57 588.546 936.863 588.631C933.616 588.892 930.346 588.565 927.215 587.667" stroke="#70727A" stroke-width="4.38284" stroke-miterlimit="10"/>
<path d="M920.814 567.283C922.926 567.099 924.461 564.94 924.245 562.461C924.028 559.983 922.14 558.123 920.029 558.306C917.917 558.492 916.38 560.651 916.598 563.13C916.814 565.608 918.702 567.468 920.814 567.283Z" fill="#70727A"/>
<path d="M931.523 590.496C927.729 605.538 913.917 632.332 894.473 628.049C885.344 626.034 879.105 616.638 873.073 610.191" stroke="#70727A" stroke-width="4.38284" stroke-linecap="round" stroke-linejoin="round"/>
<path d="M1127.16 876.378C1149.2 887.671 1164.21 909.975 1164.21 935.658C1164.21 962.142 1148.31 985.009 1125.19 995.946L1127.16 876.378Z" fill="#E68145"/>
<path d="M804.083 1159.7L716.793 1159.7L716.793 1199.39L828.313 1199.39L828.313 1183.95C828.313 1177.52 825.761 1171.36 821.218 1166.81C816.674 1162.27 810.51 1159.71 804.083 1159.7Z" stroke="#70727A" stroke-width="4.38284" stroke-miterlimit="10"/>
<path d="M885.116 623.01C866.25 627.13 840.271 652.28 840.271 652.28" stroke="#70727A" stroke-width="4.38284" stroke-miterlimit="10"/>
<path d="M924.824 607.376C924.824 607.376 916.287 609.643 912.716 598.395" stroke="#70727A" stroke-width="4.38284" stroke-miterlimit="10"/>
<path d="M466.87 984.042C466.87 984.042 411.281 1021.88 452.05 1075.19" stroke="#70727A" stroke-width="4.38284" stroke-miterlimit="10"/>
<path d="M363.35 1229.24L341.698 1229.24L341.698 1199.39C341.906 1197.3 342.128 1195.26 342.395 1193.23C351.539 1123.22 412.76 1071.7 483.363 1071.7L682.855 1071.7L682.855 1165.07C682.853 1169.58 683.739 1174.05 685.464 1178.22C687.189 1182.38 689.718 1186.17 692.907 1189.36C696.095 1192.55 699.881 1195.08 704.049 1196.81C708.216 1198.53 712.681 1199.42 717.193 1199.42L831.751 1199.42C859.147 1199.49 886.096 1192.48 909.986 1179.08C961.767 1149.76 1015.76 1090.75 1017.05 959.902L1017.05 922.245" stroke="#70727A" stroke-width="4.38284" stroke-miterlimit="10"/>
<path d="M343.026 871.865C343.014 870.499 343.134 869.134 343.382 867.789C344.464 861.224 348.391 856.245 352.763 850.954C358.395 844.166 363.982 837.379 369.613 830.636C401.017 793.156 431.679 755.054 463.172 717.663C470.893 708.46 478.837 699.449 487.269 690.898C516.82 660.887 550.995 634.582 588.416 615.034C620.664 598.303 654.928 583.69 690.896 577.347C704.772 574.808 718.897 573.89 732.985 574.605L733.459 574.605C747.511 575.355 761.367 578.254 774.54 583.201C791.064 589.47 806.981 597.473 818.378 610.722C820.878 613.616 823.11 616.731 825.047 620.029C833.628 634.567 839.511 650.113 845.528 665.793C874.397 741.375 927.038 808.317 1002.95 840.239C1004.28 840.847 1005.61 841.395 1006.98 841.929C1007.48 842.151 1008 842.329 1008.46 842.507C1009.75 843.055 1011.08 843.529 1012.46 843.989" stroke="#70727A" stroke-width="4.38284" stroke-miterlimit="10"/>
<path d="M1127.15 864.777C1139.93 870.051 1150.85 879 1158.54 890.488C1166.23 901.977 1170.33 915.488 1170.33 929.311C1170.33 943.132 1166.23 956.643 1158.54 968.132C1150.85 979.62 1139.93 988.568 1127.15 993.843" stroke="#70727A" stroke-width="4.38284" stroke-miterlimit="10"/>
<path d="M636.394 1243.66L358.934 1243.66C366.717 1212.76 384.591 1185.35 409.723 1165.77C434.855 1146.19 465.804 1135.55 497.664 1135.56L611.111 1135.56C617.817 1135.56 624.247 1138.22 628.988 1142.96C633.73 1147.71 636.394 1154.14 636.394 1160.84L636.394 1243.66Z" stroke="#70727A" stroke-width="4.38284" stroke-miterlimit="10"/>
<path d="M358.934 1243.66L636.394 1243.66L961.722 1243.66" stroke="#70727A" stroke-width="4.38284" stroke-miterlimit="10"/>
<path d="M1036.9 855.501L1117.4 855.501C1119.97 855.501 1122.43 856.521 1124.25 858.335C1126.06 860.15 1127.08 862.612 1127.08 865.178L1127.08 994.853C1127.08 996.123 1126.83 997.38 1126.34 998.554C1125.86 999.728 1125.14 1000.79 1124.25 1001.69C1123.35 1002.59 1122.28 1003.3 1121.1 1003.78C1119.93 1004.27 1118.67 1004.52 1117.4 1004.52C1112.91 1004.52 1108.61 1006.31 1105.43 1009.49C1102.26 1012.67 1100.48 1016.98 1100.48 1021.47L1100.48 1089.64C1100.42 1101.19 1104.14 1112.44 1111.07 1121.68C1118 1130.92 1127.76 1137.64 1138.86 1140.82C1163.17 1147.61 1185.25 1160.7 1202.88 1178.77C1220.5 1196.84 1233.04 1219.24 1239.22 1243.71L961.719 1243.71C969.498 1212.8 987.374 1185.38 1012.51 1165.79C1037.65 1146.2 1068.61 1135.56 1100.48 1135.57" stroke="#70727A" stroke-width="4.38284" stroke-miterlimit="10"/>
<path d="M600.25 1243.66C605.35 1259.78 606.577 1276.88 603.834 1293.56C601.092 1310.24 594.456 1326.05 584.463 1339.69C574.471 1353.33 561.406 1364.42 546.325 1372.07C531.245 1379.71 514.574 1383.7 497.666 1383.7C480.758 1383.7 464.087 1379.71 449.008 1372.07C433.927 1364.42 420.862 1353.33 410.87 1339.69C400.878 1326.05 394.242 1310.24 391.499 1293.56C388.756 1276.88 389.983 1259.78 395.082 1243.66" stroke="#70727A" stroke-width="4.38284" stroke-miterlimit="10"/>
<path d="M1203.05 1243.66C1208.15 1259.78 1209.38 1276.88 1206.64 1293.57C1203.9 1310.26 1197.26 1326.07 1187.27 1339.71C1177.28 1353.36 1164.21 1364.45 1149.13 1372.1C1134.04 1379.75 1117.37 1383.74 1100.46 1383.74C1083.54 1383.74 1066.87 1379.75 1051.78 1372.1C1036.7 1364.45 1023.63 1353.36 1013.64 1339.71C1003.65 1326.07 997.01 1310.26 994.27 1293.57C991.528 1276.88 992.76 1259.78 997.864 1243.66" stroke="#70727A" stroke-width="4.38284" stroke-miterlimit="10"/>
<path d="M1100.45 1294.26C1110.44 1294.26 1118.53 1286.16 1118.53 1276.18C1118.53 1266.19 1110.44 1258.09 1100.45 1258.09C1090.47 1258.09 1082.37 1266.19 1082.37 1276.18C1082.37 1286.16 1090.47 1294.26 1100.45 1294.26Z" fill="#70727A"/>
<path d="M497.667 1294.26C507.653 1294.26 515.748 1286.16 515.748 1276.18C515.748 1266.19 507.653 1258.09 497.667 1258.09C487.682 1258.09 479.587 1266.19 479.587 1276.18C479.587 1286.16 487.682 1294.26 497.667 1294.26Z" fill="#70727A"/>
<path d="M682.855 1071.69L708.494 1071.69" stroke="#70727A" stroke-width="4.38284" stroke-miterlimit="10"/>
<path d="M982.467 1243.06C982.363 1243.46 982.319 1243.66 982.319 1243.66L961.719 1243.66C961.8 1243.47 961.86 1243.26 961.897 1243.06L982.467 1243.06Z" fill="#EDEDED"/>
<path d="M416.251 1374.92C409.25 1369.14 402.876 1362.64 397.237 1355.52" stroke="#70727A" stroke-width="4.38284" stroke-miterlimit="10"/>
<path d="M625.621 1276.16C625.668 1300.82 618.547 1324.97 605.125 1345.65" stroke="#70727A" stroke-width="4.38284" stroke-miterlimit="10"/>
<path d="M980.04 1314.52C977.5 1305.83 975.89 1296.89 975.238 1287.85" stroke="#70727A" stroke-width="4.38284" stroke-miterlimit="10"/>
<path d="M1225.31 1276.16C1225.35 1300.82 1218.23 1324.97 1204.81 1345.65" stroke="#70727A" stroke-width="4.38284" stroke-miterlimit="10"/>
<path d="M382.349 1331.75C373.986 1314.42 369.66 1295.41 369.693 1276.16" stroke="#70727A" stroke-width="4.38284" stroke-miterlimit="10"/>
<path d="M665.417 565.205C665.417 565.205 591.154 575.964 511.378 643.306" stroke="#70727A" stroke-width="4.38284" stroke-miterlimit="10"/>
</svg>
