<svg width="174" height="169" viewBox="0 0 174 169" fill="none" xmlns="http://www.w3.org/2000/svg">
<path d="M45.3408 64.6138C45.3408 64.6138 48.1539 71.7095 57.4607 72.0573" stroke="#CCDDE2" stroke-width="1.01668" stroke-miterlimit="10"/>
<path d="M68.3887 70.8167C68.3887 70.8167 73.7396 69.414 77.2541 64.042" stroke="#CCDDE2" stroke-width="1.01668" stroke-miterlimit="10"/>
<path d="M147.405 168.188C147.94 167.856 151.29 168.188 151.921 168.188C153.293 168.194 154.662 168.063 156.009 167.796C172.879 164.414 174.378 139.704 172.243 123.11C171.788 119.631 171.007 116.201 169.912 112.867C166.753 103.105 161.092 94.0621 154.178 86.6396C151.607 83.8819 148.504 81.453 146.818 77.9959C143.734 71.6645 146.148 64.3223 147.583 57.8973C149.494 49.2746 150.295 39.8856 140.879 35.5953C121.099 26.5789 99.2178 42.7598 99.2178 42.7598" stroke="#CCDDE2" stroke-width="1.01668" stroke-miterlimit="10"/>
<path d="M15.0889 137.723C13.9767 143.221 13.9193 148.975 15.8113 154.23C17.5007 158.922 20.8374 163.742 25.2003 166.421C27.7011 167.941 30.6468 168.559 33.5478 168.173" stroke="#CCDDE2" stroke-width="1.01668" stroke-miterlimit="10"/>
<path d="M57.458 84.8436V66.4459V65.9031V61.5173V59.8833V50.9893" stroke="#CCDDE2" stroke-width="1.01668" stroke-miterlimit="10"/>
<path d="M69.5905 81.5279V72.4867C69.5911 72.1173 69.4751 71.7571 69.2593 71.4574C69.0436 71.1576 68.739 70.9332 68.3885 70.8165L63.1445 69.0678V50.9893" stroke="#CCDDE2" stroke-width="1.01668" stroke-miterlimit="10"/>
<path d="M57.458 66.4468C58.962 66.8729 61.563 67.4424 63.1415 67.1099" stroke="#CCDDE2" stroke-width="1.01668" stroke-miterlimit="10"/>
<path d="M57.458 61.5234C59.3289 61.6725 61.6623 61.8349 63.1453 62.221" stroke="#CCDDE2" stroke-width="1.01668" stroke-miterlimit="10"/>
<path d="M57.458 65.9032C59.1397 65.6663 61.5935 65.1503 63.1453 64.4795" stroke="#CCDDE2" stroke-width="1.01668" stroke-miterlimit="10"/>
<path d="M57.458 59.884C60.7316 58.9763 62.3522 57.8564 63.1453 56.9219" stroke="#CCDDE2" stroke-width="1.01668" stroke-miterlimit="10"/>
<path d="M29.0663 55.375L21.9629 55.9521" stroke="#CCDDE2" stroke-width="1.01668" stroke-miterlimit="10"/>
<path d="M28.1723 52.2437L21.1357 52.8131" stroke="#CCDDE2" stroke-width="1.01668" stroke-miterlimit="10"/>
<path d="M105.438 45.9807L136.228 43.4792C136.65 43.4455 137.068 43.5807 137.391 43.8551C137.713 44.1297 137.913 44.5209 137.947 44.943C137.947 44.9832 137.947 45.0252 137.947 45.073C137.948 45.4747 137.797 45.8619 137.525 46.1571C137.252 46.4522 136.878 46.6338 136.478 46.6649L106.713 49.0786" stroke="#CCDDE2" stroke-width="1.01668" stroke-miterlimit="10"/>
<path d="M58.2987 53.0093L51.6406 53.5444" stroke="#CCDDE2" stroke-width="1.01668" stroke-miterlimit="10"/>
<path d="M75.8337 51.5854L62.6016 52.6575" stroke="#CCDDE2" stroke-width="1.01668" stroke-miterlimit="10"/>
<path d="M57.6941 49.8511L52.8477 50.2448" stroke="#CCDDE2" stroke-width="1.01668" stroke-miterlimit="10"/>
<path d="M74.4318 48.4951L62.6846 49.443" stroke="#CCDDE2" stroke-width="1.01668" stroke-miterlimit="10"/>
<path d="M42.9718 141.111C43.0998 141.038 43.226 140.964 43.354 140.887C44.5197 140.182 44.6726 139.154 43.7056 138.248C39.5778 134.384 34.7848 131.078 29.5294 128.957C24.9314 127.099 19.504 125.937 14.5429 126.554C12.2497 126.841 6.50502 127.974 7.98991 131.538C8.30906 132.303 8.91295 132.911 9.51876 133.476C17.528 140.926 32.4361 147.125 42.9718 141.111Z" stroke="#CCDDE2" stroke-width="1.01668" stroke-miterlimit="10"/>
<path d="M8.53416 132.559C0.935798 123.503 10.2541 98.4965 14.2348 87.9074C15.9433 83.3514 16.0312 78.4094 15.7465 73.5974C15.6586 71.8889 13.5373 61.273 16.595 61.5711C17.0766 61.6189 17.455 61.9648 17.7741 62.3355C18.6637 63.3623 19.2091 64.6424 19.3335 65.9952C19.887 65.4435 20.5195 64.9772 21.2102 64.6116C21.5972 64.4035 22.0012 64.229 22.418 64.0899C22.7425 63.9507 23.096 63.893 23.448 63.9217C24.5526 64.1128 24.8852 65.569 24.6539 66.6736C24.2621 68.6726 22.6282 69.4466 21.5695 70.9983C21.433 71.2007 21.313 71.4134 21.2102 71.6347C20.4114 73.2897 20.505 75.3097 20.6369 77.1271C20.8286 79.4492 21.4248 81.7201 22.3989 83.8368" stroke="#CCDDE2" stroke-width="1.01668" stroke-miterlimit="10"/>
<path d="M41.1943 117.884C43.1398 124.141 44.2731 130.641 44.3399 137.224C44.3533 137.908 44.3399 138.587 44.3208 139.271V139.351C44.3235 139.479 44.3183 139.606 44.3055 139.733" stroke="#CCDDE2" stroke-width="1.01668" stroke-miterlimit="10"/>
<path d="M21.2101 71.6343C21.2101 71.6343 16.1324 70.3826 15.0947 68.1313" stroke="#CCDDE2" stroke-width="1.01668" stroke-miterlimit="10"/>
<path d="M21.2104 64.6132C21.2104 64.6132 24.635 50.0891 17.545 51.0447C10.455 52.0002 15.0893 62.0963 15.0893 62.0963" stroke="#CCDDE2" stroke-width="1.01668" stroke-miterlimit="10"/>
<path d="M17.7624 57.019C19.2389 57.019 20.436 55.8221 20.436 54.3454C20.436 52.869 19.2389 51.6719 17.7624 51.6719C16.286 51.6719 15.0889 52.869 15.0889 54.3454C15.0889 55.8221 16.286 57.019 17.7624 57.019Z" stroke="#CCDDE2" stroke-width="1.01668" stroke-miterlimit="10"/>
<path d="M124.731 95.2207C125.38 95.8071 126.223 96.1312 127.097 96.1304C128.873 96.1304 130.317 94.8424 130.317 93.2638C130.317 89.5359 130.313 85.8094 130.304 82.0841C130.304 79.8692 130.778 75.6592 127.097 75.6592C124.575 75.6592 123.869 77.6448 123.877 79.5291V81.5835" stroke="#CCDDE2" stroke-width="1.01668" stroke-miterlimit="10"/>
<path d="M124.73 71.6114C125.038 71.9277 125.406 72.1795 125.812 72.3529C126.218 72.526 126.654 72.617 127.096 72.6204C127.518 72.6208 127.936 72.5379 128.326 72.3764C128.716 72.2151 129.07 71.9785 129.368 71.6802C129.667 71.3819 129.903 71.0275 130.064 70.6377C130.226 70.2478 130.309 69.8299 130.308 69.4079C130.308 65.2456 130.304 61.0834 130.295 56.9211C130.295 54.4539 130.777 49.7432 127.096 49.7432C124.573 49.7432 123.868 51.9657 123.868 54.0679V55.7878" stroke="#CCDDE2" stroke-width="1.01668" stroke-miterlimit="10"/>
<path d="M126.531 75.6504H127.666V72.0576H126.531V75.6504Z" fill="#D7E8F0"/>
<path d="M121.52 101.031C123.295 101.031 124.734 99.7426 124.734 98.1545C124.734 94.4279 124.73 90.7021 124.721 86.9767C124.721 84.7637 125.199 80.5518 121.52 80.5518C118.999 80.5518 118.292 82.5412 118.294 84.4216C118.302 88.6923 118.305 92.9648 118.305 97.2391C118.305 97.9156 118.305 98.6055 118.554 99.2457C118.967 100.333 120.255 101.031 121.52 101.031Z" stroke="#CCDDE2" stroke-width="1.01668" stroke-miterlimit="10"/>
<path d="M121.518 77.5261C122.37 77.5261 123.188 77.1873 123.791 76.5846C124.394 75.9818 124.732 75.1641 124.732 74.3117C124.732 70.1495 124.728 65.9872 124.719 61.8249C124.719 59.352 125.197 54.647 121.518 54.647C118.997 54.647 118.29 56.8695 118.292 58.9698C118.292 63.7423 118.296 68.5147 118.303 73.2874C118.303 74.0518 118.303 74.8163 118.55 75.531C118.965 76.7445 120.255 77.5261 121.518 77.5261Z" stroke="#CCDDE2" stroke-width="1.01668" stroke-miterlimit="10"/>
<path d="M120.952 80.5498H122.087V76.957H120.952V80.5498Z" fill="#D7E8F0"/>
<path d="M121.784 54.6914C120.842 52.3733 121.006 50.0418 121.402 47.8862C121.538 47.16 121.7 46.4624 121.855 45.784C122.005 45.1348 122.369 44.5554 122.89 44.1393C123.41 43.7231 124.055 43.4945 124.721 43.4907H124.735C125.467 43.4903 126.173 43.7629 126.715 44.2551" stroke="#CCDDE2" stroke-width="1.01668" stroke-miterlimit="10"/>
<path d="M127.741 47.3813C127.693 48.9102 127.097 49.7472 127.097 49.7472" stroke="#CCDDE2" stroke-width="1.01668" stroke-miterlimit="10"/>
<path d="M106.087 155.178C105.995 155.789 105.813 156.383 105.546 156.94C105.512 156.243 106.087 155.178 106.087 155.178Z" fill="#2E2E2E"/>
<path d="M93.3428 154.452C93.5052 152.988 94.4531 150.995 95.2538 148.719C94.6174 150.819 93.6333 152.954 93.3428 154.452Z" fill="#2E2E2E"/>
<path d="M95.7936 156.445C95.3177 156.703 94.7024 156.927 94.0029 156.405C94.5858 156.576 95.2036 156.59 95.7936 156.445Z" fill="#2E2E2E"/>
<path d="M95.5874 146.948C95.588 146.459 95.4878 145.976 95.2931 145.528C95.0984 145.08 94.8134 144.677 94.4561 144.345C95.058 144.821 95.6486 145.545 95.5874 146.948Z" fill="#2E2E2E"/>
<path d="M96.6572 156.14C96.8915 156.024 97.1143 155.886 97.3223 155.728C97.1216 156.054 96.9641 156.404 96.8541 156.771C96.833 156.393 96.7662 156.209 96.6572 156.14Z" fill="#2E2E2E"/>
<path d="M99.7552 158.377C98.9353 158.859 98.0352 158.951 97.4619 158.452C98.2569 158.838 99.0787 158.668 99.7552 158.377Z" fill="#2E2E2E"/>
<path d="M101.322 158.114C101.173 157.923 101.011 157.781 100.749 157.829C100.864 157.754 100.959 157.686 101.04 157.638C101.336 157.435 101.275 157.754 101.322 158.114Z" fill="#2E2E2E"/>
<path d="M102.182 158.817C103.001 158.75 104.047 158.662 104.867 157.875C104.819 157.95 104.779 158.039 104.731 158.133C104.276 159.075 103.091 158.817 102.182 158.817Z" fill="#2E2E2E"/>
<path d="M105.782 157.441C105.604 157.396 105.417 157.396 105.239 157.441C105.355 157.282 105.457 157.115 105.545 156.94C105.539 157.037 105.558 157.133 105.599 157.221C105.64 157.308 105.703 157.384 105.782 157.441Z" fill="#2E2E2E"/>
<path d="M106.641 157.625C106.492 157.598 106.357 157.564 106.234 157.537C107.102 157.489 108.031 157.524 108.757 156.73C108.214 157.361 107.469 157.787 106.641 157.625Z" fill="#2E2E2E"/>
<path d="M108.98 156.445C109.069 156.313 109.149 156.174 109.219 156.031C109.149 156.174 109.069 156.313 108.98 156.445Z" fill="#2E2E2E"/>
<path d="M109.554 155.206C109.514 155.337 109.47 155.464 109.426 155.588C109.476 155.463 109.519 155.335 109.554 155.206Z" fill="#2E2E2E"/>
<path d="M109.221 156.031C109.296 155.884 109.363 155.734 109.423 155.58C109.367 155.735 109.299 155.886 109.221 156.031Z" fill="#2E2E2E"/>
<path d="M109.612 149.734C109.577 149.677 109.53 149.627 109.476 149.587C109.421 149.548 109.359 149.52 109.293 149.505L109.727 149.281C109.668 149.426 109.629 149.579 109.612 149.734Z" fill="#2E2E2E"/>
<path d="M140.875 135.586C134.876 141.633 127.094 143.599 127.094 143.599C127.426 148.95 126.261 166.947 126.173 167.732C126.085 168.518 121.758 168.254 121.758 168.254L103.145 168.227C103.718 168.057 104.263 167.881 104.771 167.685C113.793 164.245 114.391 157.348 113.069 152.379C112.323 149.572 111.624 148.748 111.035 148.643C112.662 147.878 115.203 146.806 117.665 146.21C121.731 145.228 135.16 141.558 139.437 136.752C139.855 136.294 140.34 135.901 140.875 135.586Z" fill="#2E2E2E"/>
<path d="M139.27 97.4513C139.27 97.4513 132.868 91.6475 125.665 99.4427C120.587 104.941 120.383 109.136 120.71 111.136C120.889 111.547 121.01 111.98 121.069 112.424L121.713 112.858L121.272 112.816C122.072 114.437 124.83 120.749 121.407 124.842C117.448 129.574 112.492 135.736 99.1187 140.949C99.1187 140.949 92.4758 138.998 90.6661 143.538C90.6661 143.538 92.8141 143.156 93.6817 143.789C89.6895 143.397 76.4822 143.701 76.4822 143.701C76.4822 143.701 68.2876 144.914 66.26 152.301C64.2324 159.687 66.9461 161.242 70.986 165.98C71.7505 166.869 73.0882 167.608 74.8292 168.191L64.6471 168.178L65.5089 166.679C66.4645 164.346 64.1464 163.899 64.1464 163.899C61.7862 163.696 62.3958 162.313 62.3958 162.313C59.8885 146.546 60.4045 122.922 61.1364 116.929C61.8684 110.936 60.7963 112.679 60.7963 112.679C58.9062 114.725 47.9043 116.929 47.9043 116.929C53.1024 113.783 54.8988 109.667 55.8008 99.9548C56.6818 90.518 51.6251 87.0418 51.3327 86.845C51.3306 86.844 51.3283 86.8436 51.326 86.8436C51.3237 86.8436 51.3215 86.844 51.3194 86.845L70.9574 80.9398L84.2105 78.8931C84.008 79.518 83.6621 79.3555 82.997 79.4492L81.8255 79.6193C81.8708 79.6219 81.9144 79.6365 81.9522 79.6611C81.9903 79.686 82.0208 79.7204 82.0415 79.7607C82.0575 79.8087 82.0667 79.8589 82.0682 79.9097C82.1982 82.6502 83.9793 85.0142 86.2859 86.3921C89.4774 88.3031 93.9722 88.2553 97.2401 86.5124C99.585 85.2588 100.772 82.8528 100.663 80.2423C114.296 81.9202 129.81 87.1794 139.27 97.4513Z" fill="#2E2E2E"/>
<path d="M81.8999 143.301L84.5506 145.193L84.327 145.05C82.4211 143.91 80.241 143.311 78.0205 143.317L81.8999 143.301Z" fill="#D7E8F0"/>
<path d="M101.03 157.015C101.024 157.104 101.001 157.192 100.963 157.273C100.953 156.932 101.037 156.743 101.03 157.015Z" fill="#D7E8F0"/>
<path d="M113.578 155.598C113.577 158.858 112.282 161.983 109.977 164.288C107.672 166.592 104.547 167.887 101.288 167.888H78.0205C80.5723 167.889 83.0611 167.094 85.1411 165.616C87.2209 164.137 88.7891 162.048 89.6275 159.638C90.4661 157.228 90.5333 154.616 89.8201 152.166C89.1069 149.716 87.6486 147.548 85.6475 145.965C85.2951 145.69 84.9284 145.435 84.5487 145.2H95.2506C95.5755 145.735 96.036 147.138 94.899 150.23C93.3395 154.459 92.5464 156.194 94.7079 156.567C96.8693 156.94 97.1922 154.847 97.3183 155.734C97.4445 156.621 95.887 157.36 97.454 158.459C98.8568 159.441 100.6 158.1 100.959 157.28C100.959 157.882 101.244 158.954 102.795 158.859C105.236 158.709 105.662 156.418 105.662 156.418C105.704 156.741 105.854 157.04 106.088 157.267C106.322 157.494 106.626 157.634 106.95 157.666C108.122 157.802 110.069 156.16 109.885 153.68C109.702 151.199 108.983 149.179 110.631 148.636C110.837 148.576 111.023 148.459 111.166 148.298C112.737 150.407 113.583 152.968 113.578 155.598Z" fill="#D7E8F0"/>
<path d="M104.933 64.0956C104.904 64.0994 104.874 64.0994 104.845 64.0956C104.927 64.495 105.076 64.9212 105.178 65.3493C105.258 65.6701 105.292 66.0009 105.279 66.3315C105.17 67.8852 104.073 68.7242 102.581 68.7662C102.618 69.1221 102.546 69.4806 102.376 69.7951C102.205 70.1095 101.943 70.365 101.625 70.5282C100.826 70.9487 99.5229 70.8531 98.9132 70.1154C98.2023 69.2535 98.554 68.1891 98.9897 67.2489C99.1445 66.9163 99.3012 66.6048 99.4292 66.3201C99.5859 65.9665 99.7216 65.6149 99.842 65.2556C100.268 63.9276 100.597 62.5704 100.826 61.1946C101.11 59.8078 101.298 58.403 101.388 56.9903C101.294 56.6444 101.354 56.1494 101.218 55.7902C101.021 55.2329 100.662 54.7471 100.188 54.3951C99.2114 53.6765 97.9157 53.7243 96.8799 53.0879C95.9431 52.5031 95.2041 51.6502 94.7586 50.6399C94.6688 50.4296 94.5885 50.1583 94.4662 49.9213C94.4096 49.794 94.3261 49.6807 94.2216 49.5888C93.7534 49.197 93.4839 49.8869 93.1992 50.1621C92.9053 50.434 92.5567 50.6401 92.1766 50.7664C91.7967 50.8925 91.394 50.9361 90.9957 50.894C90.6949 50.8549 90.402 50.7685 90.1281 50.638C89.9267 50.5281 89.7383 50.396 89.5663 50.2443C89.3633 50.0457 89.1265 49.8852 88.8668 49.7703C88.3795 49.5792 88.3527 50.3933 88.2839 50.6704C88.1483 51.173 87.9113 51.5801 87.4373 51.8171C87.1736 51.9466 86.8845 52.0166 86.5908 52.0216C86.2485 52.034 85.9066 51.9881 85.5798 51.8859C85.2649 51.7919 84.9656 51.652 84.6912 51.4712C84.642 51.4373 84.5843 51.4182 84.5249 51.4158C84.4653 51.4135 84.4064 51.428 84.3548 51.4578C84.3032 51.4876 84.261 51.5314 84.2333 51.5841C84.2056 51.6369 84.1933 51.6965 84.1981 51.7559C84.2917 54.4066 81.8112 55.3296 80.7945 55.5933C80.4123 59.7976 81.5589 64.453 83.8522 68.0591C83.7664 68.5967 83.5476 69.1045 83.2158 69.5364C81.5398 69.9568 79.6078 69.5039 78.8835 68.0591C78.119 66.5303 78.2184 64.3918 79.4128 63.293C78.5853 63.1668 78.3522 61.9418 78.828 61.2233C78.8682 61.1564 78.8892 61.1163 78.8605 61.0475C78.7592 60.7704 77.5419 60.541 77.2094 60.434C76.7347 60.2634 76.3062 59.9847 75.9578 59.6197C75.6096 59.2549 75.3511 58.814 75.2028 58.3319C74.4976 56.0061 76.2863 53.5256 78.5242 52.9618C77.8591 51.7903 76.9781 50.8405 76.6131 49.4856C76.2481 48.1307 76.4564 46.7126 77.4941 45.7017C77.9134 45.3021 78.4256 45.0131 78.9844 44.861C79.5432 44.7087 80.1312 44.6982 80.6951 44.8303C81.025 45.0705 81.3174 45.3585 81.5628 45.6845C81.4114 45.462 81.2906 45.2203 81.2035 44.9659C81.9616 45.2241 82.6266 45.7009 83.1145 46.3362C82.2412 45.0271 82.5661 43.2441 83.5503 42.0917C84.7351 40.7024 87.0666 40.3966 88.6948 41.1094C88.8124 41.1643 88.9255 41.2281 89.0331 41.3005C89.1898 41.4916 89.3446 41.6827 89.5013 41.8624C89.5193 41.8135 89.5397 41.7657 89.5624 41.7191C89.8915 42.0581 90.2034 42.4133 90.4969 42.7835C91.5557 39.7812 95.7504 39.7736 97.9673 41.3407C98.4896 41.7126 98.9171 42.2022 99.2152 42.7701C99.3287 43.2687 99.3195 43.7874 99.1884 44.2818C99.0528 44.7576 99.1617 45.1169 99.4655 45.2182C99.6949 45.2736 99.9364 45.2423 100.144 45.1303C100.958 44.7634 101.629 44.3162 102.571 44.4175C105.655 44.7443 107.891 48.7422 106.068 51.3527C105.961 51.5149 105.838 51.6672 105.703 51.8075C105.445 52.0712 104.868 52.3636 104.748 52.7287C104.744 52.7373 104.744 52.7468 104.748 52.7554C104.518 53.5198 106.219 53.6976 106.674 53.902C110.676 55.5742 109.827 63.8376 104.933 64.0956Z" fill="#E68145"/>
<path d="M81.8252 79.608L82.9967 79.4379C83.3195 79.3932 83.6233 79.259 83.874 79.0507C84.1246 78.8424 84.3119 78.568 84.4147 78.2588C84.4558 78.1519 84.4827 78.0401 84.4949 77.9262L84.5083 77.8326L84.6574 76.707L85.6683 70.4502" stroke="black" stroke-width="1.01668" stroke-miterlimit="10"/>
<path d="M98.9141 70.123L99.0096 78.6655V78.9368C99.0144 79.2128 99.1141 79.4784 99.2921 79.6894C99.47 79.9004 99.715 80.0435 99.9862 80.0949L100.67 80.2306" stroke="black" stroke-width="1.01668" stroke-miterlimit="10"/>
<path d="M80.782 55.5815C80.3138 60.6248 82.0624 66.3255 85.3437 70.0807C91.4591 77.0847 96.6189 70.0807 96.6189 70.0807" stroke="black" stroke-width="1.01668" stroke-miterlimit="10"/>
<path d="M101.45 57.1443C101.272 56.8099 101.377 56.2079 101.222 55.7856C101.02 55.2312 100.661 54.7475 100.188 54.3943C99.2099 53.6796 97.9142 53.7235 96.8803 53.091C95.9391 52.5031 95.1966 51.6454 94.7495 50.6295C94.608 50.3085 94.4972 49.8154 94.2182 49.5823C93.75 49.2001 93.4786 49.8785 93.19 50.1556C92.7849 50.5338 92.2752 50.7811 91.7275 50.8655C91.1798 50.9502 90.6193 50.8678 90.119 50.6295C89.6546 50.4021 89.3354 49.9435 88.8519 49.7619C88.3684 49.5804 88.3417 50.3811 88.2691 50.662C88.1372 51.1608 87.9002 51.5679 87.4244 51.8087C86.5778 52.2272 85.4197 51.952 84.6801 51.457C84.6304 51.4236 84.5723 51.4047 84.5123 51.4026C84.4523 51.4006 84.3931 51.4155 84.3413 51.4456C84.2893 51.4757 84.2471 51.5199 84.219 51.5728C84.1911 51.626 84.1786 51.686 84.1832 51.7456C84.2998 55.0804 80.3516 55.6747 80.3516 55.6747" stroke="black" stroke-width="1.01668" stroke-miterlimit="10"/>
<path d="M86.351 62.9139C88.3248 62.9139 89.9247 61.314 89.9247 59.3403C89.9247 57.3665 88.3248 55.7666 86.351 55.7666C84.3773 55.7666 82.7773 57.3665 82.7773 59.3403C82.7773 61.314 84.3773 62.9139 86.351 62.9139Z" stroke="black" stroke-width="1.01668" stroke-miterlimit="10"/>
<path d="M95.6147 62.599C97.5884 62.599 99.1884 60.9991 99.1884 59.0253C99.1884 57.0518 97.5884 55.4517 95.6147 55.4517C93.641 55.4517 92.041 57.0518 92.041 59.0253C92.041 60.9991 93.641 62.599 95.6147 62.599Z" stroke="black" stroke-width="1.01668" stroke-miterlimit="10"/>
<path d="M84.8584 59.7017C84.8584 59.7017 86.2974 61.3528 87.7804 59.7017" stroke="black" stroke-width="1.01668" stroke-miterlimit="10"/>
<path d="M94.1533 59.7017C94.1533 59.7017 95.5943 61.3528 97.0753 59.7017" stroke="black" stroke-width="1.01668" stroke-miterlimit="10"/>
<path d="M89.9268 59.3409C89.9268 59.3409 90.737 58.0223 92.0404 59.0256" stroke="black" stroke-width="1.01668" stroke-miterlimit="10"/>
<path d="M88.2824 54.0399C88.2824 54.0399 84.5731 51.2039 81.46 53.8793" stroke="black" stroke-width="1.01668" stroke-miterlimit="10"/>
<path d="M99.1345 52.5509C99.1345 52.5509 94.7295 51.0125 92.6025 54.5136" stroke="black" stroke-width="1.01668" stroke-miterlimit="10"/>
<path d="M83.7232 67.9325C83.7146 68.5263 83.5197 69.1023 83.1658 69.5789C82.8116 70.0557 82.3169 70.4091 81.751 70.5889C79.9202 71.1316 77.9824 69.7557 77.1893 68.1695C76.8992 67.6216 76.7666 67.0041 76.806 66.3855C76.8455 65.7669 77.0555 65.1712 77.4129 64.6646C77.445 64.6138 77.4662 64.5568 77.4756 64.4974C77.485 64.4382 77.4821 64.3774 77.4674 64.3191C77.4525 64.2608 77.4259 64.2062 77.3894 64.1586C77.3527 64.1108 77.3068 64.071 77.2543 64.0416C76.8985 63.828 76.6041 63.5256 76.4002 63.1643C76.1961 62.8029 76.0895 62.3947 76.0905 61.9796C76.0908 61.8047 76.1101 61.6306 76.1478 61.4598C76.1594 61.3975 76.1581 61.3335 76.1436 61.2717C76.1293 61.2098 76.1021 61.1517 76.0639 61.1011C76.0259 61.0504 75.9775 61.0082 75.9223 60.9772C75.8671 60.9461 75.8057 60.927 75.7426 60.9209C75.5557 60.9046 75.3704 60.8733 75.1884 60.8272C74.6786 60.6464 74.2182 60.3489 73.8438 59.9583C73.4696 59.5677 73.1918 59.095 73.0328 58.5779C72.2683 56.0763 74.2004 53.4047 76.6064 52.8027C75.8879 51.5414 74.9381 50.5247 74.5444 49.0609C74.1507 47.597 74.382 46.0834 75.4999 44.9922C77.2294 43.299 80.1629 43.8265 81.5599 45.684C80.6177 44.2737 80.9713 42.355 82.0281 41.1147C83.3028 39.6241 85.8101 39.2992 87.5587 40.0579C88.3938 40.4248 88.9289 41.1835 89.4984 41.8543C90.6451 38.6341 95.1456 38.6055 97.5249 40.3025C98.7728 41.1892 99.5869 42.8041 99.1798 44.2737C98.9696 45.0209 99.3556 45.4681 100.135 45.1222C100.949 44.7629 101.62 44.3081 102.562 44.4093C105.83 44.7552 108.148 49.229 105.695 51.7994C105.437 52.0708 104.859 52.3555 104.739 52.7205C104.46 53.5002 106.197 53.6894 106.65 53.8863C110.703 55.589 109.815 63.9403 104.846 64.1085C104.995 64.8213 105.335 65.6068 105.28 66.3387C105.171 67.8924 104.074 68.7313 102.582 68.7791C102.69 69.4786 102.257 70.2029 101.626 70.5354C100.827 70.9616 99.5238 70.8603 98.9142 70.1226C97.9587 68.9569 98.9429 67.4299 99.4302 66.3196C100.149 64.6914 100.5 62.937 100.827 61.1941C101.125 59.7507 101.316 58.2874 101.4 56.8159V56.7548" stroke="black" stroke-width="1.01668" stroke-miterlimit="10"/>
<path d="M44.7687 19.6563L43.3125 25.3302H43.3526L43.8476 24.0364L54.2113 16.0234L55.2623 11.8955L44.7687 19.6563ZM48.5431 7.82305C48.2772 7.96433 48.0439 8.15978 47.8583 8.39675C47.6726 8.63372 47.5388 8.907 47.4652 9.19901L45.3287 17.5083L55.9102 9.33278L57.5097 3.04541L48.5431 7.82305ZM50.3242 11.0718C50.1961 11.7235 49.7967 12.1975 49.4298 12.1287C49.0629 12.0599 48.8737 11.4655 49.0094 10.8081C49.145 10.1507 49.5387 9.67486 49.9056 9.7494C50.2726 9.82393 50.4541 10.403 50.3242 11.0604V11.0718ZM44.9732 24.9079L45.279 24.8257C45.3999 24.7749 45.5301 24.7495 45.6612 24.7512C45.806 24.7518 45.9488 24.7848 46.0791 24.8477C46.2095 24.9108 46.3241 25.0021 46.4145 25.1152C46.5049 25.2284 46.5687 25.3602 46.6014 25.5013C46.6341 25.6423 46.6347 25.7889 46.6033 25.9303L44.8547 32.8579L50.3184 31.3673L53.5787 18.525L44.9732 24.9079Z" fill="#D7E8F0"/>
<path d="M41.6689 92.0692C42.4143 86.2749 42.7621 80.3659 43.4902 74.5277L43.6087 73.6142C43.8131 72.0356 44.0539 70.4571 44.3482 68.8958C44.358 68.8205 44.3721 68.7458 44.3903 68.6722C44.5585 67.7472 44.7438 66.8299 44.9636 65.9107C45.5885 63.1607 47.1747 61.1484 48.7227 58.9086L48.8201 58.6678C52.1662 53.7965 54.0191 48.0551 54.152 42.1467C54.1883 40.0102 54.1042 35.7867 51.6542 34.9115C50.2783 34.4184 48.8201 35.3797 48.0576 36.4785C47.739 36.9311 47.482 37.4239 47.2932 37.9443" stroke="black" stroke-width="1.01668" stroke-miterlimit="10"/>
<path d="M29.3911 63.5015C26.9565 72.2254 22.9031 80.443 20.9099 89.2873C19.081 97.3883 18.5306 109.178 26.2054 114.613C32.9495 119.39 42.759 118.213 50.2962 116.39C52.4903 115.868 54.6501 115.211 56.7632 114.423C58.3914 113.82 59.9164 113.026 61.5084 112.377C61.5084 112.377 58.5863 141.478 62.655 163.767" stroke="black" stroke-width="1.01668" stroke-miterlimit="10"/>
<path d="M29.3934 63.5032L29.7966 62.0546C30.3334 60.1335 30.204 58.0873 29.4297 56.2489L28.6308 54.3378C28.1091 52.7478 27.9467 51.9776 28.6003 50.422C28.9108 49.6886 29.346 49.0142 29.8864 48.4288C31.4649 46.6878 33.6875 45.8221 35.975 45.5278C38.2626 45.2335 40.7928 45.4629 42.6351 46.9458C43.8849 47.9549 45.0621 50.3513 44.2518 51.9146C43.6575 53.0612 42.4019 53.3861 41.3317 52.9771C40.9575 52.8382 40.6206 52.6146 40.3475 52.3235C39.0862 51.0011 36.3343 50.7316 35.3902 52.0159" stroke="black" stroke-width="1.01668" stroke-miterlimit="10"/>
<path d="M30.414 44.3768C30.2229 43.6391 30.2515 42.7065 30.6911 41.5102C31.3217 39.7998 33.1582 38.6761 34.9489 37.9384C35.6025 37.6671 36.2522 37.4454 36.8275 37.2715C38.7806 36.6695 40.9229 36.3522 42.9964 36.5625C43.6973 36.6315 44.3908 36.7639 45.0679 36.9581C45.8486 37.1843 46.5954 37.514 47.2886 37.9384C49.0085 38.9876 50.1552 40.5852 50.8565 42.6817C51.4623 44.4895 51.6974 46.6395 50.1953 47.7689" stroke="black" stroke-width="1.01668" stroke-miterlimit="10"/>
<path d="M44.5041 50.4833L45.0373 51.5478C45.7042 52.2797 46.6292 52.7422 47.9038 52.4249C50.3882 51.8058 50.6367 49.7495 50.1971 47.7773C50.123 47.4195 50.0272 47.0667 49.9105 46.7204C49.3371 44.9833 48.4256 43.5844 47.1643 42.5639C46.2672 41.839 45.2312 41.3057 44.12 40.9968C43.2166 40.7356 42.2848 40.5861 41.3451 40.5516C39.4937 40.4931 37.6457 40.7516 35.8814 41.316C34.1156 41.8568 31.7019 42.7875 30.4158 44.3851C30.1278 44.7354 29.9006 45.1314 29.7431 45.5566C29.3475 46.6306 29.2806 47.5021 29.4201 48.2053L29.5443 48.8436" stroke="black" stroke-width="1.01668" stroke-miterlimit="10"/>
<path d="M37.8613 40.8229V40.8164" stroke="black" stroke-width="0.678425" stroke-miterlimit="10"/>
<path d="M65.631 166.024C65.6151 166.598 65.3762 167.144 64.9648 167.545C64.5535 167.946 64.0022 168.172 63.4275 168.174H44.768C44.3487 168.174 43.9386 168.051 43.5889 167.82C43.6028 167.247 43.84 166.702 44.2499 166.302C44.6596 165.901 45.2096 165.677 45.7828 165.676H64.4519C64.8696 165.679 65.278 165.8 65.631 166.024Z" fill="#D7E8F0"/>
<path d="M65.631 166.024C65.6151 166.598 65.3762 167.144 64.9648 167.545C64.5535 167.946 64.0022 168.172 63.4275 168.174H44.768C44.3487 168.174 43.9386 168.051 43.5889 167.82C43.6028 167.247 43.84 166.702 44.2499 166.302C44.6596 165.901 45.2096 165.677 45.7828 165.676H64.4519C64.8696 165.679 65.278 165.8 65.631 166.024Z" fill="#D7E8F0"/>
<path d="M43.3184 25.3335L47.4673 9.19465C47.5431 8.90359 47.6784 8.63146 47.8646 8.39544C48.0507 8.1592 48.2837 7.96416 48.5489 7.82247L61.353 1L53.8617 30.3959L44.8319 32.8573" stroke="black" stroke-width="1.01668" stroke-miterlimit="10"/>
<path d="M40.048 52.0519V52.0577L39.4479 54.4484L34.7754 54.4599L35.3869 52.0214L35.3946 52.0156" stroke="black" stroke-width="1.01668" stroke-linecap="round" stroke-linejoin="round"/>
<path d="M39.2549 36.7082L42.0412 25.6699L45.2785 24.8176C45.3963 24.7666 45.523 24.74 45.6512 24.7393C45.7962 24.7402 45.939 24.7738 46.0693 24.8373C46.1997 24.9007 46.3141 24.9925 46.4045 25.1058C46.4947 25.2193 46.5586 25.3514 46.5912 25.4926C46.6239 25.6338 46.6247 25.7806 46.5933 25.9222L43.8968 36.6967" stroke="black" stroke-width="1.01668" stroke-linecap="round" stroke-linejoin="round"/>
<path d="M47.1767 33.7764L46.2881 37.4093" stroke="black" stroke-width="1.01668" stroke-linecap="round" stroke-linejoin="round"/>
<path d="M42.4387 53.1377L41.5195 56.891" stroke="black" stroke-width="1.01668" stroke-linecap="round" stroke-linejoin="round"/>
<path d="M39.4479 54.4482L41.5195 56.8906H36.9139L34.7754 54.4597L39.4479 54.4482Z" stroke="black" stroke-width="1.01668" stroke-linecap="round" stroke-linejoin="round"/>
<path d="M50.3289 11.0606C50.4596 10.4043 50.271 9.8136 49.9075 9.74117C49.5442 9.66893 49.1439 10.1423 49.0131 10.7986C48.8824 11.4548 49.071 12.0455 49.4345 12.1178C49.7978 12.1902 50.1982 11.7168 50.3289 11.0606Z" fill="black"/>
<path d="M65.7305 155.892C65.7309 158.323 66.4519 160.699 67.8026 162.72C69.1534 164.741 71.0728 166.316 73.3187 167.246C75.5644 168.176 78.0354 168.419 80.4192 167.944C82.8033 167.47 84.993 166.299 86.7116 164.58C88.43 162.861 89.6003 160.672 90.0745 158.288C90.5486 155.904 90.3051 153.433 89.3748 151.187C88.4445 148.941 86.8692 147.022 84.8483 145.672C82.8272 144.321 80.4511 143.601 78.0205 143.601C76.4062 143.6 74.8078 143.918 73.3162 144.535C71.8248 145.153 70.4697 146.058 69.3284 147.2C68.1869 148.341 67.2817 149.697 66.6644 151.188C66.0471 152.68 65.7297 154.278 65.7305 155.892Z" stroke="black" stroke-width="1.01668" stroke-miterlimit="10"/>
<path d="M44.7688 168.18H63.4283C64.6474 168.18 65.6356 167.191 65.6356 165.972C65.6356 164.753 64.6474 163.765 63.4283 163.765H44.7688C43.5497 163.765 42.5615 164.753 42.5615 165.972C42.5615 167.191 43.5497 168.18 44.7688 168.18Z" stroke="black" stroke-width="1.01668" stroke-miterlimit="10"/>
<path d="M41.6689 89.3753C44.956 88.7867 48.1551 87.8464 51.3274 86.8336C54.3048 85.878 57.267 84.8614 60.2635 83.9861C63.8219 82.956 67.407 81.9948 71.0342 81.2074C72.8784 80.808 74.7359 80.4545 76.5992 80.1774C76.884 80.1372 77.1725 80.0952 77.4535 80.0627C78.1242 79.9729 78.8027 79.8926 79.4811 79.8181C80.1595 79.7435 80.8762 79.6824 81.5833 79.6002C81.6662 79.587 81.7507 79.587 81.8336 79.6002C81.8789 79.6031 81.9225 79.6174 81.9603 79.6423C81.9983 79.6671 82.0289 79.7013 82.0496 79.7416C82.0656 79.7898 82.0748 79.8401 82.0763 79.8907C82.2063 82.6312 83.9874 84.9951 86.294 86.373C89.4855 88.2841 93.9803 88.2363 97.2482 86.4934C99.593 85.2397 100.78 82.8337 100.671 80.2232C114.297 81.9126 129.807 87.1718 139.274 97.4342L139.314 97.4762C141.926 100.287 144.033 103.528 145.544 107.054C149.94 117.466 147.862 130.387 138.575 137.44C133.837 141.041 128.123 143.365 122.285 145.06C118.17 146.267 112.762 146.85 109.29 149.501" stroke="black" stroke-width="1.01668" stroke-miterlimit="10"/>
<path d="M97.3241 155.337C97.2701 155.325 97.2103 155.306 97.1543 155.289" stroke="black" stroke-width="1.01668" stroke-miterlimit="10"/>
<path d="M115.995 105.976C119.401 108.036 121.552 112.885 122.575 116.565C124.016 121.75 121.212 126.235 117.448 129.574C115.6 131.215 113.553 132.582 111.546 134.013C107.89 136.627 104.158 139.053 99.9977 140.786C99.3842 141.042 98.7306 140.948 98.0866 140.824C97.2725 140.671 96.4813 140.409 95.6576 140.312C94.7403 140.205 93.9587 140.526 93.1733 140.989C91.9949 141.69 90.9175 142.548 89.9703 143.54L78.0205 143.603C81.28 143.603 84.4061 144.898 86.7108 147.203C89.0156 149.507 90.3105 152.633 90.3105 155.893C90.3105 159.152 89.0156 162.278 86.7108 164.583C84.4061 166.888 81.28 168.183 78.0205 168.183H101.29C103.592 168.183 105.847 167.536 107.8 166.317C109.752 165.097 111.323 163.353 112.333 161.285C113.342 159.216 113.751 156.905 113.511 154.615C113.271 152.326 112.393 150.15 110.977 148.335" stroke="black" stroke-width="1.01668" stroke-miterlimit="10"/>
<path d="M81.3149 156.105C81.3155 156.547 81.2289 156.984 81.0602 157.392C80.8916 157.8 80.6442 158.17 80.3321 158.483C80.0202 158.795 79.6496 159.043 79.2416 159.211C78.8338 159.38 78.3968 159.467 77.9553 159.467C77.0779 159.446 76.2434 159.083 75.6303 158.455C75.017 157.827 74.6738 156.984 74.6738 156.106C74.6738 155.228 75.017 154.386 75.6303 153.758C76.2434 153.13 77.0779 152.766 77.9553 152.746C78.3966 152.745 78.8336 152.832 79.2413 153.001C79.6491 153.169 80.0194 153.417 80.3315 153.729C80.6436 154.041 80.8909 154.411 81.0596 154.819C81.2284 155.227 81.3151 155.664 81.3149 156.105Z" fill="#D7E8F0"/>
<path d="M106.414 150.557C106.607 151.16 106.694 151.792 106.672 152.425C106.661 153.072 106.562 153.715 106.377 154.336C106.316 154.546 106.251 154.75 106.186 154.949C106.156 155.027 106.127 155.098 106.097 155.171C105.912 155.567 105.769 155.981 105.67 156.407C105.592 156.877 105.688 157.321 106.244 157.531C106.538 157.622 106.849 157.647 107.154 157.604C107.459 157.562 107.751 157.452 108.009 157.284C110.425 155.549 110.112 152.199 109.307 149.503C109.127 148.901 108.925 148.331 108.713 147.821" stroke="black" stroke-width="1.01668" stroke-miterlimit="10"/>
<path d="M105.731 156.093C105.407 156.934 104.776 158.004 104.011 158.489C104.011 158.489 104 158.489 103.994 158.501C103.653 158.698 103.273 158.817 102.88 158.85C102.488 158.883 102.093 158.829 101.724 158.692C100.709 158.237 100.996 157.228 101.374 156.382C101.495 156.122 101.615 155.883 101.718 155.678C102.557 153.924 102.729 152.145 102.53 150.115" stroke="black" stroke-width="1.01668" stroke-miterlimit="10"/>
<path d="M101.381 156.377C101.178 156.879 100.34 158.133 99.5159 158.584C98.9005 158.922 98.0119 158.903 97.4577 158.454C96.3856 157.59 96.9856 156.019 97.4749 155.005C98.3196 153.25 98.7362 151.07 98.224 149.155" stroke="black" stroke-width="1.01668" stroke-miterlimit="10"/>
<path d="M89.9854 143.541C91.5448 143.541 92.5576 143.592 93.043 143.63C93.263 143.644 93.4786 143.698 93.6794 143.789C97.1709 145.473 94.4591 151.747 93.7176 153.283C93.3354 154.088 92.8214 155.873 94.0062 156.406C94.3401 156.529 94.6965 156.577 95.051 156.548C95.4055 156.519 95.7493 156.413 96.0587 156.238C96.732 155.813 97.2909 155.229 97.6869 154.539C97.6869 154.539 97.6869 154.527 97.6984 154.514" stroke="black" stroke-width="1.01668" stroke-miterlimit="10"/>
<path d="M127.003 143.188C127.238 151.247 127.053 159.841 126.118 168.255" stroke="black" stroke-width="1.01668" stroke-miterlimit="10"/>
<path d="M30.4121 168.18H151.919" stroke="black" stroke-width="1.01668" stroke-miterlimit="10"/>
<path d="M92.4922 68.0877C92.4922 68.0877 94.4548 68.2788 95.8117 66.0142" stroke="black" stroke-width="1.01668" stroke-miterlimit="10"/>
<path d="M82.7197 37.9692C82.7197 38.0055 97.8706 38.3304 97.8706 38.3304L97.1425 45.4185C97.1425 45.4185 96.4545 46.3397 93.4751 47.2589C90.4958 48.1781 84.7951 48.761 83.7479 44.9522C83.1186 42.6758 82.7732 40.3303 82.7197 37.9692Z" fill="white"/>
<path d="M96.8291 33.9186C101.479 32.4529 105.085 27.507 102.509 22.7485C100.202 18.4869 94.7556 17.4472 91.631 21.491C91.631 21.491 88.2427 15.1635 82.5936 17.6479C80.2086 18.699 78.332 21.2082 77.6497 23.6868C76.3311 28.4759 79.5092 32.191 83.9562 33.4026C83.9562 33.4026 88.2886 34.5951 90.4156 31.6579C90.4156 31.6579 91.4131 32.8867 94.1249 33.4026" stroke="black" stroke-width="1.01668" stroke-miterlimit="10"/>
<path d="M81.9365 32.6294L83.7597 45.0321C83.8 45.3228 83.9007 45.602 84.0553 45.8514C84.2101 46.101 84.4154 46.3152 84.6579 46.4807C86.137 47.4649 89.7738 49.0033 95.9331 46.3852C96.2855 46.2342 96.5913 45.9919 96.8185 45.6831C97.0455 45.3742 97.186 45.0102 97.225 44.6289L98.3907 33.2734" stroke="black" stroke-width="1.01668" stroke-miterlimit="10"/>
<path d="M105.54 156.94C105.505 156.243 106.08 155.178 106.08 155.178C105.989 155.789 105.806 156.383 105.54 156.94Z" fill="#2E2E2E"/>
<path d="M121.069 112.425L121.713 112.859L121.272 112.817C121.144 112.56 121.069 112.425 121.069 112.425Z" fill="#2E2E2E"/>
<path d="M94.0064 156.406C93.2611 156.188 93.1388 155.469 93.3433 154.453C93.2477 155.294 93.4102 155.959 94.0064 156.406Z" fill="black"/>
<path d="M93.7031 143.804C93.964 143.943 94.2055 144.116 94.4217 144.318C94.1637 144.115 93.9057 143.953 93.7031 143.804Z" fill="black"/>
<path d="M95.2627 148.717C95.4209 148.22 95.5253 147.708 95.5742 147.188C95.5484 147.711 95.4435 148.226 95.2627 148.717Z" fill="black"/>
<path d="M96.6569 156.14C96.3818 156.272 96.0935 156.374 95.7969 156.445C96.1753 156.243 96.4734 156.017 96.6569 156.14Z" fill="black"/>
<path d="M96.8676 156.94C96.8886 157.672 97.1122 158.167 97.4581 158.452C96.7052 158.092 96.6937 157.38 96.8542 156.77C96.8626 156.826 96.8672 156.883 96.8676 156.94Z" fill="black"/>
<path d="M100.101 158.146C100.284 157.99 100.503 157.881 100.739 157.829C100.43 158.044 100.1 158.228 99.7549 158.378C99.8747 158.308 99.9903 158.23 100.101 158.146Z" fill="black"/>
<path d="M102.181 158.817C101.497 158.872 101.361 158.473 101.321 158.114C101.551 158.414 101.734 158.817 102.181 158.817Z" fill="black"/>
<path d="M105.232 157.441C105.126 157.598 105.004 157.743 104.867 157.875C104.937 157.694 105.066 157.541 105.232 157.441Z" fill="black"/>
<path d="M105.796 157.441C105.918 157.47 106.06 157.502 106.23 157.536C106.078 157.558 105.924 157.524 105.796 157.441Z" fill="black"/>
<path d="M111.036 148.643C110.48 148.909 110.025 149.132 109.727 149.281C109.761 149.205 109.815 149.138 109.883 149.09C110.195 148.901 110.581 148.563 111.036 148.643Z" fill="black"/>
<path d="M101.03 157.015C101.024 157.104 101.001 157.192 100.963 157.273C100.953 156.932 101.037 156.743 101.03 157.015Z" fill="#D7E8F0"/>
<path d="M13.6179 56.6282L2.72491 57.5092C2.51572 57.526 2.30528 57.5014 2.10563 57.4368C1.90596 57.3722 1.72099 57.2688 1.56128 57.1328C1.40156 56.9967 1.27021 56.8304 1.17477 56.6435C1.07932 56.4566 1.0216 56.2527 1.00496 56.0434C0.971666 55.6215 1.10706 55.2035 1.38145 54.8811C1.65586 54.5586 2.04688 54.3581 2.46883 54.3235L14.0613 53.3813" stroke="#CCDDE2" stroke-width="1.01668" stroke-miterlimit="10"/>
<path d="M15.3142 53.2812H15.3076" stroke="#CCDDE2" stroke-width="1.01668" stroke-miterlimit="10"/>
<path d="M60.2997 53.8353C61.8691 53.8353 63.1415 52.5631 63.1415 50.9936C63.1415 49.4242 61.8691 48.1519 60.2997 48.1519C58.7304 48.1519 57.458 49.4242 57.458 50.9936C57.458 52.5631 58.7304 53.8353 60.2997 53.8353Z" stroke="#CCDDE2" stroke-width="1.01668" stroke-miterlimit="10"/>
<path d="M156.009 167.789V112.86H169.912C171.007 116.194 171.788 119.623 172.243 123.103C174.378 139.697 172.88 164.407 156.009 167.789Z" stroke="#CCDDE2" stroke-width="1.01668" stroke-miterlimit="10"/>
<path d="M156.009 130.396H172.95" stroke="#CCDDE2" stroke-width="1.01668" stroke-miterlimit="10"/>
<path d="M156.009 146.55H172.064" stroke="#CCDDE2" stroke-width="1.01668" stroke-miterlimit="10"/>
</svg>
