<svg width="1483" height="1482" viewBox="0 0 1483 1482" fill="none" xmlns="http://www.w3.org/2000/svg">
<path d="M418.019 585.649C418.019 585.649 439.834 640.676 512.007 643.373" stroke="#BCBCBC" stroke-width="6.38815" stroke-miterlimit="10"/>
<path d="M596.73 633.76C596.73 633.76 638.226 622.882 665.48 581.223" stroke="#BCBCBC" stroke-width="6.38815" stroke-miterlimit="10"/>
<path d="M1209.5 1388.86C1213.65 1386.28 1239.63 1388.86 1244.52 1388.86C1255.17 1388.9 1265.79 1387.89 1276.22 1385.82C1407.06 1359.59 1418.67 1167.96 1402.12 1039.28C1398.59 1012.3 1392.53 985.702 1384.04 959.847C1359.54 884.147 1315.65 814.018 1262.03 756.457C1242.09 735.072 1218.03 716.236 1204.95 689.426C1181.04 640.328 1199.75 583.389 1210.88 533.565C1225.7 466.697 1231.91 393.886 1158.89 360.615C1005.51 290.694 835.818 416.175 835.818 416.175" stroke="#BCBCBC" stroke-width="6.38815" stroke-miterlimit="10"/>
<path d="M183.405 1152.6C174.78 1195.24 174.335 1239.86 189.007 1280.62C202.108 1317 227.984 1354.38 261.818 1375.16C281.211 1386.94 304.055 1391.74 326.551 1388.75" stroke="#BCBCBC" stroke-width="6.38815" stroke-miterlimit="10"/>
<path d="M511.97 742.535L511.97 599.863L511.97 595.654L511.97 561.642L511.97 548.971L511.97 479.999" stroke="#BCBCBC" stroke-width="6.38815" stroke-miterlimit="10"/>
<path d="M606.064 716.822L606.064 646.709C606.068 643.844 605.169 641.05 603.496 638.727C601.823 636.401 599.46 634.662 596.742 633.756L556.076 620.196L556.076 479.999" stroke="#BCBCBC" stroke-width="6.38815" stroke-miterlimit="10"/>
<path d="M511.97 599.856C523.633 603.161 543.803 607.577 556.044 604.998" stroke="#BCBCBC" stroke-width="6.38815" stroke-miterlimit="10"/>
<path d="M511.97 561.685C526.479 562.841 544.574 564.101 556.074 567.094" stroke="#BCBCBC" stroke-width="6.38815" stroke-miterlimit="10"/>
<path d="M511.97 595.652C525.011 593.814 544.04 589.813 556.074 584.611" stroke="#BCBCBC" stroke-width="6.38815" stroke-miterlimit="10"/>
<path d="M511.97 548.968C537.356 541.928 549.924 533.244 556.074 525.997" stroke="#BCBCBC" stroke-width="6.38815" stroke-miterlimit="10"/>
<path d="M291.798 514.009L236.712 518.485" stroke="#BCBCBC" stroke-width="6.38815" stroke-miterlimit="10"/>
<path d="M284.875 489.719L230.308 494.135" stroke="#BCBCBC" stroke-width="6.38815" stroke-miterlimit="10"/>
<path d="M884.05 441.148L1122.81 421.749C1126.09 421.488 1129.33 422.536 1131.83 424.664C1134.33 426.793 1135.89 429.827 1136.15 433.101C1136.15 433.412 1136.15 433.738 1136.15 434.109C1136.16 437.224 1134.99 440.226 1132.87 442.516C1130.76 444.804 1127.86 446.212 1124.76 446.454L893.935 465.171" stroke="#BCBCBC" stroke-width="6.38815" stroke-miterlimit="10"/>
<path d="M518.496 495.665L466.863 499.815" stroke="#BCBCBC" stroke-width="6.38815" stroke-miterlimit="10"/>
<path d="M654.479 484.618L551.865 492.932" stroke="#BCBCBC" stroke-width="6.38815" stroke-miterlimit="10"/>
<path d="M513.806 471.17L476.223 474.223" stroke="#BCBCBC" stroke-width="6.38815" stroke-miterlimit="10"/>
<path d="M643.603 460.653L552.505 468.004" stroke="#BCBCBC" stroke-width="6.38815" stroke-miterlimit="10"/>
<path d="M399.635 1178.88C400.628 1178.32 401.606 1177.74 402.599 1177.15C411.639 1171.68 412.825 1163.71 405.326 1156.68C373.315 1126.72 336.146 1101.08 295.391 1084.63C259.734 1070.22 217.646 1061.21 179.173 1066C161.389 1068.22 116.84 1077.01 128.355 1104.65C130.83 1110.58 135.513 1115.29 140.211 1119.68C202.322 1177.45 317.933 1225.52 399.635 1178.88Z" stroke="#BCBCBC" stroke-width="6.38815" stroke-miterlimit="10"/>
<path d="M132.576 1112.56C73.6514 1042.33 145.914 848.409 176.784 766.291C190.033 730.961 190.715 692.636 188.506 655.319C187.825 642.07 171.374 559.745 195.086 562.057C198.821 562.428 201.755 565.11 204.23 567.985C211.129 575.948 215.359 585.874 216.324 596.365C220.615 592.087 225.521 588.471 230.877 585.636C233.878 584.022 237.011 582.669 240.243 581.59C242.759 580.511 245.501 580.063 248.231 580.286C256.797 581.768 259.376 593.06 257.582 601.626C254.544 617.128 241.873 623.13 233.663 635.164C232.605 636.734 231.674 638.383 230.877 640.099C224.682 652.933 225.408 668.598 226.431 682.692C227.917 700.7 232.541 718.31 240.095 734.725" stroke="#BCBCBC" stroke-width="6.38815" stroke-miterlimit="10"/>
<path d="M385.853 998.759C400.939 1047.28 409.728 1097.68 410.246 1148.74C410.35 1154.04 410.246 1159.3 410.098 1164.61L410.098 1165.23C410.119 1166.22 410.079 1167.21 409.979 1168.2" stroke="#BCBCBC" stroke-width="6.38815" stroke-miterlimit="10"/>
<path d="M230.876 640.094C230.876 640.094 191.499 630.387 183.452 612.929" stroke="#BCBCBC" stroke-width="6.38815" stroke-miterlimit="10"/>
<path d="M230.88 585.644C230.88 585.644 257.437 473.012 202.455 480.422C147.473 487.832 183.411 566.126 183.411 566.126" stroke="#BCBCBC" stroke-width="6.38815" stroke-miterlimit="10"/>
<path d="M204.137 526.747C215.587 526.747 224.871 517.465 224.871 506.014C224.871 494.564 215.587 485.281 204.137 485.281C192.688 485.281 183.404 494.564 183.404 506.014C183.404 517.465 192.688 526.747 204.137 526.747Z" stroke="#BCBCBC" stroke-width="6.38815" stroke-miterlimit="10"/>
<path d="M1033.66 823.001C1038.69 827.547 1045.23 830.061 1052.01 830.055C1065.78 830.055 1076.98 820.066 1076.98 807.825C1076.98 778.916 1076.95 750.017 1076.88 721.128C1076.88 703.952 1080.55 671.303 1052.01 671.303C1032.45 671.303 1026.98 686.701 1027.04 701.314L1027.04 717.245" stroke="#BCBCBC" stroke-width="6.38815" stroke-miterlimit="10"/>
<path d="M1033.66 639.911C1036.05 642.364 1038.91 644.317 1042.05 645.661C1045.2 647.004 1048.59 647.709 1052.01 647.736C1055.28 647.739 1058.52 647.096 1061.55 645.843C1064.57 644.593 1067.32 642.758 1069.63 640.444C1071.94 638.131 1073.78 635.383 1075.03 632.36C1076.28 629.337 1076.92 626.096 1076.92 622.823C1076.92 590.546 1076.89 558.268 1076.82 525.99C1076.82 506.857 1080.55 470.326 1052.01 470.326C1032.45 470.326 1026.98 487.561 1026.98 503.863L1026.98 517.201" stroke="#BCBCBC" stroke-width="6.38815" stroke-miterlimit="10"/>
<path d="M1047.63 671.232L1056.43 671.232L1056.43 643.371L1047.63 643.371L1047.63 671.232Z" fill="#EDEDED"/>
<path d="M1008.76 868.056C1022.53 868.056 1033.69 858.068 1033.69 845.752C1033.69 816.853 1033.65 787.96 1033.58 759.07C1033.58 741.908 1037.29 709.245 1008.76 709.245C989.212 709.245 983.728 724.673 983.743 739.256C983.802 772.374 983.832 805.507 983.832 838.653C983.832 843.9 983.832 849.25 985.759 854.214C988.96 862.647 998.949 868.056 1008.76 868.056Z" stroke="#BCBCBC" stroke-width="6.38815" stroke-miterlimit="10"/>
<path d="M1008.75 685.789C1015.36 685.789 1021.7 683.162 1026.37 678.487C1031.05 673.813 1033.67 667.472 1033.67 660.862C1033.67 628.584 1033.64 596.306 1033.57 564.028C1033.57 544.851 1037.28 508.364 1008.75 508.364C989.199 508.364 983.716 525.6 983.73 541.887C983.73 578.897 983.76 615.907 983.819 652.919C983.819 658.847 983.819 664.775 985.731 670.317C988.947 679.728 998.951 685.789 1008.75 685.789Z" stroke="#BCBCBC" stroke-width="6.38815" stroke-miterlimit="10"/>
<path d="M1004.37 709.235L1013.17 709.235L1013.17 681.373L1004.37 681.373L1004.37 709.235Z" fill="#EDEDED"/>
<path d="M1010.81 508.702C1003.51 490.726 1004.78 472.645 1007.85 455.928C1008.9 450.297 1010.16 444.887 1011.36 439.626C1012.52 434.592 1015.35 430.099 1019.39 426.872C1023.42 423.644 1028.42 421.872 1033.59 421.842L1033.69 421.842C1039.37 421.839 1044.85 423.953 1049.05 427.77" stroke="#BCBCBC" stroke-width="6.38815" stroke-miterlimit="10"/>
<path d="M1057.01 452.017C1056.64 463.873 1052.02 470.364 1052.02 470.364" stroke="#BCBCBC" stroke-width="6.38815" stroke-miterlimit="10"/>
<path d="M889.076 1287.97C888.364 1292.71 886.95 1297.31 884.882 1301.63C884.615 1296.22 889.076 1287.97 889.076 1287.97Z" fill="#18284D"/>
<path d="M790.255 1282.33C791.515 1270.98 798.865 1255.52 805.075 1237.87C800.14 1254.16 792.508 1270.71 790.255 1282.33Z" fill="#18284D"/>
<path d="M809.254 1297.78C805.563 1299.79 800.791 1301.52 795.367 1297.47C799.887 1298.8 804.679 1298.91 809.254 1297.78Z" fill="#18284D"/>
<path d="M807.663 1224.13C807.668 1220.34 806.891 1216.59 805.381 1213.12C803.871 1209.65 801.661 1206.52 798.89 1203.94C803.558 1207.63 808.137 1213.25 807.663 1224.13Z" fill="#18284D"/>
<path d="M815.956 1295.42C817.773 1294.52 819.501 1293.45 821.113 1292.22C819.557 1294.74 818.336 1297.47 817.482 1300.31C817.319 1297.37 816.801 1295.95 815.956 1295.42Z" fill="#18284D"/>
<path d="M839.975 1312.78C833.618 1316.51 826.637 1317.22 822.191 1313.36C828.357 1316.35 834.729 1315.03 839.975 1312.78Z" fill="#18284D"/>
<path d="M852.133 1310.74C850.978 1309.25 849.718 1308.16 847.687 1308.53C848.577 1307.95 849.318 1307.42 849.94 1307.05C852.237 1305.48 851.763 1307.95 852.133 1310.74Z" fill="#18284D"/>
<path d="M858.808 1316.18C865.165 1315.66 873.272 1314.98 879.63 1308.87C879.259 1309.45 878.948 1310.15 878.578 1310.87C875.05 1318.18 865.862 1316.18 858.808 1316.18Z" fill="#18284D"/>
<path d="M886.726 1305.51C885.345 1305.16 883.899 1305.16 882.518 1305.51C883.414 1304.28 884.207 1302.98 884.889 1301.62C884.843 1302.37 884.987 1303.12 885.308 1303.8C885.628 1304.48 886.117 1305.07 886.726 1305.51Z" fill="#18284D"/>
<path d="M893.394 1306.94C892.238 1306.73 891.186 1306.47 890.237 1306.26C896.966 1305.89 904.168 1306.16 909.8 1300.01C905.591 1304.9 899.811 1308.2 893.394 1306.94Z" fill="#18284D"/>
<path d="M911.511 1297.8C912.2 1296.77 912.818 1295.69 913.363 1294.58C912.818 1295.69 912.198 1296.77 911.511 1297.8Z" fill="#18284D"/>
<path d="M915.967 1288.17C915.655 1289.2 915.314 1290.18 914.974 1291.14C915.362 1290.17 915.694 1289.18 915.967 1288.17Z" fill="#18284D"/>
<path d="M913.381 1294.58C913.965 1293.44 914.488 1292.27 914.952 1291.08C914.512 1292.28 913.986 1293.45 913.381 1294.58Z" fill="#18284D"/>
<path d="M916.422 1245.75C916.148 1245.3 915.788 1244.92 915.364 1244.61C914.939 1244.31 914.457 1244.09 913.947 1243.97L917.311 1242.24C916.853 1243.36 916.554 1244.54 916.422 1245.75Z" fill="#18284D"/>
<path d="M1158.86 1136.03C1112.34 1182.92 1052 1198.17 1052 1198.17C1054.58 1239.67 1045.54 1379.23 1044.85 1385.32C1044.17 1391.41 1010.62 1389.36 1010.62 1389.36L866.272 1389.16C870.718 1387.84 874.942 1386.47 878.884 1384.95C948.85 1358.27 953.488 1304.79 943.233 1266.25C937.453 1244.48 932.029 1238.1 927.464 1237.28C940.076 1231.35 959.787 1223.04 978.875 1218.42C1010.41 1210.8 1114.55 1182.34 1147.72 1145.07C1150.96 1141.52 1154.72 1138.47 1158.86 1136.03Z" fill="#18284D"/>
<path d="M1146.41 840.306C1146.41 840.306 1096.76 795.297 1040.91 855.748C1001.53 898.385 999.945 930.915 1002.48 946.432C1003.87 949.614 1004.81 952.976 1005.27 956.42L1010.26 959.784L1006.84 959.458C1013.05 972.026 1034.43 1020.98 1007.89 1052.72C977.182 1089.42 938.753 1137.19 835.043 1177.62C835.043 1177.62 783.529 1162.49 769.494 1197.7C769.494 1197.7 786.152 1194.74 792.88 1199.65C761.921 1196.61 659.5 1198.96 659.5 1198.96C659.5 1198.96 595.952 1208.38 580.228 1265.65C564.504 1322.93 585.548 1335 616.878 1371.74C622.806 1378.63 633.18 1384.36 646.681 1388.88L567.72 1388.78L574.404 1377.16C581.814 1359.06 563.837 1355.6 563.837 1355.6C545.534 1354.03 550.262 1343.3 550.262 1343.3C530.818 1221.03 534.819 1037.83 540.496 991.351C546.172 944.876 537.858 958.391 537.858 958.391C523.201 974.264 437.882 991.351 437.882 991.351C478.192 966.957 492.123 935.035 499.118 859.72C505.95 786.539 466.736 759.581 464.469 758.055C464.453 758.047 464.435 758.044 464.417 758.044C464.399 758.044 464.381 758.047 464.365 758.055L616.656 712.261L719.432 696.389C717.861 701.235 715.179 699.975 710.022 700.701L700.937 702.02C701.288 702.041 701.626 702.154 701.919 702.345C702.214 702.538 702.451 702.804 702.612 703.117C702.736 703.489 702.807 703.879 702.819 704.273C703.827 725.525 717.639 743.857 735.527 754.542C760.276 769.362 795.133 768.992 820.475 755.476C838.659 745.754 847.862 727.096 847.018 706.852C952.743 719.864 1073.05 760.648 1146.41 840.306Z" fill="#18284D"/>
<path d="M701.518 1195.86L722.074 1210.54L720.34 1209.42C705.56 1200.59 688.653 1195.94 671.434 1195.98L701.518 1195.86Z" fill="#EDEDED"/>
<path d="M849.864 1302.22C849.82 1302.91 849.644 1303.59 849.346 1304.22C849.272 1301.58 849.924 1300.11 849.864 1302.22Z" fill="#EDEDED"/>
<path d="M947.174 1291.23C947.167 1316.5 937.124 1340.74 919.251 1358.61C901.379 1376.48 877.141 1386.53 851.867 1386.53L671.434 1386.53C691.223 1386.54 710.523 1380.38 726.653 1368.91C742.782 1357.45 754.943 1341.24 761.444 1322.55C767.947 1303.86 768.469 1283.61 762.938 1264.61C757.407 1245.61 746.098 1228.8 730.58 1216.52C727.847 1214.39 725.003 1212.41 722.059 1210.59L805.051 1210.59C807.57 1214.74 811.142 1225.62 802.324 1249.6C790.231 1282.39 784.08 1295.85 800.842 1298.74C817.603 1301.63 820.108 1285.4 821.086 1292.28C822.064 1299.15 809.986 1304.89 822.138 1313.41C833.016 1321.03 846.532 1310.63 849.318 1304.27C849.318 1308.94 851.526 1317.25 863.56 1316.51C882.485 1315.35 885.79 1297.58 885.79 1297.58C886.116 1300.09 887.281 1302.41 889.095 1304.17C890.909 1305.92 893.265 1307.02 895.779 1307.26C904.863 1308.31 919.965 1295.58 918.542 1276.35C917.12 1257.11 911.547 1241.45 924.322 1237.24C925.924 1236.77 927.362 1235.86 928.472 1234.61C940.657 1250.97 947.219 1270.83 947.174 1291.23Z" fill="#EDEDED"/>
<path d="M880.138 581.638C879.911 581.668 879.683 581.668 879.456 581.638C880.093 584.736 881.249 588.04 882.035 591.36C882.656 593.848 882.921 596.414 882.82 598.978C881.975 611.026 873.469 617.532 861.894 617.858C862.182 620.618 861.628 623.398 860.304 625.837C858.982 628.275 856.953 630.257 854.484 631.522C848.29 634.783 838.182 634.042 833.455 628.321C827.942 621.637 830.669 613.383 834.047 606.091C835.248 603.512 836.463 601.097 837.456 598.889C838.671 596.147 839.724 593.42 840.657 590.634C843.961 580.336 846.513 569.81 848.29 559.141C850.493 548.387 851.949 537.492 852.647 526.537C851.92 523.855 852.38 520.017 851.328 517.23C849.801 512.909 847.019 509.142 843.34 506.412C835.767 500.84 825.719 501.21 817.686 496.275C810.421 491.74 804.691 485.126 801.236 477.291C800.54 475.66 799.917 473.556 798.969 471.718C798.53 470.731 797.882 469.852 797.072 469.14C793.441 466.101 791.351 471.451 789.143 473.586C786.864 475.694 784.16 477.292 781.213 478.272C778.266 479.25 775.144 479.588 772.055 479.262C769.723 478.958 767.451 478.288 765.327 477.276C763.765 476.424 762.304 475.4 760.97 474.223C759.396 472.683 757.56 471.438 755.546 470.547C751.767 469.065 751.559 475.379 751.026 477.528C749.974 481.425 748.136 484.582 744.461 486.42C742.415 487.424 740.173 487.967 737.895 488.005C735.241 488.102 732.59 487.746 730.056 486.953C727.613 486.224 725.292 485.139 723.164 483.737C722.783 483.475 722.336 483.327 721.875 483.307C721.413 483.29 720.956 483.402 720.556 483.634C720.156 483.865 719.828 484.204 719.613 484.613C719.399 485.022 719.304 485.485 719.341 485.945C720.067 506.501 700.831 513.659 692.946 515.704C689.982 548.308 698.874 584.41 716.658 612.375C715.993 616.544 714.296 620.481 711.723 623.831C698.726 627.091 683.743 623.579 678.126 612.375C672.198 600.519 672.969 583.935 682.231 575.414C675.814 574.436 674.006 564.936 677.697 559.364C678.008 558.845 678.171 558.534 677.948 558C677.163 555.851 667.723 554.073 665.144 553.243C661.463 551.92 658.14 549.759 655.438 546.928C652.738 544.099 650.733 540.68 649.583 536.941C644.114 518.905 657.986 499.669 675.34 495.297C670.183 486.212 663.351 478.847 660.52 468.339C657.69 457.832 659.305 446.835 667.352 438.996C670.604 435.897 674.575 433.656 678.909 432.476C683.242 431.295 687.802 431.214 692.176 432.238C694.734 434.101 697.001 436.334 698.904 438.862C697.73 437.137 696.794 435.263 696.118 433.29C701.997 435.292 707.154 438.99 710.938 443.916C704.165 433.764 706.684 419.937 714.317 411.001C723.505 400.227 741.585 397.855 754.212 403.383C755.124 403.809 756.001 404.304 756.835 404.865C758.051 406.347 759.251 407.829 760.466 409.222C760.606 408.843 760.764 408.472 760.94 408.111C763.492 410.74 765.911 413.495 768.187 416.366C776.398 393.083 808.928 393.024 826.119 405.176C830.169 408.06 833.484 411.857 835.796 416.262C836.677 420.128 836.605 424.151 835.589 427.984C834.537 431.675 835.381 434.461 837.738 435.246C839.516 435.676 841.389 435.433 842.999 434.565C849.312 431.719 854.514 428.251 861.82 429.037C885.74 431.571 903.079 462.574 888.941 482.818C888.106 484.077 887.158 485.258 886.11 486.346C884.109 488.391 879.634 490.658 878.7 493.489C878.675 493.556 878.675 493.63 878.7 493.696C876.922 499.624 890.112 501.003 893.639 502.588C924.672 515.556 918.092 579.637 880.138 581.638Z" fill="#E68145"/>
<path d="M700.934 701.929L710.018 700.61C712.521 700.263 714.878 699.223 716.822 697.608C718.765 695.992 720.217 693.864 721.015 691.466C721.333 690.638 721.542 689.771 721.637 688.887L721.741 688.161L722.897 679.432L730.737 630.912" stroke="#70727A" stroke-width="6.38815" stroke-miterlimit="10"/>
<path d="M833.455 628.379L834.196 694.624L834.196 696.729C834.233 698.869 835.007 700.929 836.386 702.565C837.766 704.201 839.666 705.311 841.769 705.71L847.075 706.762" stroke="#70727A" stroke-width="6.38815" stroke-miterlimit="10"/>
<path d="M692.843 515.612C689.212 554.722 702.773 598.93 728.219 628.052C775.643 682.367 815.657 628.052 815.657 628.052" stroke="#70727A" stroke-width="6.38815" stroke-miterlimit="10"/>
<path d="M853.125 527.73C851.747 525.136 852.562 520.468 851.362 517.192C849.797 512.893 847.011 509.142 843.344 506.404C835.756 500.861 825.708 501.202 817.691 496.296C810.392 491.738 804.634 485.086 801.167 477.208C800.07 474.718 799.21 470.895 797.047 469.087C793.416 466.123 791.311 471.384 789.073 473.533C785.932 476.466 781.979 478.383 777.732 479.038C773.484 479.695 769.138 479.056 765.258 477.208C761.656 475.445 759.181 471.888 755.432 470.48C751.683 469.072 751.475 475.282 750.912 477.46C749.889 481.328 748.052 484.485 744.361 486.352C737.796 489.598 728.815 487.464 723.08 483.625C722.695 483.366 722.244 483.219 721.779 483.203C721.313 483.188 720.854 483.304 720.452 483.536C720.049 483.77 719.722 484.113 719.504 484.523C719.288 484.935 719.191 485.401 719.227 485.863C720.131 511.724 689.513 516.333 689.513 516.333" stroke="#70727A" stroke-width="6.38815" stroke-miterlimit="10"/>
<path d="M736.028 572.475C751.334 572.475 763.741 560.067 763.741 544.761C763.741 529.455 751.334 517.048 736.028 517.048C720.722 517.048 708.314 529.455 708.314 544.761C708.314 560.067 720.722 572.475 736.028 572.475Z" stroke="#70727A" stroke-width="6.38815" stroke-miterlimit="10"/>
<path d="M807.884 570.027C823.19 570.027 835.598 557.62 835.598 542.313C835.598 527.009 823.19 514.6 807.884 514.6C792.578 514.6 780.171 527.009 780.171 542.313C780.171 557.62 792.578 570.027 807.884 570.027Z" stroke="#70727A" stroke-width="6.38815" stroke-miterlimit="10"/>
<path d="M724.464 547.562C724.464 547.562 735.623 560.366 747.124 547.562" stroke="#70727A" stroke-width="6.38815" stroke-miterlimit="10"/>
<path d="M796.537 547.562C796.537 547.562 807.711 560.366 819.197 547.562" stroke="#70727A" stroke-width="6.38815" stroke-miterlimit="10"/>
<path d="M763.759 544.762C763.759 544.762 770.042 534.536 780.15 542.317" stroke="#70727A" stroke-width="6.38815" stroke-miterlimit="10"/>
<path d="M751.019 503.648C751.019 503.648 722.253 481.655 698.111 502.403" stroke="#70727A" stroke-width="6.38815" stroke-miterlimit="10"/>
<path d="M835.167 492.1C835.167 492.1 801.007 480.17 784.513 507.321" stroke="#70727A" stroke-width="6.38815" stroke-miterlimit="10"/>
<path d="M715.659 611.384C715.592 615.989 714.081 620.456 711.336 624.152C708.59 627.849 704.753 630.59 700.365 631.984C686.167 636.193 671.14 625.523 664.989 613.222C662.74 608.973 661.711 604.185 662.016 599.388C662.323 594.59 663.952 589.971 666.723 586.042C666.972 585.648 667.137 585.206 667.209 584.746C667.282 584.286 667.26 583.815 667.146 583.363C667.03 582.911 666.824 582.487 666.541 582.118C666.256 581.747 665.901 581.439 665.493 581.211C662.734 579.554 660.451 577.21 658.87 574.407C657.287 571.605 656.46 568.439 656.468 565.22C656.471 563.864 656.62 562.514 656.912 561.189C657.003 560.706 656.992 560.21 656.88 559.731C656.769 559.251 656.558 558.8 656.262 558.407C655.967 558.015 655.592 557.687 655.164 557.447C654.735 557.206 654.26 557.057 653.771 557.01C652.321 556.884 650.884 556.641 649.473 556.284C645.519 554.882 641.949 552.574 639.045 549.545C636.144 546.516 633.989 542.851 632.756 538.841C626.828 519.441 641.811 498.723 660.469 494.055C654.897 484.273 647.531 476.389 644.478 465.037C641.425 453.685 643.219 441.947 651.888 433.485C665.3 420.355 688.049 424.445 698.883 438.85C691.576 427.913 694.318 413.034 702.514 403.415C712.398 391.856 731.842 389.336 745.403 395.22C751.879 398.065 756.029 403.949 760.445 409.151C769.337 384.179 804.238 383.957 822.689 397.117C832.366 403.993 838.68 416.516 835.523 427.913C833.893 433.708 836.886 437.175 842.933 434.493C849.246 431.707 854.448 428.18 861.754 428.965C887.097 431.648 905.073 466.341 886.044 486.274C884.044 488.378 879.568 490.587 878.634 493.417C876.471 499.464 889.942 500.931 893.454 502.457C924.888 515.662 917.996 580.425 879.464 581.73C880.62 587.257 883.258 593.349 882.828 599.025C881.984 611.073 873.477 617.579 861.903 617.95C862.747 623.374 859.383 628.991 854.493 631.569C848.298 634.874 838.191 634.089 833.463 628.368C826.053 619.328 833.685 607.487 837.464 598.876C843.037 586.25 845.764 572.645 848.298 559.129C850.605 547.936 852.092 536.588 852.744 525.177L852.744 524.702" stroke="#70727A" stroke-width="6.38815" stroke-miterlimit="10"/>
<path d="M413.559 237.012L402.267 281.012L402.578 281.012L406.416 270.979L486.785 208.839L494.936 176.828L413.559 237.012ZM442.829 145.246C440.767 146.342 438.958 147.858 437.519 149.695C436.078 151.533 435.041 153.652 434.47 155.917L417.902 220.354L499.96 156.954L512.364 108.196L442.829 145.246ZM456.641 170.44C455.648 175.494 452.551 179.169 449.705 178.636C446.86 178.102 445.393 173.493 446.445 168.395C447.497 163.297 450.55 159.607 453.396 160.185C456.241 160.763 457.649 165.253 456.641 170.351L456.641 170.44ZM415.145 277.737L417.516 277.1C418.455 276.706 419.464 276.509 420.48 276.522C421.604 276.526 422.711 276.783 423.722 277.27C424.732 277.759 425.621 278.468 426.322 279.345C427.023 280.222 427.518 281.245 427.772 282.339C428.025 283.432 428.03 284.569 427.787 285.666L414.226 339.388L456.597 327.829L481.88 228.238L415.145 277.737Z" fill="#EDEDED"/>
<path d="M389.531 798.559C395.311 753.625 398.008 707.802 403.655 662.527L404.574 655.443C406.159 643.201 408.027 630.96 410.309 618.852C410.384 618.268 410.494 617.689 410.635 617.118C411.939 609.945 413.377 602.832 415.081 595.703C419.927 574.377 432.228 558.772 444.232 541.403L444.988 539.535C470.936 501.759 485.306 457.236 486.336 411.417C486.617 394.848 485.965 362.096 466.966 355.308C456.295 351.484 444.988 358.939 439.074 367.46C436.604 370.97 434.611 374.792 433.146 378.827" stroke="#70727A" stroke-width="6.38815" stroke-miterlimit="10"/>
<path d="M294.331 577.025C275.45 644.678 244.017 708.404 228.56 776.991C214.377 839.813 210.109 931.238 269.626 973.386C321.926 1010.44 397.997 1001.31 456.447 987.168C473.462 983.123 490.211 978.029 506.598 971.919C519.224 967.236 531.051 961.085 543.396 956.046C543.396 956.046 520.736 1181.73 552.288 1354.57" stroke="#70727A" stroke-width="6.38815" stroke-miterlimit="10"/>
<path d="M294.329 577.045L297.456 565.812C301.619 550.913 300.616 535.046 294.61 520.789L288.416 505.969C284.37 493.638 283.11 487.666 288.179 475.602C290.587 469.915 293.961 464.685 298.152 460.145C310.394 446.644 327.629 439.931 345.369 437.648C363.108 435.366 382.73 437.145 397.017 448.645C406.709 456.47 415.838 475.054 409.554 487.177C404.945 496.069 395.209 498.588 386.909 495.417C384.008 494.339 381.395 492.605 379.277 490.348C369.496 480.093 348.155 478.003 340.834 487.962" stroke="#70727A" stroke-width="6.38815" stroke-miterlimit="10"/>
<path d="M302.251 428.721C300.769 423 300.991 415.768 304.4 406.491C309.29 393.227 323.532 384.513 337.419 378.792C342.487 376.688 347.526 374.969 351.987 373.62C367.133 368.952 383.746 366.492 399.826 368.122C405.262 368.657 410.64 369.684 415.891 371.19C421.945 372.944 427.736 375.501 433.112 378.792C446.45 386.929 455.342 399.318 460.78 415.576C465.478 429.595 467.301 446.268 455.653 455.026" stroke="#70727A" stroke-width="6.38815" stroke-miterlimit="10"/>
<path d="M411.527 476.07L415.662 484.324C420.834 490 428.007 493.587 437.892 491.127C457.158 486.325 459.084 470.379 455.676 455.085C455.101 452.31 454.358 449.574 453.453 446.889C449.007 433.418 441.937 422.569 432.156 414.656C425.2 409.034 417.166 404.898 408.548 402.503C401.543 400.477 394.316 399.318 387.029 399.05C372.672 398.597 358.341 400.602 344.659 404.978C330.965 409.172 312.248 416.39 302.274 428.779C300.04 431.496 298.278 434.566 297.057 437.864C293.989 446.193 293.471 452.95 294.553 458.404L295.516 463.354" stroke="#70727A" stroke-width="6.38815" stroke-miterlimit="10"/>
<path d="M360.007 401.158L360.007 401.11" stroke="#70727A" stroke-width="4.26277" stroke-miterlimit="10"/>
<path d="M575.36 1372.06C575.237 1376.52 573.384 1380.75 570.193 1383.86C567.004 1386.98 562.729 1388.72 558.272 1388.74L413.57 1388.74C410.318 1388.74 407.138 1387.79 404.426 1386C404.534 1381.55 406.373 1377.33 409.552 1374.22C412.729 1371.12 416.995 1369.37 421.439 1369.37L566.216 1369.37C569.455 1369.4 572.622 1370.33 575.36 1372.06Z" fill="#EDEDED"/>
<path d="M575.36 1372.06C575.237 1376.52 573.384 1380.75 570.193 1383.86C567.004 1386.98 562.729 1388.72 558.272 1388.74L413.57 1388.74C410.318 1388.74 407.138 1387.79 404.426 1386C404.534 1381.55 406.373 1377.33 409.552 1374.22C412.729 1371.12 416.995 1369.37 421.439 1369.37L566.216 1369.37C569.455 1369.4 572.622 1370.33 575.36 1372.06Z" fill="#EDEDED"/>
<path d="M402.315 281.039L434.49 155.884C435.078 153.627 436.127 151.517 437.571 149.687C439.014 147.855 440.821 146.342 442.878 145.243L542.172 92.3359L484.077 320.297L414.053 339.386" stroke="#70727A" stroke-width="6.38815" stroke-miterlimit="10"/>
<path d="M376.956 488.24L376.956 488.285L372.302 506.824L336.067 506.913L340.81 488.003L340.869 487.958" stroke="#70727A" stroke-width="6.38815" stroke-linecap="round" stroke-linejoin="round"/>
<path d="M370.813 369.247L392.421 283.647L417.526 277.037C418.439 276.641 419.422 276.435 420.416 276.429C421.541 276.437 422.648 276.697 423.659 277.189C424.669 277.681 425.557 278.393 426.258 279.272C426.958 280.152 427.453 281.176 427.706 282.271C427.959 283.366 427.965 284.505 427.722 285.603L406.811 369.158" stroke="#70727A" stroke-width="6.38815" stroke-linecap="round" stroke-linejoin="round"/>
<path d="M432.243 346.512L425.352 374.685" stroke="#70727A" stroke-width="6.38815" stroke-linecap="round" stroke-linejoin="round"/>
<path d="M395.501 496.654L388.373 525.761" stroke="#70727A" stroke-width="6.38815" stroke-linecap="round" stroke-linejoin="round"/>
<path d="M372.302 506.82L388.367 525.76L352.651 525.76L336.067 506.909L372.302 506.82Z" stroke="#70727A" stroke-width="6.38815" stroke-linecap="round" stroke-linejoin="round"/>
<path d="M456.692 170.356C457.706 165.266 456.243 160.686 453.424 160.124C450.607 159.564 447.502 163.235 446.489 168.324C445.475 173.413 446.938 177.994 449.756 178.554C452.574 179.116 455.678 175.445 456.692 170.356Z" fill="#70727A"/>
<path d="M576.119 1293.5C576.122 1312.35 581.714 1330.78 592.188 1346.45C602.663 1362.12 617.548 1374.33 634.965 1381.54C652.38 1388.76 671.542 1390.64 690.029 1386.96C708.517 1383.28 725.497 1374.2 738.825 1360.88C752.151 1347.54 761.227 1330.56 764.904 1312.08C768.581 1293.59 766.692 1274.43 759.478 1257.01C752.264 1239.6 740.048 1224.71 724.375 1214.24C708.702 1203.77 690.276 1198.18 671.427 1198.18C658.908 1198.18 646.513 1200.64 634.946 1205.43C623.38 1210.22 612.871 1217.24 604.021 1226.09C595.169 1234.94 588.149 1245.45 583.362 1257.02C578.575 1268.59 576.113 1280.98 576.119 1293.5Z" stroke="#70727A" stroke-width="6.38815" stroke-miterlimit="10"/>
<path d="M413.558 1388.79L558.261 1388.79C567.715 1388.79 575.378 1381.13 575.378 1371.67C575.378 1362.22 567.715 1354.56 558.261 1354.56L413.558 1354.56C404.105 1354.56 396.441 1362.22 396.441 1371.67C396.441 1381.13 404.105 1388.79 413.558 1388.79Z" stroke="#70727A" stroke-width="6.38815" stroke-miterlimit="10"/>
<path d="M389.531 777.673C415.022 773.108 439.83 765.817 464.432 757.962C487.521 750.552 510.492 742.668 533.73 735.881C561.325 727.893 589.127 720.438 617.255 714.332C631.557 711.235 645.962 708.493 660.411 706.344C662.619 706.033 664.857 705.707 667.036 705.455C672.238 704.759 677.499 704.136 682.76 703.558C688.021 702.98 693.578 702.506 699.062 701.869C699.705 701.766 700.36 701.766 701.003 701.869C701.354 701.891 701.692 702.002 701.986 702.195C702.281 702.387 702.518 702.653 702.678 702.965C702.802 703.339 702.873 703.729 702.885 704.121C703.893 725.373 717.705 743.706 735.593 754.391C760.342 769.211 795.199 768.84 820.541 755.324C838.725 745.603 847.929 726.944 847.084 706.7C952.751 719.801 1073.03 760.586 1146.45 840.169L1146.76 840.495C1167.01 862.295 1183.35 887.422 1195.07 914.773C1229.16 995.512 1213.05 1095.71 1141.02 1150.41C1104.29 1178.33 1059.97 1196.35 1014.7 1209.5C982.791 1218.86 940.85 1223.38 913.922 1243.94" stroke="#70727A" stroke-width="6.38815" stroke-miterlimit="10"/>
<path d="M821.12 1289.2C820.705 1289.11 820.245 1288.96 819.815 1288.83" stroke="#70727A" stroke-width="6.38815" stroke-miterlimit="10"/>
<path d="M965.922 906.411C992.331 922.387 1009.02 959.985 1016.95 988.529C1028.12 1028.74 1006.38 1063.52 977.185 1089.41C962.854 1102.14 946.982 1112.74 931.421 1123.84C903.07 1144.11 874.127 1162.92 841.864 1176.36C837.106 1178.34 832.038 1177.62 827.044 1176.65C820.73 1175.47 814.595 1173.44 808.207 1172.68C801.094 1171.85 795.032 1174.34 788.941 1177.93C779.803 1183.37 771.448 1190.02 764.103 1197.71L671.434 1198.2C696.711 1198.2 720.953 1208.24 738.826 1226.12C756.699 1243.99 766.741 1268.23 766.741 1293.51C766.741 1318.79 756.699 1343.03 738.826 1360.9C720.953 1378.78 696.711 1388.82 671.434 1388.82L851.882 1388.82C869.734 1388.82 887.228 1383.8 902.368 1374.34C917.509 1364.89 929.688 1351.37 937.519 1335.32C945.349 1319.28 948.516 1301.36 946.656 1283.6C944.797 1265.85 937.988 1248.97 927.005 1234.9" stroke="#70727A" stroke-width="6.38815" stroke-miterlimit="10"/>
<path d="M696.98 1295.15C696.985 1298.57 696.314 1301.96 695.005 1305.13C693.698 1308.29 691.779 1311.16 689.359 1313.59C686.94 1316.01 684.066 1317.93 680.902 1319.24C677.74 1320.55 674.35 1321.22 670.927 1321.22C664.123 1321.05 657.651 1318.24 652.897 1313.37C648.141 1308.5 645.479 1301.96 645.479 1295.16C645.479 1288.35 648.141 1281.81 652.897 1276.94C657.651 1272.07 664.123 1269.26 670.927 1269.1C674.349 1269.09 677.738 1269.77 680.899 1271.07C684.062 1272.38 686.934 1274.3 689.354 1276.72C691.774 1279.14 693.692 1282.01 695 1285.18C696.309 1288.34 696.982 1291.73 696.98 1295.15Z" fill="#EDEDED"/>
<path d="M891.616 1252.13C893.114 1256.81 893.792 1261.71 893.617 1266.61C893.537 1271.63 892.769 1276.62 891.335 1281.43C890.86 1283.06 890.356 1284.65 889.853 1286.19C889.615 1286.8 889.393 1287.35 889.156 1287.91C887.724 1290.98 886.617 1294.2 885.851 1297.5C885.244 1301.14 885.985 1304.58 890.297 1306.21C892.581 1306.92 894.991 1307.11 897.357 1306.78C899.723 1306.45 901.987 1305.6 903.991 1304.3C922.723 1290.84 920.293 1264.86 914.054 1243.95C912.661 1239.28 911.09 1234.87 909.445 1230.91" stroke="#70727A" stroke-width="6.38815" stroke-miterlimit="10"/>
<path d="M886.32 1295.06C883.801 1301.58 878.91 1309.88 872.982 1313.64C872.982 1313.64 872.893 1313.64 872.849 1313.73C870.203 1315.26 867.254 1316.18 864.212 1316.44C861.168 1316.7 858.106 1316.28 855.243 1315.21C847.373 1311.69 849.596 1303.86 852.53 1297.3C853.464 1295.28 854.398 1293.43 855.198 1291.84C861.704 1278.24 863.038 1264.44 861.497 1248.7" stroke="#70727A" stroke-width="6.38815" stroke-miterlimit="10"/>
<path d="M852.588 1297.25C851.017 1301.15 844.511 1310.87 838.123 1314.37C833.351 1316.99 826.46 1316.85 822.162 1313.36C813.848 1306.66 818.502 1294.48 822.296 1286.61C828.846 1273.01 832.077 1256.1 828.105 1241.25" stroke="#70727A" stroke-width="6.38815" stroke-miterlimit="10"/>
<path d="M764.216 1197.72C776.309 1197.72 784.164 1198.12 787.928 1198.42C789.634 1198.53 791.305 1198.94 792.863 1199.65C819.939 1212.7 798.909 1261.36 793.159 1273.27C790.195 1279.51 786.209 1293.35 795.397 1297.49C797.986 1298.44 800.75 1298.82 803.499 1298.59C806.248 1298.37 808.914 1297.55 811.314 1296.18C816.535 1292.89 820.87 1288.37 823.94 1283.01C823.94 1283.01 823.94 1282.92 824.029 1282.82" stroke="#70727A" stroke-width="6.38815" stroke-miterlimit="10"/>
<path d="M1051.28 1194.98C1053.1 1257.48 1051.67 1324.12 1044.42 1389.38" stroke="#70727A" stroke-width="6.38815" stroke-miterlimit="10"/>
<path d="M302.237 1388.8L1244.51 1388.8" stroke="#70727A" stroke-width="6.38815" stroke-miterlimit="10"/>
<path d="M783.669 612.595C783.669 612.595 798.889 614.077 809.411 596.516" stroke="#70727A" stroke-width="6.38815" stroke-miterlimit="10"/>
<path d="M707.869 379.028C707.869 379.309 825.362 381.829 825.362 381.829L819.716 436.796C819.716 436.796 814.38 443.939 791.276 451.068C768.172 458.196 723.964 462.716 715.842 433.18C710.962 415.527 708.284 397.338 707.869 379.028Z" fill="#F9F9F9"/>
<path d="M817.293 347.606C853.35 336.239 881.315 297.885 861.338 260.983C843.45 227.935 801.213 219.873 776.983 251.232C776.983 251.232 750.707 202.163 706.899 221.429C688.403 229.58 673.85 249.038 668.559 268.26C658.334 305.399 682.979 334.209 717.465 343.605C717.465 343.605 751.062 352.852 767.557 330.074C767.557 330.074 775.293 339.603 796.323 343.605" stroke="#70727A" stroke-width="6.38815" stroke-miterlimit="10"/>
<path d="M701.802 337.612L715.94 433.794C716.253 436.048 717.034 438.213 718.233 440.147C719.433 442.083 721.025 443.744 722.905 445.028C734.376 452.66 762.579 464.59 810.343 444.287C813.076 443.116 815.447 441.237 817.21 438.842C818.97 436.447 820.059 433.624 820.362 430.667L829.402 342.607" stroke="#70727A" stroke-width="6.38815" stroke-miterlimit="10"/>
<path d="M884.832 1301.63C884.565 1296.22 889.026 1287.97 889.026 1287.97C888.315 1292.71 886.901 1297.31 884.832 1301.63Z" fill="#18284D"/>
<path d="M1005.27 956.415L1010.26 959.779L1006.84 959.453C1005.85 957.467 1005.27 956.415 1005.27 956.415Z" fill="#18284D"/>
<path d="M795.406 1297.48C789.626 1295.79 788.678 1290.22 790.264 1282.34C789.523 1288.86 790.782 1294.02 795.406 1297.48Z" fill="#70727A"/>
<path d="M793.041 1199.76C795.064 1200.84 796.937 1202.18 798.613 1203.75C796.613 1202.18 794.612 1200.92 793.041 1199.76Z" fill="#70727A"/>
<path d="M805.137 1237.86C806.364 1234 807.173 1230.03 807.552 1226C807.352 1230.06 806.539 1234.05 805.137 1237.86Z" fill="#70727A"/>
<path d="M815.955 1295.41C813.823 1296.44 811.586 1297.23 809.286 1297.79C812.22 1296.22 814.532 1294.47 815.955 1295.41Z" fill="#70727A"/>
<path d="M817.582 1301.63C817.745 1307.3 819.479 1311.14 822.162 1313.35C816.323 1310.56 816.234 1305.04 817.479 1300.31C817.544 1300.75 817.579 1301.19 817.582 1301.63Z" fill="#70727A"/>
<path d="M842.662 1310.98C844.085 1309.77 845.785 1308.92 847.612 1308.52C845.214 1310.19 842.657 1311.61 839.979 1312.77C840.909 1312.23 841.805 1311.63 842.662 1310.98Z" fill="#70727A"/>
<path d="M858.807 1316.18C853.501 1316.61 852.449 1313.52 852.138 1310.73C853.916 1313.06 855.339 1316.18 858.807 1316.18Z" fill="#70727A"/>
<path d="M882.454 1305.52C881.63 1306.74 880.681 1307.86 879.623 1308.88C880.167 1307.48 881.163 1306.3 882.454 1305.52Z" fill="#70727A"/>
<path d="M886.823 1305.52C887.772 1305.74 888.868 1305.99 890.187 1306.26C889.014 1306.43 887.819 1306.16 886.823 1305.52Z" fill="#70727A"/>
<path d="M927.463 1237.29C923.151 1239.35 919.623 1241.08 917.312 1242.24C917.575 1241.65 917.995 1241.13 918.527 1240.76C920.942 1239.29 923.936 1236.67 927.463 1237.29Z" fill="#70727A"/>
<path d="M849.864 1302.22C849.82 1302.91 849.644 1303.59 849.346 1304.22C849.272 1301.58 849.924 1300.11 849.864 1302.22Z" fill="#EDEDED"/>
<path d="M171.998 523.727L87.5239 530.559C85.9017 530.689 84.2697 530.498 82.7215 529.997C81.1731 529.496 79.7387 528.694 78.5001 527.639C77.2615 526.584 76.2429 525.294 75.5028 523.845C74.7625 522.396 74.315 520.814 74.1859 519.192C73.9277 515.919 74.9777 512.678 77.1056 510.178C79.2336 507.676 82.2659 506.122 85.538 505.854L175.436 498.547" stroke="#BCBCBC" stroke-width="6.38815" stroke-miterlimit="10"/>
<path d="M185.152 497.763L185.104 497.763" stroke="#BCBCBC" stroke-width="6.38815" stroke-miterlimit="10"/>
<path d="M534.007 502.062C546.177 502.062 556.044 492.196 556.044 480.025C556.044 467.854 546.177 457.987 534.007 457.987C521.837 457.987 511.97 467.854 511.97 480.025C511.97 492.196 521.837 502.062 534.007 502.062Z" stroke="#BCBCBC" stroke-width="6.38815" stroke-miterlimit="10"/>
<path d="M1276.22 1385.76L1276.22 959.791L1384.04 959.791C1392.53 985.646 1398.59 1012.24 1402.12 1039.23C1418.67 1167.91 1407.05 1359.53 1276.22 1385.76Z" stroke="#BCBCBC" stroke-width="6.38815" stroke-miterlimit="10"/>
<path d="M1276.22 1095.79L1407.6 1095.79" stroke="#BCBCBC" stroke-width="6.38815" stroke-miterlimit="10"/>
<path d="M1276.22 1221.06L1400.72 1221.06" stroke="#BCBCBC" stroke-width="6.38815" stroke-miterlimit="10"/>
</svg>
